<?xml version="1.0" encoding="UTF-8" standalone="no"?><svg xmlns="http://www.w3.org/2000/svg" xmlns:xlink="http://www.w3.org/1999/xlink" contentScriptType="application/ecmascript" contentStyleType="text/css" height="285px" preserveAspectRatio="none" style="width:852px;height:285px;background:#FFFFFF;" version="1.1" viewBox="0 0 852 285" width="852px" zoomAndPan="magnify"><defs><filter height="300%" id="f1jq08dtquryp8" width="300%" x="-1" y="-1"><feGaussianBlur result="blurOut" stdDeviation="2.0"/><feColorMatrix in="blurOut" result="blurOut2" type="matrix" values="0 0 0 0 0 0 0 0 0 0 0 0 0 0 0 0 0 0 .4 0"/><feOffset dx="4.0" dy="4.0" in="blurOut2" result="blurOut3"/><feBlend in="SourceGraphic" in2="blurOut3" mode="normal"/></filter></defs><g><!--MD5=[21b310bca1ed22fa6b4a0afc8db5931a]
class TOMLASTNode--><rect codeLine="6" fill="#FEFECE" filter="url(#f1jq08dtquryp8)" height="48" id="TOMLASTNode" style="stroke:#000000;stroke-width:1.5;" width="120" x="374.5" y="7"/><ellipse cx="389.5" cy="23" fill="#ADD1B2" rx="11" ry="11" style="stroke:#000000;stroke-width:1.0;"/><path d="M392.4688,28.6406 Q391.8906,28.9375 391.25,29.0781 Q390.6094,29.2344 389.9063,29.2344 Q387.4063,29.2344 386.0781,27.5938 Q384.7656,25.9375 384.7656,22.8125 Q384.7656,19.6875 386.0781,18.0313 Q387.4063,16.375 389.9063,16.375 Q390.6094,16.375 391.25,16.5313 Q391.9063,16.6875 392.4688,16.9844 L392.4688,19.7031 Q391.8438,19.125 391.25,18.8594 Q390.6563,18.5781 390.0313,18.5781 Q388.6875,18.5781 388,19.6563 Q387.3125,20.7188 387.3125,22.8125 Q387.3125,24.9063 388,25.9844 Q388.6875,27.0469 390.0313,27.0469 Q390.6563,27.0469 391.25,26.7813 Q391.8438,26.5 392.4688,25.9219 L392.4688,28.6406 Z " fill="#000000"/><text fill="#000000" font-family="sans-serif" font-size="12" lengthAdjust="spacing" textLength="88" x="403.5" y="27.1543">TOMLASTNode</text><line style="stroke:#000000;stroke-width:1.5;" x1="375.5" x2="493.5" y1="39" y2="39"/><line style="stroke:#000000;stroke-width:1.5;" x1="375.5" x2="493.5" y1="47" y2="47"/><!--MD5=[f6ba87a3d84f259c46064c162e735f6e]
class CompositeNode--><rect codeLine="7" fill="#FEFECE" filter="url(#f1jq08dtquryp8)" height="48" id="CompositeNode" style="stroke:#000000;stroke-width:1.5;" width="131" x="369" y="115"/><ellipse cx="384" cy="131" fill="#ADD1B2" rx="11" ry="11" style="stroke:#000000;stroke-width:1.0;"/><path d="M386.9688,136.6406 Q386.3906,136.9375 385.75,137.0781 Q385.1094,137.2344 384.4063,137.2344 Q381.9063,137.2344 380.5781,135.5938 Q379.2656,133.9375 379.2656,130.8125 Q379.2656,127.6875 380.5781,126.0313 Q381.9063,124.375 384.4063,124.375 Q385.1094,124.375 385.75,124.5313 Q386.4063,124.6875 386.9688,124.9844 L386.9688,127.7031 Q386.3438,127.125 385.75,126.8594 Q385.1563,126.5781 384.5313,126.5781 Q383.1875,126.5781 382.5,127.6563 Q381.8125,128.7188 381.8125,130.8125 Q381.8125,132.9063 382.5,133.9844 Q383.1875,135.0469 384.5313,135.0469 Q385.1563,135.0469 385.75,134.7813 Q386.3438,134.5 386.9688,133.9219 L386.9688,136.6406 Z " fill="#000000"/><text fill="#000000" font-family="sans-serif" font-size="12" lengthAdjust="spacing" textLength="99" x="398" y="135.1543">CompositeNode</text><line style="stroke:#000000;stroke-width:1.5;" x1="370" x2="499" y1="147" y2="147"/><line style="stroke:#000000;stroke-width:1.5;" x1="370" x2="499" y1="155" y2="155"/><!--MD5=[d1f9b390e8f25882f5bed0e3cc3ede0d]
class TOMLArrayNode--><rect codeLine="8" fill="#FEFECE" filter="url(#f1jq08dtquryp8)" height="48" id="TOMLArrayNode" style="stroke:#000000;stroke-width:1.5;" width="129" x="7" y="223"/><ellipse cx="22" cy="239" fill="#ADD1B2" rx="11" ry="11" style="stroke:#000000;stroke-width:1.0;"/><path d="M24.9688,244.6406 Q24.3906,244.9375 23.75,245.0781 Q23.1094,245.2344 22.4063,245.2344 Q19.9063,245.2344 18.5781,243.5938 Q17.2656,241.9375 17.2656,238.8125 Q17.2656,235.6875 18.5781,234.0313 Q19.9063,232.375 22.4063,232.375 Q23.1094,232.375 23.75,232.5313 Q24.4063,232.6875 24.9688,232.9844 L24.9688,235.7031 Q24.3438,235.125 23.75,234.8594 Q23.1563,234.5781 22.5313,234.5781 Q21.1875,234.5781 20.5,235.6563 Q19.8125,236.7188 19.8125,238.8125 Q19.8125,240.9063 20.5,241.9844 Q21.1875,243.0469 22.5313,243.0469 Q23.1563,243.0469 23.75,242.7813 Q24.3438,242.5 24.9688,241.9219 L24.9688,244.6406 Z " fill="#000000"/><text fill="#000000" font-family="sans-serif" font-size="12" lengthAdjust="spacing" textLength="97" x="36" y="243.1543">TOMLArrayNode</text><line style="stroke:#000000;stroke-width:1.5;" x1="8" x2="135" y1="255" y2="255"/><line style="stroke:#000000;stroke-width:1.5;" x1="8" x2="135" y1="263" y2="263"/><!--MD5=[95d08886699dff9032c2fef9df0f7b5f]
class TOMLDottedKeyNode--><rect codeLine="9" fill="#FEFECE" filter="url(#f1jq08dtquryp8)" height="48" id="TOMLDottedKeyNode" style="stroke:#000000;stroke-width:1.5;" width="161" x="171" y="223"/><ellipse cx="186" cy="239" fill="#ADD1B2" rx="11" ry="11" style="stroke:#000000;stroke-width:1.0;"/><path d="M188.9688,244.6406 Q188.3906,244.9375 187.75,245.0781 Q187.1094,245.2344 186.4063,245.2344 Q183.9063,245.2344 182.5781,243.5938 Q181.2656,241.9375 181.2656,238.8125 Q181.2656,235.6875 182.5781,234.0313 Q183.9063,232.375 186.4063,232.375 Q187.1094,232.375 187.75,232.5313 Q188.4063,232.6875 188.9688,232.9844 L188.9688,235.7031 Q188.3438,235.125 187.75,234.8594 Q187.1563,234.5781 186.5313,234.5781 Q185.1875,234.5781 184.5,235.6563 Q183.8125,236.7188 183.8125,238.8125 Q183.8125,240.9063 184.5,241.9844 Q185.1875,243.0469 186.5313,243.0469 Q187.1563,243.0469 187.75,242.7813 Q188.3438,242.5 188.9688,241.9219 L188.9688,244.6406 Z " fill="#000000"/><text fill="#000000" font-family="sans-serif" font-size="12" lengthAdjust="spacing" textLength="129" x="200" y="243.1543">TOMLDottedKeyNode</text><line style="stroke:#000000;stroke-width:1.5;" x1="172" x2="331" y1="255" y2="255"/><line style="stroke:#000000;stroke-width:1.5;" x1="172" x2="331" y1="263" y2="263"/><!--MD5=[ed48eb93958f396549e9db012e7e1ccb]
class TOMLITableNode--><rect codeLine="10" fill="#FEFECE" filter="url(#f1jq08dtquryp8)" height="48" id="TOMLITableNode" style="stroke:#000000;stroke-width:1.5;" width="134" x="367.5" y="223"/><ellipse cx="382.5" cy="239" fill="#ADD1B2" rx="11" ry="11" style="stroke:#000000;stroke-width:1.0;"/><path d="M385.4688,244.6406 Q384.8906,244.9375 384.25,245.0781 Q383.6094,245.2344 382.9063,245.2344 Q380.4063,245.2344 379.0781,243.5938 Q377.7656,241.9375 377.7656,238.8125 Q377.7656,235.6875 379.0781,234.0313 Q380.4063,232.375 382.9063,232.375 Q383.6094,232.375 384.25,232.5313 Q384.9063,232.6875 385.4688,232.9844 L385.4688,235.7031 Q384.8438,235.125 384.25,234.8594 Q383.6563,234.5781 383.0313,234.5781 Q381.6875,234.5781 381,235.6563 Q380.3125,236.7188 380.3125,238.8125 Q380.3125,240.9063 381,241.9844 Q381.6875,243.0469 383.0313,243.0469 Q383.6563,243.0469 384.25,242.7813 Q384.8438,242.5 385.4688,241.9219 L385.4688,244.6406 Z " fill="#000000"/><text fill="#000000" font-family="sans-serif" font-size="12" lengthAdjust="spacing" textLength="102" x="396.5" y="243.1543">TOMLITableNode</text><line style="stroke:#000000;stroke-width:1.5;" x1="368.5" x2="500.5" y1="255" y2="255"/><line style="stroke:#000000;stroke-width:1.5;" x1="368.5" x2="500.5" y1="263" y2="263"/><!--MD5=[5d66bd324c4ce59ac4784b388a552f5b]
class TOMLKeyvalNode--><rect codeLine="11" fill="#FEFECE" filter="url(#f1jq08dtquryp8)" height="48" id="TOMLKeyvalNode" style="stroke:#000000;stroke-width:1.5;" width="135" x="537" y="223"/><ellipse cx="552" cy="239" fill="#ADD1B2" rx="11" ry="11" style="stroke:#000000;stroke-width:1.0;"/><path d="M554.9688,244.6406 Q554.3906,244.9375 553.75,245.0781 Q553.1094,245.2344 552.4063,245.2344 Q549.9063,245.2344 548.5781,243.5938 Q547.2656,241.9375 547.2656,238.8125 Q547.2656,235.6875 548.5781,234.0313 Q549.9063,232.375 552.4063,232.375 Q553.1094,232.375 553.75,232.5313 Q554.4063,232.6875 554.9688,232.9844 L554.9688,235.7031 Q554.3438,235.125 553.75,234.8594 Q553.1563,234.5781 552.5313,234.5781 Q551.1875,234.5781 550.5,235.6563 Q549.8125,236.7188 549.8125,238.8125 Q549.8125,240.9063 550.5,241.9844 Q551.1875,243.0469 552.5313,243.0469 Q553.1563,243.0469 553.75,242.7813 Q554.3438,242.5 554.9688,241.9219 L554.9688,244.6406 Z " fill="#000000"/><text fill="#000000" font-family="sans-serif" font-size="12" lengthAdjust="spacing" textLength="103" x="566" y="243.1543">TOMLKeyvalNode</text><line style="stroke:#000000;stroke-width:1.5;" x1="538" x2="671" y1="255" y2="255"/><line style="stroke:#000000;stroke-width:1.5;" x1="538" x2="671" y1="263" y2="263"/><!--MD5=[491412165ae3264ab341b5b7e25714d6]
class TOMLLiteralNode--><rect codeLine="12" fill="#FEFECE" filter="url(#f1jq08dtquryp8)" height="48" id="TOMLLiteralNode" style="stroke:#000000;stroke-width:1.5;" width="135" x="535" y="115"/><ellipse cx="550" cy="131" fill="#ADD1B2" rx="11" ry="11" style="stroke:#000000;stroke-width:1.0;"/><path d="M552.9688,136.6406 Q552.3906,136.9375 551.75,137.0781 Q551.1094,137.2344 550.4063,137.2344 Q547.9063,137.2344 546.5781,135.5938 Q545.2656,133.9375 545.2656,130.8125 Q545.2656,127.6875 546.5781,126.0313 Q547.9063,124.375 550.4063,124.375 Q551.1094,124.375 551.75,124.5313 Q552.4063,124.6875 552.9688,124.9844 L552.9688,127.7031 Q552.3438,127.125 551.75,126.8594 Q551.1563,126.5781 550.5313,126.5781 Q549.1875,126.5781 548.5,127.6563 Q547.8125,128.7188 547.8125,130.8125 Q547.8125,132.9063 548.5,133.9844 Q549.1875,135.0469 550.5313,135.0469 Q551.1563,135.0469 551.75,134.7813 Q552.3438,134.5 552.9688,133.9219 L552.9688,136.6406 Z " fill="#000000"/><text fill="#000000" font-family="sans-serif" font-size="12" lengthAdjust="spacing" textLength="103" x="564" y="135.1543">TOMLLiteralNode</text><line style="stroke:#000000;stroke-width:1.5;" x1="536" x2="669" y1="147" y2="147"/><line style="stroke:#000000;stroke-width:1.5;" x1="536" x2="669" y1="155" y2="155"/><!--MD5=[a26d69d81a9be21eda7d7403194228b5]
class TOMLTableNode--><rect codeLine="13" fill="#FEFECE" filter="url(#f1jq08dtquryp8)" height="48" id="TOMLTableNode" style="stroke:#000000;stroke-width:1.5;" width="131" x="707" y="223"/><ellipse cx="722" cy="239" fill="#ADD1B2" rx="11" ry="11" style="stroke:#000000;stroke-width:1.0;"/><path d="M724.9688,244.6406 Q724.3906,244.9375 723.75,245.0781 Q723.1094,245.2344 722.4063,245.2344 Q719.9063,245.2344 718.5781,243.5938 Q717.2656,241.9375 717.2656,238.8125 Q717.2656,235.6875 718.5781,234.0313 Q719.9063,232.375 722.4063,232.375 Q723.1094,232.375 723.75,232.5313 Q724.4063,232.6875 724.9688,232.9844 L724.9688,235.7031 Q724.3438,235.125 723.75,234.8594 Q723.1563,234.5781 722.5313,234.5781 Q721.1875,234.5781 720.5,235.6563 Q719.8125,236.7188 719.8125,238.8125 Q719.8125,240.9063 720.5,241.9844 Q721.1875,243.0469 722.5313,243.0469 Q723.1563,243.0469 723.75,242.7813 Q724.3438,242.5 724.9688,241.9219 L724.9688,244.6406 Z " fill="#000000"/><text fill="#000000" font-family="sans-serif" font-size="12" lengthAdjust="spacing" textLength="99" x="736" y="243.1543">TOMLTableNode</text><line style="stroke:#000000;stroke-width:1.5;" x1="708" x2="837" y1="255" y2="255"/><line style="stroke:#000000;stroke-width:1.5;" x1="708" x2="837" y1="263" y2="263"/><!--MD5=[4588b63e32c93a30013e6d8c413f6b18]
reverse link TOMLASTNode to TOMLLiteralNode--><path codeLine="16" d="M488.09,65.81 C513.45,81.81 543.08,100.51 565.83,114.86 " fill="none" id="TOMLASTNode-backto-TOMLLiteralNode" style="stroke:#000000;stroke-width:1.0;"/><polygon fill="none" points="484.13,71.59,470.95,55,491.6,59.75,484.13,71.59" style="stroke:#000000;stroke-width:1.0;"/><!--MD5=[845492e0a1b510bfd5e71fe585ac0bd1]
reverse link TOMLASTNode to CompositeNode--><path codeLine="17" d="M421.95,75.02 C421.4,88.58 421.99,103.04 423.73,114.68 " fill="none" id="TOMLASTNode-backto-CompositeNode" style="stroke:#000000;stroke-width:1.0;"/><polygon fill="none" points="414.99,74.28,423.77,55,428.93,75.55,414.99,74.28" style="stroke:#000000;stroke-width:1.0;"/><!--MD5=[a888b4e1fb2703f5675a059ba404dab1]
reverse link CompositeNode to TOMLASTNode--><path codeLine="18" d="M447.42,101.3 C448.55,85.92 448.03,68.52 445.86,55 " fill="none" id="CompositeNode-backto-TOMLASTNode" style="stroke:#000000;stroke-width:1.0;"/><polygon fill="none" points="445.91,114.68,450.5568,109.1657,447.254,102.7555,442.6072,108.2698,445.91,114.68" style="stroke:#000000;stroke-width:1.0;"/><ellipse cx="371.9179" cy="70.7217" fill="#000000" rx="2.5" ry="2.5" style="stroke:#000000;stroke-width:0.0;"/><text fill="#000000" font-family="sans-serif" font-size="13" lengthAdjust="spacing" textLength="62" x="377.4179" y="75.1558">subnodes</text><!--MD5=[fa9ea9911a96507d9cadbb925ce0f8ae]
reverse link CompositeNode to TOMLArrayNode--><path codeLine="19" d="M349.34,164.87 C284.14,183.91 195.59,209.77 136.14,227.13 " fill="none" id="CompositeNode-backto-TOMLArrayNode" style="stroke:#000000;stroke-width:1.0;"/><polygon fill="none" points="347.6,158.08,368.76,159.2,351.53,171.52,347.6,158.08" style="stroke:#000000;stroke-width:1.0;"/><!--MD5=[33a541a7e91b4c0f3530b8080e189be0]
reverse link CompositeNode to TOMLDottedKeyNode--><path codeLine="20" d="M377.32,173.12 C349.44,189.27 316.59,208.3 291.45,222.86 " fill="none" id="CompositeNode-backto-TOMLDottedKeyNode" style="stroke:#000000;stroke-width:1.0;"/><polygon fill="none" points="373.98,166.97,394.79,163,380.99,179.08,373.98,166.97" style="stroke:#000000;stroke-width:1.0;"/><!--MD5=[18cc58fe8537d347c50c4253677529de]
reverse link CompositeNode to TOMLITableNode--><path codeLine="21" d="M434.5,183.02 C434.5,196.58 434.5,211.04 434.5,222.68 " fill="none" id="CompositeNode-backto-TOMLITableNode" style="stroke:#000000;stroke-width:1.0;"/><polygon fill="none" points="427.5,183,434.5,163,441.5,183,427.5,183" style="stroke:#000000;stroke-width:1.0;"/><!--MD5=[4603b56ca396a9bbe83627bcf4a0fb2a]
reverse link CompositeNode to TOMLKeyvalNode--><path codeLine="22" d="M488.36,173.58 C514.1,189.63 544.26,208.44 567.39,222.86 " fill="none" id="CompositeNode-backto-TOMLKeyvalNode" style="stroke:#000000;stroke-width:1.0;"/><polygon fill="none" points="484.65,179.52,471.39,163,492.06,167.64,484.65,179.52" style="stroke:#000000;stroke-width:1.0;"/><!--MD5=[f404edd405fb3e9ee5dddc45ce0598c8]
reverse link CompositeNode to TOMLTableNode--><path codeLine="23" d="M519.42,166.63 C577.5,184.85 653.36,208.64 706.82,225.4 " fill="none" id="CompositeNode-backto-TOMLTableNode" style="stroke:#000000;stroke-width:1.0;"/><polygon fill="none" points="517.06,173.23,500.07,160.56,521.25,159.87,517.06,173.23" style="stroke:#000000;stroke-width:1.0;"/><!--MD5=[b8710744a58cc6a7ac6c19a80302c06d]
@startuml
skinparam class {
    BorderColor Black
    ArrowColor Black
  }
  ' == CLASSES =========================
  class TOMLASTNode
  class CompositeNode
  class TOMLArrayNode
  class TOMLDottedKeyNode
  class TOMLITableNode
  class TOMLKeyvalNode
  class TOMLLiteralNode
  class TOMLTableNode

  ' == RELATIONSHIPS ===================
  TOMLASTNode <|- - TOMLLiteralNode
  TOMLASTNode <|- - CompositeNode
  CompositeNode o- - "* subnodes" TOMLASTNode
  CompositeNode <|- - TOMLArrayNode
  CompositeNode <|- - TOMLDottedKeyNode
  CompositeNode <|- - TOMLITableNode
  CompositeNode <|- - TOMLKeyvalNode  
  CompositeNode <|- - TOMLTableNode
@enduml

@startuml
skinparam class {
    BorderColor Black
    ArrowColor Black
  }
  class TOMLASTNode
  class CompositeNode
  class TOMLArrayNode
  class TOMLDottedKeyNode
  class TOMLITableNode
  class TOMLKeyvalNode
  class TOMLLiteralNode
  class TOMLTableNode

  TOMLASTNode <|- - TOMLLiteralNode
  TOMLASTNode <|- - CompositeNode
  CompositeNode o- - "* subnodes" TOMLASTNode
  CompositeNode <|- - TOMLArrayNode
  CompositeNode <|- - TOMLDottedKeyNode
  CompositeNode <|- - TOMLITableNode
  CompositeNode <|- - TOMLKeyvalNode  
  CompositeNode <|- - TOMLTableNode
@enduml

PlantUML version 1.2022.1(Tue Feb 01 18:19:58 UTC 2022)
(GPL source distribution)
Java Runtime: OpenJDK Runtime Environment
JVM: OpenJDK 64-Bit Server VM
Default Encoding: UTF-8
Language: en
Country: null
--></g></svg>