<?xml version="1.0" encoding="UTF-8" standalone="no"?><svg xmlns="http://www.w3.org/2000/svg" xmlns:xlink="http://www.w3.org/1999/xlink" contentScriptType="application/ecmascript" contentStyleType="text/css" height="277px" preserveAspectRatio="none" style="width:739px;height:277px;background:#FFFFFF;" version="1.1" viewBox="0 0 739 277" width="739px" zoomAndPan="magnify"><defs><filter height="300%" id="f1078oghr0oru6" width="300%" x="-1" y="-1"><feGaussianBlur result="blurOut" stdDeviation="2.0"/><feColorMatrix in="blurOut" result="blurOut2" type="matrix" values="0 0 0 0 0 0 0 0 0 0 0 0 0 0 0 0 0 0 .4 0"/><feOffset dx="4.0" dy="4.0" in="blurOut2" result="blurOut3"/><feBlend in="SourceGraphic" in2="blurOut3" mode="normal"/></filter></defs><g><text fill="#000000" font-family="sans-serif" font-size="18" lengthAdjust="spacing" textLength="401" x="162.75" y="16.708">Positioning the parser in a typical compiler</text><!--MD5=[5e572db9c91b7d39dfcd628b9bc12a61]
class Character\nstream--><polygon fill="#FFFFFF" filter="url(#f1078oghr0oru6)" points="8,27.9531,8,28.1633,18.6667,27.5388,29.3333,28.1464,40,28.3528,50.6667,27.2397,61.3333,27.8754,72,27.9531,71.8578,27.9531,71.8722,35.5406,71.9773,43.1281,71.7695,50.7156,72.1845,58.3031,72,65.8906,72,65.2603,61.3333,65.6929,50.6667,66.3226,40,65.8048,29.3333,65.9589,18.6667,65.8587,8,65.8906,8.0595,65.8906,8.0797,58.3031,8.1952,50.7156,8.2237,43.1281,8.2264,35.5406,8,27.9531" style="stroke:#FFFFFF;stroke-width:2.0;"/><text fill="#000000" font-family="sans-serif" font-size="12" lengthAdjust="spacing" textLength="58" x="11" y="44.0918">Character</text><text fill="#000000" font-family="sans-serif" font-size="12" lengthAdjust="spacing" textLength="42" x="19" y="58.0605">stream</text><!--MD5=[7763e024349b4cac7a01779176319d84]
class Tokenizer--><polygon fill="#D3D3D3" filter="url(#f1078oghr0oru6)" points="7,133.9531,7,134.1633,16.4286,133.5388,25.8571,134.1464,35.2857,134.3528,44.7143,133.2397,54.1429,133.8754,63.5714,133.5266,73,133.9531,72.8722,133.9531,72.9773,138.7469,72.7695,143.5406,73.1845,148.3344,72.7899,153.1281,73,157.9219,73,157.7241,63.5714,158.3538,54.1429,157.8361,44.7143,157.9901,35.2857,157.8899,25.8571,158.1004,16.4286,158.161,7,157.9219,7.1952,157.9219,7.2237,153.1281,7.2264,148.3344,7.0849,143.5406,7.1545,138.7469,7,133.9531" style="stroke:#A9A9A9;stroke-width:2.0;"/><text fill="#000000" font-family="sans-serif" font-size="12" lengthAdjust="spacing" textLength="60" x="10" y="150.0918">Tokenizer</text><!--MD5=[5fb322cb81d66d67b90634fed9579b86]
class parser--><polygon fill="#FFA500" filter="url(#f1078oghr0oru6)" points="156,133.9531,156,134.1633,165.7143,133.5388,175.4286,134.1464,185.1429,134.3528,194.8571,133.2397,204.5714,133.8754,214.2857,133.5266,224,133.9531,223.8722,133.9531,223.9773,138.7469,223.7695,143.5406,224.1845,148.3344,223.7899,153.1281,224,157.9219,224,157.7241,214.2857,158.3538,204.5714,157.8361,194.8571,157.9901,185.1429,157.8899,175.4286,158.1004,165.7143,158.161,156,157.9219,156.1952,157.9219,156.2237,153.1281,156.2264,148.3344,156.0849,143.5406,156.1545,138.7469,156,133.9531" style="stroke:#FFA500;stroke-width:2.0;"/><text fill="#000000" font-family="sans-serif" font-size="12" lengthAdjust="spacing" textLength="38" x="171" y="150.0918">Parser</text><!--MD5=[8d656b3404d97a6b3520c0b9bc5a4806]
class semantic--><polygon fill="#D3D3D3" filter="url(#f1078oghr0oru6)" points="305.5,126.9531,305.5,127.1633,315.6667,126.5388,325.8333,127.1464,336,127.3528,346.1667,126.2397,356.3333,126.8754,366.5,126.9531,366.3578,126.9531,366.3722,134.5406,366.4773,142.1281,366.2695,149.7156,366.6845,157.3031,366.5,164.8906,366.5,164.2603,356.3333,164.6929,346.1667,165.3226,336,164.8048,325.8333,164.9589,315.6667,164.8587,305.5,164.8906,305.5595,164.8906,305.5797,157.3031,305.6952,149.7156,305.7237,142.1281,305.7264,134.5406,305.5,126.9531" style="stroke:#A9A9A9;stroke-width:2.0;"/><text fill="#000000" font-family="sans-serif" font-size="12" lengthAdjust="spacing" textLength="55" x="308.5" y="143.0918">Semantic</text><text fill="#000000" font-family="sans-serif" font-size="12" lengthAdjust="spacing" textLength="51" x="310.5" y="157.0605">Routines</text><!--MD5=[6c28647a76747a4e77fc269c0c63e07e]
class Optimizers--><polygon fill="#D3D3D3" filter="url(#f1078oghr0oru6)" points="467,232.9531,467,233.1633,477.2857,232.5388,487.5714,233.1464,497.8571,233.3528,508.1429,232.2397,518.4286,232.8754,528.7143,232.5266,539,232.9531,538.8722,232.9531,538.9773,237.7469,538.7695,242.5406,539.1845,247.3344,538.7899,252.1281,539,256.9219,539,256.7241,528.7143,257.3538,518.4286,256.8361,508.1429,256.9901,497.8571,256.8899,487.5714,257.1004,477.2857,257.161,467,256.9219,467.1952,256.9219,467.2237,252.1281,467.2264,247.3344,467.0849,242.5406,467.1545,237.7469,467,232.9531" style="stroke:#A9A9A9;stroke-width:2.0;"/><text fill="#000000" font-family="sans-serif" font-size="12" lengthAdjust="spacing" textLength="66" x="470" y="249.0918">Optimizers</text><!--MD5=[dd71179583cce17ecb14726d47c32e81]
class generator--><polygon fill="#D3D3D3" filter="url(#f1078oghr0oru6)" points="540,126.9531,540,127.1633,549.4286,126.5388,558.8571,127.1464,568.2857,127.3528,577.7143,126.2397,587.1429,126.8754,596.5714,126.5266,606,126.9531,605.8722,126.9531,605.9773,134.5406,605.7695,142.1281,606.1845,149.7156,605.7899,157.3031,606,164.8906,606,164.6929,596.5714,165.3226,587.1429,164.8048,577.7143,164.9589,568.2857,164.8587,558.8571,165.0692,549.4286,165.1298,540,164.8906,540.1952,164.8906,540.2237,157.3031,540.2264,149.7156,540.0849,142.1281,540.1545,134.5406,540,126.9531" style="stroke:#A9A9A9;stroke-width:2.0;"/><text fill="#000000" font-family="sans-serif" font-size="12" lengthAdjust="spacing" textLength="32" x="557" y="143.0918">Code</text><text fill="#000000" font-family="sans-serif" font-size="12" lengthAdjust="spacing" textLength="60" x="543" y="157.0605">generator</text><!--MD5=[205d9983e3b5ecca6983c69622840455]
class peephole--><polygon fill="#D3D3D3" filter="url(#f1078oghr0oru6)" points="611.5,225.9531,611.5,226.1633,622,225.5388,632.5,226.1464,643,226.3528,653.5,225.2397,664,225.8754,674.5,225.9531,674.3578,225.9531,674.3722,233.5406,674.4773,241.1281,674.2695,248.7156,674.6845,256.3031,674.5,263.8906,674.5,263.2603,664,263.6929,653.5,264.3226,643,263.8048,632.5,263.9589,622,263.8587,611.5,263.8906,611.5595,263.8906,611.5797,256.3031,611.6952,248.7156,611.7237,241.1281,611.7264,233.5406,611.5,225.9531" style="stroke:#A9A9A9;stroke-width:2.0;"/><text fill="#000000" font-family="sans-serif" font-size="12" lengthAdjust="spacing" textLength="56" x="615" y="242.0918">Peephole</text><text fill="#000000" font-family="sans-serif" font-size="12" lengthAdjust="spacing" textLength="57" x="614.5" y="256.0605">optimizer</text><!--MD5=[ad234e2a2a0592f778426242bed0b57b]
class Target\ncode--><polygon fill="#FFFFFF" filter="url(#f1078oghr0oru6)" points="680.5,126.9531,680.5,127.1633,689.5,126.5388,698.5,127.1464,707.5,127.3528,716.5,126.2397,725.5,126.9531,725.4741,126.9531,725.3578,134.5406,725.3722,142.1281,725.4773,149.7156,725.2695,157.3031,725.5,164.8906,725.5,165.4443,716.5,164.2603,707.5,164.6929,698.5,165.3226,689.5,164.8048,680.5,164.8906,680.5227,164.8906,680.4894,157.3031,680.5595,149.7156,680.5797,142.1281,680.6952,134.5406,680.5,126.9531" style="stroke:#FFFFFF;stroke-width:2.0;"/><text fill="#000000" font-family="sans-serif" font-size="12" lengthAdjust="spacing" textLength="39" x="683.5" y="143.0918">Target</text><text fill="#000000" font-family="sans-serif" font-size="12" lengthAdjust="spacing" textLength="31" x="687.5" y="157.0605">code</text><polygon fill="#000000" points="505.011,146.4396,504.7179,146.8402,504.3711,147.4269,503.8752,147.8223,503.3541,148.0385,502.9385,148.0573,502.4045,147.7869,501.9006,147.6102,501.5181,147.2515,501.3175,146.8409,501.1985,146.5139,501.0819,146.0869,500.8927,145.7194,501.0381,145.3606,501.1655,144.9675,501.6435,144.6567,501.9798,144.2533,502.3961,144.1194,502.8909,144.004,503.5255,144.0726,503.8731,144.2365,504.2772,144.3108,504.7686,144.8142,504.9399,145.3457,505.0143,145.7083,504.93,146.3058" style="stroke:none;stroke-width:1.0;"/><polygon fill="#000000" points="645.011,146.4396,644.7179,146.8402,644.3711,147.4269,643.8752,147.8223,643.3541,148.0385,642.9385,148.0573,642.4045,147.7869,641.9006,147.6102,641.5181,147.2515,641.3175,146.8409,641.1985,146.5139,641.0819,146.0869,640.8927,145.7194,641.0381,145.3606,641.1655,144.9675,641.6435,144.6567,641.9798,144.2533,642.3961,144.1194,642.8909,144.004,643.5255,144.0726,643.8731,144.2365,644.2772,144.3108,644.7686,144.8142,644.9399,145.3457,645.0143,145.7083,644.93,146.3058" style="stroke:none;stroke-width:1.0;"/><!--MD5=[ced91c6bef60f06a46e40d0ba52cd29a]
link Character\nstream to Tokenizer--><path d="M40,66.1981 L40.2802,66.1981 L39.4476,76.6208 L40.2577,87.0435 L40.5329,97.4661 L39.0488,107.8888 L39.8964,118.3115 L40,128.7341 " fill="none" style="stroke:#A80036;stroke-width:1.0;"/><polygon fill="#A80036" points="40,133.7501,40.064,133.7786,40.6738,131.894,41.6589,130.1763,42.5217,128.4042,42.9827,126.4535,44,124.7501,43.9817,124.7318,43.0995,125.4496,42.3096,126.2597,41.5839,127.1341,40.637,127.7872,40,128.7501,40.1305,128.8806,39.0514,127.8016,38.3534,127.1035,37.7018,126.4519,36.7798,125.5299,36,124.7501,36.0208,124.7594,36.7903,126.5458,37.6544,128.3743,38.4728,130.1825,39.3784,132.0294,40,133.7501" style="stroke:#A80036;stroke-width:1.0;"/><!--MD5=[8fed50b5e99dac3d2d29e526d1717eae]
link Tokenizer to parser--><path d="M73.2899,145.9531 L73.2899,146.2334 L82.9698,145.4007 L92.6497,146.2108 L102.3296,146.486 L112.0095,145.0019 L121.6893,145.8495 L131.3692,145.3845 L141.0491,145.4418 L150.729,145.9531 " fill="none" style="stroke:#A80036;stroke-width:1.0;"/><polygon fill="#A80036" points="155.763,145.9531,155.7915,146.0171,153.9069,145.0269,152.1892,144.412,150.4171,143.6749,148.4664,142.5358,146.763,141.9531,146.7447,141.9348,147.4625,142.6526,148.2726,143.4627,149.1469,144.3371,149.8,144.9902,150.763,145.9531,150.8935,146.0836,149.8144,146.6046,149.1164,147.5065,148.4648,148.4549,147.5428,149.1329,146.763,149.9531,146.7722,149.9739,148.5587,149.1434,150.3872,148.4075,152.1954,147.626,154.0423,146.9315,155.763,145.9531" style="stroke:#A80036;stroke-width:1.0;"/><text fill="#000000" font-family="sans-serif" font-size="13" lengthAdjust="spacing" textLength="46" x="91.5" y="139.02">Tokens</text><!--MD5=[744818aa9881f185de4a8a165b38a1c6]
link parser to semantic--><path d="M224.231,145.9531 L224.231,146.2334 L233.7425,145.4007 L243.254,146.2108 L252.7655,146.486 L262.277,145.0019 L271.7885,145.8495 L281.3,145.3845 L290.8115,145.4418 L300.323,145.9531 " fill="none" style="stroke:#000000;stroke-width:1.0;"/><polygon fill="#000000" points="305.458,145.9531,305.4865,146.0171,303.6019,145.0269,301.8842,144.412,300.1121,143.6749,298.1614,142.5358,296.458,141.9531,296.4397,141.9348,297.1575,142.6526,297.9676,143.4627,298.8419,144.3371,299.495,144.9902,300.458,145.9531,300.5885,146.0836,299.5094,146.6046,298.8114,147.5065,298.1598,148.4549,297.2378,149.1329,296.458,149.9531,296.4672,149.9739,298.2537,149.1434,300.0822,148.4075,301.8904,147.626,303.7373,146.9315,305.458,145.9531" style="stroke:#000000;stroke-width:1.0;"/><text fill="#FFA500" font-family="sans-serif" font-size="13" lengthAdjust="spacing" textLength="45" x="242.25" y="124.02">Syntax</text><text fill="#FFA500" font-family="sans-serif" font-size="13" lengthAdjust="spacing" textLength="26" x="251.75" y="139.1528">tree</text><!--MD5=[ce45a73ee41375bb56568a6ca2666680]
link semantic to apoint1700537--><path d="M366.63,145.9531 L366.63,146.2334 L376.9493,145.4007 L387.2686,146.2108 L397.5879,146.486 L407.9072,145.0019 L418.2265,145.8495 L428.5458,145.3845 L438.8652,145.4418 L449.1845,145.8622 L459.5038,145.0313 L469.8231,146.6913 L480.1424,145.1128 L490.4617,145.6894 L500.781,145.9531 " fill="none" style="stroke:#A80036;stroke-width:1.0;"/><text fill="#000000" font-family="sans-serif" font-size="13" lengthAdjust="spacing" textLength="82" x="392.75" y="124.02">Intermediate</text><text fill="#000000" font-family="sans-serif" font-size="13" lengthAdjust="spacing" textLength="98" x="384.75" y="139.1528">Representation</text><!--MD5=[b013462351318cbe1f50ec1b0b284b21]
link apoint1700537 to generator--><path d="M505.188,145.9531 L505.188,146.0465 L511.098,145.769 L517.008,146.039 L522.918,146.1308 L528.828,145.6361 L534.738,145.9531 " fill="none" style="stroke:#A80036;stroke-width:1.0;"/><polygon fill="#A80036" points="539.888,145.9531,539.9165,146.0171,538.0319,145.0269,536.3142,144.412,534.5421,143.6749,532.5914,142.5358,530.888,141.9531,530.8697,141.9348,531.5875,142.6526,532.3976,143.4627,533.2719,144.3371,533.925,144.9902,534.888,145.9531,535.0185,146.0836,533.9394,146.6046,533.2414,147.5065,532.5898,148.4549,531.6678,149.1329,530.888,149.9531,530.8972,149.9739,532.6837,149.1434,534.5122,148.4075,536.3204,147.626,538.1673,146.9315,539.888,145.9531" style="stroke:#A80036;stroke-width:1.0;"/><!--MD5=[cc5a7ee767b9dd8174c8161b4147fcfd]
link apoint1700537 to Optimizers--><path d="M503,148.0421 L503.2802,148.0421 L502.4476,158.6223 L503.2577,169.2025 L503.5329,179.7827 L502.0488,190.3629 L502.8964,200.9431 L502.4313,211.5233 L502.4887,222.1035 L503,232.6837 " fill="none" style="stroke:#A80036;stroke-width:1.0;stroke-dasharray:7.0,7.0;"/><!--MD5=[8163242091b761b13acea357cbf42c2d]
link generator to apoint1700543--><path d="M606.086,145.9531 L606.086,146.0465 L613.065,145.769 L620.044,146.039 L627.023,146.1308 L634.002,145.6361 L640.981,145.9531 " fill="none" style="stroke:#A80036;stroke-width:1.0;"/><!--MD5=[9e4d68943870f29f4ce39d4a7318503e]
link apoint1700543 to Target\ncode--><path d="M645.344,145.9531 L645.344,146.0465 L651.3278,145.769 L657.3116,146.039 L663.2954,146.1308 L669.2792,145.6361 L675.263,145.9531 " fill="none" style="stroke:#A80036;stroke-width:1.0;"/><polygon fill="#A80036" points="680.478,145.9531,680.5065,146.0171,678.6219,145.0269,676.9042,144.412,675.1321,143.6749,673.1814,142.5358,671.478,141.9531,671.4597,141.9348,672.1775,142.6526,672.9876,143.4627,673.8619,144.3371,674.515,144.9902,675.478,145.9531,675.6085,146.0836,674.5294,146.6046,673.8314,147.5065,673.1798,148.4549,672.2578,149.1329,671.478,149.9531,671.4872,149.9739,673.2737,149.1434,675.1022,148.4075,676.9104,147.626,678.7573,146.9315,680.478,145.9531" style="stroke:#A80036;stroke-width:1.0;"/><!--MD5=[82e328bc69ef77237e3818b72baa4cb5]
link apoint1700543 to peephole--><path d="M643,148.0421 L643.2802,148.0421 L642.4476,157.7361 L643.2577,167.4301 L643.5329,177.1241 L642.0488,186.8181 L642.8964,196.5121 L642.4313,206.2061 L642.4887,215.9001 L643,225.5941 " fill="none" style="stroke:#A80036;stroke-width:1.0;stroke-dasharray:7.0,7.0;"/><!--MD5=[57b1dfe0798d9fd44441ec92cecbbda5]
@startuml
skinparam handwritten true
  title Positioning the parser in a typical compiler

  class Character\nstream #white ##[bold]white
  class Tokenizer #lightgrey ##[bold]darkgrey
  class "   Parser   " as parser  #orange ##[bold]orange
  class "Semantic\nRoutines" as semantic #lightgrey ##[bold]darkgrey
  class Optimizers #lightgrey ##[bold]darkgrey
  class "Code\ngenerator" as generator #lightgrey ##[bold]darkgrey
  class "Peephole\noptimizer" as peephole #lightgrey ##[bold]darkgrey
  class Target\ncode #white ##[bold]white

  hide members
  hide circle

  Character\nstream -down-> Tokenizer
  Tokenizer -> parser : Tokens
  parser -> semantic #line:black;text:orange : Syntax\ntree
  semantic -> generator : Intermediate\nRepresentation
  (semantic, generator) .. Optimizers
  generator ->  Target\ncode
  (generator, Target\ncode) .. peephole
@enduml

PlantUML version 1.2021.15beta8(Unknown compile time)
(GPL source distribution)
Java Runtime: Java(TM) SE Runtime Environment
JVM: Java HotSpot(TM) 64-Bit Server VM
Default Encoding: UTF-8
Language: en
Country: US
--></g></svg>