<?xml version="1.0" encoding="UTF-8" standalone="no"?><svg xmlns="http://www.w3.org/2000/svg" xmlns:xlink="http://www.w3.org/1999/xlink" contentScriptType="application/ecmascript" contentStyleType="text/css" height="400px" preserveAspectRatio="none" style="width:484px;height:400px;background:#FFFFFF;" version="1.1" viewBox="0 0 484 400" width="484px" zoomAndPan="magnify"><defs><filter height="300%" id="ftovzvyjznu5o" width="300%" x="-1" y="-1"><feGaussianBlur result="blurOut" stdDeviation="2.0"/><feColorMatrix in="blurOut" result="blurOut2" type="matrix" values="0 0 0 0 0 0 0 0 0 0 0 0 0 0 0 0 0 0 .4 0"/><feOffset dx="4.0" dy="4.0" in="blurOut2" result="blurOut3"/><feBlend in="SourceGraphic" in2="blurOut3" mode="normal"/></filter></defs><g><!--MD5=[5da8f06d7557285175f081f10e04cd48]
class ParseTree--><polygon fill="#FFFFFF" filter="url(#ftovzvyjznu5o)" points="298,7,298,7.2102,308,6.5857,318,7.1933,328,7.3997,338,6.2866,348,6.9223,358,6.5735,368,6.6165,378,6.9318,388,6.3086,398,7,398.5536,7,397.3697,17.5156,397.8022,28.0313,398.4319,38.5469,397.9142,49.0625,398.0682,59.5781,397.9681,70.0938,398,80.6094,398,80.7879,388,80.8485,378,81.1951,368,81.2804,358,81.2886,348,80.864,338,81.073,328,81.3116,318,79.8882,308,81.2879,298,80.6094,297.7035,80.6094,298.5338,70.0938,297.505,59.5781,297.9315,49.0625,298.7416,38.5469,297.9513,28.0313,298.1053,17.5156,298,7" style="stroke:#000000;stroke-width:1.5;"/><polygon fill="#ADD1B2" points="327.2108,25.6756,325.5984,27.8788,323.6912,31.1057,320.9636,33.2804,318.0974,34.4696,315.812,34.5728,312.8747,33.0855,310.1032,32.1139,307.9995,30.1412,306.8961,27.8828,306.2417,26.0845,305.6006,23.7357,304.56,21.7145,305.3596,19.741,306.0602,17.5792,308.6893,15.8695,310.539,13.6511,312.8284,12.9144,315.5501,12.2801,319.0404,12.657,320.9521,13.5585,323.1747,13.9672,325.8772,16.736,326.8193,19.659,327.2286,21.6534,326.765,24.9399" style="stroke:#000000;stroke-width:1.0;"/><path d="M318.4938,18.6719 C317.5563,18.2344 316.9625,18.0938 316.0875,18.0938 C313.4625,18.0938 311.4625,20.1719 311.4625,22.8906 L311.4625,24.0156 C311.4625,26.5938 313.5719,28.4844 316.4625,28.4844 C317.6813,28.4844 318.8375,28.1875 319.5875,27.6406 C320.1656,27.2344 320.4938,26.7813 320.4938,26.3906 C320.4938,25.9375 320.1031,25.5469 319.6344,25.5469 C319.4156,25.5469 319.2125,25.625 319.025,25.8125 C318.5719,26.2969 318.5719,26.2969 318.3844,26.3906 C317.9625,26.6563 317.275,26.7813 316.5094,26.7813 C314.4625,26.7813 313.1656,25.6875 313.1656,23.9844 L313.1656,22.8906 C313.1656,21.1094 314.4156,19.7969 316.15,19.7969 C316.7281,19.7969 317.3375,19.9531 317.8063,20.2031 C318.2906,20.4844 318.4625,20.7031 318.5563,21.1094 C318.6188,21.5156 318.65,21.6406 318.7906,21.7656 C318.9313,21.9063 319.1656,22.0156 319.3844,22.0156 C319.65,22.0156 319.9156,21.875 320.0875,21.6563 C320.1969,21.5 320.2281,21.3125 320.2281,20.8906 L320.2281,19.4688 C320.2281,19.0313 320.2125,18.9063 320.1188,18.75 C319.9625,18.4844 319.6813,18.3438 319.3844,18.3438 C319.0875,18.3438 318.8844,18.4375 318.6656,18.75 L318.4938,18.6719 Z " fill="#000000"/><text fill="#000000" font-family="sans-serif" font-size="12" lengthAdjust="spacing" textLength="61" x="330.85" y="27.1543">ParseTree</text><path d="M299,39 L299,39.2802 L308.8,38.4476 L318.6,39.2577 L328.4,39.5329 L338.2,38.0488 L348,38.8964 L357.8,38.4313 L367.6,38.4887 L377.4,38.9091 L387.2,38.0782 L397,39 " fill="#FFFFFF" style="stroke:#000000;stroke-width:1.5;"/><path d="M299,47 L299,47.2802 L308.8,46.4476 L318.6,47.2577 L328.4,47.5329 L338.2,46.0488 L348,46.8964 L357.8,46.4313 L367.6,46.4887 L377.4,46.9091 L387.2,46.0782 L397,47 " fill="#FFFFFF" style="stroke:#000000;stroke-width:1.5;"/><text fill="#000000" font-family="sans-serif" font-size="11" lengthAdjust="spacing" textLength="88" x="304" y="61.2104">accept(aVisitor)</text><text fill="#000000" font-family="sans-serif" font-size="11" lengthAdjust="spacing" textLength="42" x="304" y="74.0151">done!()</text><!--MD5=[7a61804bc74d5ff5946225f26aecd03a]
class ParseTreeNode--><polygon fill="#FFFFFF" filter="url(#ftovzvyjznu5o)" points="245,141,245,141.2102,254.8095,140.5857,264.619,141.1933,274.4286,141.3997,284.2381,140.2866,294.0476,140.9223,303.8571,140.5735,313.6667,140.6165,323.4762,140.9318,333.2857,140.3086,343.0952,141.5536,352.9048,140.3697,362.7143,140.8022,372.5238,141.4319,382.3333,140.9142,392.1429,141.0682,401.9524,140.9681,411.7619,141.1785,421.5714,141.2391,431.381,141.5857,441.1905,141.6711,451,141,451.6793,141,451.2546,150.9219,451.4636,160.8438,451.7022,170.7656,450.2788,180.6875,451.6785,190.6094,450.7035,200.5313,451.5338,210.4531,450.505,220.375,450.9315,230.2969,451,240.2188,451,240.9604,441.1905,240.17,431.381,240.3241,421.5714,240.5574,411.7619,240.635,401.9524,240.2148,392.1429,240.506,382.3333,239.6463,372.5238,240.5031,362.7143,240.7669,352.9048,240.6633,343.0952,240.8318,333.2857,239.7357,323.4762,239.5666,313.6667,239.5973,303.8571,240.1599,294.0476,240.0222,284.2381,240.9002,274.4286,240.0441,264.619,239.8757,254.8095,240.447,245,240.2188,244.3332,240.2188,244.4809,230.2969,245.649,220.375,245.4357,210.4531,245.7345,200.5313,244.6782,190.6094,245.3192,180.6875,245.5904,170.7656,244.5276,160.8438,244.9041,150.9219,245,141" style="stroke:#000000;stroke-width:1.5;"/><polygon fill="#A9DCDF" points="310.3108,159.6756,308.6984,161.8788,306.7912,165.1057,304.0636,167.2804,301.1974,168.4696,298.912,168.5728,295.9747,167.0855,293.2032,166.1139,291.0995,164.1412,289.9961,161.8828,289.3417,160.0845,288.7006,157.7357,287.66,155.7145,288.4596,153.741,289.1602,151.5792,291.7893,149.8695,293.639,147.6511,295.9284,146.9144,298.6501,146.2801,302.1404,146.657,304.0521,147.5585,306.2747,147.9672,308.9772,150.736,309.9193,153.659,310.3286,155.6534,309.865,158.9399" style="stroke:#000000;stroke-width:1.0;"/><path d="M301.3281,158.8125 L301.7188,159.7969 L301.3281,159.7969 C300.875,159.7969 300.7656,159.8125 300.6094,159.9219 C300.3594,160.0781 300.2031,160.3594 300.2031,160.6563 C300.2031,160.9219 300.3438,161.1719 300.5625,161.3281 C300.7031,161.4531 300.9063,161.5 301.3281,161.5 L303.6875,161.5 C304.0469,161.5 304.2656,161.4688 304.4063,161.375 C304.6563,161.2344 304.8125,160.9375 304.8125,160.6563 C304.8125,160.375 304.6719,160.125 304.4531,159.9688 C304.2813,159.8281 304.125,159.7969 303.6563,159.7969 L300.2656,151.5938 L296.5938,151.5938 C296.1406,151.5938 296.0156,151.6094 295.8594,151.7031 C295.6094,151.875 295.4531,152.1563 295.4531,152.4375 C295.4531,152.7188 295.5938,152.9688 295.8125,153.1406 C295.9844,153.25 296.1563,153.2813 296.5938,153.2813 L297.6719,153.2813 L295.0313,159.7969 C294.6094,159.7969 294.4531,159.8125 294.2969,159.9219 C294.0469,160.0781 293.8906,160.3594 293.8906,160.6563 C293.8906,161.2188 294.2656,161.5 295.0156,161.5 L297.2813,161.5 C297.6406,161.5 297.8594,161.4688 297.9844,161.375 C298.25,161.2344 298.3906,160.9375 298.3906,160.6563 C298.3906,160.375 298.2656,160.125 298.0469,159.9531 C297.875,159.8281 297.7344,159.7969 297.2813,159.7969 L296.8906,159.7969 L297.2813,158.8125 L301.3281,158.8125 Z M300.625,157.1094 L297.9531,157.1094 L299.2969,153.8438 L300.625,157.1094 Z " fill="#000000"/><text fill="#000000" font-family="sans-serif" font-size="12" font-style="italic" lengthAdjust="spacing" textLength="89" x="319.75" y="161.1543">ParseTreeNode</text><path d="M246,173 L246,173.2802 L256.2,172.4476 L266.4,173.2577 L276.6,173.5329 L286.8,172.0488 L297,172.8964 L307.2,172.4313 L317.4,172.4887 L327.6,172.9091 L337.8,172.0782 L348,173.7382 L358.2,172.1596 L368.4,172.7363 L378.6,173.5759 L388.8,172.8856 L399,173.091 L409.2,172.9574 L419.4,173.238 L429.6,173.3188 L439.8,173.7809 L450,173 " fill="#FFFFFF" style="stroke:#000000;stroke-width:1.5;"/><text fill="#000000" font-family="sans-serif" font-size="11" lengthAdjust="spacing" textLength="194" x="251" y="187.2104">symbol : Syntax::GrammarSymbol</text><path d="M246,193.8047 L246,194.0849 L256.2,193.2523 L266.4,194.0624 L276.6,194.3376 L286.8,192.8535 L297,193.7011 L307.2,193.236 L317.4,193.2934 L327.6,193.7138 L337.8,192.8829 L348,194.5429 L358.2,192.9643 L368.4,193.541 L378.6,194.3806 L388.8,193.6903 L399,193.8957 L409.2,193.7621 L419.4,194.0427 L429.6,194.1235 L439.8,194.5856 L450,193.8047 " fill="#FFFFFF" style="stroke:#000000;stroke-width:1.5;"/><text fill="#000000" font-family="sans-serif" font-size="11" lengthAdjust="spacing" textLength="42" x="251" y="208.0151">done!()</text><text fill="#000000" font-family="sans-serif" font-size="11" lengthAdjust="spacing" textLength="31" x="251" y="220.8198">to_s()</text><text fill="#000000" font-family="sans-serif" font-size="11" lengthAdjust="spacing" textLength="172" x="251" y="233.6245">to_string(indentation : Integer)</text><!--MD5=[0a4fa3212bdc2ce08d00c7cf6a62ddbc]
class TerminalNode--><polygon fill="#FFFFFF" filter="url(#ftovzvyjznu5o)" points="7,300,7,300.2102,17.2222,299.5857,27.4444,300.1933,37.6667,300.3997,47.8889,299.2866,58.1111,299.9223,68.3333,299.5735,78.5556,299.6165,88.7778,299.9318,99,299.3086,109.2222,300.5536,119.4444,299.3697,129.6667,299.8022,139.8889,300.4319,150.1111,299.9142,160.3333,300.0682,170.5556,299.9681,180.7778,300.1785,191,300,191.2391,300,191.5857,309.6016,191.6711,319.2031,191.6793,328.8047,191.2546,338.4063,191.4636,348.0078,191.7022,357.6094,190.2788,367.2109,191.6785,376.8125,191,386.4141,191,386.1176,180.7778,386.9479,170.5556,385.919,160.3333,386.3456,150.1111,387.1557,139.8889,386.3653,129.6667,386.5194,119.4444,386.7527,109.2222,386.8303,99,386.4102,88.7778,386.7013,78.5556,385.8416,68.3333,386.6984,58.1111,386.9623,47.8889,386.8586,37.6667,387.0271,27.4444,385.931,17.2222,385.7619,7,386.4141,6.3786,386.4141,6.9411,376.8125,6.8035,367.2109,7.6814,357.6094,6.8253,348.0078,6.6569,338.4063,7.2283,328.8047,6.3332,319.2031,6.4809,309.6016,7,300" style="stroke:#000000;stroke-width:1.5;"/><polygon fill="#ADD1B2" points="64.3108,318.6756,62.6984,320.8788,60.7912,324.1057,58.0636,326.2804,55.1974,327.4696,52.912,327.5728,49.9747,326.0855,47.2032,325.1139,45.0995,323.1412,43.9961,320.8828,43.3417,319.0845,42.7006,316.7357,41.66,314.7145,42.4596,312.741,43.1602,310.5792,45.7893,308.8695,47.639,306.6511,49.9284,305.9144,52.6501,305.2801,56.1404,305.657,58.0521,306.5585,60.2747,306.9672,62.9772,309.736,63.9193,312.659,64.3286,314.6534,63.865,317.9399" style="stroke:#000000;stroke-width:1.0;"/><path d="M55.5938,311.6719 C54.6563,311.2344 54.0625,311.0938 53.1875,311.0938 C50.5625,311.0938 48.5625,313.1719 48.5625,315.8906 L48.5625,317.0156 C48.5625,319.5938 50.6719,321.4844 53.5625,321.4844 C54.7813,321.4844 55.9375,321.1875 56.6875,320.6406 C57.2656,320.2344 57.5938,319.7813 57.5938,319.3906 C57.5938,318.9375 57.2031,318.5469 56.7344,318.5469 C56.5156,318.5469 56.3125,318.625 56.125,318.8125 C55.6719,319.2969 55.6719,319.2969 55.4844,319.3906 C55.0625,319.6563 54.375,319.7813 53.6094,319.7813 C51.5625,319.7813 50.2656,318.6875 50.2656,316.9844 L50.2656,315.8906 C50.2656,314.1094 51.5156,312.7969 53.25,312.7969 C53.8281,312.7969 54.4375,312.9531 54.9063,313.2031 C55.3906,313.4844 55.5625,313.7031 55.6563,314.1094 C55.7188,314.5156 55.75,314.6406 55.8906,314.7656 C56.0313,314.9063 56.2656,315.0156 56.4844,315.0156 C56.75,315.0156 57.0156,314.875 57.1875,314.6563 C57.2969,314.5 57.3281,314.3125 57.3281,313.8906 L57.3281,312.4688 C57.3281,312.0313 57.3125,311.9063 57.2188,311.75 C57.0625,311.4844 56.7813,311.3438 56.4844,311.3438 C56.1875,311.3438 55.9844,311.4375 55.7656,311.75 L55.5938,311.6719 Z " fill="#000000"/><text fill="#000000" font-family="sans-serif" font-size="12" lengthAdjust="spacing" textLength="83" x="73.75" y="320.1543">TerminalNode</text><path d="M8,332 L8,332.2802 L18.1111,331.4476 L28.2222,332.2577 L38.3333,332.5329 L48.4444,331.0488 L58.5556,331.8964 L68.6667,331.4313 L78.7778,331.4887 L88.8889,331.9091 L99,331.0782 L109.1111,332.7382 L119.2222,331.1596 L129.3333,331.7363 L139.4444,332.5759 L149.5556,331.8856 L159.6667,332.091 L169.7778,331.9574 L179.8889,332.238 L190,332 " fill="#FFFFFF" style="stroke:#000000;stroke-width:1.5;"/><path d="M8,340 L8,340.2802 L18.1111,339.4476 L28.2222,340.2577 L38.3333,340.5329 L48.4444,339.0488 L58.5556,339.8964 L68.6667,339.4313 L78.7778,339.4887 L88.8889,339.9091 L99,339.0782 L109.1111,340.7382 L119.2222,339.1596 L129.3333,339.7363 L139.4444,340.5759 L149.5556,339.8856 L159.6667,340.091 L169.7778,339.9574 L179.8889,340.238 L190,340 " fill="#FFFFFF" style="stroke:#000000;stroke-width:1.5;"/><text fill="#000000" font-family="sans-serif" font-size="11" lengthAdjust="spacing" textLength="88" x="13" y="354.2104">accept(aVisitor)</text><text fill="#000000" font-family="sans-serif" font-size="11" lengthAdjust="spacing" textLength="31" x="13" y="367.0151">to_s()</text><text fill="#000000" font-family="sans-serif" font-size="11" lengthAdjust="spacing" textLength="172" x="13" y="379.8198">to_string(indentation : Integer)</text><!--MD5=[c5b67deb29e006d0e0151691ca6e66e3]
class NonTerminalNode--><polygon fill="#FFFFFF" filter="url(#ftovzvyjznu5o)" points="226,300,226,300.2102,236.1667,299.5857,246.3333,300.1933,256.5,300.3997,266.6667,299.2866,276.8333,299.9223,287,299.5735,297.1667,299.6165,307.3333,299.9318,317.5,299.3086,327.6667,300.5536,337.8333,299.3697,348,299.8022,358.1667,300.4319,368.3333,299.9142,378.5,300.0682,388.6667,299.9681,398.8333,300.1785,409,300.2391,419.1667,300.5857,429.3333,300.6711,439.5,300.6793,449.6667,300.2546,459.8333,300.4636,470,300,470.7022,300,469.2788,309.6016,470.6785,319.2031,469.7035,328.8047,470.5338,338.4063,469.505,348.0078,469.9315,357.6094,470.7416,367.2109,469.9513,376.8125,470,386.4141,470,386.5194,459.8333,386.7527,449.6667,386.8303,439.5,386.4102,429.3333,386.7013,419.1667,385.8416,409,386.6984,398.8333,386.9623,388.6667,386.8586,378.5,387.0271,368.3333,385.931,358.1667,385.7619,348,385.7927,337.8333,386.3552,327.6667,386.2175,317.5,387.0955,307.3333,386.2394,297.1667,386.071,287,386.6423,276.8333,385.7472,266.6667,385.8949,256.5,387.063,246.3333,386.8497,236.1667,387.1486,226,386.4141,225.6782,386.4141,226.3192,376.8125,226.5904,367.2109,225.5276,357.6094,225.9041,348.0078,226.126,338.4063,226.6518,328.8047,225.9958,319.2031,226.4626,309.6016,226,300" style="stroke:#000000;stroke-width:1.5;"/><polygon fill="#ADD1B2" points="301.8108,318.6756,300.1984,320.8788,298.2912,324.1057,295.5636,326.2804,292.6974,327.4696,290.412,327.5728,287.4747,326.0855,284.7032,325.1139,282.5995,323.1412,281.4961,320.8828,280.8417,319.0845,280.2006,316.7357,279.16,314.7145,279.9596,312.741,280.6602,310.5792,283.2893,308.8695,285.139,306.6511,287.4284,305.9144,290.1501,305.2801,293.6404,305.657,295.5521,306.5585,297.7747,306.9672,300.4772,309.736,301.4193,312.659,301.8286,314.6534,301.365,317.9399" style="stroke:#000000;stroke-width:1.0;"/><path d="M293.0938,311.6719 C292.1563,311.2344 291.5625,311.0938 290.6875,311.0938 C288.0625,311.0938 286.0625,313.1719 286.0625,315.8906 L286.0625,317.0156 C286.0625,319.5938 288.1719,321.4844 291.0625,321.4844 C292.2813,321.4844 293.4375,321.1875 294.1875,320.6406 C294.7656,320.2344 295.0938,319.7813 295.0938,319.3906 C295.0938,318.9375 294.7031,318.5469 294.2344,318.5469 C294.0156,318.5469 293.8125,318.625 293.625,318.8125 C293.1719,319.2969 293.1719,319.2969 292.9844,319.3906 C292.5625,319.6563 291.875,319.7813 291.1094,319.7813 C289.0625,319.7813 287.7656,318.6875 287.7656,316.9844 L287.7656,315.8906 C287.7656,314.1094 289.0156,312.7969 290.75,312.7969 C291.3281,312.7969 291.9375,312.9531 292.4063,313.2031 C292.8906,313.4844 293.0625,313.7031 293.1563,314.1094 C293.2188,314.5156 293.25,314.6406 293.3906,314.7656 C293.5313,314.9063 293.7656,315.0156 293.9844,315.0156 C294.25,315.0156 294.5156,314.875 294.6875,314.6563 C294.7969,314.5 294.8281,314.3125 294.8281,313.8906 L294.8281,312.4688 C294.8281,312.0313 294.8125,311.9063 294.7188,311.75 C294.5625,311.4844 294.2813,311.3438 293.9844,311.3438 C293.6875,311.3438 293.4844,311.4375 293.2656,311.75 L293.0938,311.6719 Z " fill="#000000"/><text fill="#000000" font-family="sans-serif" font-size="12" lengthAdjust="spacing" textLength="106" x="311.25" y="320.1543">NonTerminalNode</text><path d="M227,332 L227,332.2802 L237.0833,331.4476 L247.1667,332.2577 L257.25,332.5329 L267.3333,331.0488 L277.4167,331.8964 L287.5,331.4313 L297.5833,331.4887 L307.6667,331.9091 L317.75,331.0782 L327.8333,332.7382 L337.9167,331.1596 L348,331.7363 L358.0833,332.5759 L368.1667,331.8856 L378.25,332.091 L388.3333,331.9574 L398.4167,332.238 L408.5,332.3188 L418.5833,332.7809 L428.6667,332.8947 L438.75,332.9057 L448.8333,332.3395 L458.9167,332.6181 L469,332 " fill="#FFFFFF" style="stroke:#000000;stroke-width:1.5;"/><path d="M227,340 L227,340.2802 L237.0833,339.4476 L247.1667,340.2577 L257.25,340.5329 L267.3333,339.0488 L277.4167,339.8964 L287.5,339.4313 L297.5833,339.4887 L307.6667,339.9091 L317.75,339.0782 L327.8333,340.7382 L337.9167,339.1596 L348,339.7363 L358.0833,340.5759 L368.1667,339.8856 L378.25,340.091 L388.3333,339.9574 L398.4167,340.238 L408.5,340.3188 L418.5833,340.7809 L428.6667,340.8947 L438.75,340.9057 L448.8333,340.3395 L458.9167,340.6181 L469,340 " fill="#FFFFFF" style="stroke:#000000;stroke-width:1.5;"/><text fill="#000000" font-family="sans-serif" font-size="11" lengthAdjust="spacing" textLength="88" x="232" y="354.2104">accept(aVisitor)</text><text fill="#000000" font-family="sans-serif" font-size="11" lengthAdjust="spacing" textLength="232" x="232" y="367.0151">add_subnode(subnode : ParseTreeNode)</text><text fill="#000000" font-family="sans-serif" font-size="11" lengthAdjust="spacing" textLength="172" x="232" y="379.8198">to_string(indentation : Integer)</text><!--MD5=[f31929e24ca30a0cab02ded80a311991]
reverse link ParseTree to ParseTreeNode--><path d="M348,94.37 L348.2802,94.37 L347.4476,103.6558 L348.2577,112.9416 L348.5329,122.2274 L347.0488,131.5132 L348,140.799 " fill="none" style="stroke:#000000;stroke-width:1.0;"/><polygon fill="#FFFFFF" points="348,81.091,348.0583,81.1299,347.0851,82.2144,346.4536,83.5267,345.7109,84.7649,344.6021,85.7591,344,87.091,343.9784,87.0766,344.6817,88.2121,345.4936,89.4201,346.3811,90.6784,347.0082,91.7632,348,93.091,348.1536,93.1934,348.6252,91.7745,349.5451,90.6544,350.5198,89.5709,351.1762,88.2751,352,87.091,352.0189,87.1036,351.1911,85.8851,350.4495,84.724,349.6663,83.5352,348.9624,82.3993,348,81.091" style="stroke:#000000;stroke-width:1.0;"/><text fill="#000000" font-family="sans-serif" font-size="13" lengthAdjust="spacing" textLength="38" x="307.3281" y="129.816">1 root</text><!--MD5=[f99f4a3b77662eb38591ea313b861d87]
reverse link ParseTreeNode to TerminalNode--><path d="M250.362,250.514 L250.507,250.7538 L241.9154,254.9738 L234.1737,260.5997 L226.1553,265.7678 L217.2268,269.4302 L209.5044,275.0882 L201.103,279.6228 L192.9719,284.6044 L185.0286,289.8968 L176.438,294.1182 L168.754,299.8397 " fill="none" style="stroke:#000000;stroke-width:1.0;"/><polygon fill="none" points="246.763,244.51,246.7774,244.5786,250.8822,243.5038,255.0714,242.8311,259.2332,242.0274,263.3045,240.7933,267.501,240.155,267.481,240.1385,264.6922,243.3317,262.004,246.608,259.3859,249.9421,256.5265,253.077,254.005,256.491,254.1629,256.5865,252.3768,253.9861,251.0518,251.6645,249.783,249.3769,248.1869,246.8914,246.763,244.51" style="stroke:#000000;stroke-width:1.0;"/><!--MD5=[8a9bffed9bdb9224ea024e5ce4d719d5]
reverse link ParseTreeNode to NonTerminalNode--><path d="M335.29,260.403 L335.3834,260.4032 L335.1007,262.4313 L335.3656,264.4607 L335.4521,266.4897 L334.9522,268.5172 L335.2641,270.5468 L335.2296,270.5462 L335.1107,272.5598 L335.1659,274.5766 L335.3421,276.5956 L335.1012,278.6071 L335.4445,280.6291 L335.6902,280.6415 L335.3606,284.4795 L335.7485,288.3539 L336.2239,292.2327 L336.19,296.0857 L336.424,299.9523 " fill="none" style="stroke:#000000;stroke-width:1.0;"/><polygon fill="none" points="328.296,260.113,328.3613,260.1384,329.7029,256.113,331.4273,252.2363,333.027,248.3113,334.2168,244.2268,335.974,240.363,335.9493,240.3553,337.1011,244.366,338.3776,248.4157,339.7407,252.4924,340.8052,256.4759,342.288,260.59,342.2943,260.7744,339.4824,260.2846,336.689,260.3333,333.8977,260.4477,331.0934,260.1798,328.296,260.113" style="stroke:#000000;stroke-width:1.0;"/><!--MD5=[e894374db486156a2fd88e2d396cff05]
reverse link NonTerminalNode to ParseTreeNode--><path d="M361.059,286.9275 L361.1524,286.9304 L360.9476,284.5981 L361.2901,282.2828 L361.4545,279.962 L361.0327,277.6229 L361.4222,275.3091 L361.3877,275.3089 L361.246,272.9467 L361.2784,270.5855 L361.4319,268.225 L361.1683,265.8621 L361.4889,263.5026 L361.7349,263.5074 L361.1629,261.15 L361.3091,258.8068 L361.543,256.4652 L361.2669,254.1137 L361.2591,251.7674 L361.2894,251.7688 L361.1397,249.4859 L361.1279,247.2093 L361.0496,244.9297 L361.0983,242.6559 L360.733,240.363 " fill="none" style="stroke:#000000;stroke-width:1.0;"/><polygon fill="#FFFFFF" points="360.257,299.9523,360.3128,299.9947,361.0193,298.7202,362.0529,297.6942,362.9799,296.5873,363.5567,295.2143,364.6184,294.2096,364.596,294.1966,363.7708,292.8913,363.0585,291.6515,362.4247,290.4574,361.5204,289.1061,360.9949,287.975,361.1419,288.0866,359.9553,288.9965,359.1979,290.2322,358.4927,291.5077,357.483,292.5519,356.6335,293.7177,356.6532,293.7291,357.349,294.9593,358.1344,296.2414,358.8765,297.4985,359.7011,298.8035,360.257,299.9523" style="stroke:#000000;stroke-width:1.0;"/><polygon fill="#000000" points="290.4187,256.3063,290.0523,256.807,289.6188,257.5404,288.9989,258.0346,288.3475,258.3049,287.8281,258.3284,287.1605,257.9904,286.5307,257.7695,286.0526,257.3212,285.8018,256.8079,285.653,256.3992,285.5073,255.8654,285.2708,255.406,285.4526,254.9575,285.6118,254.4662,286.2093,254.0776,286.6297,253.5734,287.15,253.406,287.7686,253.2618,288.5618,253.3475,288.9963,253.5524,289.5015,253.6453,290.1157,254.2746,290.3298,254.9389,290.4228,255.3921,290.3174,256.1391" style="stroke:#000000;stroke-width:0.0;"/><text fill="#000000" font-family="sans-serif" font-size="13" lengthAdjust="spacing" textLength="62" x="295.4049" y="260.1323">subnodes</text><!--MD5=[7ce9fe1730c65d8a109068342c86946a]
@startuml
skinparam handwritten true
skinparam class {
BackgroundColor PaleGray
BorderColor Black
ArrowColor Black
}
  ' == CLASSES =========================
  class ParseTree {
    accept(aVisitor)
    done!()  
  }
  
  abstract class ParseTreeNode {
    symbol : Syntax::GrammarSymbol
    done!()     
    to_s()
    to_string(indentation : Integer)    
  }

  class TerminalNode {
    accept(aVisitor)
    to_s()
    to_string(indentation : Integer)
  }

  class NonTerminalNode {
    accept(aVisitor)
    add_subnode(subnode : ParseTreeNode)
    to_string(indentation : Integer)
  }

  ' == RELATIONSHIPS ===================
  ParseTree o- - "1 root" ParseTreeNode
  ParseTreeNode <|- - TerminalNode
  ParseTreeNode <|- - NonTerminalNode
  NonTerminalNode o- - "* subnodes" ParseTreeNode
@enduml

@startuml
skinparam handwritten true
skinparam class {
BackgroundColor PaleGray
BorderColor Black
ArrowColor Black
}
  class ParseTree {
    accept(aVisitor)
    done!()  
  }
  
  abstract class ParseTreeNode {
    symbol : Syntax::GrammarSymbol
    done!()     
    to_s()
    to_string(indentation : Integer)    
  }

  class TerminalNode {
    accept(aVisitor)
    to_s()
    to_string(indentation : Integer)
  }

  class NonTerminalNode {
    accept(aVisitor)
    add_subnode(subnode : ParseTreeNode)
    to_string(indentation : Integer)
  }

  ParseTree o- - "1 root" ParseTreeNode
  ParseTreeNode <|- - TerminalNode
  ParseTreeNode <|- - NonTerminalNode
  NonTerminalNode o- - "* subnodes" ParseTreeNode
@enduml

PlantUML version 1.2021.15beta8(Unknown compile time)
(GPL source distribution)
Java Runtime: Java(TM) SE Runtime Environment
JVM: Java HotSpot(TM) 64-Bit Server VM
Default Encoding: UTF-8
Language: en
Country: US
--></g></svg>