<?xml version="1.0" encoding="UTF-8" standalone="no"?><svg xmlns="http://www.w3.org/2000/svg" xmlns:xlink="http://www.w3.org/1999/xlink" contentScriptType="application/ecmascript" contentStyleType="text/css" height="424px" preserveAspectRatio="none" style="width:585px;height:424px;background:#FFFFFF;" version="1.1" viewBox="0 0 585 424" width="585px" zoomAndPan="magnify"><defs/><g><!--MD5=[5da8f06d7557285175f081f10e04cd48]
class ParseTree--><rect codeLine="6" fill="#F1F1F1" height="80.5938" id="ParseTree" rx="2.5" ry="2.5" style="stroke:#000000;stroke-width:0.5;" width="127" x="365" y="7"/><ellipse cx="390.35" cy="23" fill="#ADD1B2" rx="11" ry="11" style="stroke:#181818;stroke-width:1.0;"/><path d="M392.6938,18.6719 C391.7563,18.2344 391.1625,18.0938 390.2875,18.0938 C387.6625,18.0938 385.6625,20.1719 385.6625,22.8906 L385.6625,24.0156 C385.6625,26.5938 387.7719,28.4844 390.6625,28.4844 C391.8813,28.4844 393.0375,28.1875 393.7875,27.6406 C394.3656,27.2344 394.6938,26.7813 394.6938,26.3906 C394.6938,25.9375 394.3031,25.5469 393.8344,25.5469 C393.6156,25.5469 393.4125,25.625 393.225,25.8125 C392.7719,26.2969 392.7719,26.2969 392.5844,26.3906 C392.1625,26.6563 391.475,26.7813 390.7094,26.7813 C388.6625,26.7813 387.3656,25.6875 387.3656,23.9844 L387.3656,22.8906 C387.3656,21.1094 388.6156,19.7969 390.35,19.7969 C390.9281,19.7969 391.5375,19.9531 392.0063,20.2031 C392.4906,20.4844 392.6625,20.7031 392.7563,21.1094 C392.8188,21.5156 392.85,21.6406 392.9906,21.7656 C393.1313,21.9063 393.3656,22.0156 393.5844,22.0156 C393.85,22.0156 394.1156,21.875 394.2875,21.6563 C394.3969,21.5 394.4281,21.3125 394.4281,20.8906 L394.4281,19.4688 C394.4281,19.0313 394.4125,18.9063 394.3188,18.75 C394.1625,18.4844 393.8813,18.3438 393.5844,18.3438 C393.2875,18.3438 393.0844,18.4375 392.8656,18.75 L392.6938,18.6719 Z " fill="#000000"/><text fill="#000000" font-family="sans-serif" font-size="14" lengthAdjust="spacing" textLength="72" x="406.65" y="27.8467">ParseTree</text><line style="stroke:#000000;stroke-width:0.5;" x1="366" x2="491" y1="39" y2="39"/><line style="stroke:#000000;stroke-width:0.5;" x1="366" x2="491" y1="47" y2="47"/><text fill="#000000" font-family="sans-serif" font-size="14" lengthAdjust="spacing" textLength="115" x="371" y="63.9951">accept(aVisitor)</text><text fill="#000000" font-family="sans-serif" font-size="14" lengthAdjust="spacing" textLength="51" x="371" y="80.292">done!()</text><!--MD5=[7a61804bc74d5ff5946225f26aecd03a]
class ParseTreeNode--><rect codeLine="11" fill="#F1F1F1" height="113.1875" id="ParseTreeNode" rx="2.5" ry="2.5" style="stroke:#000000;stroke-width:0.5;" width="257" x="300" y="148"/><ellipse cx="369.75" cy="164" fill="#A9DCDF" rx="11" ry="11" style="stroke:#181818;stroke-width:1.0;"/><path d="M371.8281,165.8125 L372.2188,166.7969 L371.8281,166.7969 C371.375,166.7969 371.2656,166.8125 371.1094,166.9219 C370.8594,167.0781 370.7031,167.3594 370.7031,167.6563 C370.7031,167.9219 370.8438,168.1719 371.0625,168.3281 C371.2031,168.4531 371.4063,168.5 371.8281,168.5 L374.1875,168.5 C374.5469,168.5 374.7656,168.4688 374.9063,168.375 C375.1563,168.2344 375.3125,167.9375 375.3125,167.6563 C375.3125,167.375 375.1719,167.125 374.9531,166.9688 C374.7813,166.8281 374.625,166.7969 374.1563,166.7969 L370.7656,158.5938 L367.0938,158.5938 C366.6406,158.5938 366.5156,158.6094 366.3594,158.7031 C366.1094,158.875 365.9531,159.1563 365.9531,159.4375 C365.9531,159.7188 366.0938,159.9688 366.3125,160.1406 C366.4844,160.25 366.6563,160.2813 367.0938,160.2813 L368.1719,160.2813 L365.5313,166.7969 C365.1094,166.7969 364.9531,166.8125 364.7969,166.9219 C364.5469,167.0781 364.3906,167.3594 364.3906,167.6563 C364.3906,168.2188 364.7656,168.5 365.5156,168.5 L367.7813,168.5 C368.1406,168.5 368.3594,168.4688 368.4844,168.375 C368.75,168.2344 368.8906,167.9375 368.8906,167.6563 C368.8906,167.375 368.7656,167.125 368.5469,166.9531 C368.375,166.8281 368.2344,166.7969 367.7813,166.7969 L367.3906,166.7969 L367.7813,165.8125 L371.8281,165.8125 Z M371.125,164.1094 L368.4531,164.1094 L369.7969,160.8438 L371.125,164.1094 Z " fill="#000000"/><text fill="#000000" font-family="sans-serif" font-size="14" font-style="italic" lengthAdjust="spacing" textLength="109" x="390.25" y="168.8467">ParseTreeNode</text><line style="stroke:#000000;stroke-width:0.5;" x1="301" x2="556" y1="180" y2="180"/><text fill="#000000" font-family="sans-serif" font-size="14" lengthAdjust="spacing" textLength="245" x="306" y="196.9951">symbol : Syntax::GrammarSymbol</text><line style="stroke:#000000;stroke-width:0.5;" x1="301" x2="556" y1="204.2969" y2="204.2969"/><text fill="#000000" font-family="sans-serif" font-size="14" lengthAdjust="spacing" textLength="51" x="306" y="221.292">done!()</text><text fill="#000000" font-family="sans-serif" font-size="14" lengthAdjust="spacing" textLength="40" x="306" y="237.5889">to_s()</text><text fill="#000000" font-family="sans-serif" font-size="14" lengthAdjust="spacing" textLength="225" x="306" y="253.8857">to_string(indentation : Integer)</text><!--MD5=[0a4fa3212bdc2ce08d00c7cf6a62ddbc]
class TerminalNode--><rect codeLine="18" fill="#F1F1F1" height="96.8906" id="TerminalNode" rx="2.5" ry="2.5" style="stroke:#000000;stroke-width:0.5;" width="237" x="7" y="321"/><ellipse cx="71.25" cy="337" fill="#ADD1B2" rx="11" ry="11" style="stroke:#181818;stroke-width:1.0;"/><path d="M73.5938,332.6719 C72.6563,332.2344 72.0625,332.0938 71.1875,332.0938 C68.5625,332.0938 66.5625,334.1719 66.5625,336.8906 L66.5625,338.0156 C66.5625,340.5938 68.6719,342.4844 71.5625,342.4844 C72.7813,342.4844 73.9375,342.1875 74.6875,341.6406 C75.2656,341.2344 75.5938,340.7813 75.5938,340.3906 C75.5938,339.9375 75.2031,339.5469 74.7344,339.5469 C74.5156,339.5469 74.3125,339.625 74.125,339.8125 C73.6719,340.2969 73.6719,340.2969 73.4844,340.3906 C73.0625,340.6563 72.375,340.7813 71.6094,340.7813 C69.5625,340.7813 68.2656,339.6875 68.2656,337.9844 L68.2656,336.8906 C68.2656,335.1094 69.5156,333.7969 71.25,333.7969 C71.8281,333.7969 72.4375,333.9531 72.9063,334.2031 C73.3906,334.4844 73.5625,334.7031 73.6563,335.1094 C73.7188,335.5156 73.75,335.6406 73.8906,335.7656 C74.0313,335.9063 74.2656,336.0156 74.4844,336.0156 C74.75,336.0156 75.0156,335.875 75.1875,335.6563 C75.2969,335.5 75.3281,335.3125 75.3281,334.8906 L75.3281,333.4688 C75.3281,333.0313 75.3125,332.9063 75.2188,332.75 C75.0625,332.4844 74.7813,332.3438 74.4844,332.3438 C74.1875,332.3438 73.9844,332.4375 73.7656,332.75 L73.5938,332.6719 Z " fill="#000000"/><text fill="#000000" font-family="sans-serif" font-size="14" lengthAdjust="spacing" textLength="100" x="91.75" y="341.8467">TerminalNode</text><line style="stroke:#000000;stroke-width:0.5;" x1="8" x2="243" y1="353" y2="353"/><line style="stroke:#000000;stroke-width:0.5;" x1="8" x2="243" y1="361" y2="361"/><text fill="#000000" font-family="sans-serif" font-size="14" lengthAdjust="spacing" textLength="115" x="13" y="377.9951">accept(aVisitor)</text><text fill="#000000" font-family="sans-serif" font-size="14" lengthAdjust="spacing" textLength="40" x="13" y="394.292">to_s()</text><text fill="#000000" font-family="sans-serif" font-size="14" lengthAdjust="spacing" textLength="225" x="13" y="410.5889">to_string(indentation : Integer)</text><!--MD5=[c5b67deb29e006d0e0151691ca6e66e3]
class NonTerminalNode--><rect codeLine="24" fill="#F1F1F1" height="96.8906" id="NonTerminalNode" rx="2.5" ry="2.5" style="stroke:#000000;stroke-width:0.5;" width="299" x="279" y="321"/><ellipse cx="360.25" cy="337" fill="#ADD1B2" rx="11" ry="11" style="stroke:#181818;stroke-width:1.0;"/><path d="M362.5938,332.6719 C361.6563,332.2344 361.0625,332.0938 360.1875,332.0938 C357.5625,332.0938 355.5625,334.1719 355.5625,336.8906 L355.5625,338.0156 C355.5625,340.5938 357.6719,342.4844 360.5625,342.4844 C361.7813,342.4844 362.9375,342.1875 363.6875,341.6406 C364.2656,341.2344 364.5938,340.7813 364.5938,340.3906 C364.5938,339.9375 364.2031,339.5469 363.7344,339.5469 C363.5156,339.5469 363.3125,339.625 363.125,339.8125 C362.6719,340.2969 362.6719,340.2969 362.4844,340.3906 C362.0625,340.6563 361.375,340.7813 360.6094,340.7813 C358.5625,340.7813 357.2656,339.6875 357.2656,337.9844 L357.2656,336.8906 C357.2656,335.1094 358.5156,333.7969 360.25,333.7969 C360.8281,333.7969 361.4375,333.9531 361.9063,334.2031 C362.3906,334.4844 362.5625,334.7031 362.6563,335.1094 C362.7188,335.5156 362.75,335.6406 362.8906,335.7656 C363.0313,335.9063 363.2656,336.0156 363.4844,336.0156 C363.75,336.0156 364.0156,335.875 364.1875,335.6563 C364.2969,335.5 364.3281,335.3125 364.3281,334.8906 L364.3281,333.4688 C364.3281,333.0313 364.3125,332.9063 364.2188,332.75 C364.0625,332.4844 363.7813,332.3438 363.4844,332.3438 C363.1875,332.3438 362.9844,332.4375 362.7656,332.75 L362.5938,332.6719 Z " fill="#000000"/><text fill="#000000" font-family="sans-serif" font-size="14" lengthAdjust="spacing" textLength="128" x="380.75" y="341.8467">NonTerminalNode</text><line style="stroke:#000000;stroke-width:0.5;" x1="280" x2="577" y1="353" y2="353"/><line style="stroke:#000000;stroke-width:0.5;" x1="280" x2="577" y1="361" y2="361"/><text fill="#000000" font-family="sans-serif" font-size="14" lengthAdjust="spacing" textLength="115" x="285" y="377.9951">accept(aVisitor)</text><text fill="#000000" font-family="sans-serif" font-size="14" lengthAdjust="spacing" textLength="287" x="285" y="394.292">add_subnode(subnode : ParseTreeNode)</text><text fill="#000000" font-family="sans-serif" font-size="14" lengthAdjust="spacing" textLength="225" x="285" y="410.5889">to_string(indentation : Integer)</text><!--MD5=[f31929e24ca30a0cab02ded80a311991]
reverse link ParseTree to ParseTreeNode--><path codeLine="31" d="M428.5,101.354 C428.5,116.384 428.5,132.794 428.5,147.977 " fill="none" id="ParseTree-backto-ParseTreeNode" style="stroke:#000000;stroke-width:1.0;"/><polygon fill="none" points="428.5,88.014,424.5,94.014,428.5,100.014,432.5,94.014,428.5,88.014" style="stroke:#000000;stroke-width:1.0;"/><text fill="#000000" font-family="sans-serif" font-size="13" lengthAdjust="spacing" textLength="38" x="388.0656" y="136.8374">1 root</text><!--MD5=[f99f4a3b77662eb38591ea313b861d87]
reverse link ParseTreeNode to TerminalNode--><path codeLine="32" d="M307.417,270.637 C276.144,287.46 243.068,305.254 213.819,320.9883 " fill="none" id="ParseTreeNode-backto-TerminalNode" style="stroke:#000000;stroke-width:1.0;"/><polygon fill="none" points="304.143,264.45,325.072,261.139,310.775,276.779,304.143,264.45" style="stroke:#000000;stroke-width:1.0;"/><!--MD5=[8a9bffed9bdb9224ea024e5ce4d719d5]
reverse link ParseTreeNode to NonTerminalNode--><path codeLine="33" d="M415.778,281.3 C415.646,294.819 415.984,308.547 416.791,320.9883 " fill="none" id="ParseTreeNode-backto-NonTerminalNode" style="stroke:#000000;stroke-width:1.0;"/><polygon fill="none" points="408.785,280.937,416.339,261.139,422.78,281.326,408.785,280.937" style="stroke:#000000;stroke-width:1.0;"/><!--MD5=[e894374db486156a2fd88e2d396cff05]
reverse link NonTerminalNode to ParseTreeNode--><path codeLine="34" d="M441.599,307.864 C442.2,292.554 442.126,276.19 441.377,261.139 " fill="none" id="NonTerminalNode-backto-ParseTreeNode" style="stroke:#000000;stroke-width:1.0;"/><polygon fill="none" points="440.897,320.9883,445.2117,315.2105,441.5379,309.0054,437.2231,314.7832,440.897,320.9883" style="stroke:#000000;stroke-width:1.0;"/><ellipse cx="368.7222" cy="276.9861" fill="#000000" rx="2.5" ry="2.5" style="stroke:#000000;stroke-width:0.0;"/><text fill="#000000" font-family="sans-serif" font-size="13" lengthAdjust="spacing" textLength="62" x="376.2222" y="281.4202">subnodes</text><!--MD5=[b7546e0092e4cbfc383d441f2979563b]
@startuml
skinparam class {
    BorderColor Black
    ArrowColor Black
  }
  ' == CLASSES =========================
  class ParseTree {
    accept(aVisitor)
    done!()  
  }
  
  abstract class ParseTreeNode {
    symbol : Syntax::GrammarSymbol
    done!()     
    to_s()
    to_string(indentation : Integer)    
  }

  class TerminalNode {
    accept(aVisitor)
    to_s()
    to_string(indentation : Integer)
  }

  class NonTerminalNode {
    accept(aVisitor)
    add_subnode(subnode : ParseTreeNode)
    to_string(indentation : Integer)
  }

  ' == RELATIONSHIPS ===================
  ParseTree o- - "1 root" ParseTreeNode
  ParseTreeNode <|- - TerminalNode
  ParseTreeNode <|- - NonTerminalNode
  NonTerminalNode o- - "* subnodes" ParseTreeNode
@enduml

@startuml
skinparam class {
    BorderColor Black
    ArrowColor Black
  }
  class ParseTree {
    accept(aVisitor)
    done!()  
  }
  
  abstract class ParseTreeNode {
    symbol : Syntax::GrammarSymbol
    done!()     
    to_s()
    to_string(indentation : Integer)    
  }

  class TerminalNode {
    accept(aVisitor)
    to_s()
    to_string(indentation : Integer)
  }

  class NonTerminalNode {
    accept(aVisitor)
    add_subnode(subnode : ParseTreeNode)
    to_string(indentation : Integer)
  }

  ParseTree o- - "1 root" ParseTreeNode
  ParseTreeNode <|- - TerminalNode
  ParseTreeNode <|- - NonTerminalNode
  NonTerminalNode o- - "* subnodes" ParseTreeNode
@enduml

PlantUML version 1.2022.2beta5(Unknown compile time)
(GPL source distribution)
Java Runtime: Java(TM) SE Runtime Environment
JVM: Java HotSpot(TM) 64-Bit Server VM
Default Encoding: UTF-8
Language: en
Country: US
--></g></svg>