<?xml version="1.0" encoding="UTF-8" standalone="no"?><svg xmlns="http://www.w3.org/2000/svg" xmlns:xlink="http://www.w3.org/1999/xlink" contentScriptType="application/ecmascript" contentStyleType="text/css" height="400px" preserveAspectRatio="none" style="width:484px;height:400px;background:#FFFFFF;" version="1.1" viewBox="0 0 484 400" width="484px" zoomAndPan="magnify"><defs><filter height="300%" id="f1hbim6at1qn4a" width="300%" x="-1" y="-1"><feGaussianBlur result="blurOut" stdDeviation="2.0"/><feColorMatrix in="blurOut" result="blurOut2" type="matrix" values="0 0 0 0 0 0 0 0 0 0 0 0 0 0 0 0 0 0 .4 0"/><feOffset dx="4.0" dy="4.0" in="blurOut2" result="blurOut3"/><feBlend in="SourceGraphic" in2="blurOut3" mode="normal"/></filter></defs><g><!--MD5=[5da8f06d7557285175f081f10e04cd48]
class ParseTree--><rect codeLine="6" fill="#FEFECE" filter="url(#f1hbim6at1qn4a)" height="73.6094" id="ParseTree" style="stroke:#000000;stroke-width:1.5;" width="100" x="298" y="7"/><ellipse cx="316.15" cy="23" fill="#ADD1B2" rx="11" ry="11" style="stroke:#000000;stroke-width:1.0;"/><path d="M318.4938,18.6719 C317.5563,18.2344 316.9625,18.0938 316.0875,18.0938 C313.4625,18.0938 311.4625,20.1719 311.4625,22.8906 L311.4625,24.0156 C311.4625,26.5938 313.5719,28.4844 316.4625,28.4844 C317.6813,28.4844 318.8375,28.1875 319.5875,27.6406 C320.1656,27.2344 320.4938,26.7813 320.4938,26.3906 C320.4938,25.9375 320.1031,25.5469 319.6344,25.5469 C319.4156,25.5469 319.2125,25.625 319.025,25.8125 C318.5719,26.2969 318.5719,26.2969 318.3844,26.3906 C317.9625,26.6563 317.275,26.7813 316.5094,26.7813 C314.4625,26.7813 313.1656,25.6875 313.1656,23.9844 L313.1656,22.8906 C313.1656,21.1094 314.4156,19.7969 316.15,19.7969 C316.7281,19.7969 317.3375,19.9531 317.8063,20.2031 C318.2906,20.4844 318.4625,20.7031 318.5563,21.1094 C318.6188,21.5156 318.65,21.6406 318.7906,21.7656 C318.9313,21.9063 319.1656,22.0156 319.3844,22.0156 C319.65,22.0156 319.9156,21.875 320.0875,21.6563 C320.1969,21.5 320.2281,21.3125 320.2281,20.8906 L320.2281,19.4688 C320.2281,19.0313 320.2125,18.9063 320.1188,18.75 C319.9625,18.4844 319.6813,18.3438 319.3844,18.3438 C319.0875,18.3438 318.8844,18.4375 318.6656,18.75 L318.4938,18.6719 Z " fill="#000000"/><text fill="#000000" font-family="sans-serif" font-size="12" lengthAdjust="spacing" textLength="61" x="330.85" y="27.1543">ParseTree</text><line style="stroke:#000000;stroke-width:1.5;" x1="299" x2="397" y1="39" y2="39"/><line style="stroke:#000000;stroke-width:1.5;" x1="299" x2="397" y1="47" y2="47"/><text fill="#000000" font-family="sans-serif" font-size="11" lengthAdjust="spacing" textLength="88" x="304" y="61.2104">accept(aVisitor)</text><text fill="#000000" font-family="sans-serif" font-size="11" lengthAdjust="spacing" textLength="42" x="304" y="74.0151">done!()</text><!--MD5=[7a61804bc74d5ff5946225f26aecd03a]
class ParseTreeNode--><rect codeLine="11" fill="#FEFECE" filter="url(#f1hbim6at1qn4a)" height="99.2188" id="ParseTreeNode" style="stroke:#000000;stroke-width:1.5;" width="206" x="245" y="141"/><ellipse cx="299.25" cy="157" fill="#A9DCDF" rx="11" ry="11" style="stroke:#000000;stroke-width:1.0;"/><path d="M301.3281,158.8125 L301.7188,159.7969 L301.3281,159.7969 C300.875,159.7969 300.7656,159.8125 300.6094,159.9219 C300.3594,160.0781 300.2031,160.3594 300.2031,160.6563 C300.2031,160.9219 300.3438,161.1719 300.5625,161.3281 C300.7031,161.4531 300.9063,161.5 301.3281,161.5 L303.6875,161.5 C304.0469,161.5 304.2656,161.4688 304.4063,161.375 C304.6563,161.2344 304.8125,160.9375 304.8125,160.6563 C304.8125,160.375 304.6719,160.125 304.4531,159.9688 C304.2813,159.8281 304.125,159.7969 303.6563,159.7969 L300.2656,151.5938 L296.5938,151.5938 C296.1406,151.5938 296.0156,151.6094 295.8594,151.7031 C295.6094,151.875 295.4531,152.1563 295.4531,152.4375 C295.4531,152.7188 295.5938,152.9688 295.8125,153.1406 C295.9844,153.25 296.1563,153.2813 296.5938,153.2813 L297.6719,153.2813 L295.0313,159.7969 C294.6094,159.7969 294.4531,159.8125 294.2969,159.9219 C294.0469,160.0781 293.8906,160.3594 293.8906,160.6563 C293.8906,161.2188 294.2656,161.5 295.0156,161.5 L297.2813,161.5 C297.6406,161.5 297.8594,161.4688 297.9844,161.375 C298.25,161.2344 298.3906,160.9375 298.3906,160.6563 C298.3906,160.375 298.2656,160.125 298.0469,159.9531 C297.875,159.8281 297.7344,159.7969 297.2813,159.7969 L296.8906,159.7969 L297.2813,158.8125 L301.3281,158.8125 Z M300.625,157.1094 L297.9531,157.1094 L299.2969,153.8438 L300.625,157.1094 Z " fill="#000000"/><text fill="#000000" font-family="sans-serif" font-size="12" font-style="italic" lengthAdjust="spacing" textLength="89" x="319.75" y="161.1543">ParseTreeNode</text><line style="stroke:#000000;stroke-width:1.5;" x1="246" x2="450" y1="173" y2="173"/><text fill="#000000" font-family="sans-serif" font-size="11" lengthAdjust="spacing" textLength="194" x="251" y="187.2104">symbol : Syntax::GrammarSymbol</text><line style="stroke:#000000;stroke-width:1.5;" x1="246" x2="450" y1="193.8047" y2="193.8047"/><text fill="#000000" font-family="sans-serif" font-size="11" lengthAdjust="spacing" textLength="42" x="251" y="208.0151">done!()</text><text fill="#000000" font-family="sans-serif" font-size="11" lengthAdjust="spacing" textLength="31" x="251" y="220.8198">to_s()</text><text fill="#000000" font-family="sans-serif" font-size="11" lengthAdjust="spacing" textLength="172" x="251" y="233.6245">to_string(indentation : Integer)</text><!--MD5=[0a4fa3212bdc2ce08d00c7cf6a62ddbc]
class TerminalNode--><rect codeLine="18" fill="#FEFECE" filter="url(#f1hbim6at1qn4a)" height="86.4141" id="TerminalNode" style="stroke:#000000;stroke-width:1.5;" width="184" x="7" y="300"/><ellipse cx="53.25" cy="316" fill="#ADD1B2" rx="11" ry="11" style="stroke:#000000;stroke-width:1.0;"/><path d="M55.5938,311.6719 C54.6563,311.2344 54.0625,311.0938 53.1875,311.0938 C50.5625,311.0938 48.5625,313.1719 48.5625,315.8906 L48.5625,317.0156 C48.5625,319.5938 50.6719,321.4844 53.5625,321.4844 C54.7813,321.4844 55.9375,321.1875 56.6875,320.6406 C57.2656,320.2344 57.5938,319.7813 57.5938,319.3906 C57.5938,318.9375 57.2031,318.5469 56.7344,318.5469 C56.5156,318.5469 56.3125,318.625 56.125,318.8125 C55.6719,319.2969 55.6719,319.2969 55.4844,319.3906 C55.0625,319.6563 54.375,319.7813 53.6094,319.7813 C51.5625,319.7813 50.2656,318.6875 50.2656,316.9844 L50.2656,315.8906 C50.2656,314.1094 51.5156,312.7969 53.25,312.7969 C53.8281,312.7969 54.4375,312.9531 54.9063,313.2031 C55.3906,313.4844 55.5625,313.7031 55.6563,314.1094 C55.7188,314.5156 55.75,314.6406 55.8906,314.7656 C56.0313,314.9063 56.2656,315.0156 56.4844,315.0156 C56.75,315.0156 57.0156,314.875 57.1875,314.6563 C57.2969,314.5 57.3281,314.3125 57.3281,313.8906 L57.3281,312.4688 C57.3281,312.0313 57.3125,311.9063 57.2188,311.75 C57.0625,311.4844 56.7813,311.3438 56.4844,311.3438 C56.1875,311.3438 55.9844,311.4375 55.7656,311.75 L55.5938,311.6719 Z " fill="#000000"/><text fill="#000000" font-family="sans-serif" font-size="12" lengthAdjust="spacing" textLength="83" x="73.75" y="320.1543">TerminalNode</text><line style="stroke:#000000;stroke-width:1.5;" x1="8" x2="190" y1="332" y2="332"/><line style="stroke:#000000;stroke-width:1.5;" x1="8" x2="190" y1="340" y2="340"/><text fill="#000000" font-family="sans-serif" font-size="11" lengthAdjust="spacing" textLength="88" x="13" y="354.2104">accept(aVisitor)</text><text fill="#000000" font-family="sans-serif" font-size="11" lengthAdjust="spacing" textLength="31" x="13" y="367.0151">to_s()</text><text fill="#000000" font-family="sans-serif" font-size="11" lengthAdjust="spacing" textLength="172" x="13" y="379.8198">to_string(indentation : Integer)</text><!--MD5=[c5b67deb29e006d0e0151691ca6e66e3]
class NonTerminalNode--><rect codeLine="24" fill="#FEFECE" filter="url(#f1hbim6at1qn4a)" height="86.4141" id="NonTerminalNode" style="stroke:#000000;stroke-width:1.5;" width="244" x="226" y="300"/><ellipse cx="290.75" cy="316" fill="#ADD1B2" rx="11" ry="11" style="stroke:#000000;stroke-width:1.0;"/><path d="M293.0938,311.6719 C292.1563,311.2344 291.5625,311.0938 290.6875,311.0938 C288.0625,311.0938 286.0625,313.1719 286.0625,315.8906 L286.0625,317.0156 C286.0625,319.5938 288.1719,321.4844 291.0625,321.4844 C292.2813,321.4844 293.4375,321.1875 294.1875,320.6406 C294.7656,320.2344 295.0938,319.7813 295.0938,319.3906 C295.0938,318.9375 294.7031,318.5469 294.2344,318.5469 C294.0156,318.5469 293.8125,318.625 293.625,318.8125 C293.1719,319.2969 293.1719,319.2969 292.9844,319.3906 C292.5625,319.6563 291.875,319.7813 291.1094,319.7813 C289.0625,319.7813 287.7656,318.6875 287.7656,316.9844 L287.7656,315.8906 C287.7656,314.1094 289.0156,312.7969 290.75,312.7969 C291.3281,312.7969 291.9375,312.9531 292.4063,313.2031 C292.8906,313.4844 293.0625,313.7031 293.1563,314.1094 C293.2188,314.5156 293.25,314.6406 293.3906,314.7656 C293.5313,314.9063 293.7656,315.0156 293.9844,315.0156 C294.25,315.0156 294.5156,314.875 294.6875,314.6563 C294.7969,314.5 294.8281,314.3125 294.8281,313.8906 L294.8281,312.4688 C294.8281,312.0313 294.8125,311.9063 294.7188,311.75 C294.5625,311.4844 294.2813,311.3438 293.9844,311.3438 C293.6875,311.3438 293.4844,311.4375 293.2656,311.75 L293.0938,311.6719 Z " fill="#000000"/><text fill="#000000" font-family="sans-serif" font-size="12" lengthAdjust="spacing" textLength="106" x="311.25" y="320.1543">NonTerminalNode</text><line style="stroke:#000000;stroke-width:1.5;" x1="227" x2="469" y1="332" y2="332"/><line style="stroke:#000000;stroke-width:1.5;" x1="227" x2="469" y1="340" y2="340"/><text fill="#000000" font-family="sans-serif" font-size="11" lengthAdjust="spacing" textLength="88" x="232" y="354.2104">accept(aVisitor)</text><text fill="#000000" font-family="sans-serif" font-size="11" lengthAdjust="spacing" textLength="232" x="232" y="367.0151">add_subnode(subnode : ParseTreeNode)</text><text fill="#000000" font-family="sans-serif" font-size="11" lengthAdjust="spacing" textLength="172" x="232" y="379.8198">to_string(indentation : Integer)</text><!--MD5=[f31929e24ca30a0cab02ded80a311991]
reverse link ParseTree to ParseTreeNode--><path codeLine="31" d="M348,94.37 C348,109.372 348,125.842 348,140.799 " fill="none" id="ParseTree-backto-ParseTreeNode" style="stroke:#000000;stroke-width:1.0;"/><polygon fill="#FFFFFF" points="348,81.091,344,87.091,348,93.091,352,87.091,348,81.091" style="stroke:#000000;stroke-width:1.0;"/><text fill="#000000" font-family="sans-serif" font-size="13" lengthAdjust="spacing" textLength="38" x="307.3281" y="129.816">1 root</text><!--MD5=[f99f4a3b77662eb38591ea313b861d87]
reverse link ParseTreeNode to TerminalNode--><path codeLine="32" d="M250.362,250.514 C223.107,266.988 194.048,284.551 168.754,299.8397 " fill="none" id="ParseTreeNode-backto-TerminalNode" style="stroke:#000000;stroke-width:1.0;"/><polygon fill="none" points="246.763,244.51,267.501,240.155,254.005,256.491,246.763,244.51" style="stroke:#000000;stroke-width:1.0;"/><!--MD5=[8a9bffed9bdb9224ea024e5ce4d719d5]
reverse link ParseTreeNode to NonTerminalNode--><path codeLine="33" d="M335.29,260.403 C335.118,273.896 335.496,287.6631 336.424,299.9523 " fill="none" id="ParseTreeNode-backto-NonTerminalNode" style="stroke:#000000;stroke-width:1.0;"/><polygon fill="none" points="328.296,260.113,335.974,240.363,342.288,260.59,328.296,260.113" style="stroke:#000000;stroke-width:1.0;"/><!--MD5=[e894374db486156a2fd88e2d396cff05]
reverse link NonTerminalNode to ParseTreeNode--><path codeLine="34" d="M361.059,286.9275 C361.741,271.677 361.632,255.233 360.733,240.363 " fill="none" id="NonTerminalNode-backto-ParseTreeNode" style="stroke:#000000;stroke-width:1.0;"/><polygon fill="#FFFFFF" points="360.257,299.9523,364.6184,294.2096,360.9949,287.975,356.6335,293.7177,360.257,299.9523" style="stroke:#000000;stroke-width:1.0;"/><ellipse cx="287.9049" cy="255.6982" fill="#000000" rx="2.5" ry="2.5" style="stroke:#000000;stroke-width:0.0;"/><text fill="#000000" font-family="sans-serif" font-size="13" lengthAdjust="spacing" textLength="62" x="295.4049" y="260.1323">subnodes</text><!--MD5=[710103e7336dba0bf08e504abe609f22]
@startuml
skinparam class {
    BorderColor Black
    ArrowColor Black
  }
  ' == CLASSES =========================
  class ParseTree {
    accept(aVisitor)
    done!()  
  }
  
  abstract class ParseTreeNode {
    symbol : Syntax::GrammarSymbol
    done!()     
    to_s()
    to_string(indentation : Integer)    
  }

  class TerminalNode {
    accept(aVisitor)
    to_s()
    to_string(indentation : Integer)
  }

  class NonTerminalNode {
    accept(aVisitor)
    add_subnode(subnode : ParseTreeNode)
    to_string(indentation : Integer)
  }

  ' == RELATIONSHIPS ===================
  ParseTree o- - "1 root" ParseTreeNode
  ParseTreeNode <|- - TerminalNode
  ParseTreeNode <|- - NonTerminalNode
  NonTerminalNode o- - "* subnodes" ParseTreeNode
@enduml

@startuml
skinparam class {
    BorderColor Black
    ArrowColor Black
  }
  class ParseTree {
    accept(aVisitor)
    done!()  
  }
  
  abstract class ParseTreeNode {
    symbol : Syntax::GrammarSymbol
    done!()     
    to_s()
    to_string(indentation : Integer)    
  }

  class TerminalNode {
    accept(aVisitor)
    to_s()
    to_string(indentation : Integer)
  }

  class NonTerminalNode {
    accept(aVisitor)
    add_subnode(subnode : ParseTreeNode)
    to_string(indentation : Integer)
  }

  ParseTree o- - "1 root" ParseTreeNode
  ParseTreeNode <|- - TerminalNode
  ParseTreeNode <|- - NonTerminalNode
  NonTerminalNode o- - "* subnodes" ParseTreeNode
@enduml

PlantUML version 1.2021.15beta8(Unknown compile time)
(GPL source distribution)
Java Runtime: Java(TM) SE Runtime Environment
JVM: Java HotSpot(TM) 64-Bit Server VM
Default Encoding: UTF-8
Language: en
Country: US
--></g></svg>