<?xml version="1.0" encoding="UTF-8" standalone="no"?><svg xmlns="http://www.w3.org/2000/svg" xmlns:xlink="http://www.w3.org/1999/xlink" contentScriptType="application/ecmascript" contentStyleType="text/css" height="186px" preserveAspectRatio="none" style="width:599px;height:186px;background:#FFFFFF;" version="1.1" viewBox="0 0 599 186" width="599px" zoomAndPan="magnify"><defs/><g><!--MD5=[86a0d4fc92ebb0c60aa28a7b5547f049]
class TOMLDatatype--><polygon fill="#F1F1F1" points="245,7,245,7.2102,255.1538,6.5857,265.3077,7.1933,275.4615,7.3997,285.6154,6.2866,295.7692,6.9223,305.9231,6.5735,316.0769,6.6165,326.2308,6.9318,336.3846,6.3086,346.5385,7.5536,356.6923,6.3697,366.8462,6.8022,377,7,377.0551,7.133,377.3426,7.12,377.7158,7.3139,378.0566,7.4295,378.437,7.6408,378.7678,7.7322,378.8414,7.7627,379.0946,8.1605,379.2673,8.5249,379.4163,8.8795,379.432,9.1789,379.5,9.5,379.9636,9.5,380.2022,19.3828,378.7788,29.2656,380.1785,39.1484,379.2035,49.0313,380.0338,58.9141,379.5,68.7969,379.3476,68.7337,379.3325,69.1417,379.4355,69.5986,379.0457,69.8513,378.9466,70.2245,378.7678,70.5646,378.811,70.6689,378.4673,70.8393,378.0602,70.8563,377.7437,71.0924,377.2805,70.9741,377,71.2969,377,71.5813,366.8462,71.8451,356.6923,71.7414,346.5385,71.9099,336.3846,70.8138,326.2308,70.6447,316.0769,70.6755,305.9231,71.238,295.7692,71.1003,285.6154,71.9783,275.4615,71.1222,265.3077,70.9538,255.1538,71.5251,245,71.2969,244.9149,71.0915,244.5802,70.9906,244.3757,71.2038,243.9949,70.9917,243.6795,70.9373,243.2322,70.5646,243.1331,70.5236,243.1841,70.2518,243.1212,69.9328,242.6474,69.4437,242.6169,69.1382,242.5,68.7969,242.626,68.7969,243.1518,58.9141,242.4958,49.0313,242.9626,39.1484,241.9462,29.2656,241.8227,19.3828,242.5,9.5,242.6551,9.5642,242.4257,9.055,242.9496,8.8578,243.003,8.4657,243.0033,8.0516,243.2322,7.7322,243.1871,7.6233,243.6443,7.7271,243.9012,7.3472,244.3684,7.4752,244.5759,6.9762,245,7" style="stroke:#000000;stroke-width:0.5;"/><polygon fill="#A9DCDF" points="268.5608,25.6756,266.9484,27.8788,265.0412,31.1057,262.3136,33.2804,259.4474,34.4696,257.162,34.5728,254.2247,33.0855,251.4532,32.1139,249.3495,30.1412,248.2461,27.8828,247.5917,26.0845,246.9506,23.7357,245.91,21.7145,246.7096,19.741,247.4102,17.5792,250.0393,15.8695,251.889,13.6511,254.1784,12.9144,256.9001,12.2801,260.3904,12.657,262.3021,13.5585,264.5247,13.9672,267.2272,16.736,268.1693,19.659,268.5786,21.6534,268.115,24.9399" style="stroke:#181818;stroke-width:1.0;"/><path d="M259.5781,24.8125 L259.9688,25.7969 L259.5781,25.7969 C259.125,25.7969 259.0156,25.8125 258.8594,25.9219 C258.6094,26.0781 258.4531,26.3594 258.4531,26.6563 C258.4531,26.9219 258.5938,27.1719 258.8125,27.3281 C258.9531,27.4531 259.1563,27.5 259.5781,27.5 L261.9375,27.5 C262.2969,27.5 262.5156,27.4688 262.6563,27.375 C262.9063,27.2344 263.0625,26.9375 263.0625,26.6563 C263.0625,26.375 262.9219,26.125 262.7031,25.9688 C262.5313,25.8281 262.375,25.7969 261.9063,25.7969 L258.5156,17.5938 L254.8438,17.5938 C254.3906,17.5938 254.2656,17.6094 254.1094,17.7031 C253.8594,17.875 253.7031,18.1563 253.7031,18.4375 C253.7031,18.7188 253.8438,18.9688 254.0625,19.1406 C254.2344,19.25 254.4063,19.2813 254.8438,19.2813 L255.9219,19.2813 L253.2813,25.7969 C252.8594,25.7969 252.7031,25.8125 252.5469,25.9219 C252.2969,26.0781 252.1406,26.3594 252.1406,26.6563 C252.1406,27.2188 252.5156,27.5 253.2656,27.5 L255.5313,27.5 C255.8906,27.5 256.1094,27.4688 256.2344,27.375 C256.5,27.2344 256.6406,26.9375 256.6406,26.6563 C256.6406,26.375 256.5156,26.125 256.2969,25.9531 C256.125,25.8281 255.9844,25.7969 255.5313,25.7969 L255.1406,25.7969 L255.5313,24.8125 L259.5781,24.8125 Z M258.875,23.1094 L256.2031,23.1094 L257.5469,19.8438 L258.875,23.1094 Z " fill="#000000"/><text fill="#000000" font-family="sans-serif" font-size="14" font-style="italic" lengthAdjust="spacing" textLength="105" x="271.5" y="27.8467">TOMLDatatype</text><path d="M243.5,39 L243.5,39.2802 L253.1429,38.4476 L262.7857,39.2577 L272.4286,39.5329 L282.0714,38.0488 L291.7143,38.8964 L301.3571,38.4313 L311,38.4887 L320.6429,38.9091 L330.2857,38.0782 L339.9286,39.7382 L349.5714,38.1596 L359.2143,38.7363 L368.8571,39.5759 L378.5,39 " fill="#F1F1F1" style="stroke:#000000;stroke-width:0.5;"/><text fill="#000000" font-family="sans-serif" font-size="14" lengthAdjust="spacing" textLength="99" x="248.5" y="55.9951">value : Object</text><path d="M243.5,63.2969 L243.5,63.5771 L253.1429,62.7444 L262.7857,63.5546 L272.4286,63.8298 L282.0714,62.3457 L291.7143,63.1933 L301.3571,62.7282 L311,62.7855 L320.6429,63.206 L330.2857,62.375 L339.9286,64.0351 L349.5714,62.4565 L359.2143,63.0332 L368.8571,63.8728 L378.5,63.2969 " fill="#F1F1F1" style="stroke:#000000;stroke-width:0.5;"/><!--MD5=[24cc18ae4eca35bf877b9d81c278a472]
class TOMLBoolean--><polygon fill="#F1F1F1" points="9.5,131,9.5,131.2102,19.1154,130.5857,28.7308,131.1933,38.3462,131.3997,47.9615,130.2866,57.5769,130.9223,67.1923,130.5735,76.8077,130.6165,86.4231,130.9318,96.0385,130.3086,105.6538,131.5536,115.2692,130.3697,124.8846,130.8022,134.5,131,134.5551,131.133,134.8426,131.12,135.2158,131.3139,135.5566,131.4295,135.937,131.6408,136.2678,131.7322,136.3414,131.7627,136.5946,132.1605,136.7673,132.5249,136.9163,132.8795,136.932,133.1789,137,133.5,137.1545,133.5,137.2341,142.1,136.7596,150.7,137.2262,159.3,136.9012,167.9,137,176.5,137.1644,176.5681,136.7011,176.7904,136.686,177.1984,136.789,177.6553,136.3992,177.908,136.2678,178.2678,136.2812,178.3002,135.9574,178.5185,135.6138,178.6888,135.2066,178.7059,134.8902,178.942,134.5,179,134.5,178.4276,124.8846,179.2844,115.2692,179.5482,105.6538,179.4445,96.0385,179.613,86.4231,178.5169,76.8077,178.3478,67.1923,178.3786,57.5769,178.9411,47.9615,178.8035,38.3462,179.6814,28.7308,178.8253,19.1154,178.6569,9.5,179,9.5291,179.0703,9.0614,178.6482,8.7267,178.5472,8.5221,178.7605,8.1414,178.5484,7.7322,178.2678,7.9584,178.3615,7.4867,177.8732,7.5376,177.6014,7.4747,177.2824,7.001,176.7933,7,176.5,6.968,176.5,7.042,167.9,7.2173,159.3,6.9986,150.7,7.1542,142.1,7,133.5,6.8295,133.4294,6.9379,133.0601,7.448,132.8571,7.2186,132.3479,7.7425,132.1507,7.7322,131.7322,7.7586,131.7959,8.0516,131.5033,8.3942,131.3304,8.8514,131.4342,9.1083,131.0543,9.5,131" style="stroke:#000000;stroke-width:0.5;"/><polygon fill="#ADD1B2" points="33.0608,149.6756,31.4484,151.8788,29.5412,155.1057,26.8136,157.2804,23.9474,158.4696,21.662,158.5728,18.7247,157.0855,15.9532,156.1139,13.8495,154.1412,12.7461,151.8828,12.0917,150.0845,11.4506,147.7357,10.41,145.7145,11.2096,143.741,11.9102,141.5792,14.5393,139.8695,16.389,137.6511,18.6784,136.9144,21.4001,136.2801,24.8904,136.657,26.8021,137.5585,29.0247,137.9672,31.7272,140.736,32.6693,143.659,33.0786,145.6534,32.615,148.9399" style="stroke:#181818;stroke-width:1.0;"/><path d="M24.3438,142.6719 C23.4063,142.2344 22.8125,142.0938 21.9375,142.0938 C19.3125,142.0938 17.3125,144.1719 17.3125,146.8906 L17.3125,148.0156 C17.3125,150.5938 19.4219,152.4844 22.3125,152.4844 C23.5313,152.4844 24.6875,152.1875 25.4375,151.6406 C26.0156,151.2344 26.3438,150.7813 26.3438,150.3906 C26.3438,149.9375 25.9531,149.5469 25.4844,149.5469 C25.2656,149.5469 25.0625,149.625 24.875,149.8125 C24.4219,150.2969 24.4219,150.2969 24.2344,150.3906 C23.8125,150.6563 23.125,150.7813 22.3594,150.7813 C20.3125,150.7813 19.0156,149.6875 19.0156,147.9844 L19.0156,146.8906 C19.0156,145.1094 20.2656,143.7969 22,143.7969 C22.5781,143.7969 23.1875,143.9531 23.6563,144.2031 C24.1406,144.4844 24.3125,144.7031 24.4063,145.1094 C24.4688,145.5156 24.5,145.6406 24.6406,145.7656 C24.7813,145.9063 25.0156,146.0156 25.2344,146.0156 C25.5,146.0156 25.7656,145.875 25.9375,145.6563 C26.0469,145.5 26.0781,145.3125 26.0781,144.8906 L26.0781,143.4688 C26.0781,143.0313 26.0625,142.9063 25.9688,142.75 C25.8125,142.4844 25.5313,142.3438 25.2344,142.3438 C24.9375,142.3438 24.7344,142.4375 24.5156,142.75 L24.3438,142.6719 Z " fill="#000000"/><text fill="#000000" font-family="sans-serif" font-size="14" lengthAdjust="spacing" textLength="98" x="36" y="151.8467">TOMLBoolean</text><path d="M8,163 L8,163.2802 L17.8462,162.4476 L27.6923,163.2577 L37.5385,163.5329 L47.3846,162.0488 L57.2308,162.8964 L67.0769,162.4313 L76.9231,162.4887 L86.7692,162.9091 L96.6154,162.0782 L106.4615,163.7382 L116.3077,162.1596 L126.1538,162.7363 L136,163 " fill="#F1F1F1" style="stroke:#000000;stroke-width:0.5;"/><path d="M8,171 L8,171.2802 L17.8462,170.4476 L27.6923,171.2577 L37.5385,171.5329 L47.3846,170.0488 L57.2308,170.8964 L67.0769,170.4313 L76.9231,170.4887 L86.7692,170.9091 L96.6154,170.0782 L106.4615,171.7382 L116.3077,170.1596 L126.1538,170.7363 L136,171 " fill="#F1F1F1" style="stroke:#000000;stroke-width:0.5;"/><!--MD5=[0292f36b444c2fa0dc5ffa9f87c00731]
class TOMLInteger--><polygon fill="#F1F1F1" points="175,131,175,131.2102,185,130.5857,195,131.1933,205,131.3997,215,130.2866,225,130.9223,235,130.5735,245,130.6165,255,130.9318,265,130.3086,275,131.5536,285,130.3697,295,131,294.9748,130.9391,295.4087,131.2795,295.6962,131.2665,296.0694,131.4604,296.4101,131.5759,296.7678,131.7322,296.8227,131.755,296.9879,132.1163,297.241,132.5141,297.4138,132.8785,297.5627,133.2331,297.5,133.5,297.5849,133.5,297.6545,142.1,297.7341,150.7,297.2596,159.3,297.7262,167.9,297.5,176.5,297.4087,176.4622,297.5179,176.9216,297.0547,177.144,297.0396,177.5519,297.1426,178.0088,296.7678,178.2678,296.7616,178.2528,296.4276,178.4466,296.1039,178.6649,295.7602,178.8353,295.3531,178.8524,295,179,295,179.2872,285,178.4276,275,179.2844,265,179.5482,255,179.4445,245,179.613,235,178.5169,225,178.3478,215,178.3786,205,178.9411,195,178.8035,185,179.6814,175,179,174.9777,178.9462,174.6027,178.7479,174.322,178.7774,173.8543,178.3553,173.5196,178.2543,173.2322,178.2678,173.4321,178.3505,173.22,177.9698,173.1655,177.6544,172.6938,177.1661,172.7447,176.8943,172.5,176.5,172.6968,176.5,172.3425,167.9,172.468,159.3,172.542,150.7,172.7173,142.1,172.5,133.5,172.4987,133.4995,172.7889,133.2055,172.6223,132.7223,172.7308,132.3529,173.2409,132.15,173.2322,131.7322,173.1408,131.5114,173.6507,131.7425,173.9657,131.503,174.2587,131.2104,174.6013,131.0375,175,131" style="stroke:#000000;stroke-width:0.5;"/><polygon fill="#ADD1B2" points="198.5608,149.6756,196.9484,151.8788,195.0412,155.1057,192.3136,157.2804,189.4474,158.4696,187.162,158.5728,184.2247,157.0855,181.4532,156.1139,179.3495,154.1412,178.2461,151.8828,177.5917,150.0845,176.9506,147.7357,175.91,145.7145,176.7096,143.741,177.4102,141.5792,180.0393,139.8695,181.889,137.6511,184.1784,136.9144,186.9001,136.2801,190.3904,136.657,192.3021,137.5585,194.5247,137.9672,197.2272,140.736,198.1693,143.659,198.5786,145.6534,198.115,148.9399" style="stroke:#181818;stroke-width:1.0;"/><path d="M189.8438,142.6719 C188.9063,142.2344 188.3125,142.0938 187.4375,142.0938 C184.8125,142.0938 182.8125,144.1719 182.8125,146.8906 L182.8125,148.0156 C182.8125,150.5938 184.9219,152.4844 187.8125,152.4844 C189.0313,152.4844 190.1875,152.1875 190.9375,151.6406 C191.5156,151.2344 191.8438,150.7813 191.8438,150.3906 C191.8438,149.9375 191.4531,149.5469 190.9844,149.5469 C190.7656,149.5469 190.5625,149.625 190.375,149.8125 C189.9219,150.2969 189.9219,150.2969 189.7344,150.3906 C189.3125,150.6563 188.625,150.7813 187.8594,150.7813 C185.8125,150.7813 184.5156,149.6875 184.5156,147.9844 L184.5156,146.8906 C184.5156,145.1094 185.7656,143.7969 187.5,143.7969 C188.0781,143.7969 188.6875,143.9531 189.1563,144.2031 C189.6406,144.4844 189.8125,144.7031 189.9063,145.1094 C189.9688,145.5156 190,145.6406 190.1406,145.7656 C190.2813,145.9063 190.5156,146.0156 190.7344,146.0156 C191,146.0156 191.2656,145.875 191.4375,145.6563 C191.5469,145.5 191.5781,145.3125 191.5781,144.8906 L191.5781,143.4688 C191.5781,143.0313 191.5625,142.9063 191.4688,142.75 C191.3125,142.4844 191.0313,142.3438 190.7344,142.3438 C190.4375,142.3438 190.2344,142.4375 190.0156,142.75 L189.8438,142.6719 Z " fill="#000000"/><text fill="#000000" font-family="sans-serif" font-size="14" lengthAdjust="spacing" textLength="93" x="201.5" y="151.8467">TOMLInteger</text><path d="M173.5,163 L173.5,163.2802 L183.75,162.4476 L194,163.2577 L204.25,163.5329 L214.5,162.0488 L224.75,162.8964 L235,162.4313 L245.25,162.4887 L255.5,162.9091 L265.75,162.0782 L276,163.7382 L286.25,162.1596 L296.5,163 " fill="#F1F1F1" style="stroke:#000000;stroke-width:0.5;"/><path d="M173.5,171 L173.5,171.2802 L183.75,170.4476 L194,171.2577 L204.25,171.5329 L214.5,170.0488 L224.75,170.8964 L235,170.4313 L245.25,170.4887 L255.5,170.9091 L265.75,170.0782 L276,171.7382 L286.25,170.1596 L296.5,171 " fill="#F1F1F1" style="stroke:#000000;stroke-width:0.5;"/><!--MD5=[c534894a0ca8e4d39390e21d83832bea]
class TOMLFloat--><polygon fill="#F1F1F1" points="335.5,131,335.5,131.2102,345.8,130.5857,356.1,131.1933,366.4,131.3997,376.7,130.2866,387,130.9223,397.3,130.5735,407.6,130.6165,417.9,130.9318,428.2,130.3086,438.5,131,438.5706,131.1705,438.7732,130.9523,439.1819,131.232,439.6158,131.5724,439.9033,131.5594,440.2678,131.7322,440.2888,131.7409,440.4044,132.0817,440.6156,132.4621,440.7808,132.8234,441.0339,133.2212,441,133.5,441.2237,133.5,441.2264,142.1,441.0849,150.7,441.1545,159.3,441.2341,167.9,441,176.5,440.7779,176.408,441.0625,176.9401,440.6158,177.1693,440.7251,177.6288,440.2618,177.8511,440.2678,178.2678,440.259,178.2467,440.0088,178.6426,439.5544,178.5457,439.2205,178.7395,438.8967,178.9578,438.5,179,438.5,179.4162,428.2,178.9961,417.9,179.2872,407.6,178.4276,397.3,179.2844,387,179.5482,376.7,179.4445,366.4,179.613,356.1,178.5169,345.8,178.3478,335.5,179,335.4207,178.8086,335.1389,178.8354,334.7678,178.6466,334.5263,178.7705,334.0635,178.3604,333.7322,178.2678,333.6266,178.224,333.6561,177.9433,333.234,177.4756,333.133,177.1409,333.3463,176.9363,333,176.5,333.1452,176.5,333.2448,167.9,332.8927,159.3,333.1064,150.7,333.1968,142.1,333,133.5,332.8545,133.4397,333.1169,133.1342,333.3317,132.809,333.6401,132.5225,333.5845,132.0853,333.7322,131.7322,333.7912,131.8747,334.0151,131.4152,334.3529,131.2308,334.8571,131.448,335.055,130.9257,335.5,131" style="stroke:#000000;stroke-width:0.5;"/><polygon fill="#ADD1B2" points="359.0608,149.6756,357.4484,151.8788,355.5412,155.1057,352.8136,157.2804,349.9474,158.4696,347.662,158.5728,344.7247,157.0855,341.9532,156.1139,339.8495,154.1412,338.7461,151.8828,338.0917,150.0845,337.4506,147.7357,336.41,145.7145,337.2096,143.741,337.9102,141.5792,340.5393,139.8695,342.389,137.6511,344.6784,136.9144,347.4001,136.2801,350.8904,136.657,352.8021,137.5585,355.0247,137.9672,357.7272,140.736,358.6693,143.659,359.0786,145.6534,358.615,148.9399" style="stroke:#181818;stroke-width:1.0;"/><path d="M350.3438,142.6719 C349.4063,142.2344 348.8125,142.0938 347.9375,142.0938 C345.3125,142.0938 343.3125,144.1719 343.3125,146.8906 L343.3125,148.0156 C343.3125,150.5938 345.4219,152.4844 348.3125,152.4844 C349.5313,152.4844 350.6875,152.1875 351.4375,151.6406 C352.0156,151.2344 352.3438,150.7813 352.3438,150.3906 C352.3438,149.9375 351.9531,149.5469 351.4844,149.5469 C351.2656,149.5469 351.0625,149.625 350.875,149.8125 C350.4219,150.2969 350.4219,150.2969 350.2344,150.3906 C349.8125,150.6563 349.125,150.7813 348.3594,150.7813 C346.3125,150.7813 345.0156,149.6875 345.0156,147.9844 L345.0156,146.8906 C345.0156,145.1094 346.2656,143.7969 348,143.7969 C348.5781,143.7969 349.1875,143.9531 349.6563,144.2031 C350.1406,144.4844 350.3125,144.7031 350.4063,145.1094 C350.4688,145.5156 350.5,145.6406 350.6406,145.7656 C350.7813,145.9063 351.0156,146.0156 351.2344,146.0156 C351.5,146.0156 351.7656,145.875 351.9375,145.6563 C352.0469,145.5 352.0781,145.3125 352.0781,144.8906 L352.0781,143.4688 C352.0781,143.0313 352.0625,142.9063 351.9688,142.75 C351.8125,142.4844 351.5313,142.3438 351.2344,142.3438 C350.9375,142.3438 350.7344,142.4375 350.5156,142.75 L350.3438,142.6719 Z " fill="#000000"/><text fill="#000000" font-family="sans-serif" font-size="14" lengthAdjust="spacing" textLength="76" x="362" y="151.8467">TOMLFloat</text><path d="M334,163 L334,163.2802 L343.6364,162.4476 L353.2727,163.2577 L362.9091,163.5329 L372.5455,162.0488 L382.1818,162.8964 L391.8182,162.4313 L401.4545,162.4887 L411.0909,162.9091 L420.7273,162.0782 L430.3636,163.7382 L440,163 " fill="#F1F1F1" style="stroke:#000000;stroke-width:0.5;"/><path d="M334,171 L334,171.2802 L343.6364,170.4476 L353.2727,171.2577 L362.9091,171.5329 L372.5455,170.0488 L382.1818,170.8964 L391.8182,170.4313 L401.4545,170.4887 L411.0909,170.9091 L420.7273,170.0782 L430.3636,171.7382 L440,171 " fill="#F1F1F1" style="stroke:#000000;stroke-width:0.5;"/><!--MD5=[d434cac494a857c4f99ac70a230bc258]
class TOMLString--><polygon fill="#F1F1F1" points="478.5,131,478.5,131.2102,488.5909,130.5857,498.6818,131.1933,508.7727,131.3997,518.8636,130.2866,528.9545,130.9223,539.0455,130.5735,549.1364,130.6165,559.2273,130.9318,569.3182,130.3086,579.4091,131.5536,589.5,131,589.4196,130.8059,589.8283,131.0855,590.2622,131.4259,590.5497,131.4129,590.9229,131.6068,591.2678,131.7322,591.2579,131.7282,591.4692,132.1086,591.6343,132.4698,591.8875,132.8676,592.0602,133.232,592,133.5,592.2264,133.5,592.0849,142.1,592.1545,150.7,592.2341,159.3,591.7596,167.9,592,176.5,592.209,176.5866,591.7622,176.8157,591.8715,177.2752,591.4082,177.4975,591.3931,177.9055,591.2678,178.2678,591.3624,178.4962,590.908,178.3992,590.5741,178.5931,590.2503,178.8114,589.9066,178.9817,589.5,179,589.5,178.9961,579.4091,179.2872,569.3182,178.4276,559.2273,179.2844,549.1364,179.5482,539.0455,179.4445,528.9545,179.613,518.8636,178.5169,508.7727,178.3478,498.6818,178.3786,488.5909,178.9411,478.5,179,478.4749,178.9395,478.2334,179.0634,477.7706,178.6533,477.3956,178.455,477.1149,178.4845,476.7322,178.2678,476.5269,178.1827,476.4259,177.848,476.6392,177.6434,476.4271,177.2627,476.3726,176.9472,476,176.5,475.8927,176.5,476.1064,167.9,476.1968,159.3,475.8425,150.7,475.968,142.1,476,133.5,476.0388,133.5161,476.3472,133.2296,476.2916,132.7924,476.5818,132.4983,476.4152,132.0151,476.7322,131.7322,476.6458,131.5237,477.15,131.7409,477.3479,131.2186,477.8578,131.4496,478.1728,131.2101,478.5,131" style="stroke:#000000;stroke-width:0.5;"/><polygon fill="#ADD1B2" points="502.0608,149.6756,500.4484,151.8788,498.5412,155.1057,495.8136,157.2804,492.9474,158.4696,490.662,158.5728,487.7247,157.0855,484.9532,156.1139,482.8495,154.1412,481.7461,151.8828,481.0917,150.0845,480.4506,147.7357,479.41,145.7145,480.2096,143.741,480.9102,141.5792,483.5393,139.8695,485.389,137.6511,487.6784,136.9144,490.4001,136.2801,493.8904,136.657,495.8021,137.5585,498.0247,137.9672,500.7272,140.736,501.6693,143.659,502.0786,145.6534,501.615,148.9399" style="stroke:#181818;stroke-width:1.0;"/><path d="M493.3438,142.6719 C492.4063,142.2344 491.8125,142.0938 490.9375,142.0938 C488.3125,142.0938 486.3125,144.1719 486.3125,146.8906 L486.3125,148.0156 C486.3125,150.5938 488.4219,152.4844 491.3125,152.4844 C492.5313,152.4844 493.6875,152.1875 494.4375,151.6406 C495.0156,151.2344 495.3438,150.7813 495.3438,150.3906 C495.3438,149.9375 494.9531,149.5469 494.4844,149.5469 C494.2656,149.5469 494.0625,149.625 493.875,149.8125 C493.4219,150.2969 493.4219,150.2969 493.2344,150.3906 C492.8125,150.6563 492.125,150.7813 491.3594,150.7813 C489.3125,150.7813 488.0156,149.6875 488.0156,147.9844 L488.0156,146.8906 C488.0156,145.1094 489.2656,143.7969 491,143.7969 C491.5781,143.7969 492.1875,143.9531 492.6563,144.2031 C493.1406,144.4844 493.3125,144.7031 493.4063,145.1094 C493.4688,145.5156 493.5,145.6406 493.6406,145.7656 C493.7813,145.9063 494.0156,146.0156 494.2344,146.0156 C494.5,146.0156 494.7656,145.875 494.9375,145.6563 C495.0469,145.5 495.0781,145.3125 495.0781,144.8906 L495.0781,143.4688 C495.0781,143.0313 495.0625,142.9063 494.9688,142.75 C494.8125,142.4844 494.5313,142.3438 494.2344,142.3438 C493.9375,142.3438 493.7344,142.4375 493.5156,142.75 L493.3438,142.6719 Z " fill="#000000"/><text fill="#000000" font-family="sans-serif" font-size="14" lengthAdjust="spacing" textLength="84" x="505" y="151.8467">TOMLString</text><path d="M477,163 L477,163.2802 L487.3636,162.4476 L497.7273,163.2577 L508.0909,163.5329 L518.4545,162.0488 L528.8182,162.8964 L539.1818,162.4313 L549.5455,162.4887 L559.9091,162.9091 L570.2727,162.0782 L580.6364,163.7382 L591,163 " fill="#F1F1F1" style="stroke:#000000;stroke-width:0.5;"/><path d="M477,171 L477,171.2802 L487.3636,170.4476 L497.7273,171.2577 L508.0909,171.5329 L518.4545,170.0488 L528.8182,170.8964 L539.1818,170.4313 L549.5455,170.4887 L559.9091,170.9091 L570.2727,170.0782 L580.6364,171.7382 L591,171 " fill="#F1F1F1" style="stroke:#000000;stroke-width:0.5;"/><!--MD5=[ba505bdf5bfa2d6b9373fc5445d18f5d]
reverse link TOMLDatatype to TOMLBoolean--><path d="M227.746,79.7113 L227.8666,79.9642 L218.5538,83.4838 L209.9483,88.4861 L201.1124,93.0056 L191.5192,95.9371 L182.9297,100.9732 L173.7752,104.8246 L164.8455,109.1474 L156.0722,113.798 L146.7601,117.3191 L138.5205,123.0885 L128.8865,125.9348 L120.294,130.9644 " fill="none" style="stroke:#000000;stroke-width:1.0;"/><polygon fill="none" points="224.943,73.293,224.9506,73.3626,229.1411,72.6971,233.376,72.4399,237.5964,72.0496,241.7693,71.2222,246.008,71,245.9897,70.9816,242.9002,73.8849,239.9027,76.8808,236.9692,79.9412,233.8152,82.7796,230.97,85.9289,231.1366,86.0083,229.575,83.3113,228.4997,80.8462,227.4838,78.4093,226.1226,75.8079,224.943,73.293" style="stroke:#000000;stroke-width:1.0;"/><!--MD5=[fa4acf5b0a3eeef1d4114341ddd4db01]
reverse link TOMLDatatype to TOMLInteger--><path d="M279.036,87.9456 L279.2692,88.101 L272.8566,96.219 L267.8108,105.2482 L262.32,113.9806 L255.3654,121.7372 L250.437,130.8446 " fill="none" style="stroke:#000000;stroke-width:1.0;"/><polygon fill="none" points="273.314,83.9091,273.3562,83.965,276.6146,81.2472,280.1204,78.8573,283.5456,76.3606,286.706,73.5128,290.233,71.151,290.2079,71.1446,289.0413,75.2204,288.0012,79.3288,287.049,83.4597,285.7938,87.5128,284.963,91.6749,285.0654,91.8285,282.5167,89.9469,280.2668,88.5137,278.0535,87.1352,275.6279,85.4385,273.314,83.9091" style="stroke:#000000;stroke-width:1.0;"/><!--MD5=[8d913f35269f744ead665e04dd1dd90b]
reverse link TOMLDatatype to TOMLFloat--><path d="M342.964,87.9456 L343.1972,88.101 L348.2242,96.219 L354.618,105.2482 L360.5668,113.9806 L365.0518,121.7372 L371.563,130.8446 " fill="none" style="stroke:#000000;stroke-width:1.0;"/><polygon fill="none" points="337.037,91.6749,337.1049,91.6923,335.8492,87.5358,334.9914,83.4814,334.004,79.3937,332.5907,75.1966,331.767,71.151,331.7514,71.1303,335.0652,73.5891,338.4576,76.1522,341.9047,78.7877,345.1634,81.1735,348.686,83.9091,348.7884,84.0627,346.2397,85.2875,343.9898,86.9606,341.7765,88.6884,339.3509,90.0979,337.037,91.6749" style="stroke:#000000;stroke-width:1.0;"/><!--MD5=[43a5b17051952e5191ea2ad9b3caac41]
reverse link TOMLDatatype to TOMLString--><path d="M389.604,80.1833 L389.7316,80.4328 L398.383,84.3079 L407.7822,89.6457 L416.9379,94.5072 L425.2929,97.8022 L434.7091,103.1734 L443.5279,107.3757 L452.5844,112.0433 L461.8063,117.0341 L470.4585,120.9107 L480.2446,127.0052 L488.939,130.9644 " fill="none" style="stroke:#000000;stroke-width:1.0;"/><polygon fill="none" points="386.263,86.3369,386.3137,86.3852,383.2386,83.1742,380.4608,80.2466,377.5862,77.2267,374.3933,73.9033,371.641,71,371.6375,70.9743,375.8205,71.4333,380.0213,72.0217,384.2343,72.7001,388.405,73.0685,392.635,73.871,392.7993,73.955,391.1735,76.2686,390.0275,78.8274,388.94,81.4161,387.5119,83.8307,386.263,86.3369" style="stroke:#000000;stroke-width:1.0;"/><!--MD5=[6915fc938db613466869ba6887573776]
@startuml
skinparam handwritten true
  skinparam class {
    BorderColor Black
    ArrowColor Black
  }
  ' == CLASSES =========================
  abstract class TOMLDatatype {
    value : Object
  }
  class TOMLBoolean
  class TOMLInteger
  class TOMLFloat
  class TOMLString

  ' == RELATIONSHIPS ===================
  TOMLDatatype <|- - TOMLBoolean
  TOMLDatatype <|- - TOMLInteger
  TOMLDatatype <|- - TOMLFloat
  TOMLDatatype <|- - TOMLString
@enduml

@startuml
skinparam handwritten true
  skinparam class {
    BorderColor Black
    ArrowColor Black
  }
  abstract class TOMLDatatype {
    value : Object
  }
  class TOMLBoolean
  class TOMLInteger
  class TOMLFloat
  class TOMLString

  TOMLDatatype <|- - TOMLBoolean
  TOMLDatatype <|- - TOMLInteger
  TOMLDatatype <|- - TOMLFloat
  TOMLDatatype <|- - TOMLString
@enduml

PlantUML version 1.2022.2beta5(Unknown compile time)
(GPL source distribution)
Java Runtime: Java(TM) SE Runtime Environment
JVM: Java HotSpot(TM) 64-Bit Server VM
Default Encoding: UTF-8
Language: en
Country: US
--></g></svg>