<?xml version="1.0" encoding="UTF-8" standalone="no"?><svg xmlns="http://www.w3.org/2000/svg" xmlns:xlink="http://www.w3.org/1999/xlink" contentStyleType="text/css" height="175px" preserveAspectRatio="none" style="width:243px;height:175px;" version="1.1" viewBox="0 0 243 175" width="243px" zoomAndPan="magnify"><defs><style type="text/css"><![CDATA[*.f_f1f1f1_070707 {fill:#f1f1f1;}*.f_000000_ffffff {fill:#000000;}@media (prefers-color-scheme:dark) {*.f_f1f1f1_070707 {fill:#070707;}*.f_000000_ffffff {fill:#ffffff;}}]]></style></defs><g><!--MD5=[86a0d4fc92ebb0c60aa28a7b5547f049]
class TOMLDatatype--><g id="elem_TOMLDatatype"><polygon class="f_f1f1f1_070707" points="72,7,72,7.2102,81.6364,6.5857,91.2727,7.1933,100.9091,7.3997,110.5455,6.2866,120.1818,6.9223,129.8182,6.5735,139.4545,6.6165,149.0909,6.9318,158.7273,6.3086,168.3636,7.5536,178,7,177.9196,6.8059,178.3283,7.0855,178.7622,7.4259,179.0497,7.4129,179.4229,7.6068,179.7678,7.7322,179.7579,7.7282,179.9692,8.1086,180.1343,8.4698,180.3875,8.8676,180.5602,9.232,180.5,9.5,181.1793,9.5,180.7546,20.2188,180.9636,30.9375,181.2022,41.6563,179.7788,52.375,180.5,63.0938,180.709,63.1803,180.2622,63.4095,180.3715,63.869,179.9082,64.0913,179.8931,64.4992,179.7678,64.8615,179.8624,65.0899,179.408,64.993,179.0741,65.1868,178.7503,65.4051,178.4066,65.5755,178,65.5938,178,65.5898,168.3636,65.881,158.7273,65.0213,149.0909,65.8781,139.4545,66.1419,129.8182,66.0383,120.1818,66.2068,110.5455,65.1107,100.9091,64.9416,91.2727,64.9723,81.6364,65.5349,72,65.5938,71.9749,65.5332,71.7334,65.6572,71.2706,65.2471,70.8956,65.0488,70.6149,65.0783,70.2322,64.8615,70.0269,64.7765,69.9259,64.4417,70.1392,64.2372,69.9271,63.8564,69.8726,63.541,69.5,63.0938,69.1782,63.0938,69.8192,52.375,70.0904,41.6563,69.0276,30.9375,69.4041,20.2188,69.5,9.5,69.5388,9.5161,69.8472,9.2296,69.7916,8.7924,70.0818,8.4983,69.9152,8.0151,70.2322,7.7322,70.1458,7.5237,70.65,7.7409,70.8479,7.2186,71.3578,7.4496,71.6728,7.2101,72,7" style="stroke:#000000;stroke-width:0.5;"/><text class="f_000000_ffffff" font-family="sans-serif" font-size="14" font-style="italic" lengthAdjust="spacing" textLength="105" x="72.5" y="24.9951">TOMLDatatype</text><path class="f_f1f1f1_070707" d="M70.5,33.2969 L70.5,33.5771 L80.4091,32.7444 L90.3182,33.5546 L100.2273,33.8298 L110.1364,32.3457 L120.0455,33.1933 L129.9545,32.7282 L139.8636,32.7855 L149.7727,33.206 L159.6818,32.375 L169.5909,34.0351 L179.5,33.2969 " style="stroke:#000000;stroke-width:0.5;"/><text class="f_000000_ffffff" font-family="sans-serif" font-size="14" lengthAdjust="spacing" textLength="99" x="75.5" y="50.292">value : Object</text><path class="f_f1f1f1_070707" d="M70.5,57.5938 L70.5,57.874 L80.4091,57.0413 L90.3182,57.8515 L100.2273,58.1267 L110.1364,56.6426 L120.0455,57.4901 L129.9545,57.0251 L139.8636,57.0824 L149.7727,57.5029 L159.6818,56.6719 L169.5909,58.3319 L179.5,57.5938 " style="stroke:#000000;stroke-width:0.5;"/></g><!--MD5=[24cc18ae4eca35bf877b9d81c278a472]
class TOMLBoolean--><g id="elem_TOMLBoolean"><polygon class="f_f1f1f1_070707" points="9.5,126,9.5,126.2102,19.4,125.5857,29.3,126.1933,39.2,126.3997,49.1,125.2866,59,125.9223,68.9,125.5735,78.8,125.6165,88.7,125.9318,98.6,125.3086,108.5,126,108.5706,126.1705,108.7732,125.9523,109.1819,126.232,109.6158,126.5724,109.9033,126.5594,110.2678,126.7322,110.2888,126.7409,110.4044,127.0817,110.6156,127.4621,110.7808,127.8234,111.0339,128.2212,111,128.5,111.2237,128.5,111.2264,135.9594,111.0849,143.4188,111.1545,150.8781,111.2341,158.3375,111,165.7969,110.7779,165.7049,111.0625,166.237,110.6158,166.4662,110.7251,166.9256,110.2618,167.1479,110.2678,167.5646,110.259,167.5435,110.0088,167.9395,109.5544,167.8425,109.2205,168.0364,108.8967,168.2547,108.5,168.2969,108.5,168.7131,98.6,168.293,88.7,168.5841,78.8,167.7245,68.9,168.5813,59,168.8451,49.1,168.7414,39.2,168.9099,29.3,167.8138,19.4,167.6447,9.5,168.2969,9.4207,168.1055,9.1389,168.1323,8.7678,167.9435,8.5263,168.0674,8.0635,167.6573,7.7322,167.5646,7.6266,167.5209,7.6561,167.2402,7.234,166.7725,7.133,166.4378,7.3463,166.2332,7,165.7969,7.1452,165.7969,7.2448,158.3375,6.8927,150.8781,7.1064,143.4188,7.1968,135.9594,7,128.5,6.8545,128.4397,7.1169,128.1342,7.3317,127.809,7.6401,127.5225,7.5845,127.0853,7.7322,126.7322,7.7912,126.8747,8.0151,126.4152,8.3529,126.2308,8.8571,126.448,9.055,125.9257,9.5,126" style="stroke:#000000;stroke-width:0.5;"/><text class="f_000000_ffffff" font-family="sans-serif" font-size="14" lengthAdjust="spacing" textLength="98" x="10" y="143.9951">TOMLBoolean</text><path class="f_f1f1f1_070707" d="M8,152.2969 L8,152.5771 L18.2,151.7444 L28.4,152.5546 L38.6,152.8298 L48.8,151.3457 L59,152.1933 L69.2,151.7282 L79.4,151.7855 L89.6,152.206 L99.8,151.375 L110,152.2969 " style="stroke:#000000;stroke-width:0.5;"/><path class="f_f1f1f1_070707" d="M8,160.2969 L8,160.5771 L18.2,159.7444 L28.4,160.5546 L38.6,160.8298 L48.8,159.3457 L59,160.1933 L69.2,159.7282 L79.4,159.7855 L89.6,160.206 L99.8,159.375 L110,160.2969 " style="stroke:#000000;stroke-width:0.5;"/></g><!--MD5=[d434cac494a857c4f99ac70a230bc258]
class TOMLString--><g id="elem_TOMLString"><polygon class="f_f1f1f1_070707" points="148.5,126,148.5,126.2102,157.9444,125.5857,167.3889,126.1933,176.8333,126.3997,186.2778,125.2866,195.7222,125.9223,205.1667,125.5735,214.6111,125.6165,224.0556,125.9318,233.5,126,233.4118,125.7871,233.9242,126.3169,234.1267,126.0988,234.5354,126.3784,234.9693,126.7188,235.2678,126.7322,235.2414,126.7213,235.4352,127.0945,235.5508,127.4353,235.7621,127.8157,235.9272,128.177,236,128.5,236.1952,128.5,236.2237,135.9594,236.2264,143.4188,236.0849,150.8781,236.1545,158.3375,236,165.7969,236.2163,165.8865,235.6315,166.0584,235.9161,166.5905,235.4693,166.8197,235.5786,167.2792,235.2678,167.5646,235.2046,167.4122,234.9055,167.69,234.6553,168.0859,234.2009,167.989,233.867,168.1829,233.5,168.2969,233.5,168.6355,224.0556,168.7131,214.6111,168.293,205.1667,168.5841,195.7222,167.7245,186.2778,168.5813,176.8333,168.8451,167.3889,168.7414,157.9444,168.9099,148.5,168.2969,148.4384,168.1481,148.0633,167.9496,147.7136,167.8126,147.4318,167.8394,147.0607,167.6506,146.7322,167.5646,146.9421,167.6516,146.532,167.1888,146.3337,166.8138,146.3632,166.5331,145.9411,166.0654,146,165.7969,145.827,165.7969,146.2163,158.3375,146.1452,150.8781,146.2448,143.4188,145.8927,135.9594,146,128.5,146.0983,128.5407,146.3283,128.2218,146.1474,127.7326,146.4098,127.4271,146.6246,127.1019,146.7322,126.7322,146.8154,126.9329,147.0853,126.5845,147.4983,126.5818,147.7223,126.1223,148.0601,125.9379,148.5,126" style="stroke:#000000;stroke-width:0.5;"/><text class="f_000000_ffffff" font-family="sans-serif" font-size="14" lengthAdjust="spacing" textLength="84" x="149" y="143.9951">TOMLString</text><path class="f_f1f1f1_070707" d="M147,152.2969 L147,152.5771 L156.7778,151.7444 L166.5556,152.5546 L176.3333,152.8298 L186.1111,151.3457 L195.8889,152.1933 L205.6667,151.7282 L215.4444,151.7855 L225.2222,152.206 L235,152.2969 " style="stroke:#000000;stroke-width:0.5;"/><path class="f_f1f1f1_070707" d="M147,160.2969 L147,160.5771 L156.7778,159.7444 L166.5556,160.5546 L176.3333,160.8298 L186.1111,159.3457 L195.8889,160.1933 L205.6667,159.7282 L215.4444,159.7855 L225.2222,160.206 L235,160.2969 " style="stroke:#000000;stroke-width:0.5;"/></g><!--MD5=[ba505bdf5bfa2d6b9373fc5445d18f5d]
reverse link TOMLDatatype to TOMLBoolean--><g id="link_TOMLDatatype_TOMLBoolean"><path d="M97.0891,83.3838 L97.3285,83.5294 L91.4445,91.6003 L86.9639,100.5249 L82.0263,109.1715 L75.5857,116.9038 L71.2257,125.9017 " fill="none" style="stroke:#000000;stroke-width:1.0;"/><polygon fill="none" points="91.2848,79.4562,91.3293,79.5103,94.472,76.6596,97.8754,74.1263,101.1939,71.4896,104.2332,68.5131,107.659,66.007,107.6337,66.0016,106.6373,70.1224,105.7687,74.2704,104.9888,78.4373,103.903,82.539,103.2457,86.732,103.3416,86.8897,100.7443,85.0973,98.4271,83.7654,96.144,82.4895,93.6621,80.8869,91.2848,79.4562" style="stroke:#000000;stroke-width:1.0;"/></g><!--MD5=[43a5b17051952e5191ea2ad9b3caac41]
reverse link TOMLDatatype to TOMLString--><g id="link_TOMLDatatype_TOMLString"><path d="M152.911,83.3838 L153.1504,83.5294 L157.6116,91.6003 L163.4764,100.5249 L168.8841,109.1715 L172.7887,116.9038 L178.774,125.9017 " fill="none" style="stroke:#000000;stroke-width:1.0;"/><polygon fill="none" points="146.754,86.732,146.8225,86.7466,145.7363,82.5582,145.0518,78.4554,144.2365,74.3247,142.991,70.1025,142.341,66.007,142.3246,65.987,145.5256,68.587,148.8095,71.2879,152.151,74.059,155.2939,76.5883,158.715,79.4562,158.8109,79.6139,156.2136,80.7319,153.8963,82.3102,151.6132,83.9447,149.1313,85.2524,146.754,86.732" style="stroke:#000000;stroke-width:1.0;"/></g><!--MD5=[4f7aaac303677322feacb90ee549d549]
@startuml
skinparam handwritten true
  skinparam class {
    BorderColor Black
    ArrowColor Black
  }
  hide circle

  ' == CLASSES =========================
  abstract class TOMLDatatype {
    value : Object
  }
  class TOMLBoolean
  class TOMLString

  ' == RELATIONSHIPS ===================
  TOMLDatatype <|- - TOMLBoolean
  TOMLDatatype <|- - TOMLString
@enduml

@startuml
skinparam handwritten true
  skinparam class {
    BorderColor Black
    ArrowColor Black
  }
  hide circle

  abstract class TOMLDatatype {
    value : Object
  }
  class TOMLBoolean
  class TOMLString

  TOMLDatatype <|- - TOMLBoolean
  TOMLDatatype <|- - TOMLString
@enduml

PlantUML version 1.2022.2beta5(Unknown compile time)
(GPL source distribution)
Java Runtime: Java(TM) SE Runtime Environment
JVM: Java HotSpot(TM) 64-Bit Server VM
Default Encoding: UTF-8
Language: en
Country: US
--></g></svg>