<?xml version="1.0" encoding="UTF-8" standalone="no"?><svg xmlns="http://www.w3.org/2000/svg" xmlns:xlink="http://www.w3.org/1999/xlink" contentStyleType="text/css" height="175px" preserveAspectRatio="none" style="width:495px;height:175px;background:#FFFFFF;" version="1.1" viewBox="0 0 495 175" width="495px" zoomAndPan="magnify"><defs/><g><!--MD5=[86a0d4fc92ebb0c60aa28a7b5547f049]
class TOMLDatatype--><g id="elem_TOMLDatatype"><polygon fill="#F1F1F1" points="206,7,206,7.2102,215.6364,6.5857,225.2727,7.1933,234.9091,7.3997,244.5455,6.2866,254.1818,6.9223,263.8182,6.5735,273.4545,6.6165,283.0909,6.9318,292.7273,6.3086,302.3636,7.5536,312,7,311.9196,6.8059,312.3283,7.0855,312.7622,7.4259,313.0497,7.4129,313.4229,7.6068,313.7678,7.7322,313.7579,7.7282,313.9692,8.1086,314.1343,8.4698,314.3875,8.8676,314.5602,9.232,314.5,9.5,315.1793,9.5,314.7546,20.2188,314.9636,30.9375,315.2022,41.6563,313.7788,52.375,314.5,63.0938,314.709,63.1803,314.2622,63.4095,314.3715,63.869,313.9082,64.0913,313.8931,64.4992,313.7678,64.8615,313.8624,65.0899,313.408,64.993,313.0741,65.1868,312.7503,65.4051,312.4066,65.5755,312,65.5938,312,65.5898,302.3636,65.881,292.7273,65.0213,283.0909,65.8781,273.4545,66.1419,263.8182,66.0383,254.1818,66.2068,244.5455,65.1107,234.9091,64.9416,225.2727,64.9723,215.6364,65.5349,206,65.5938,205.9749,65.5332,205.7334,65.6572,205.2706,65.2471,204.8956,65.0488,204.6149,65.0783,204.2322,64.8615,204.0269,64.7765,203.9259,64.4417,204.1392,64.2372,203.9271,63.8564,203.8726,63.541,203.5,63.0938,203.1782,63.0938,203.8192,52.375,204.0904,41.6563,203.0276,30.9375,203.4041,20.2188,203.5,9.5,203.5388,9.5161,203.8472,9.2296,203.7916,8.7924,204.0818,8.4983,203.9152,8.0151,204.2322,7.7322,204.1458,7.5237,204.65,7.7409,204.8479,7.2186,205.3578,7.4496,205.6728,7.2101,206,7" style="stroke:#000000;stroke-width:0.5;"/><text fill="#000000" font-family="sans-serif" font-size="14" font-style="italic" lengthAdjust="spacing" textLength="105" x="206.5" y="24.9951">TOMLDatatype</text><path d="M204.5,33.2969 L204.5,33.5771 L214.4091,32.7444 L224.3182,33.5546 L234.2273,33.8298 L244.1364,32.3457 L254.0455,33.1933 L263.9545,32.7282 L273.8636,32.7855 L283.7727,33.206 L293.6818,32.375 L303.5909,34.0351 L313.5,33.2969 " fill="#F1F1F1" style="stroke:#000000;stroke-width:0.5;"/><text fill="#000000" font-family="sans-serif" font-size="14" lengthAdjust="spacing" textLength="99" x="209.5" y="50.292">value : Object</text><path d="M204.5,57.5938 L204.5,57.874 L214.4091,57.0413 L224.3182,57.8515 L234.2273,58.1267 L244.1364,56.6426 L254.0455,57.4901 L263.9545,57.0251 L273.8636,57.0824 L283.7727,57.5029 L293.6818,56.6719 L303.5909,58.3319 L313.5,57.5938 " fill="#F1F1F1" style="stroke:#000000;stroke-width:0.5;"/></g><!--MD5=[24cc18ae4eca35bf877b9d81c278a472]
class TOMLBoolean--><g id="elem_TOMLBoolean"><polygon fill="#F1F1F1" points="9.5,126,9.5,126.2102,19.4,125.5857,29.3,126.1933,39.2,126.3997,49.1,125.2866,59,125.9223,68.9,125.5735,78.8,125.6165,88.7,125.9318,98.6,125.3086,108.5,126,108.5706,126.1705,108.7732,125.9523,109.1819,126.232,109.6158,126.5724,109.9033,126.5594,110.2678,126.7322,110.2888,126.7409,110.4044,127.0817,110.6156,127.4621,110.7808,127.8234,111.0339,128.2212,111,128.5,111.2237,128.5,111.2264,135.9594,111.0849,143.4188,111.1545,150.8781,111.2341,158.3375,111,165.7969,110.7779,165.7049,111.0625,166.237,110.6158,166.4662,110.7251,166.9256,110.2618,167.1479,110.2678,167.5646,110.259,167.5435,110.0088,167.9395,109.5544,167.8425,109.2205,168.0364,108.8967,168.2547,108.5,168.2969,108.5,168.7131,98.6,168.293,88.7,168.5841,78.8,167.7245,68.9,168.5813,59,168.8451,49.1,168.7414,39.2,168.9099,29.3,167.8138,19.4,167.6447,9.5,168.2969,9.4207,168.1055,9.1389,168.1323,8.7678,167.9435,8.5263,168.0674,8.0635,167.6573,7.7322,167.5646,7.6266,167.5209,7.6561,167.2402,7.234,166.7725,7.133,166.4378,7.3463,166.2332,7,165.7969,7.1452,165.7969,7.2448,158.3375,6.8927,150.8781,7.1064,143.4188,7.1968,135.9594,7,128.5,6.8545,128.4397,7.1169,128.1342,7.3317,127.809,7.6401,127.5225,7.5845,127.0853,7.7322,126.7322,7.7912,126.8747,8.0151,126.4152,8.3529,126.2308,8.8571,126.448,9.055,125.9257,9.5,126" style="stroke:#000000;stroke-width:0.5;"/><text fill="#000000" font-family="sans-serif" font-size="14" lengthAdjust="spacing" textLength="98" x="10" y="143.9951">TOMLBoolean</text><path d="M8,152.2969 L8,152.5771 L18.2,151.7444 L28.4,152.5546 L38.6,152.8298 L48.8,151.3457 L59,152.1933 L69.2,151.7282 L79.4,151.7855 L89.6,152.206 L99.8,151.375 L110,152.2969 " fill="#F1F1F1" style="stroke:#000000;stroke-width:0.5;"/><path d="M8,160.2969 L8,160.5771 L18.2,159.7444 L28.4,160.5546 L38.6,160.8298 L48.8,159.3457 L59,160.1933 L69.2,159.7282 L79.4,159.7855 L89.6,160.206 L99.8,159.375 L110,160.2969 " fill="#F1F1F1" style="stroke:#000000;stroke-width:0.5;"/></g><!--MD5=[0292f36b444c2fa0dc5ffa9f87c00731]
class TOMLInteger--><g id="elem_TOMLInteger"><polygon fill="#F1F1F1" points="149,126,149,126.2102,159.4444,125.5857,169.8889,126.1933,180.3333,126.3997,190.7778,125.2866,201.2222,125.9223,211.6667,125.5735,222.1111,125.6165,232.5556,125.9318,243,126,242.9118,125.7871,243.4242,126.3169,243.6267,126.0988,244.0354,126.3784,244.4693,126.7188,244.7678,126.7322,244.7414,126.7213,244.9352,127.0945,245.0508,127.4353,245.2621,127.8157,245.4272,128.177,245.5,128.5,245.6952,128.5,245.7237,135.9594,245.7264,143.4188,245.5849,150.8781,245.6545,158.3375,245.5,165.7969,245.7163,165.8865,245.1315,166.0584,245.4161,166.5905,244.9693,166.8197,245.0786,167.2792,244.7678,167.5646,244.7046,167.4122,244.4055,167.69,244.1553,168.0859,243.7009,167.989,243.367,168.1829,243,168.2969,243,168.6355,232.5556,168.7131,222.1111,168.293,211.6667,168.5841,201.2222,167.7245,190.7778,168.5813,180.3333,168.8451,169.8889,168.7414,159.4444,168.9099,149,168.2969,148.9384,168.1481,148.5633,167.9496,148.2136,167.8126,147.9318,167.8394,147.5607,167.6506,147.2322,167.5646,147.4421,167.6516,147.032,167.1888,146.8337,166.8138,146.8632,166.5331,146.4411,166.0654,146.5,165.7969,146.327,165.7969,146.7163,158.3375,146.6452,150.8781,146.7448,143.4188,146.3927,135.9594,146.5,128.5,146.5983,128.5407,146.8283,128.2218,146.6474,127.7326,146.9098,127.4271,147.1246,127.1019,147.2322,126.7322,147.3154,126.9329,147.5853,126.5845,147.9983,126.5818,148.2223,126.1223,148.5601,125.9379,149,126" style="stroke:#000000;stroke-width:0.5;"/><text fill="#000000" font-family="sans-serif" font-size="14" lengthAdjust="spacing" textLength="93" x="149.5" y="143.9951">TOMLInteger</text><path d="M147.5,152.2969 L147.5,152.5771 L157.2,151.7444 L166.9,152.5546 L176.6,152.8298 L186.3,151.3457 L196,152.1933 L205.7,151.7282 L215.4,151.7855 L225.1,152.206 L234.8,151.375 L244.5,152.2969 " fill="#F1F1F1" style="stroke:#000000;stroke-width:0.5;"/><path d="M147.5,160.2969 L147.5,160.5771 L157.2,159.7444 L166.9,160.5546 L176.6,160.8298 L186.3,159.3457 L196,160.1933 L205.7,159.7282 L215.4,159.7855 L225.1,160.206 L234.8,159.375 L244.5,160.2969 " fill="#F1F1F1" style="stroke:#000000;stroke-width:0.5;"/></g><!--MD5=[c534894a0ca8e4d39390e21d83832bea]
class TOMLFloat--><g id="elem_TOMLFloat"><polygon fill="#F1F1F1" points="283.5,126,283.5,126.2102,293.125,125.5857,302.75,126.1933,312.375,126.3997,322,125.2866,331.625,125.9223,341.25,125.5735,350.875,125.6165,360.5,126,360.4913,125.979,360.7654,125.9335,361.2777,126.4634,361.4803,126.2452,361.889,126.5249,362.2678,126.7322,362.4008,126.7873,362.3878,127.0748,362.5817,127.448,362.6973,127.7888,362.9085,128.1692,363,128.5,363.0797,128.5,363.1952,135.9594,363.2237,143.4188,363.2264,150.8781,363.0849,158.3375,363,165.7969,363.1428,165.856,363.0698,166.24,362.485,166.412,362.7696,166.9441,362.3229,167.1733,362.2678,167.5646,362.3359,167.729,361.8511,167.5586,361.5519,167.8364,361.3017,168.2324,360.8473,168.1354,360.5,168.2969,360.5,168.4022,350.875,168.6355,341.25,168.7131,331.625,168.293,322,168.5841,312.375,167.7245,302.75,168.5813,293.125,168.8451,283.5,168.2969,283.5567,168.4338,283.2246,168.3392,282.7313,167.8552,282.3561,167.6567,282.0065,167.5197,281.7322,167.5646,281.7141,167.5571,281.5253,167.186,281.6492,166.9445,281.2391,166.4817,281.0408,166.1067,281,165.7969,281.0761,165.7969,280.7777,158.3375,280.827,150.8781,281.2163,143.4188,281.1452,135.9594,281,128.5,281.2262,128.5937,281.0473,128.1054,281.3912,127.8336,281.6212,127.5147,281.4403,127.0255,281.7322,126.7322,281.72,126.7027,282.1019,126.6246,282.5225,126.6401,282.7924,126.2916,283.2055,126.2889,283.5,126" style="stroke:#000000;stroke-width:0.5;"/><text fill="#000000" font-family="sans-serif" font-size="14" lengthAdjust="spacing" textLength="76" x="284" y="143.9951">TOMLFloat</text><path d="M282,152.2969 L282,152.5771 L292,151.7444 L302,152.5546 L312,152.8298 L322,151.3457 L332,152.1933 L342,151.7282 L352,151.7855 L362,152.2969 " fill="#F1F1F1" style="stroke:#000000;stroke-width:0.5;"/><path d="M282,160.2969 L282,160.5771 L292,159.7444 L302,160.5546 L312,160.8298 L322,159.3457 L332,160.1933 L342,159.7282 L352,159.7855 L362,160.2969 " fill="#F1F1F1" style="stroke:#000000;stroke-width:0.5;"/></g><!--MD5=[d434cac494a857c4f99ac70a230bc258]
class TOMLString--><g id="elem_TOMLString"><polygon fill="#F1F1F1" points="400.5,126,400.5,126.2102,409.9444,125.5857,419.3889,126.1933,428.8333,126.3997,438.2778,125.2866,447.7222,125.9223,457.1667,125.5735,466.6111,125.6165,476.0556,125.9318,485.5,126,485.4118,125.7871,485.9242,126.3169,486.1267,126.0988,486.5354,126.3784,486.9693,126.7188,487.2678,126.7322,487.2414,126.7213,487.4352,127.0945,487.5508,127.4353,487.7621,127.8157,487.9272,128.177,488,128.5,488.1952,128.5,488.2237,135.9594,488.2264,143.4188,488.0849,150.8781,488.1545,158.3375,488,165.7969,488.2163,165.8865,487.6315,166.0584,487.9161,166.5905,487.4693,166.8197,487.5786,167.2792,487.2678,167.5646,487.2046,167.4122,486.9055,167.69,486.6553,168.0859,486.2009,167.989,485.867,168.1829,485.5,168.2969,485.5,168.6355,476.0556,168.7131,466.6111,168.293,457.1667,168.5841,447.7222,167.7245,438.2778,168.5813,428.8333,168.8451,419.3889,168.7414,409.9444,168.9099,400.5,168.2969,400.4384,168.1481,400.0633,167.9496,399.7136,167.8126,399.4318,167.8394,399.0607,167.6506,398.7322,167.5646,398.9421,167.6516,398.532,167.1888,398.3337,166.8138,398.3632,166.5331,397.9411,166.0654,398,165.7969,397.827,165.7969,398.2163,158.3375,398.1452,150.8781,398.2448,143.4188,397.8927,135.9594,398,128.5,398.0983,128.5407,398.3283,128.2218,398.1474,127.7326,398.4098,127.4271,398.6246,127.1019,398.7322,126.7322,398.8154,126.9329,399.0853,126.5845,399.4983,126.5818,399.7223,126.1223,400.0601,125.9379,400.5,126" style="stroke:#000000;stroke-width:0.5;"/><text fill="#000000" font-family="sans-serif" font-size="14" lengthAdjust="spacing" textLength="84" x="401" y="143.9951">TOMLString</text><path d="M399,152.2969 L399,152.5771 L408.7778,151.7444 L418.5556,152.5546 L428.3333,152.8298 L438.1111,151.3457 L447.8889,152.1933 L457.6667,151.7282 L467.4444,151.7855 L477.2222,152.206 L487,152.2969 " fill="#F1F1F1" style="stroke:#000000;stroke-width:0.5;"/><path d="M399,160.2969 L399,160.5771 L408.7778,159.7444 L418.5556,160.5546 L428.3333,160.8298 L438.1111,159.3457 L447.8889,160.1933 L457.6667,159.7282 L467.4444,159.7855 L477.2222,160.206 L487,160.2969 " fill="#F1F1F1" style="stroke:#000000;stroke-width:0.5;"/></g><!--MD5=[ba505bdf5bfa2d6b9373fc5445d18f5d]
reverse link TOMLDatatype to TOMLBoolean--><g id="link_TOMLDatatype_TOMLBoolean"><path d="M188.665,75.6567 L188.7986,75.903 L179.9818,79.7389 L171.9483,85.0187 L163.6598,89.8283 L154.5323,93.0915 L146.5167,98.4043 L137.8752,102.5632 L129.4828,107.1813 L121.2635,112.1186 L112.4475,115.956 L104.8193,121.9828 L96.0475,125.9017 " fill="none" style="stroke:#000000;stroke-width:1.0;"/><polygon fill="none" points="185.535,69.3912,185.5462,69.4604,189.6963,68.578,193.9121,68.1011,198.1065,67.4922,202.2306,66.4491,206.452,66.007,206.4328,65.9896,203.4985,69.0495,200.6609,72.1971,197.8906,75.4057,194.8886,78.4041,192.211,81.697,192.3732,81.785,190.6911,79.1357,189.4827,76.7432,188.332,74.3822,186.8451,71.8387,185.535,69.3912" style="stroke:#000000;stroke-width:1.0;"/></g><!--MD5=[fa4acf5b0a3eeef1d4114341ddd4db01]
reverse link TOMLDatatype to TOMLInteger--><g id="link_TOMLDatatype_TOMLInteger"><path d="M232.358,83.3838 L232.6004,83.5245 L226.9427,91.61 L222.7057,100.5204 L218.0061,109.1621 L211.785,116.9205 L207.67,125.9017 " fill="none" style="stroke:#000000;stroke-width:1.0;"/><polygon fill="none" points="226.351,79.7879,226.3966,79.8411,229.4804,76.9268,232.8313,74.3245,236.0952,71.6206,239.0731,68.5825,242.447,66.007,242.4216,66.0021,241.5096,70.1424,240.7259,74.3073,240.0313,78.4893,239.0295,82.6123,238.458,86.8179,238.5507,86.9775,235.9311,85.2302,233.5821,83.9489,231.2661,82.7244,228.758,81.1692,226.351,79.7879" style="stroke:#000000;stroke-width:1.0;"/></g><!--MD5=[8d913f35269f744ead665e04dd1dd90b]
reverse link TOMLDatatype to TOMLFloat--><g id="link_TOMLDatatype_TOMLFloat"><path d="M285.642,83.3838 L285.8844,83.5245 L290.1019,91.61 L295.7401,100.5204 L300.9157,109.1621 L304.5698,116.9205 L310.33,125.9017 " fill="none" style="stroke:#000000;stroke-width:1.0;"/><polygon fill="none" points="279.542,86.8179,279.6108,86.8311,278.6086,82.6297,278.0097,78.5057,277.2794,74.3564,276.1173,70.1244,275.553,66.007,275.5362,65.9873,278.6797,68.6552,281.9083,71.4223,285.1958,74.2583,288.2799,76.8567,291.649,79.7879,291.7417,79.9475,289.1221,81.0122,286.7731,82.5429,284.4571,84.1304,281.949,85.3872,279.542,86.8179" style="stroke:#000000;stroke-width:1.0;"/></g><!--MD5=[43a5b17051952e5191ea2ad9b3caac41]
reverse link TOMLDatatype to TOMLString--><g id="link_TOMLDatatype_TOMLString"><path d="M324.918,76.3703 L325.0603,76.6117 L333.0372,80.8476 L341.8485,86.4986 L350.3881,91.6888 L358.0341,95.3635 L366.8644,101.0467 L375.028,105.5993 L383.4569,110.6018 L392.0702,115.9171 L400.048,120.1545 L408.916,125.9017 " fill="none" style="stroke:#000000;stroke-width:1.0;"/><polygon fill="none" points="321.016,82.1957,321.0695,82.2409,318.1761,78.8689,315.5964,75.7618,312.9146,72.5684,309.8967,69.0913,307.344,66.007,307.339,65.9816,311.4729,66.6934,315.6323,67.5333,319.8094,68.4622,323.9255,69.0843,328.127,70.1362,328.286,70.2299,326.5238,72.4414,325.2258,74.9265,323.9844,77.445,322.4136,79.7693,321.016,82.1957" style="stroke:#000000;stroke-width:1.0;"/></g><!--MD5=[225406222eaebdddeaddc4b51b6d5d04]
@startuml
skinparam handwritten true
  skinparam class {
    BorderColor Black
    ArrowColor Black
  }
  hide circle

  ' == CLASSES =========================
  abstract class TOMLDatatype {
    value : Object
  }
  class TOMLBoolean
  class TOMLInteger
  class TOMLFloat
  class TOMLString

  ' == RELATIONSHIPS ===================
  TOMLDatatype <|- - TOMLBoolean
  TOMLDatatype <|- - TOMLInteger
  TOMLDatatype <|- - TOMLFloat
  TOMLDatatype <|- - TOMLString
@enduml

@startuml
skinparam handwritten true
  skinparam class {
    BorderColor Black
    ArrowColor Black
  }
  hide circle

  abstract class TOMLDatatype {
    value : Object
  }
  class TOMLBoolean
  class TOMLInteger
  class TOMLFloat
  class TOMLString

  TOMLDatatype <|- - TOMLBoolean
  TOMLDatatype <|- - TOMLInteger
  TOMLDatatype <|- - TOMLFloat
  TOMLDatatype <|- - TOMLString
@enduml

PlantUML version 1.2022.2beta6(Unknown compile time)
(GPL source distribution)
Java Runtime: Java(TM) SE Runtime Environment
JVM: Java HotSpot(TM) 64-Bit Server VM
Default Encoding: UTF-8
Language: en
Country: US
--></g></svg>