<?xml version="1.0" encoding="UTF-8" standalone="no"?><svg xmlns="http://www.w3.org/2000/svg" xmlns:xlink="http://www.w3.org/1999/xlink" contentScriptType="application/ecmascript" contentStyleType="text/css" height="190px" preserveAspectRatio="none" style="width:542px;height:190px;background:#FFFFFF;" version="1.1" viewBox="0 0 542 190" width="542px" zoomAndPan="magnify"><defs><filter height="300%" id="f10cuic1qj13xq" width="300%" x="-1" y="-1"><feGaussianBlur result="blurOut" stdDeviation="2.0"/><feColorMatrix in="blurOut" result="blurOut2" type="matrix" values="0 0 0 0 0 0 0 0 0 0 0 0 0 0 0 0 0 0 .4 0"/><feOffset dx="4.0" dy="4.0" in="blurOut2" result="blurOut3"/><feBlend in="SourceGraphic" in2="blurOut3" mode="normal"/></filter></defs><g><!--MD5=[86a0d4fc92ebb0c60aa28a7b5547f049]
class TOMLDatatype--><polygon fill="#FEFECE" filter="url(#f10cuic1qj13xq)" points="218,7,218,7.2102,228,6.5857,238,7.1933,248,7.3997,258,6.2866,268,6.9223,278,6.5735,288,6.6165,298,6.9318,308,6.3086,318,7.5536,328,6.3697,338,7,337.8022,7,338.4319,17.1341,337.9142,27.2682,338.0682,37.4023,337.9681,47.5365,338.1785,57.6706,338,67.8047,338,68.0438,328,68.3904,318,68.4757,308,68.4839,298,68.0593,288,68.2683,278,68.5069,268,67.0835,258,68.4832,248,67.5082,238,68.3385,228,67.3097,218,67.8047,217.9315,67.8047,218.7416,57.6706,217.9513,47.5365,218.1053,37.4023,218.3386,27.2682,218.4162,17.1341,218,7" style="stroke:#000000;stroke-width:1.5;"/><polygon fill="#A9DCDF" points="244.0608,25.6756,242.4484,27.8788,240.5412,31.1057,237.8136,33.2804,234.9474,34.4696,232.662,34.5728,229.7247,33.0855,226.9532,32.1139,224.8495,30.1412,223.7461,27.8828,223.0917,26.0845,222.4506,23.7357,221.41,21.7145,222.2096,19.741,222.9102,17.5792,225.5393,15.8695,227.389,13.6511,229.6784,12.9144,232.4001,12.2801,235.8904,12.657,237.8021,13.5585,240.0247,13.9672,242.7272,16.736,243.6693,19.659,244.0786,21.6534,243.615,24.9399" style="stroke:#000000;stroke-width:1.0;"/><path d="M235.0781,24.8125 L235.4688,25.7969 L235.0781,25.7969 C234.625,25.7969 234.5156,25.8125 234.3594,25.9219 C234.1094,26.0781 233.9531,26.3594 233.9531,26.6563 C233.9531,26.9219 234.0938,27.1719 234.3125,27.3281 C234.4531,27.4531 234.6563,27.5 235.0781,27.5 L237.4375,27.5 C237.7969,27.5 238.0156,27.4688 238.1563,27.375 C238.4063,27.2344 238.5625,26.9375 238.5625,26.6563 C238.5625,26.375 238.4219,26.125 238.2031,25.9688 C238.0313,25.8281 237.875,25.7969 237.4063,25.7969 L234.0156,17.5938 L230.3438,17.5938 C229.8906,17.5938 229.7656,17.6094 229.6094,17.7031 C229.3594,17.875 229.2031,18.1563 229.2031,18.4375 C229.2031,18.7188 229.3438,18.9688 229.5625,19.1406 C229.7344,19.25 229.9063,19.2813 230.3438,19.2813 L231.4219,19.2813 L228.7813,25.7969 C228.3594,25.7969 228.2031,25.8125 228.0469,25.9219 C227.7969,26.0781 227.6406,26.3594 227.6406,26.6563 C227.6406,27.2188 228.0156,27.5 228.7656,27.5 L231.0313,27.5 C231.3906,27.5 231.6094,27.4688 231.7344,27.375 C232,27.2344 232.1406,26.9375 232.1406,26.6563 C232.1406,26.375 232.0156,26.125 231.7969,25.9531 C231.625,25.8281 231.4844,25.7969 231.0313,25.7969 L230.6406,25.7969 L231.0313,24.8125 L235.0781,24.8125 Z M234.375,23.1094 L231.7031,23.1094 L233.0469,19.8438 L234.375,23.1094 Z " fill="#000000"/><text fill="#000000" font-family="sans-serif" font-size="12" font-style="italic" lengthAdjust="spacing" textLength="88" x="247" y="27.1543">TOMLDatatype</text><path d="M219,39 L219,39.2802 L228.8333,38.4476 L238.6667,39.2577 L248.5,39.5329 L258.3333,38.0488 L268.1667,38.8964 L278,38.4313 L287.8333,38.4887 L297.6667,38.9091 L307.5,38.0782 L317.3333,39.7382 L327.1667,38.1596 L337,39 " fill="#FEFECE" style="stroke:#000000;stroke-width:1.5;"/><text fill="#000000" font-family="sans-serif" font-size="11" lengthAdjust="spacing" textLength="80" x="224" y="53.2104">value : Object</text><path d="M219,59.8047 L219,60.0849 L228.8333,59.2523 L238.6667,60.0624 L248.5,60.3376 L258.3333,58.8535 L268.1667,59.7011 L278,59.236 L287.8333,59.2934 L297.6667,59.7138 L307.5,58.8829 L317.3333,60.5429 L327.1667,58.9643 L337,59.8047 " fill="#FEFECE" style="stroke:#000000;stroke-width:1.5;"/><!--MD5=[24cc18ae4eca35bf877b9d81c278a472]
class TOMLBoolean--><polygon fill="#FEFECE" filter="url(#f10cuic1qj13xq)" points="7,128,7,128.2102,17.3636,127.5857,27.7273,128.1933,38.0909,128.3997,48.4545,127.2866,58.8182,127.9223,69.1818,127.5735,79.5455,127.6165,89.9091,127.9318,100.2727,127.3086,110.6364,128.5536,121,128,120.3697,128,120.8022,137.6,121.4319,147.2,120.9142,156.8,121.0682,166.4,121,176,121,175.9681,110.6364,176.1785,100.2727,176.2391,89.9091,176.5857,79.5455,176.6711,69.1818,176.6793,58.8182,176.2546,48.4545,176.4636,38.0909,176.7022,27.7273,175.2788,17.3636,176.6785,7,176,6.7035,176,7.5338,166.4,6.505,156.8,6.9315,147.2,7.7416,137.6,7,128" style="stroke:#000000;stroke-width:1.5;"/><polygon fill="#ADD1B2" points="33.0608,146.6756,31.4484,148.8788,29.5412,152.1057,26.8136,154.2804,23.9474,155.4696,21.662,155.5728,18.7247,154.0855,15.9532,153.1139,13.8495,151.1412,12.7461,148.8828,12.0917,147.0845,11.4506,144.7357,10.41,142.7145,11.2096,140.741,11.9102,138.5792,14.5393,136.8695,16.389,134.6511,18.6784,133.9144,21.4001,133.2801,24.8904,133.657,26.8021,134.5585,29.0247,134.9672,31.7272,137.736,32.6693,140.659,33.0786,142.6534,32.615,145.9399" style="stroke:#000000;stroke-width:1.0;"/><path d="M24.3438,139.6719 C23.4063,139.2344 22.8125,139.0938 21.9375,139.0938 C19.3125,139.0938 17.3125,141.1719 17.3125,143.8906 L17.3125,145.0156 C17.3125,147.5938 19.4219,149.4844 22.3125,149.4844 C23.5313,149.4844 24.6875,149.1875 25.4375,148.6406 C26.0156,148.2344 26.3438,147.7813 26.3438,147.3906 C26.3438,146.9375 25.9531,146.5469 25.4844,146.5469 C25.2656,146.5469 25.0625,146.625 24.875,146.8125 C24.4219,147.2969 24.4219,147.2969 24.2344,147.3906 C23.8125,147.6563 23.125,147.7813 22.3594,147.7813 C20.3125,147.7813 19.0156,146.6875 19.0156,144.9844 L19.0156,143.8906 C19.0156,142.1094 20.2656,140.7969 22,140.7969 C22.5781,140.7969 23.1875,140.9531 23.6563,141.2031 C24.1406,141.4844 24.3125,141.7031 24.4063,142.1094 C24.4688,142.5156 24.5,142.6406 24.6406,142.7656 C24.7813,142.9063 25.0156,143.0156 25.2344,143.0156 C25.5,143.0156 25.7656,142.875 25.9375,142.6563 C26.0469,142.5 26.0781,142.3125 26.0781,141.8906 L26.0781,140.4688 C26.0781,140.0313 26.0625,139.9063 25.9688,139.75 C25.8125,139.4844 25.5313,139.3438 25.2344,139.3438 C24.9375,139.3438 24.7344,139.4375 24.5156,139.75 L24.3438,139.6719 Z " fill="#000000"/><text fill="#000000" font-family="sans-serif" font-size="12" lengthAdjust="spacing" textLength="82" x="36" y="148.1543">TOMLBoolean</text><path d="M8,160 L8,160.2802 L18.1818,159.4476 L28.3636,160.2577 L38.5455,160.5329 L48.7273,159.0488 L58.9091,159.8964 L69.0909,159.4313 L79.2727,159.4887 L89.4545,159.9091 L99.6364,159.0782 L109.8182,160.7382 L120,160 " fill="#FEFECE" style="stroke:#000000;stroke-width:1.5;"/><path d="M8,168 L8,168.2802 L18.1818,167.4476 L28.3636,168.2577 L38.5455,168.5329 L48.7273,167.0488 L58.9091,167.8964 L69.0909,167.4313 L79.2727,167.4887 L89.4545,167.9091 L99.6364,167.0782 L109.8182,168.7382 L120,168 " fill="#FEFECE" style="stroke:#000000;stroke-width:1.5;"/><!--MD5=[0292f36b444c2fa0dc5ffa9f87c00731]
class TOMLInteger--><polygon fill="#FEFECE" filter="url(#f10cuic1qj13xq)" points="156,128,156,128.2102,165.8182,127.5857,175.6364,128.1933,185.4545,128.3997,195.2727,127.2866,205.0909,127.9223,214.9091,127.5735,224.7273,127.6165,234.5455,127.9318,244.3636,127.3086,254.1818,128.5536,264,128,263.3697,128,263.8022,137.6,264.4319,147.2,263.9142,156.8,264.0682,166.4,264,176,264,175.9681,254.1818,176.1785,244.3636,176.2391,234.5455,176.5857,224.7273,176.6711,214.9091,176.6793,205.0909,176.2546,195.2727,176.4636,185.4545,176.7022,175.6364,175.2788,165.8182,176.6785,156,176,155.7035,176,156.5338,166.4,155.505,156.8,155.9315,147.2,156.7416,137.6,156,128" style="stroke:#000000;stroke-width:1.5;"/><polygon fill="#ADD1B2" points="182.0608,146.6756,180.4484,148.8788,178.5412,152.1057,175.8136,154.2804,172.9474,155.4696,170.662,155.5728,167.7247,154.0855,164.9532,153.1139,162.8495,151.1412,161.7461,148.8828,161.0917,147.0845,160.4506,144.7357,159.41,142.7145,160.2096,140.741,160.9102,138.5792,163.5393,136.8695,165.389,134.6511,167.6784,133.9144,170.4001,133.2801,173.8904,133.657,175.8021,134.5585,178.0247,134.9672,180.7272,137.736,181.6693,140.659,182.0786,142.6534,181.615,145.9399" style="stroke:#000000;stroke-width:1.0;"/><path d="M173.3438,139.6719 C172.4063,139.2344 171.8125,139.0938 170.9375,139.0938 C168.3125,139.0938 166.3125,141.1719 166.3125,143.8906 L166.3125,145.0156 C166.3125,147.5938 168.4219,149.4844 171.3125,149.4844 C172.5313,149.4844 173.6875,149.1875 174.4375,148.6406 C175.0156,148.2344 175.3438,147.7813 175.3438,147.3906 C175.3438,146.9375 174.9531,146.5469 174.4844,146.5469 C174.2656,146.5469 174.0625,146.625 173.875,146.8125 C173.4219,147.2969 173.4219,147.2969 173.2344,147.3906 C172.8125,147.6563 172.125,147.7813 171.3594,147.7813 C169.3125,147.7813 168.0156,146.6875 168.0156,144.9844 L168.0156,143.8906 C168.0156,142.1094 169.2656,140.7969 171,140.7969 C171.5781,140.7969 172.1875,140.9531 172.6563,141.2031 C173.1406,141.4844 173.3125,141.7031 173.4063,142.1094 C173.4688,142.5156 173.5,142.6406 173.6406,142.7656 C173.7813,142.9063 174.0156,143.0156 174.2344,143.0156 C174.5,143.0156 174.7656,142.875 174.9375,142.6563 C175.0469,142.5 175.0781,142.3125 175.0781,141.8906 L175.0781,140.4688 C175.0781,140.0313 175.0625,139.9063 174.9688,139.75 C174.8125,139.4844 174.5313,139.3438 174.2344,139.3438 C173.9375,139.3438 173.7344,139.4375 173.5156,139.75 L173.3438,139.6719 Z " fill="#000000"/><text fill="#000000" font-family="sans-serif" font-size="12" lengthAdjust="spacing" textLength="76" x="185" y="148.1543">TOMLInteger</text><path d="M157,160 L157,160.2802 L166.6364,159.4476 L176.2727,160.2577 L185.9091,160.5329 L195.5455,159.0488 L205.1818,159.8964 L214.8182,159.4313 L224.4545,159.4887 L234.0909,159.9091 L243.7273,159.0782 L253.3636,160.7382 L263,160 " fill="#FEFECE" style="stroke:#000000;stroke-width:1.5;"/><path d="M157,168 L157,168.2802 L166.6364,167.4476 L176.2727,168.2577 L185.9091,168.5329 L195.5455,167.0488 L205.1818,167.8964 L214.8182,167.4313 L224.4545,167.4887 L234.0909,167.9091 L243.7273,167.0782 L253.3636,168.7382 L263,168 " fill="#FEFECE" style="stroke:#000000;stroke-width:1.5;"/><!--MD5=[c534894a0ca8e4d39390e21d83832bea]
class TOMLFloat--><polygon fill="#FEFECE" filter="url(#f10cuic1qj13xq)" points="299,128,299,128.2102,309.4444,127.5857,319.8889,128.1933,330.3333,128.3997,340.7778,127.2866,351.2222,127.9223,361.6667,127.5735,372.1111,127.6165,382.5556,127.9318,393,128,392.3086,128,393.5536,137.6,392.3697,147.2,392.8022,156.8,393.4319,166.4,393,176,393,175.9142,382.5556,176.0682,372.1111,175.9681,361.6667,176.1785,351.2222,176.2391,340.7778,176.5857,330.3333,176.6711,319.8889,176.6793,309.4444,176.2546,299,176,299.4636,176,299.7022,166.4,298.2788,156.8,299.6785,147.2,298.7035,137.6,299,128" style="stroke:#000000;stroke-width:1.5;"/><polygon fill="#ADD1B2" points="325.0608,146.6756,323.4484,148.8788,321.5412,152.1057,318.8136,154.2804,315.9474,155.4696,313.662,155.5728,310.7247,154.0855,307.9532,153.1139,305.8495,151.1412,304.7461,148.8828,304.0917,147.0845,303.4506,144.7357,302.41,142.7145,303.2096,140.741,303.9102,138.5792,306.5393,136.8695,308.389,134.6511,310.6784,133.9144,313.4001,133.2801,316.8904,133.657,318.8021,134.5585,321.0247,134.9672,323.7272,137.736,324.6693,140.659,325.0786,142.6534,324.615,145.9399" style="stroke:#000000;stroke-width:1.0;"/><path d="M316.3438,139.6719 C315.4063,139.2344 314.8125,139.0938 313.9375,139.0938 C311.3125,139.0938 309.3125,141.1719 309.3125,143.8906 L309.3125,145.0156 C309.3125,147.5938 311.4219,149.4844 314.3125,149.4844 C315.5313,149.4844 316.6875,149.1875 317.4375,148.6406 C318.0156,148.2344 318.3438,147.7813 318.3438,147.3906 C318.3438,146.9375 317.9531,146.5469 317.4844,146.5469 C317.2656,146.5469 317.0625,146.625 316.875,146.8125 C316.4219,147.2969 316.4219,147.2969 316.2344,147.3906 C315.8125,147.6563 315.125,147.7813 314.3594,147.7813 C312.3125,147.7813 311.0156,146.6875 311.0156,144.9844 L311.0156,143.8906 C311.0156,142.1094 312.2656,140.7969 314,140.7969 C314.5781,140.7969 315.1875,140.9531 315.6563,141.2031 C316.1406,141.4844 316.3125,141.7031 316.4063,142.1094 C316.4688,142.5156 316.5,142.6406 316.6406,142.7656 C316.7813,142.9063 317.0156,143.0156 317.2344,143.0156 C317.5,143.0156 317.7656,142.875 317.9375,142.6563 C318.0469,142.5 318.0781,142.3125 318.0781,141.8906 L318.0781,140.4688 C318.0781,140.0313 318.0625,139.9063 317.9688,139.75 C317.8125,139.4844 317.5313,139.3438 317.2344,139.3438 C316.9375,139.3438 316.7344,139.4375 316.5156,139.75 L316.3438,139.6719 Z " fill="#000000"/><text fill="#000000" font-family="sans-serif" font-size="12" lengthAdjust="spacing" textLength="62" x="328" y="148.1543">TOMLFloat</text><path d="M300,160 L300,160.2802 L310.2222,159.4476 L320.4444,160.2577 L330.6667,160.5329 L340.8889,159.0488 L351.1111,159.8964 L361.3333,159.4313 L371.5556,159.4887 L381.7778,159.9091 L392,160 " fill="#FEFECE" style="stroke:#000000;stroke-width:1.5;"/><path d="M300,168 L300,168.2802 L310.2222,167.4476 L320.4444,168.2577 L330.6667,168.5329 L340.8889,167.0488 L351.1111,167.8964 L361.3333,167.4313 L371.5556,167.4887 L381.7778,167.9091 L392,168 " fill="#FEFECE" style="stroke:#000000;stroke-width:1.5;"/><!--MD5=[d434cac494a857c4f99ac70a230bc258]
class TOMLString--><polygon fill="#FEFECE" filter="url(#f10cuic1qj13xq)" points="428,128,428,128.2102,438,127.5857,448,128.1933,458,128.3997,468,127.2866,478,127.9223,488,127.5735,498,127.6165,508,127.9318,518,127.3086,528,128,528.5536,128,527.3697,137.6,527.8022,147.2,528.4319,156.8,527.9142,166.4,528,176,528,176.0682,518,175.9681,508,176.1785,498,176.2391,488,176.5857,478,176.6711,468,176.6793,458,176.2546,448,176.4636,438,176.7022,428,176,427.2788,176,428.6785,166.4,427.7035,156.8,428.5338,147.2,427.505,137.6,428,128" style="stroke:#000000;stroke-width:1.5;"/><polygon fill="#ADD1B2" points="454.0608,146.6756,452.4484,148.8788,450.5412,152.1057,447.8136,154.2804,444.9474,155.4696,442.662,155.5728,439.7247,154.0855,436.9532,153.1139,434.8495,151.1412,433.7461,148.8828,433.0917,147.0845,432.4506,144.7357,431.41,142.7145,432.2096,140.741,432.9102,138.5792,435.5393,136.8695,437.389,134.6511,439.6784,133.9144,442.4001,133.2801,445.8904,133.657,447.8021,134.5585,450.0247,134.9672,452.7272,137.736,453.6693,140.659,454.0786,142.6534,453.615,145.9399" style="stroke:#000000;stroke-width:1.0;"/><path d="M445.3438,139.6719 C444.4063,139.2344 443.8125,139.0938 442.9375,139.0938 C440.3125,139.0938 438.3125,141.1719 438.3125,143.8906 L438.3125,145.0156 C438.3125,147.5938 440.4219,149.4844 443.3125,149.4844 C444.5313,149.4844 445.6875,149.1875 446.4375,148.6406 C447.0156,148.2344 447.3438,147.7813 447.3438,147.3906 C447.3438,146.9375 446.9531,146.5469 446.4844,146.5469 C446.2656,146.5469 446.0625,146.625 445.875,146.8125 C445.4219,147.2969 445.4219,147.2969 445.2344,147.3906 C444.8125,147.6563 444.125,147.7813 443.3594,147.7813 C441.3125,147.7813 440.0156,146.6875 440.0156,144.9844 L440.0156,143.8906 C440.0156,142.1094 441.2656,140.7969 443,140.7969 C443.5781,140.7969 444.1875,140.9531 444.6563,141.2031 C445.1406,141.4844 445.3125,141.7031 445.4063,142.1094 C445.4688,142.5156 445.5,142.6406 445.6406,142.7656 C445.7813,142.9063 446.0156,143.0156 446.2344,143.0156 C446.5,143.0156 446.7656,142.875 446.9375,142.6563 C447.0469,142.5 447.0781,142.3125 447.0781,141.8906 L447.0781,140.4688 C447.0781,140.0313 447.0625,139.9063 446.9688,139.75 C446.8125,139.4844 446.5313,139.3438 446.2344,139.3438 C445.9375,139.3438 445.7344,139.4375 445.5156,139.75 L445.3438,139.6719 Z " fill="#000000"/><text fill="#000000" font-family="sans-serif" font-size="12" lengthAdjust="spacing" textLength="68" x="457" y="148.1543">TOMLString</text><path d="M429,160 L429,160.2802 L438.8,159.4476 L448.6,160.2577 L458.4,160.5329 L468.2,159.0488 L478,159.8964 L487.8,159.4313 L497.6,159.4887 L507.4,159.9091 L517.2,159.0782 L527,160 " fill="#FEFECE" style="stroke:#000000;stroke-width:1.5;"/><path d="M429,168 L429,168.2802 L438.8,167.4476 L448.6,168.2577 L458.4,168.5329 L468.2,167.0488 L478,167.8964 L487.8,167.4313 L497.6,167.4887 L507.4,167.9091 L517.2,167.0782 L527,168 " fill="#FEFECE" style="stroke:#000000;stroke-width:1.5;"/><!--MD5=[ba505bdf5bfa2d6b9373fc5445d18f5d]
reverse link TOMLDatatype to TOMLBoolean--><path d="M204.04,77.3811 L204.1704,77.6292 L195.0554,81.4802 L186.7048,86.7853 L178.1053,91.617 L168.6872,94.8914 L160.3541,100.2297 L151.4101,104.4061 L142.7092,109.0449 L134.1774,114.0052 L125.0631,117.8577 L117.108,123.9151 L108.037,127.8498 " fill="none" style="stroke:#000000;stroke-width:1.0;"/><polygon fill="none" points="200.814,71.169,200.8243,71.2383,204.9857,70.4102,209.2075,69.9883,213.4096,69.4342,217.5471,68.445,221.774,68.058,221.755,68.0403,218.7808,71.0616,215.9021,74.1719,213.0898,77.344,210.0486,80.3029,207.328,83.5605,207.4914,83.6464,205.8392,80.9844,204.664,78.5732,203.547,76.1926,202.0915,73.634,200.814,71.169" style="stroke:#000000;stroke-width:1.0;"/><!--MD5=[fa4acf5b0a3eeef1d4114341ddd4db01]
reverse link TOMLDatatype to TOMLInteger--><path d="M249.772,85.2 L250.0118,85.345 L244.1654,93.408 L239.725,102.3208 L234.8267,110.9568 L228.4228,118.6829 L224.103,127.6686 " fill="none" style="stroke:#000000;stroke-width:1.0;"/><polygon fill="none" points="243.797,81.5532,243.8416,81.6072,246.9764,78.7477,250.3728,76.2048,253.684,73.5588,256.7152,70.5737,260.134,68.058,260.1086,68.0527,259.1239,72.1762,258.2669,76.3266,257.4988,80.4957,256.4245,84.6005,255.779,88.7953,255.8745,88.9532,253.2739,87.1671,250.9521,85.842,248.6643,84.5733,246.1786,82.9772,243.797,81.5532" style="stroke:#000000;stroke-width:1.0;"/><!--MD5=[8d913f35269f744ead665e04dd1dd90b]
reverse link TOMLDatatype to TOMLFloat--><path d="M306.228,85.2 L306.4678,85.345 L310.889,93.408 L316.7162,102.3208 L322.0855,110.9568 L325.9492,118.6829 L331.897,127.6686 " fill="none" style="stroke:#000000;stroke-width:1.0;"/><polygon fill="none" points="300.221,88.7953,300.2896,88.8097,299.2148,84.6195,298.5421,80.5136,297.7384,76.3803,296.5043,72.1566,295.866,68.058,295.8495,68.038,299.0429,70.6474,302.3194,73.3575,305.6537,76.1376,308.7888,78.6765,312.203,81.5532,312.2985,81.7111,309.6979,82.8218,307.3761,84.3936,305.0883,86.0217,302.6026,87.3224,300.221,88.7953" style="stroke:#000000;stroke-width:1.0;"/><!--MD5=[43a5b17051952e5191ea2ad9b3caac41]
reverse link TOMLDatatype to TOMLString--><path d="M348.376,78.0864 L348.5134,78.3307 L356.952,82.5813 L366.1959,88.2637 L375.1777,93.4799 L383.2969,97.1627 L392.5592,102.8778 L401.178,107.4488 L410.0529,112.4751 L419.1058,117.8179 L427.5453,122.07 L436.844,127.8498 " fill="none" style="stroke:#000000;stroke-width:1.0;"/><polygon fill="none" points="344.547,83.9644,344.5996,84.0107,341.6435,80.6919,338.9958,77.6444,336.2476,74.5086,333.1693,71.0822,330.548,68.058,330.5435,68.0325,334.6957,68.6588,338.8709,69.4137,343.0618,70.258,347.1981,70.7943,351.411,71.762,351.5718,71.8525,349.8551,74.0995,348.6079,76.6106,347.4181,79.154,345.8949,81.5099,344.547,83.9644" style="stroke:#000000;stroke-width:1.0;"/><!--MD5=[3f099057f7a87b67ccc2683dac0a9cfa]
@startuml
skinparam handwritten true
  skinparam class {
    BorderColor Black
    ArrowColor Black
  }
  ' == CLASSES =========================
abstract class TOMLDatatype {
  value : Object
}
class TOMLBoolean
class TOMLInteger
class TOMLFloat
class TOMLString

  ' == RELATIONSHIPS ===================
  TOMLDatatype <|- - TOMLBoolean
  TOMLDatatype <|- - TOMLInteger
  TOMLDatatype <|- - TOMLFloat
  TOMLDatatype <|- - TOMLString
@enduml

@startuml
skinparam handwritten true
  skinparam class {
    BorderColor Black
    ArrowColor Black
  }
abstract class TOMLDatatype {
  value : Object
}
class TOMLBoolean
class TOMLInteger
class TOMLFloat
class TOMLString

  TOMLDatatype <|- - TOMLBoolean
  TOMLDatatype <|- - TOMLInteger
  TOMLDatatype <|- - TOMLFloat
  TOMLDatatype <|- - TOMLString
@enduml

PlantUML version 1.2022.1beta9(Unknown compile time)
(GPL source distribution)
Java Runtime: Java(TM) SE Runtime Environment
JVM: Java HotSpot(TM) 64-Bit Server VM
Default Encoding: UTF-8
Language: en
Country: US
--></g></svg>