<?xml version="1.0" encoding="UTF-8" standalone="no"?><svg xmlns="http://www.w3.org/2000/svg" xmlns:xlink="http://www.w3.org/1999/xlink" contentStyleType="text/css" height="175px" preserveAspectRatio="none" style="width:1190px;height:175px;background:#FFFFFF;" version="1.1" viewBox="0 0 1190 175" width="1190px" zoomAndPan="magnify"><defs/><g><!--MD5=[86a0d4fc92ebb0c60aa28a7b5547f049]
class TOMLDatatype--><g id="elem_TOMLDatatype"><polygon fill="#F1F1F1" points="471,7,471,7.2102,480.6364,6.5857,490.2727,7.1933,499.9091,7.3997,509.5455,6.2866,519.1818,6.9223,528.8182,6.5735,538.4545,6.6165,548.0909,6.9318,557.7273,6.3086,567.3636,7.5536,577,7,576.9196,6.8059,577.3283,7.0855,577.7622,7.4259,578.0497,7.4129,578.4229,7.6068,578.7678,7.7322,578.7579,7.7282,578.9692,8.1086,579.1343,8.4698,579.3875,8.8676,579.5602,9.232,579.5,9.5,580.1793,9.5,579.7546,20.2188,579.9636,30.9375,580.2022,41.6563,578.7788,52.375,579.5,63.0938,579.709,63.1803,579.2622,63.4095,579.3715,63.869,578.9082,64.0913,578.8931,64.4992,578.7678,64.8615,578.8624,65.0899,578.408,64.993,578.0741,65.1868,577.7503,65.4051,577.4066,65.5755,577,65.5938,577,65.5898,567.3636,65.881,557.7273,65.0213,548.0909,65.8781,538.4545,66.1419,528.8182,66.0383,519.1818,66.2068,509.5455,65.1107,499.9091,64.9416,490.2727,64.9723,480.6364,65.5349,471,65.5938,470.9749,65.5332,470.7334,65.6572,470.2706,65.2471,469.8956,65.0488,469.6149,65.0783,469.2322,64.8615,469.0269,64.7765,468.9259,64.4417,469.1392,64.2372,468.9271,63.8564,468.8726,63.541,468.5,63.0938,468.1782,63.0938,468.8192,52.375,469.0904,41.6563,468.0276,30.9375,468.4041,20.2188,468.5,9.5,468.5388,9.5161,468.8472,9.2296,468.7916,8.7924,469.0818,8.4983,468.9152,8.0151,469.2322,7.7322,469.1458,7.5237,469.65,7.7409,469.8479,7.2186,470.3578,7.4496,470.6728,7.2101,471,7" style="stroke:#000000;stroke-width:0.5;"/><text fill="#000000" font-family="sans-serif" font-size="14" font-style="italic" lengthAdjust="spacing" textLength="105" x="471.5" y="24.9951">TOMLDatatype</text><path d="M469.5,33.2969 L469.5,33.5771 L479.4091,32.7444 L489.3182,33.5546 L499.2273,33.8298 L509.1364,32.3457 L519.0455,33.1933 L528.9545,32.7282 L538.8636,32.7855 L548.7727,33.206 L558.6818,32.375 L568.5909,34.0351 L578.5,33.2969 " fill="#F1F1F1" style="stroke:#000000;stroke-width:0.5;"/><text fill="#000000" font-family="sans-serif" font-size="14" lengthAdjust="spacing" textLength="99" x="474.5" y="50.292">value : Object</text><path d="M469.5,57.5938 L469.5,57.874 L479.4091,57.0413 L489.3182,57.8515 L499.2273,58.1267 L509.1364,56.6426 L519.0455,57.4901 L528.9545,57.0251 L538.8636,57.0824 L548.7727,57.5029 L558.6818,56.6719 L568.5909,58.3319 L578.5,57.5938 " fill="#F1F1F1" style="stroke:#000000;stroke-width:0.5;"/></g><!--MD5=[24cc18ae4eca35bf877b9d81c278a472]
class TOMLBoolean--><g id="elem_TOMLBoolean"><polygon fill="#F1F1F1" points="9.5,126,9.5,126.2102,19.4,125.5857,29.3,126.1933,39.2,126.3997,49.1,125.2866,59,125.9223,68.9,125.5735,78.8,125.6165,88.7,125.9318,98.6,125.3086,108.5,126,108.5706,126.1705,108.7732,125.9523,109.1819,126.232,109.6158,126.5724,109.9033,126.5594,110.2678,126.7322,110.2888,126.7409,110.4044,127.0817,110.6156,127.4621,110.7808,127.8234,111.0339,128.2212,111,128.5,111.2237,128.5,111.2264,135.9594,111.0849,143.4188,111.1545,150.8781,111.2341,158.3375,111,165.7969,110.7779,165.7049,111.0625,166.237,110.6158,166.4662,110.7251,166.9256,110.2618,167.1479,110.2678,167.5646,110.259,167.5435,110.0088,167.9395,109.5544,167.8425,109.2205,168.0364,108.8967,168.2547,108.5,168.2969,108.5,168.7131,98.6,168.293,88.7,168.5841,78.8,167.7245,68.9,168.5813,59,168.8451,49.1,168.7414,39.2,168.9099,29.3,167.8138,19.4,167.6447,9.5,168.2969,9.4207,168.1055,9.1389,168.1323,8.7678,167.9435,8.5263,168.0674,8.0635,167.6573,7.7322,167.5646,7.6266,167.5209,7.6561,167.2402,7.234,166.7725,7.133,166.4378,7.3463,166.2332,7,165.7969,7.1452,165.7969,7.2448,158.3375,6.8927,150.8781,7.1064,143.4188,7.1968,135.9594,7,128.5,6.8545,128.4397,7.1169,128.1342,7.3317,127.809,7.6401,127.5225,7.5845,127.0853,7.7322,126.7322,7.7912,126.8747,8.0151,126.4152,8.3529,126.2308,8.8571,126.448,9.055,125.9257,9.5,126" style="stroke:#000000;stroke-width:0.5;"/><text fill="#000000" font-family="sans-serif" font-size="14" lengthAdjust="spacing" textLength="98" x="10" y="143.9951">TOMLBoolean</text><path d="M8,152.2969 L8,152.5771 L18.2,151.7444 L28.4,152.5546 L38.6,152.8298 L48.8,151.3457 L59,152.1933 L69.2,151.7282 L79.4,151.7855 L89.6,152.206 L99.8,151.375 L110,152.2969 " fill="#F1F1F1" style="stroke:#000000;stroke-width:0.5;"/><path d="M8,160.2969 L8,160.5771 L18.2,159.7444 L28.4,160.5546 L38.6,160.8298 L48.8,159.3457 L59,160.1933 L69.2,159.7282 L79.4,159.7855 L89.6,160.206 L99.8,159.375 L110,160.2969 " fill="#F1F1F1" style="stroke:#000000;stroke-width:0.5;"/></g><!--MD5=[0292f36b444c2fa0dc5ffa9f87c00731]
class TOMLInteger--><g id="elem_TOMLInteger"><polygon fill="#F1F1F1" points="149,126,149,126.2102,159.4444,125.5857,169.8889,126.1933,180.3333,126.3997,190.7778,125.2866,201.2222,125.9223,211.6667,125.5735,222.1111,125.6165,232.5556,125.9318,243,126,242.9118,125.7871,243.4242,126.3169,243.6267,126.0988,244.0354,126.3784,244.4693,126.7188,244.7678,126.7322,244.7414,126.7213,244.9352,127.0945,245.0508,127.4353,245.2621,127.8157,245.4272,128.177,245.5,128.5,245.6952,128.5,245.7237,135.9594,245.7264,143.4188,245.5849,150.8781,245.6545,158.3375,245.5,165.7969,245.7163,165.8865,245.1315,166.0584,245.4161,166.5905,244.9693,166.8197,245.0786,167.2792,244.7678,167.5646,244.7046,167.4122,244.4055,167.69,244.1553,168.0859,243.7009,167.989,243.367,168.1829,243,168.2969,243,168.6355,232.5556,168.7131,222.1111,168.293,211.6667,168.5841,201.2222,167.7245,190.7778,168.5813,180.3333,168.8451,169.8889,168.7414,159.4444,168.9099,149,168.2969,148.9384,168.1481,148.5633,167.9496,148.2136,167.8126,147.9318,167.8394,147.5607,167.6506,147.2322,167.5646,147.4421,167.6516,147.032,167.1888,146.8337,166.8138,146.8632,166.5331,146.4411,166.0654,146.5,165.7969,146.327,165.7969,146.7163,158.3375,146.6452,150.8781,146.7448,143.4188,146.3927,135.9594,146.5,128.5,146.5983,128.5407,146.8283,128.2218,146.6474,127.7326,146.9098,127.4271,147.1246,127.1019,147.2322,126.7322,147.3154,126.9329,147.5853,126.5845,147.9983,126.5818,148.2223,126.1223,148.5601,125.9379,149,126" style="stroke:#000000;stroke-width:0.5;"/><text fill="#000000" font-family="sans-serif" font-size="14" lengthAdjust="spacing" textLength="93" x="149.5" y="143.9951">TOMLInteger</text><path d="M147.5,152.2969 L147.5,152.5771 L157.2,151.7444 L166.9,152.5546 L176.6,152.8298 L186.3,151.3457 L196,152.1933 L205.7,151.7282 L215.4,151.7855 L225.1,152.206 L234.8,151.375 L244.5,152.2969 " fill="#F1F1F1" style="stroke:#000000;stroke-width:0.5;"/><path d="M147.5,160.2969 L147.5,160.5771 L157.2,159.7444 L166.9,160.5546 L176.6,160.8298 L186.3,159.3457 L196,160.1933 L205.7,159.7282 L215.4,159.7855 L225.1,160.206 L234.8,159.375 L244.5,160.2969 " fill="#F1F1F1" style="stroke:#000000;stroke-width:0.5;"/></g><!--MD5=[c534894a0ca8e4d39390e21d83832bea]
class TOMLFloat--><g id="elem_TOMLFloat"><polygon fill="#F1F1F1" points="283.5,126,283.5,126.2102,293.125,125.5857,302.75,126.1933,312.375,126.3997,322,125.2866,331.625,125.9223,341.25,125.5735,350.875,125.6165,360.5,126,360.4913,125.979,360.7654,125.9335,361.2777,126.4634,361.4803,126.2452,361.889,126.5249,362.2678,126.7322,362.4008,126.7873,362.3878,127.0748,362.5817,127.448,362.6973,127.7888,362.9085,128.1692,363,128.5,363.0797,128.5,363.1952,135.9594,363.2237,143.4188,363.2264,150.8781,363.0849,158.3375,363,165.7969,363.1428,165.856,363.0698,166.24,362.485,166.412,362.7696,166.9441,362.3229,167.1733,362.2678,167.5646,362.3359,167.729,361.8511,167.5586,361.5519,167.8364,361.3017,168.2324,360.8473,168.1354,360.5,168.2969,360.5,168.4022,350.875,168.6355,341.25,168.7131,331.625,168.293,322,168.5841,312.375,167.7245,302.75,168.5813,293.125,168.8451,283.5,168.2969,283.5567,168.4338,283.2246,168.3392,282.7313,167.8552,282.3561,167.6567,282.0065,167.5197,281.7322,167.5646,281.7141,167.5571,281.5253,167.186,281.6492,166.9445,281.2391,166.4817,281.0408,166.1067,281,165.7969,281.0761,165.7969,280.7777,158.3375,280.827,150.8781,281.2163,143.4188,281.1452,135.9594,281,128.5,281.2262,128.5937,281.0473,128.1054,281.3912,127.8336,281.6212,127.5147,281.4403,127.0255,281.7322,126.7322,281.72,126.7027,282.1019,126.6246,282.5225,126.6401,282.7924,126.2916,283.2055,126.2889,283.5,126" style="stroke:#000000;stroke-width:0.5;"/><text fill="#000000" font-family="sans-serif" font-size="14" lengthAdjust="spacing" textLength="76" x="284" y="143.9951">TOMLFloat</text><path d="M282,152.2969 L282,152.5771 L292,151.7444 L302,152.5546 L312,152.8298 L322,151.3457 L332,152.1933 L342,151.7282 L352,151.7855 L362,152.2969 " fill="#F1F1F1" style="stroke:#000000;stroke-width:0.5;"/><path d="M282,160.2969 L282,160.5771 L292,159.7444 L302,160.5546 L312,160.8298 L322,159.3457 L332,160.1933 L342,159.7282 L352,159.7855 L362,160.2969 " fill="#F1F1F1" style="stroke:#000000;stroke-width:0.5;"/></g><!--MD5=[d434cac494a857c4f99ac70a230bc258]
class TOMLString--><g id="elem_TOMLString"><polygon fill="#F1F1F1" points="400.5,126,400.5,126.2102,409.9444,125.5857,419.3889,126.1933,428.8333,126.3997,438.2778,125.2866,447.7222,125.9223,457.1667,125.5735,466.6111,125.6165,476.0556,125.9318,485.5,126,485.4118,125.7871,485.9242,126.3169,486.1267,126.0988,486.5354,126.3784,486.9693,126.7188,487.2678,126.7322,487.2414,126.7213,487.4352,127.0945,487.5508,127.4353,487.7621,127.8157,487.9272,128.177,488,128.5,488.1952,128.5,488.2237,135.9594,488.2264,143.4188,488.0849,150.8781,488.1545,158.3375,488,165.7969,488.2163,165.8865,487.6315,166.0584,487.9161,166.5905,487.4693,166.8197,487.5786,167.2792,487.2678,167.5646,487.2046,167.4122,486.9055,167.69,486.6553,168.0859,486.2009,167.989,485.867,168.1829,485.5,168.2969,485.5,168.6355,476.0556,168.7131,466.6111,168.293,457.1667,168.5841,447.7222,167.7245,438.2778,168.5813,428.8333,168.8451,419.3889,168.7414,409.9444,168.9099,400.5,168.2969,400.4384,168.1481,400.0633,167.9496,399.7136,167.8126,399.4318,167.8394,399.0607,167.6506,398.7322,167.5646,398.9421,167.6516,398.532,167.1888,398.3337,166.8138,398.3632,166.5331,397.9411,166.0654,398,165.7969,397.827,165.7969,398.2163,158.3375,398.1452,150.8781,398.2448,143.4188,397.8927,135.9594,398,128.5,398.0983,128.5407,398.3283,128.2218,398.1474,127.7326,398.4098,127.4271,398.6246,127.1019,398.7322,126.7322,398.8154,126.9329,399.0853,126.5845,399.4983,126.5818,399.7223,126.1223,400.0601,125.9379,400.5,126" style="stroke:#000000;stroke-width:0.5;"/><text fill="#000000" font-family="sans-serif" font-size="14" lengthAdjust="spacing" textLength="84" x="401" y="143.9951">TOMLString</text><path d="M399,152.2969 L399,152.5771 L408.7778,151.7444 L418.5556,152.5546 L428.3333,152.8298 L438.1111,151.3457 L447.8889,152.1933 L457.6667,151.7282 L467.4444,151.7855 L477.2222,152.206 L487,152.2969 " fill="#F1F1F1" style="stroke:#000000;stroke-width:0.5;"/><path d="M399,160.2969 L399,160.5771 L408.7778,159.7444 L418.5556,160.5546 L428.3333,160.8298 L438.1111,159.3457 L447.8889,160.1933 L457.6667,159.7282 L467.4444,159.7855 L477.2222,160.206 L487,160.2969 " fill="#F1F1F1" style="stroke:#000000;stroke-width:0.5;"/></g><!--MD5=[f98d5c4f6011383cf0e9251629777c24]
class TOMLOffsetDateTime--><g id="elem_TOMLOffsetDateTime"><polygon fill="#FFFFE0" points="526,126,526,126.2102,535.875,125.5857,545.75,126.1933,555.625,126.3997,565.5,125.2866,575.375,125.9223,585.25,125.5735,595.125,125.6165,605,125.9318,614.875,125.3086,624.75,126.5536,634.625,125.3697,644.5,125.8022,654.375,126.4319,664.25,125.9142,674.125,126.0682,684,126,683.9959,125.9902,684.3763,126.2014,684.7376,126.3665,685.1354,126.6197,685.4998,126.7924,685.7678,126.7322,685.977,126.8189,685.9926,127.1183,686.2034,127.4985,686.4234,127.8825,686.1315,128.0545,686.5,128.5,686.7262,128.5,686.4012,135.9594,686.6779,143.4188,686.335,150.8781,686.4772,158.3375,686.5,165.7969,686.7284,165.8915,686.3385,166.1442,686.2395,166.5174,686.1649,166.9007,686.0424,167.2642,685.7678,167.5646,685.7673,167.5634,685.4509,167.7995,684.9876,167.6813,684.7434,168.0916,684.4235,168.3193,684,168.2969,684,168.7414,674.125,168.9099,664.25,167.8138,654.375,167.6447,644.5,167.6755,634.625,168.238,624.75,168.1003,614.875,168.9783,605,168.1222,595.125,167.9538,585.25,168.5251,575.375,167.63,565.5,167.7777,555.625,168.9458,545.75,168.7325,535.875,169.0314,526,168.2969,525.959,168.1978,525.6872,168.2487,525.3682,168.1858,524.8791,167.7121,524.5736,167.6816,524.2322,167.5646,524.271,167.5807,524.2865,167.2942,523.938,166.857,523.9353,166.563,523.4759,166.0798,523.5,165.7969,523.2742,165.7969,523.6679,158.3375,523.261,150.8781,523.6697,143.4188,523.5689,135.9594,523.5,128.5,523.4175,128.4658,523.5375,128.1013,523.9342,127.8514,523.8472,127.4012,524.2681,127.1613,524.2322,126.7322,524.1617,126.562,524.6645,126.7759,525.0011,126.5885,525.3241,126.3683,525.6525,126.161,526,126" style="stroke:#000000;stroke-width:0.5;"/><text fill="#000000" font-family="sans-serif" font-size="14" lengthAdjust="spacing" textLength="157" x="526.5" y="143.9951">TOMLOffsetDateTime</text><path d="M524.5,152.2969 L524.5,152.5771 L534.5625,151.7444 L544.625,152.5546 L554.6875,152.8298 L564.75,151.3457 L574.8125,152.1933 L584.875,151.7282 L594.9375,151.7855 L605,152.206 L615.0625,151.375 L625.125,153.0351 L635.1875,151.4565 L645.25,152.0332 L655.3125,152.8728 L665.375,152.1825 L675.4375,152.3879 L685.5,152.2969 " fill="#FFFFE0" style="stroke:#000000;stroke-width:0.5;"/><path d="M524.5,160.2969 L524.5,160.5771 L534.5625,159.7444 L544.625,160.5546 L554.6875,160.8298 L564.75,159.3457 L574.8125,160.1933 L584.875,159.7282 L594.9375,159.7855 L605,160.206 L615.0625,159.375 L625.125,161.0351 L635.1875,159.4565 L645.25,160.0332 L655.3125,160.8728 L665.375,160.1825 L675.4375,160.3879 L685.5,160.2969 " fill="#FFFFE0" style="stroke:#000000;stroke-width:0.5;"/></g><!--MD5=[8ba09cd14022591479db6665cb08eb88]
class TOMLLocalDateTime--><g id="elem_TOMLLocalDateTime"><polygon fill="#FFFFE0" points="724.5,126,724.5,126.2102,734.4333,125.5857,744.3667,126.1933,754.3,126.3997,764.2333,125.2866,774.1667,125.9223,784.1,125.5735,794.0333,125.6165,803.9667,125.9318,813.9,125.3086,823.8333,126.5536,833.7667,125.3697,843.7,125.8022,853.6333,126.4319,863.5667,125.9142,873.5,126,873.5087,126.021,873.8495,126.1366,874.2299,126.3479,874.5912,126.513,874.9889,126.7662,875.2678,126.7322,875.4744,126.8178,875.6234,127.1724,875.6391,127.4718,875.8499,127.852,876.0698,128.236,876,128.5,875.7596,128.5,876.2262,135.9594,875.9012,143.4188,876.1779,150.8781,875.835,158.3375,876,165.7969,875.9789,165.7881,876.0819,166.245,875.6921,166.4978,875.5931,166.871,875.5185,167.2543,875.2678,167.5646,875.3209,167.6928,874.9137,167.7099,874.5973,167.946,874.1341,167.8277,873.8898,168.238,873.5,168.2969,873.5,168.8451,863.5667,168.7414,853.6333,168.9099,843.7,167.8138,833.7667,167.6447,823.8333,167.6755,813.9,168.238,803.9667,168.1003,794.0333,168.9783,784.1,168.1222,774.1667,167.9538,764.2333,168.5251,754.3,167.63,744.3667,167.7777,734.4333,168.9458,724.5,168.2969,724.5556,168.431,724.2401,168.3766,723.7518,167.9049,723.4801,167.9558,723.1611,167.8929,722.7322,167.5646,722.5868,167.5044,722.5563,167.1989,722.4781,166.8736,722.4936,166.5871,722.1452,166.1499,722,165.7969,722.1542,165.7969,721.8154,158.3375,721.7742,150.8781,722.1679,143.4188,721.761,135.9594,722,128.5,722.1567,128.5649,722.2101,128.1728,722.2104,127.7587,722.3304,127.3942,722.7271,127.1443,722.7322,126.7322,722.694,126.6401,723.1613,126.7681,723.3688,126.2691,723.8717,126.483,724.2082,126.2956,724.5,126" style="stroke:#000000;stroke-width:0.5;"/><text fill="#000000" font-family="sans-serif" font-size="14" lengthAdjust="spacing" textLength="148" x="725" y="143.9951">TOMLLocalDateTime</text><path d="M723,152.2969 L723,152.5771 L733.1333,151.7444 L743.2667,152.5546 L753.4,152.8298 L763.5333,151.3457 L773.6667,152.1933 L783.8,151.7282 L793.9333,151.7855 L804.0667,152.206 L814.2,151.375 L824.3333,153.0351 L834.4667,151.4565 L844.6,152.0332 L854.7333,152.8728 L864.8667,152.1825 L875,152.2969 " fill="#FFFFE0" style="stroke:#000000;stroke-width:0.5;"/><path d="M723,160.2969 L723,160.5771 L733.1333,159.7444 L743.2667,160.5546 L753.4,160.8298 L763.5333,159.3457 L773.6667,160.1933 L783.8,159.7282 L793.9333,159.7855 L804.0667,160.206 L814.2,159.375 L824.3333,161.0351 L834.4667,159.4565 L844.6,160.0332 L854.7333,160.8728 L864.8667,160.1825 L875,160.2969 " fill="#FFFFE0" style="stroke:#000000;stroke-width:0.5;"/></g><!--MD5=[2a078c4b4aa536269610ab23994ea279]
class TOMLLocalDate--><g id="elem_TOMLLocalDate"><polygon fill="#FFFFE0" points="913.5,126,913.5,126.2102,923.7727,125.5857,934.0455,126.1933,944.3182,126.3997,954.5909,125.2866,964.8636,125.9223,975.1364,125.5735,985.4091,125.6165,995.6818,125.9318,1005.9545,125.3086,1016.2273,126.5536,1026.5,126,1026.4196,125.8059,1026.8283,126.0855,1027.2622,126.4259,1027.5497,126.4129,1027.9229,126.6068,1028.2678,126.7322,1028.2579,126.7282,1028.4692,127.1086,1028.6343,127.4698,1028.8875,127.8676,1029.0602,128.232,1029,128.5,1029.2264,128.5,1029.0849,135.9594,1029.1545,143.4188,1029.2341,150.8781,1028.7596,158.3375,1029,165.7969,1029.209,165.8834,1028.7622,166.1126,1028.8715,166.5721,1028.4082,166.7944,1028.3931,167.2024,1028.2678,167.5646,1028.3624,167.793,1027.908,167.6961,1027.5741,167.89,1027.2503,168.1083,1026.9066,168.2786,1026.5,168.2969,1026.5,168.293,1016.2273,168.5841,1005.9545,167.7245,995.6818,168.5813,985.4091,168.8451,975.1364,168.7414,964.8636,168.9099,954.5909,167.8138,944.3182,167.6447,934.0455,167.6755,923.7727,168.238,913.5,168.2969,913.4749,168.2364,913.2334,168.3603,912.7706,167.9502,912.3956,167.7519,912.1149,167.7814,911.7322,167.5646,911.5269,167.4796,911.4259,167.1449,911.6392,166.9403,911.4271,166.5596,911.3726,166.2441,911,165.7969,910.8927,165.7969,911.1064,158.3375,911.1968,150.8781,910.8425,143.4188,910.968,135.9594,911,128.5,911.0388,128.5161,911.3472,128.2296,911.2916,127.7924,911.5818,127.4983,911.4152,127.0151,911.7322,126.7322,911.6458,126.5237,912.15,126.7409,912.3479,126.2186,912.8578,126.4496,913.1728,126.2101,913.5,126" style="stroke:#000000;stroke-width:0.5;"/><text fill="#000000" font-family="sans-serif" font-size="14" lengthAdjust="spacing" textLength="112" x="914" y="143.9951">TOMLLocalDate</text><path d="M912,152.2969 L912,152.5771 L921.6667,151.7444 L931.3333,152.5546 L941,152.8298 L950.6667,151.3457 L960.3333,152.1933 L970,151.7282 L979.6667,151.7855 L989.3333,152.206 L999,151.375 L1008.6667,153.0351 L1018.3333,151.4565 L1028,152.2969 " fill="#FFFFE0" style="stroke:#000000;stroke-width:0.5;"/><path d="M912,160.2969 L912,160.5771 L921.6667,159.7444 L931.3333,160.5546 L941,160.8298 L950.6667,159.3457 L960.3333,160.1933 L970,159.7282 L979.6667,159.7855 L989.3333,160.206 L999,159.375 L1008.6667,161.0351 L1018.3333,159.4565 L1028,160.2969 " fill="#FFFFE0" style="stroke:#000000;stroke-width:0.5;"/></g><!--MD5=[3025c5afc38a4690a23e491f68b25f9b]
class TOMLLocalTime--><g id="elem_TOMLLocalTime"><polygon fill="#FFFFE0" points="1067,126,1067,126.2102,1077.3636,125.5857,1087.7273,126.1933,1098.0909,126.3997,1108.4545,125.2866,1118.8182,125.9223,1129.1818,125.5735,1139.5455,125.6165,1149.9091,125.9318,1160.2727,125.3086,1170.6364,126.5536,1181,126,1180.9196,125.8059,1181.3283,126.0855,1181.7622,126.4259,1182.0497,126.4129,1182.4229,126.6068,1182.7678,126.7322,1182.7579,126.7282,1182.9692,127.1086,1183.1343,127.4698,1183.3875,127.8676,1183.5602,128.232,1183.5,128.5,1183.7264,128.5,1183.5849,135.9594,1183.6545,143.4188,1183.7341,150.8781,1183.2596,158.3375,1183.5,165.7969,1183.709,165.8834,1183.2622,166.1126,1183.3715,166.5721,1182.9082,166.7944,1182.8931,167.2024,1182.7678,167.5646,1182.8624,167.793,1182.408,167.6961,1182.0741,167.89,1181.7503,168.1083,1181.4066,168.2786,1181,168.2969,1181,168.293,1170.6364,168.5841,1160.2727,167.7245,1149.9091,168.5813,1139.5455,168.8451,1129.1818,168.7414,1118.8182,168.9099,1108.4545,167.8138,1098.0909,167.6447,1087.7273,167.6755,1077.3636,168.238,1067,168.2969,1066.9749,168.2364,1066.7334,168.3603,1066.2706,167.9502,1065.8956,167.7519,1065.6149,167.7814,1065.2322,167.5646,1065.0269,167.4796,1064.9259,167.1449,1065.1392,166.9403,1064.9271,166.5596,1064.8726,166.2441,1064.5,165.7969,1064.3927,165.7969,1064.6064,158.3375,1064.6968,150.8781,1064.3425,143.4188,1064.468,135.9594,1064.5,128.5,1064.5388,128.5161,1064.8472,128.2296,1064.7916,127.7924,1065.0818,127.4983,1064.9152,127.0151,1065.2322,126.7322,1065.1458,126.5237,1065.65,126.7409,1065.8479,126.2186,1066.3578,126.4496,1066.6728,126.2101,1067,126" style="stroke:#000000;stroke-width:0.5;"/><text fill="#000000" font-family="sans-serif" font-size="14" lengthAdjust="spacing" textLength="113" x="1067.5" y="143.9951">TOMLLocalTime</text><path d="M1065.5,152.2969 L1065.5,152.5771 L1075.25,151.7444 L1085,152.5546 L1094.75,152.8298 L1104.5,151.3457 L1114.25,152.1933 L1124,151.7282 L1133.75,151.7855 L1143.5,152.206 L1153.25,151.375 L1163,153.0351 L1172.75,151.4565 L1182.5,152.2969 " fill="#FFFFE0" style="stroke:#000000;stroke-width:0.5;"/><path d="M1065.5,160.2969 L1065.5,160.5771 L1075.25,159.7444 L1085,160.5546 L1094.75,160.8298 L1104.5,159.3457 L1114.25,160.1933 L1124,159.7282 L1133.75,159.7855 L1143.5,160.206 L1153.25,159.375 L1163,161.0351 L1172.75,159.4565 L1182.5,160.2969 " fill="#FFFFE0" style="stroke:#000000;stroke-width:0.5;"/></g><!--MD5=[ba505bdf5bfa2d6b9373fc5445d18f5d]
reverse link TOMLDatatype to TOMLBoolean--><g id="link_TOMLDatatype_TOMLBoolean"><path d="M448.844,52.985 L448.9024,53.2591 L439.0109,54.5167 L429.462,57.381 L419.8015,59.7222 L409.7742,60.3427 L400.233,63.2436 L390.4182,64.8608 L380.8189,67.4889 L380.7825,67.3224 L373.0123,69.163 L365.1531,70.596 L357.471,72.8402 L349.5587,74.0298 L341.8183,76.0071 L341.7992,75.9214 L333.6086,78.0319 L325.3072,79.6448 L317.0707,81.549 L308.8096,83.3429 L300.5613,85.1942 L300.5789,85.2716 L292.0424,87.2427 L283.5342,89.3378 L275.0003,91.3196 L266.4587,93.2681 L257.8493,94.9186 L257.875,95.0288 L249.2231,97.1452 L240.5742,99.2745 L231.7572,100.6845 L223.2257,103.3163 L214.484,105.0487 L214.4532,104.9205 L205.8961,107.3602 L197.1457,108.9965 L188.5467,111.2617 L179.9876,113.6926 L171.267,115.453 L171.2618,115.432 L162.825,117.6078 L154.3967,119.8178 L145.9516,121.9607 L137.453,123.8889 L129,126 L129.0328,126.1234 L125.3901,126.6953 L121.9432,128.0046 L118.4287,129.0591 L114.8723,129.9558 L111.277,130.7061 " fill="none" style="stroke:#000000;stroke-width:1.0;"/><polygon fill="none" points="447.472,46.121,447.4811,46.1905,451.6558,46.5359,455.884,47.2885,460.0947,47.9085,464.2482,48.0924,468.481,48.88,468.4676,48.8578,464.7788,50.9473,461.1574,53.1485,457.5829,55.4275,453.8468,57.4387,450.337,59.825,450.5176,59.8628,449.5584,57.0412,449.1265,54.3299,448.7589,51.6321,448.017,48.8559,447.472,46.121" style="stroke:#000000;stroke-width:1.0;"/></g><!--MD5=[fa4acf5b0a3eeef1d4114341ddd4db01]
reverse link TOMLDatatype to TOMLInteger--><g id="link_TOMLDatatype_TOMLInteger"><path d="M449.062,62.289 L449.15,62.5551 L439.2059,64.9674 L429.7778,68.9395 L420.1816,72.4037 L410.033,74.1976 L400.6166,78.2052 L390.788,80.9666 L381.1234,84.2239 L371.5729,87.826 L361.6294,90.24 L352.4681,95.019 L342.2898,96.7232 L332.7883,100.4736 L323.3694,104.4737 L313.4701,107.0212 L303.852,110.4191 L294.1275,113.4952 L284.533,116.9645 L274.8758,120.2442 L265.3384,123.8858 L255.6916,127.1968 L245.728,129.5502 " fill="none" style="stroke:#000000;stroke-width:1.0;"/><polygon fill="none" points="447.173,55.541,447.1742,55.6111,451.4078,55.4759,455.6485,55.7514,459.8869,55.8932,464.1177,55.5952,468.359,55.906,468.3432,55.8855,464.9145,58.3787,461.5654,60.9754,458.2717,63.644,454.7872,66.0647,451.57,68.8326,451.7452,68.8906,450.4911,66.1083,449.7486,63.4953,449.0685,60.9029,448.0253,58.1903,447.173,55.541" style="stroke:#000000;stroke-width:1.0;"/></g><!--MD5=[8d913f35269f744ead665e04dd1dd90b]
reverse link TOMLDatatype to TOMLFloat--><g id="link_TOMLDatatype_TOMLFloat"><path d="M452.962,75.6567 L453.0946,75.9036 L444.1966,79.7378 L436.0759,85.0192 L427.7022,89.8294 L418.4959,93.0896 L410.393,98.4041 L401.6689,102.5621 L393.192,107.1803 L384.887,112.1185 L375.9898,115.9542 L368.2713,121.9843 L359.418,125.9017 " fill="none" style="stroke:#000000;stroke-width:1.0;"/><polygon fill="none" points="449.995,69.3042,450.0059,69.3734,454.1599,68.5083,458.3778,68.049,462.5749,67.4575,466.7036,66.4315,470.927,66.007,470.9079,65.9895,467.9607,69.0372,465.1099,72.173,462.326,75.3701,459.3114,78.356,456.62,81.6377,456.7826,81.725,455.1099,79.0716,453.9119,76.6731,452.7718,74.3057,451.2948,71.7574,449.995,69.3042" style="stroke:#000000;stroke-width:1.0;"/></g><!--MD5=[43a5b17051952e5191ea2ad9b3caac41]
reverse link TOMLDatatype to TOMLString--><g id="link_TOMLDatatype_TOMLString"><path d="M490.476,82.4061 L490.7006,82.5738 L483.5389,90.7747 L477.6937,99.9585 L471.4198,108.8223 L463.7362,116.6335 L458.004,125.9017 " fill="none" style="stroke:#000000;stroke-width:1.0;"/><polygon fill="none" points="485.144,77.8461,485.1831,77.9042,488.5816,75.3637,492.2096,73.1639,495.7628,70.8531,499.0703,68.1776,502.718,66.007,502.6933,65.9992,501.3114,70.0072,500.0541,74.0544,498.8833,78.1288,497.4142,82.1093,496.363,86.2213,496.4734,86.3692,493.9935,84.3779,491.836,82.8184,489.7177,81.3116,487.3707,79.4982,485.144,77.8461" style="stroke:#000000;stroke-width:1.0;"/></g><!--MD5=[1ed604719e7d5c2e09e188578ca0fb0c]
reverse link TOMLDatatype to TOMLOffsetDateTime--><g id="link_TOMLDatatype_TOMLOffsetDateTime"><path d="M557.524,82.4061 L557.7486,82.5738 L563.5757,90.7747 L570.7193,99.9585 L577.4342,108.8223 L582.7394,116.6335 L589.996,125.9017 " fill="none" style="stroke:#000000;stroke-width:1.0;"/><polygon fill="none" points="551.637,86.2213,551.7038,86.2423,550.2343,82.137,549.1565,78.1549,547.9511,74.1327,546.3261,69.9785,545.282,66.007,545.2675,65.9855,548.7174,68.2569,552.2402,70.6366,555.8137,73.0916,559.2124,75.2871,562.856,77.8461,562.9664,77.994,560.4865,79.3528,558.329,81.1434,556.2107,82.9866,553.8637,84.5233,551.637,86.2213" style="stroke:#000000;stroke-width:1.0;"/></g><!--MD5=[59679651980a83c64a1b34a6f4cb1c78]
reverse link TOMLDatatype to TOMLLocalDateTime--><g id="link_TOMLDatatype_TOMLLocalDateTime"><path d="M598.442,66.871 L598.5449,67.1317 L607.591,70.0468 L617.2401,74.4901 L626.6928,78.4357 L635.4999,80.7449 L645.1627,85.223 L654.3438,88.48 L663.7166,92.223 L673.2226,96.3038 L682.2694,99.2205 L692.2304,104.4544 L701.0028,106.6756 L710.5662,110.9017 L720.2261,115.3724 L729.3245,118.42 L738.7516,122.3007 L748.07,125.9057 " fill="none" style="stroke:#000000;stroke-width:1.0;"/><polygon fill="none" points="595.686,73.3084,595.7318,73.3614,592.3885,70.4336,589.3137,67.8166,586.1515,65.0984,582.7018,62.0473,579.65,59.457,579.649,59.4311,583.8792,59.4805,588.1146,59.6605,592.3535,59.9311,596.5802,59.8891,600.824,60.285,600.9957,60.3527,599.601,62.8126,598.7075,65.4702,597.8751,68.1519,596.687,70.6932,595.686,73.3084" style="stroke:#000000;stroke-width:1.0;"/></g><!--MD5=[82cd055410cc4224183433043bf9a780]
reverse link TOMLDatatype to TOMLLocalDate--><g id="link_TOMLDatatype_TOMLLocalDate"><path d="M599.494,55.032 L599.5581,55.3048 L608.4092,56.6202 L617.6362,59.5348 L626.7408,61.9287 L635.4428,62.61 L644.6784,65.5611 L653.6136,67.2344 L662.7854,69.9139 L662.667,69.4165 L671.9997,72.0238 L681.0426,73.4137 L690.6623,77.2269 L699.5321,77.8895 L708.901,80.6488 L718.3308,83.6639 L727.4063,85.1906 L736.6681,87.5001 L736.6895,87.5886 L746.5234,89.8455 L756.4547,92.505 L766.3389,94.9704 L776.3129,97.8062 L786.2049,100.3036 L796.0727,102.701 L805.8049,104.5375 L815.5903,106.5943 L815.7388,107.1943 L825.6165,109.9289 L834.9617,110.5123 L845.2113,114.7496 L854.7002,115.9134 L864.7674,119.4138 L874.239,120.5079 L884.1768,123.4856 L894,126 L894.0814,126.3194 L897.3355,126.8306 L900.6932,127.7485 L904.0596,128.7005 L907.4089,129.5855 L910.704,130.2578 " fill="none" style="stroke:#000000;stroke-width:1.0;"/><polygon fill="none" points="597.456,61.744,597.4936,61.8031,593.8049,59.3546,590.3366,57.2528,586.7964,55.038,583.0205,52.4521,579.571,50.38,579.5682,50.3542,583.7694,49.7849,587.9845,49.3453,592.2094,48.996,596.4007,48.3357,600.639,48.111,600.8187,48.153,599.7978,50.7898,599.3016,53.5492,598.8694,56.3235,598.0648,59.0109,597.456,61.744" style="stroke:#000000;stroke-width:1.0;"/></g><!--MD5=[ef9911142bf6aab6d92d5d578c3238be]
reverse link TOMLDatatype to TOMLLocalTime--><g id="link_TOMLDatatype_TOMLLocalTime"><path d="M599.48,48.176 L599.4937,48.2684 L607.8592,49.2409 L616.3051,50.7551 L624.7249,52.0929 L633.0586,52.8506 L641.5114,54.4112 L641.4957,54.3088 L651.163,55.3396 L660.9094,56.8867 L670.7107,58.7928 L680.3226,59.4619 L690.1998,61.8636 L690.3153,62.5927 L700.869,62.7456 L711.7601,65.0272 L722.6923,67.5684 L733.385,68.5986 L744.2037,70.4236 L744.2185,70.5133 L753.8597,71.9745 L763.5683,73.8444 L773.2445,75.5171 L782.9826,77.566 L792.6641,79.2713 L802.1815,79.9814 L802.3353,80.8739 L812.3409,82.057 L822.4899,84.0726 L832.6456,86.1272 L842.4249,85.9979 L852.8436,89.5781 L862.7916,90.4276 L862.7684,90.2979 L869.008,91.7655 L875.1021,92.4198 L881.31,93.7108 L887.548,95.1696 L893.6646,95.9496 L893.6606,95.9283 L899.8786,97.1362 L906.1029,98.3788 L912.3147,99.5533 L918.4866,100.5102 L924.6925,101.6525 L924.7162,101.7779 L930.8482,102.5766 L937.1221,104.1248 L943.3469,105.414 L949.5414,106.5428 L955.7077,107.5227 L955.7599,107.7901 L961.8335,108.5167 L967.986,109.6477 L974.1556,110.8659 L980.3705,112.3161 L986.5425,113.5465 L986.5251,113.4609 L992.6998,115.0761 L998.7217,115.9359 L1004.8042,117.0953 L1010.9519,118.5769 L1017.0291,119.7102 L1016.9683,119.4201 L1022.9759,120.7423 L1029.0767,122.5084 L1035.0514,123.6736 L1041.0729,125.0615 L1047,126 L1046.9681,125.8606 L1050.5176,126.9351 L1054.0305,127.8493 L1057.4112,128.1856 L1060.9345,129.1455 L1064.43,129.9838 " fill="none" style="stroke:#000000;stroke-width:1.0;"/><polygon fill="none" points="598.436,55.098,598.4684,55.1601,594.6145,53.0159,590.9506,51.2359,587.2248,49.3373,583.2956,47.0488,579.648,45.3,579.643,45.2746,583.7804,44.3491,587.9427,43.5517,592.1225,42.8435,596.2423,41.8282,600.446,41.243,600.6286,41.2695,599.8361,43.9838,599.5768,46.7755,599.3825,49.5767,598.8097,52.3229,598.436,55.098" style="stroke:#000000;stroke-width:1.0;"/></g><!--MD5=[bcbad853d8f7befdd339c13f3a3937a2]
@startuml
skinparam handwritten true
  skinparam class {
    BorderColor Black
    ArrowColor Black
  }
  hide circle

  ' == CLASSES =========================
  abstract class TOMLDatatype {
    value : Object
  }
  class TOMLBoolean
  class TOMLInteger
  class TOMLFloat
  class TOMLString
  class TOMLOffsetDateTime #lightyellow
  class TOMLLocalDateTime #lightyellow
  class TOMLLocalDate #lightyellow
  class TOMLLocalTime #lightyellow

  ' == RELATIONSHIPS ===================
  TOMLDatatype <|- - TOMLBoolean
  TOMLDatatype <|- - TOMLInteger
  TOMLDatatype <|- - TOMLFloat
  TOMLDatatype <|- - TOMLString
  TOMLDatatype <|- - TOMLOffsetDateTime
  TOMLDatatype <|- - TOMLLocalDateTime
  TOMLDatatype <|- - TOMLLocalDate
  TOMLDatatype <|- - TOMLLocalTime
@enduml

@startuml
skinparam handwritten true
  skinparam class {
    BorderColor Black
    ArrowColor Black
  }
  hide circle

  abstract class TOMLDatatype {
    value : Object
  }
  class TOMLBoolean
  class TOMLInteger
  class TOMLFloat
  class TOMLString
  class TOMLOffsetDateTime #lightyellow
  class TOMLLocalDateTime #lightyellow
  class TOMLLocalDate #lightyellow
  class TOMLLocalTime #lightyellow

  TOMLDatatype <|- - TOMLBoolean
  TOMLDatatype <|- - TOMLInteger
  TOMLDatatype <|- - TOMLFloat
  TOMLDatatype <|- - TOMLString
  TOMLDatatype <|- - TOMLOffsetDateTime
  TOMLDatatype <|- - TOMLLocalDateTime
  TOMLDatatype <|- - TOMLLocalDate
  TOMLDatatype <|- - TOMLLocalTime
@enduml

PlantUML version 1.2022.2beta6(Unknown compile time)
(GPL source distribution)
Java Runtime: Java(TM) SE Runtime Environment
JVM: Java HotSpot(TM) 64-Bit Server VM
Default Encoding: UTF-8
Language: en
Country: US
--></g></svg>