<?xml version="1.0" encoding="UTF-8" standalone="no"?><svg xmlns="http://www.w3.org/2000/svg" xmlns:xlink="http://www.w3.org/1999/xlink" contentStyleType="text/css" height="453px" preserveAspectRatio="none" style="width:592px;height:453px;background:#FFFFFF;" version="1.1" viewBox="0 0 592 453" width="592px" zoomAndPan="magnify"><defs/><g><ellipse cx="317.0528" cy="16" fill="#222222" rx="10" ry="10" style="stroke:none;stroke-width:1.0;"/><g id="default"><rect fill="#F1F1F1" height="52.5938" rx="12.5" ry="12.5" style="stroke:#181818;stroke-width:0.5;" width="138" x="248.0528" y="87"/><line style="stroke:#181818;stroke-width:0.5;" x1="248.0528" x2="386.0528" y1="113.2969" y2="113.2969"/><text fill="#000000" font-family="sans-serif" font-size="14" lengthAdjust="spacing" textLength="51" x="291.5528" y="104.9951">default</text><text fill="#000000" font-family="sans-serif" font-size="14" lengthAdjust="spacing" textLength="118" x="253.0528" y="131.292">entry/keyval = 0</text></g><g id="expecting_value"><rect fill="#F1F1F1" height="50" rx="12.5" ry="12.5" style="stroke:#181818;stroke-width:0.5;" width="137" x="248.5528" y="217"/><line style="stroke:#181818;stroke-width:0.5;" x1="248.5528" x2="385.5528" y1="243.2969" y2="243.2969"/><text fill="#000000" font-family="sans-serif" font-size="14" lengthAdjust="spacing" textLength="117" x="258.5528" y="234.9951">expecting_value</text></g><g id="elem_rbracket_found"><polygon fill="#F1F1F1" points="47.053,422,59.053,434,47.053,446,35.053,434,47.053,422" style="stroke:#181818;stroke-width:0.5;"/></g><g id="elem_literal_found"><polygon fill="#F1F1F1" points="503.0528,422,515.0528,434,503.0528,446,491.0528,434,503.0528,422" style="stroke:#181818;stroke-width:0.5;"/></g><!--MD5=[6ed97b3ed5f5f4a151ea0493a322bc8b]
link *start to default--><g id="link_*start_default"><path d="M317.0528,26.157 C317.0528,38.788 317.0528,62.181 317.0528,81.435 " fill="none" id="*start-to-default" style="stroke:#000000;stroke-width:1.0;"/><polygon fill="#000000" points="317.0528,86.743,321.0528,77.743,317.0528,81.743,313.0528,77.743,317.0528,86.743" style="stroke:#000000;stroke-width:1.0;"/></g><!--MD5=[a62481f9ad056276d422c05d2feb8e23]
link default to expecting_value--><g id="link_default_expecting_value"><path d="M317.0528,140.099 C317.0528,160.818 317.0528,190.013 317.0528,211.671 " fill="none" id="default-to-expecting_value" style="stroke:#000000;stroke-width:1.0;"/><polygon fill="#000000" points="317.0528,216.726,321.0528,207.726,317.0528,211.726,313.0528,207.726,317.0528,216.726" style="stroke:#000000;stroke-width:1.0;"/><text fill="#000000" font-family="sans-serif" font-size="13" lengthAdjust="spacing" textLength="92" x="318.0528" y="183.0669">"=" / keyval=1</text></g><!--MD5=[e60726904b2ee53742e7289b9debdbaa]
link expecting_value to expecting_value--><g id="link_expecting_value_expecting_value"><path d="M385.7298,230.42 C405.3918,230.875 420.5528,234.734 420.5528,242 C420.5528,248.584 408.1018,252.372 391.1318,253.362 " fill="none" id="expecting_value-to-expecting_value" style="stroke:#000000;stroke-width:1.0;"/><polygon fill="#000000" points="385.7298,253.58,394.8826,257.2168,390.7258,253.38,394.5626,249.2232,385.7298,253.58" style="stroke:#000000;stroke-width:1.0;"/><text fill="#000000" font-family="sans-serif" font-size="13" lengthAdjust="spacing" textLength="97" x="426.5528" y="246.5669">"[" / keyval+=1</text></g><!--MD5=[7c44b61dfd15e559ef086e5220ca0d03]
link expecting_value to rbracket_found--><g id="link_expecting_value_rbracket_found"><path d="M300.5668,267.06 C281.7108,293.093 248.6788,334.433 212.0528,361 C162.0368,397.2795 90.8701,420.4638 61.0476,429.1426 " fill="none" id="expecting_value-to-rbracket_found" style="stroke:#000000;stroke-width:1.0;"/><polygon fill="#000000" points="55.9746,430.5942,65.7278,431.9639,60.7817,429.2187,63.5269,424.2726,55.9746,430.5942" style="stroke:#000000;stroke-width:1.0;"/><text fill="#000000" font-family="sans-serif" font-size="13" lengthAdjust="spacing" textLength="15" x="234.0528" y="357.0669">"]"</text></g><!--MD5=[9799477d8a3df051bc5f97a827f1a135]
link rbracket_found to expecting_value--><g id="link_rbracket_found_expecting_value"><path d="M44.2086,424.7258 C38.9623,407.8349 29.7929,368.8848 47.053,344 C90.8877,280.801 179.3948,257.083 243.1418,248.219 " fill="none" id="rbracket_found-to-expecting_value" style="stroke:#000000;stroke-width:1.0;"/><polygon fill="#000000" points="248.4578,247.506,239.0062,244.7372,243.5021,248.1703,240.069,252.6662,248.4578,247.506" style="stroke:#000000;stroke-width:1.0;"/><text fill="#000000" font-family="sans-serif" font-size="13" lengthAdjust="spacing" textLength="155" x="48.053" y="357.0669">[keyval&gt;2] / keyval -= 1</text></g><!--MD5=[fe86b526daaee6989f72ab647641c980]
link rbracket_found to default--><g id="link_rbracket_found_default"><path d="M43.2738,425.6472 C32.8485,404.2565 6,340.799 30.053,297 C75.0186,215.12 174.0138,164.744 243.0878,138.204 " fill="none" id="rbracket_found-to-default" style="stroke:#000000;stroke-width:1.0;"/><polygon fill="#000000" points="248.0078,136.334,238.1739,135.7909,243.3337,138.1096,241.015,143.2694,248.0078,136.334" style="stroke:#000000;stroke-width:1.0;"/><text fill="#000000" font-family="sans-serif" font-size="13" lengthAdjust="spacing" textLength="36" x="31.053" y="310.0669">[else]</text></g><!--MD5=[b10da1d8619b37047d3b22ab6edcc08d]
link expecting_value to literal_found--><g id="link_expecting_value_literal_found"><path d="M349.0748,267.07 C361.1068,276.279 374.8268,286.978 387.0528,297 C411.6598,317.17 419.7988,320.323 441.0528,344 C463.8198,369.3617 485.3838,403.3463 496.0668,421.0855 " fill="none" id="expecting_value-to-literal_found" style="stroke:#000000;stroke-width:1.0;"/><polygon fill="#000000" points="498.7828,425.6375,497.606,415.8592,496.2207,421.3438,490.7361,419.9585,498.7828,425.6375" style="stroke:#000000;stroke-width:1.0;"/><text fill="#000000" font-family="sans-serif" font-size="13" lengthAdjust="spacing" textLength="58" x="456.0528" y="357.0669">ev_literal</text></g><!--MD5=[7de99ae6c771d955437f5afbf2abe4ab]
link literal_found to expecting_value--><g id="link_literal_found_expecting_value"><path d="M493.9888,430.8771 C469.1598,424.6082 399.3598,403.8719 361.0528,361 C338.6548,335.933 327.2898,298.413 321.7848,272.439 " fill="none" id="literal_found-to-expecting_value" style="stroke:#000000;stroke-width:1.0;"/><polygon fill="#000000" points="320.7598,267.406,318.6381,277.0236,321.7585,272.3052,326.4769,275.4257,320.7598,267.406" style="stroke:#000000;stroke-width:1.0;"/><text fill="#000000" font-family="sans-serif" font-size="13" lengthAdjust="spacing" textLength="70" x="362.0528" y="357.0669">[keyval&gt;1]</text></g><!--MD5=[98003b8bc6c9b9d27f8d364defa8ea00]
link literal_found to default--><g id="link_literal_found_default"><path d="M507.1298,425.563 C522.5568,396.3192 574.2978,287.392 530.0528,217 C499.7548,168.797 439.7398,142.736 391.1148,128.975 " fill="none" id="literal_found-to-default" style="stroke:#000000;stroke-width:1.0;"/><polygon fill="#000000" points="386.1468,127.6,393.753,133.8567,390.9655,128.9343,395.8879,126.1468,386.1468,127.6" style="stroke:#000000;stroke-width:1.0;"/><text fill="#000000" font-family="sans-serif" font-size="13" lengthAdjust="spacing" textLength="36" x="548.0528" y="310.0669">[else]</text></g><!--MD5=[0a4ac6841ee907faeb444fb19583fd62]
@startuml
' skinparam handwritten true
  skinparam class {
    BorderColor Black
    ArrowColor Black
  }
  

  [*] - -> default
  default: entry/keyval = 0
  default- ->expecting_value : "=" / keyval=1
  expecting_value - - -> expecting_value : "[" / keyval+=1
  state rbracket_found <<choice>>
  expecting_value - - -> rbracket_found : "]"
  rbracket_found - - -> default : [else]
  rbracket_found - - -> expecting_value : [keyval>2] / keyval -= 1
  state literal_found <<choice>>
  expecting_value - - -> literal_found : ev_literal
  literal_found - - -> expecting_value : [keyval>1]
  literal_found - - -> default : [else]
@enduml

@startuml
  skinparam class {
    BorderColor Black
    ArrowColor Black
  }
  

  [*] - -> default
  default: entry/keyval = 0
  default- ->expecting_value : "=" / keyval=1
  expecting_value - - -> expecting_value : "[" / keyval+=1
  state rbracket_found <<choice>>
  expecting_value - - -> rbracket_found : "]"
  rbracket_found - - -> default : [else]
  rbracket_found - - -> expecting_value : [keyval>2] / keyval -= 1
  state literal_found <<choice>>
  expecting_value - - -> literal_found : ev_literal
  literal_found - - -> expecting_value : [keyval>1]
  literal_found - - -> default : [else]
@enduml

PlantUML version 1.2022.2beta6(Unknown compile time)
(GPL source distribution)
Java Runtime: Java(TM) SE Runtime Environment
JVM: Java HotSpot(TM) 64-Bit Server VM
Default Encoding: UTF-8
Language: en
Country: US
--></g></svg>