<?xml version="1.0" encoding="UTF-8" standalone="no"?><svg xmlns="http://www.w3.org/2000/svg" xmlns:xlink="http://www.w3.org/1999/xlink" contentScriptType="application/ecmascript" contentStyleType="text/css" height="93px" preserveAspectRatio="none" style="width:552px;height:93px;background:#FFFFFF;" version="1.1" viewBox="0 0 552 93" width="552px" zoomAndPan="magnify"><defs><filter height="300%" id="fj0c33iavkopz" width="300%" x="-1" y="-1"><feGaussianBlur result="blurOut" stdDeviation="2.0"/><feColorMatrix in="blurOut" result="blurOut2" type="matrix" values="0 0 0 0 0 0 0 0 0 0 0 0 0 0 0 0 0 0 .4 0"/><feOffset dx="4.0" dy="4.0" in="blurOut2" result="blurOut3"/><feBlend in="SourceGraphic" in2="blurOut3" mode="normal"/></filter></defs><g><polygon fill="#FFFFFF" filter="url(#fj0c33iavkopz)" points="7,7,7,7.2102,16.9412,6.5857,26.8824,7.1933,36.8235,7.3997,46.7647,6.2866,56.7059,6.9223,66.6471,6.5735,76.5882,6.6165,86.5294,6.9318,96.4706,6.3086,106.4118,7.5536,116.3529,6.3697,126.2941,6.8022,136.2353,7.4319,146.1765,6.9142,156.1176,7.0682,166.0588,6.9681,176,7,176.1785,7,176.2391,17.3616,176.5857,27.7232,176.6711,38.0848,176.6793,48.4464,176.2546,58.808,176.4636,69.1696,176,79.5313,176,80.2335,166.0588,78.8101,156.1176,80.2098,146.1765,79.2347,136.2353,80.0651,126.2941,79.0362,116.3529,79.4628,106.4118,80.2729,96.4706,79.4825,86.5294,79.6366,76.5882,79.8699,66.6471,79.9475,56.7059,79.5273,46.7647,79.8185,36.8235,78.9588,26.8824,79.8156,16.9412,80.0794,7,79.5313,7.4445,79.5313,7.613,69.1696,6.5169,58.808,6.3478,48.4464,6.3786,38.0848,6.9411,27.7232,6.8035,17.3616,7,7" style="stroke:#000000;stroke-width:1.5;"/><text fill="#000000" font-family="sans-serif" font-size="12" lengthAdjust="spacing" textLength="107" x="38" y="20.1387">tokens[0] : Literal</text><path d="M8,24.9688 L8,25.249 L17.8235,24.4163 L27.6471,25.2265 L37.4706,25.5017 L47.2941,24.0176 L57.1176,24.8651 L66.9412,24.4001 L76.7647,24.4574 L86.5882,24.8779 L96.4118,24.0469 L106.2353,25.7069 L116.0588,24.1284 L125.8824,24.7051 L135.7059,25.5447 L145.5294,24.8544 L155.3529,25.0597 L165.1765,24.9262 L175,24.9688 " fill="#FFFFFF" style="stroke:#000000;stroke-width:1.5;"/><text fill="#000000" font-family="sans-serif" font-size="10" lengthAdjust="spacing" textLength="86" x="13" y="38.251">lexeme = "title"</text><text fill="#000000" font-family="sans-serif" font-size="10" lengthAdjust="spacing" textLength="157" x="13" y="49.8916">terminal = "UNQUOTED-KEY"</text><text fill="#000000" font-family="sans-serif" font-size="10" lengthAdjust="spacing" textLength="85" x="13" y="61.5322">position = [3, 3]</text><text fill="#000000" font-family="sans-serif" font-size="10" lengthAdjust="spacing" textLength="75" x="13" y="73.1729">value = "title"</text><polygon fill="#FFFFFF" filter="url(#fj0c33iavkopz)" points="211.5,13,211.5,13.2102,221.3333,12.5857,231.1667,13.1933,241,13.3997,250.8333,12.2866,260.6667,12.9223,270.5,12.5735,280.3333,12.6165,290.1667,12.9318,300,12.3086,309.8333,13.5536,319.6667,12.3697,329.5,13,329.3022,13,329.9319,23.1484,329.4142,33.2969,329.5682,43.4453,329.4681,53.5938,329.6785,63.7422,329.5,73.8906,329.5,74.1298,319.6667,74.4763,309.8333,74.5617,300,74.5699,290.1667,74.1453,280.3333,74.3542,270.5,74.5929,260.6667,73.1694,250.8333,74.5691,241,73.5941,231.1667,74.4244,221.3333,73.3956,211.5,73.8906,211.4315,73.8906,212.2416,63.7422,211.4513,53.5938,211.6053,43.4453,211.8386,33.2969,211.9162,23.1484,211.5,13" style="stroke:#000000;stroke-width:1.5;"/><text fill="#000000" font-family="sans-serif" font-size="12" lengthAdjust="spacing" textLength="103" x="219" y="26.1387">tokens[1]: Token</text><path d="M212.5,30.9688 L212.5,31.249 L222.1667,30.4163 L231.8333,31.2265 L241.5,31.5017 L251.1667,30.0176 L260.8333,30.8651 L270.5,30.4001 L280.1667,30.4574 L289.8333,30.8779 L299.5,30.0469 L309.1667,31.7069 L318.8333,30.1284 L328.5,30.9688 " fill="#FFFFFF" style="stroke:#000000;stroke-width:1.5;"/><text fill="#000000" font-family="sans-serif" font-size="10" lengthAdjust="spacing" textLength="73" x="217.5" y="44.251">lexeme = "="</text><text fill="#000000" font-family="sans-serif" font-size="10" lengthAdjust="spacing" textLength="106" x="217.5" y="55.8916">terminal = "EQUAL"</text><text fill="#000000" font-family="sans-serif" font-size="10" lengthAdjust="spacing" textLength="85" x="217.5" y="67.5322">position = [3, 9]</text><polygon fill="#FFFFFF" filter="url(#fj0c33iavkopz)" points="364.5,7,364.5,7.2102,374.7353,6.5857,384.9706,7.1933,395.2059,7.3997,405.4412,6.2866,415.6765,6.9223,425.9118,6.5735,436.1471,6.6165,446.3824,6.9318,456.6176,6.3086,466.8529,7.5536,477.0882,6.3697,487.3235,6.8022,497.5588,7.4319,507.7941,6.9142,518.0294,7.0682,528.2647,6.9681,538.5,7,538.6785,7,538.7391,17.3616,539.0857,27.7232,539.1711,38.0848,539.1793,48.4464,538.7546,58.808,538.9636,69.1696,538.5,79.5313,538.5,80.2335,528.2647,78.8101,518.0294,80.2098,507.7941,79.2347,497.5588,80.0651,487.3235,79.0362,477.0882,79.4628,466.8529,80.2729,456.6176,79.4825,446.3824,79.6366,436.1471,79.8699,425.9118,79.9475,415.6765,79.5273,405.4412,79.8185,395.2059,78.9588,384.9706,79.8156,374.7353,80.0794,364.5,79.5313,364.9445,79.5313,365.113,69.1696,364.0169,58.808,363.8478,48.4464,363.8786,38.0848,364.4411,27.7232,364.3035,17.3616,364.5,7" style="stroke:#000000;stroke-width:1.5;"/><text fill="#000000" font-family="sans-serif" font-size="12" lengthAdjust="spacing" textLength="103" x="400" y="20.1387">tokens[2]: Literal</text><path d="M365.5,24.9688 L365.5,25.249 L375.6176,24.4163 L385.7353,25.2265 L395.8529,25.5017 L405.9706,24.0176 L416.0882,24.8651 L426.2059,24.4001 L436.3235,24.4574 L446.4412,24.8779 L456.5588,24.0469 L466.6765,25.7069 L476.7941,24.1284 L486.9118,24.7051 L497.0294,25.5447 L507.1471,24.8544 L517.2647,25.0597 L527.3824,24.9262 L537.5,24.9688 " fill="#FFFFFF" style="stroke:#000000;stroke-width:1.5;"/><text fill="#000000" font-family="sans-serif" font-size="10" lengthAdjust="spacing" textLength="141" x="370.5" y="38.251">lexeme = TOML Example"</text><text fill="#000000" font-family="sans-serif" font-size="10" lengthAdjust="spacing" textLength="162" x="370.5" y="49.8916">terminal = "\"BASIC-STRING\""</text><text fill="#000000" font-family="sans-serif" font-size="10" lengthAdjust="spacing" textLength="92" x="370.5" y="61.5322">position = [3, 11]</text><text fill="#000000" font-family="sans-serif" font-size="10" lengthAdjust="spacing" textLength="130" x="370.5" y="73.1729">value = "BASIC-STRING"</text><!--MD5=[9ad6417c8edb5c87f8a26fa2c4cf4771]
link o1 to o2--><!--MD5=[f3390b22645e1719499891abe0a6a76c]
link o2 to o3--><!--MD5=[8f1eb5f312da6e70ec8a7847ffa5af08]
@startuml
skinparam handwritten true
  skinparam object {
    BackgroundColor PaleGray
    BorderColor Black
    ArrowColor Black
  }

  object "tokens[0] : Literal" as o1
  o1 : lexeme = "title"
  o1 : terminal = "UNQUOTED-KEY"
  o1 : position = [3, 3]
  o1 : value = "title"


  object "tokens[1]: Token" as o2
  o2 : lexeme = "="
  o2 : terminal = "EQUAL"
  o2 : position = [3, 9]

  object "tokens[2]: Literal" as o3
  o3 : lexeme = TOML Example"
  o3 : terminal = "\"BASIC-STRING\""
  o3 : position = [3, 11]
  o3 : value = "BASIC-STRING"

  o1 -right[hidden]-> o2
  o2 -right[hidden]-> o3
@enduml

PlantUML version 1.2021.15beta8(Unknown compile time)
(GPL source distribution)
Java Runtime: Java(TM) SE Runtime Environment
JVM: Java HotSpot(TM) 64-Bit Server VM
Default Encoding: UTF-8
Language: en
Country: US
--></g></svg>