<?xml version="1.0" encoding="UTF-8" standalone="no"?><svg xmlns="http://www.w3.org/2000/svg" xmlns:xlink="http://www.w3.org/1999/xlink" contentScriptType="application/ecmascript" contentStyleType="text/css" height="300px" preserveAspectRatio="none" style="width:697px;height:300px;background:#FFFFFF;" version="1.1" viewBox="0 0 697 300" width="697px" zoomAndPan="magnify"><defs><filter height="300%" id="f1cj9gagl82p8l" width="300%" x="-1" y="-1"><feGaussianBlur result="blurOut" stdDeviation="2.0"/><feColorMatrix in="blurOut" result="blurOut2" type="matrix" values="0 0 0 0 0 0 0 0 0 0 0 0 0 0 0 0 0 0 .4 0"/><feOffset dx="4.0" dy="4.0" in="blurOut2" result="blurOut3"/><feBlend in="SourceGraphic" in2="blurOut3" mode="normal"/></filter></defs><g><polygon fill="#FFFFFF" filter="url(#f1cj9gagl82p8l)" points="266.5,7,266.5,7.2102,276.3125,6.5857,286.125,7.1933,295.9375,7.3997,305.75,6.2866,315.5625,6.9223,325.375,6.5735,335.1875,6.6165,345,6.9318,354.8125,6.3086,364.625,7.5536,374.4375,6.3697,384.25,6.8022,394.0625,7.4319,403.875,6.9142,413.6875,7.0682,423.5,7,423.4894,7,423.5595,14.5219,423.5797,22.0438,423.6952,29.5656,423.7237,37.0875,423.5,44.6094,423.5,45.2886,413.6875,44.864,403.875,45.073,394.0625,45.3116,384.25,43.8882,374.4375,45.2879,364.625,44.3129,354.8125,45.1432,345,44.1144,335.1875,44.5409,325.375,45.351,315.5625,44.5606,305.75,44.7147,295.9375,44.948,286.125,45.0256,276.3125,44.6055,266.5,44.6094,266.5957,44.6094,266.3092,37.0875,266.5948,29.5656,266.6827,22.0438,266.6482,14.5219,266.5,7" style="stroke:#000000;stroke-width:1.5;"/><text fill="#000000" font-family="sans-serif" font-size="12" lengthAdjust="spacing" textLength="143" x="273.5" y="20.1387">root : NonTerminalNode</text><path d="M267.5,24.9688 L267.5,25.249 L277.1875,24.4163 L286.875,25.2265 L296.5625,25.5017 L306.25,24.0176 L315.9375,24.8651 L325.625,24.4001 L335.3125,24.4574 L345,24.8779 L354.6875,24.0469 L364.375,25.7069 L374.0625,24.1284 L383.75,24.7051 L393.4375,25.5447 L403.125,24.8544 L412.8125,25.0597 L422.5,24.9688 " fill="#FFFFFF" style="stroke:#000000;stroke-width:1.5;"/><text fill="#000000" font-family="sans-serif" font-size="10" lengthAdjust="spacing" textLength="98" x="272.5" y="38.251">symbol = "keyval"</text><polygon fill="#FFFFFF" filter="url(#f1cj9gagl82p8l)" points="7,116.5,7,116.7102,17,116.0857,27,116.6933,37,116.8997,47,115.7866,57,116.4223,67,116.0735,77,116.1165,87,116.4318,97,115.8086,107,117.0536,117,115.8697,127,116.3022,137,116.9319,147,116.4142,157,116.5682,167,116.4681,177,116.6785,187,116.7391,197,117.0857,207,117.1711,217,116.5,217.2264,116.5,217.0849,124.0219,217.1545,131.5438,217.2341,139.0656,216.7596,146.5875,217,154.1094,217,154.7879,207,153.8129,197,154.6432,187,153.6144,177,154.0409,167,154.851,157,154.0606,147,154.2147,137,154.448,127,154.5256,117,154.1055,107,154.3966,97,153.537,87,154.3938,77,154.6576,67,154.5539,57,154.7224,47,153.6263,37,153.4572,27,153.488,17,154.0505,7,154.1094,6.9345,154.1094,7.2271,146.5875,6.9418,139.0656,6.8856,131.5438,7.0761,124.0219,7,116.5" style="stroke:#000000;stroke-width:1.5;"/><text fill="#000000" font-family="sans-serif" font-size="12" lengthAdjust="spacing" textLength="196" x="14" y="129.6387">subnodes[0] : NonTerminalNode</text><path d="M8,134.4688 L8,134.749 L17.9048,133.9163 L27.8095,134.7265 L37.7143,135.0017 L47.619,133.5176 L57.5238,134.3651 L67.4286,133.9001 L77.3333,133.9574 L87.2381,134.3779 L97.1429,133.5469 L107.0476,135.2069 L116.9524,133.6284 L126.8571,134.2051 L136.7619,135.0447 L146.6667,134.3544 L156.5714,134.5597 L166.4762,134.4262 L176.381,134.7068 L186.2857,134.7876 L196.1905,135.2497 L206.0952,135.3635 L216,134.4688 " fill="#FFFFFF" style="stroke:#000000;stroke-width:1.5;"/><text fill="#000000" font-family="sans-serif" font-size="10" lengthAdjust="spacing" textLength="82" x="13" y="147.751">symbol = "key"</text><polygon fill="#FFFFFF" filter="url(#f1cj9gagl82p8l)" points="31,226,31,226.2102,41.125,225.5857,51.25,226.1933,61.375,226.3997,71.5,225.2866,81.625,225.9223,91.75,225.5735,101.875,225.6165,112,225.9318,122.125,225.3086,132.25,226.5536,142.375,225.3697,152.5,225.8022,162.625,226.4319,172.75,225.9142,182.875,226.0682,193,226,192.9681,226,193.1785,236.1484,193.2391,246.2969,193.5857,256.4453,193.6711,266.5938,193.6793,276.7422,193,286.8906,193,287.1453,182.875,287.3542,172.75,287.5929,162.625,286.1694,152.5,287.5691,142.375,286.5941,132.25,287.4244,122.125,286.3956,112,286.8221,101.875,287.6322,91.75,286.8419,81.625,286.9959,71.5,287.2293,61.375,287.3069,51.25,286.8867,41.125,287.1778,31,286.8906,30.4276,286.8906,31.2844,276.7422,31.5482,266.5938,31.4445,256.4453,31.613,246.2969,30.5169,236.1484,31,226" style="stroke:#000000;stroke-width:1.5;"/><text fill="#000000" font-family="sans-serif" font-size="12" lengthAdjust="spacing" textLength="91" x="66.5" y="239.1387">: TerminalNode</text><path d="M32,243.9688 L32,244.249 L42,243.4163 L52,244.2265 L62,244.5017 L72,243.0176 L82,243.8651 L92,243.4001 L102,243.4574 L112,243.8779 L122,243.0469 L132,244.7069 L142,243.1284 L152,243.7051 L162,244.5447 L172,243.8544 L182,244.0597 L192,243.9688 " fill="#FFFFFF" style="stroke:#000000;stroke-width:1.5;"/><text fill="#000000" font-family="sans-serif" font-size="10" lengthAdjust="spacing" textLength="150" x="37" y="257.251">symbol = "UNQUOTED-KEY"</text><text fill="#000000" font-family="sans-serif" font-size="10" lengthAdjust="spacing" textLength="108" x="37" y="268.8916">token.class = Literal</text><text fill="#000000" font-family="sans-serif" font-size="10" lengthAdjust="spacing" textLength="109" x="37" y="280.5322">token.value = "title"</text><polygon fill="#FFFFFF" filter="url(#f1cj9gagl82p8l)" points="252,105,252,105.2102,261.7895,104.5857,271.5789,105.1933,281.3684,105.3997,291.1579,104.2866,300.9474,104.9223,310.7368,104.5735,320.5263,104.6165,330.3158,104.9318,340.1053,104.3086,349.8947,105.5536,359.6842,104.3697,369.4737,104.8022,379.2632,105.4319,389.0526,104.9142,398.8421,105.0682,408.6316,104.9681,418.4211,105.1785,428.2105,105.2391,438,105,438.5857,105,438.6711,115.1484,438.6793,125.2969,438.2546,135.4453,438.4636,145.5938,438.7022,155.7422,438,165.8906,438,165.1694,428.2105,166.5691,418.4211,165.5941,408.6316,166.4244,398.8421,165.3956,389.0526,165.8221,379.2632,166.6322,369.4737,165.8419,359.6842,165.9959,349.8947,166.2293,340.1053,166.3069,330.3158,165.8867,320.5263,166.1778,310.7368,165.3182,300.9474,166.175,291.1579,166.4388,281.3684,166.3352,271.5789,166.5036,261.7895,165.4075,252,165.8906,251.3478,165.8906,251.3786,155.7422,251.9411,145.5938,251.8035,135.4453,252.6814,125.2969,251.8253,115.1484,252,105" style="stroke:#000000;stroke-width:1.5;"/><text fill="#000000" font-family="sans-serif" font-size="12" lengthAdjust="spacing" textLength="172" x="259" y="118.1387">subnodes[1] : TerminalNode</text><path d="M253,122.9688 L253,123.249 L263.2222,122.4163 L273.4444,123.2265 L283.6667,123.5017 L293.8889,122.0176 L304.1111,122.8651 L314.3333,122.4001 L324.5556,122.4574 L334.7778,122.8779 L345,122.0469 L355.2222,123.7069 L365.4444,122.1284 L375.6667,122.7051 L385.8889,123.5447 L396.1111,122.8544 L406.3333,123.0597 L416.5556,122.9262 L426.7778,123.2068 L437,122.9688 " fill="#FFFFFF" style="stroke:#000000;stroke-width:1.5;"/><text fill="#000000" font-family="sans-serif" font-size="10" lengthAdjust="spacing" textLength="99" x="258" y="136.251">symbol = "EQUAL"</text><text fill="#000000" font-family="sans-serif" font-size="10" lengthAdjust="spacing" textLength="118" x="258" y="147.8916">token.class = "Token"</text><text fill="#000000" font-family="sans-serif" font-size="10" lengthAdjust="spacing" textLength="107" x="258" y="159.5322">token.lexeme = "="</text><polygon fill="#FFFFFF" filter="url(#f1cj9gagl82p8l)" points="473,116.5,473,116.7102,483,116.0857,493,116.6933,503,116.8997,513,115.7866,523,116.4223,533,116.0735,543,116.1165,553,116.4318,563,115.8086,573,117.0536,583,115.8697,593,116.3022,603,116.9319,613,116.4142,623,116.5682,633,116.4681,643,116.6785,653,116.7391,663,117.0857,673,117.1711,683,116.5,683.2264,116.5,683.0849,124.0219,683.1545,131.5438,683.2341,139.0656,682.7596,146.5875,683,154.1094,683,154.7879,673,153.8129,663,154.6432,653,153.6144,643,154.0409,633,154.851,623,154.0606,613,154.2147,603,154.448,593,154.5256,583,154.1055,573,154.3966,563,153.537,553,154.3938,543,154.6576,533,154.5539,523,154.7224,513,153.6263,503,153.4572,493,153.488,483,154.0505,473,154.1094,472.9345,154.1094,473.2271,146.5875,472.9418,139.0656,472.8856,131.5438,473.0761,124.0219,473,116.5" style="stroke:#000000;stroke-width:1.5;"/><text fill="#000000" font-family="sans-serif" font-size="12" lengthAdjust="spacing" textLength="196" x="480" y="129.6387">subnodes[2] : NonTerminalNode</text><path d="M474,134.4688 L474,134.749 L483.9048,133.9163 L493.8095,134.7265 L503.7143,135.0017 L513.619,133.5176 L523.5238,134.3651 L533.4286,133.9001 L543.3333,133.9574 L553.2381,134.3779 L563.1429,133.5469 L573.0476,135.2069 L582.9524,133.6284 L592.8571,134.2051 L602.7619,135.0447 L612.6667,134.3544 L622.5714,134.5597 L632.4762,134.4262 L642.381,134.7068 L652.2857,134.7876 L662.1905,135.2497 L672.0952,135.3635 L682,134.4688 " fill="#FFFFFF" style="stroke:#000000;stroke-width:1.5;"/><text fill="#000000" font-family="sans-serif" font-size="10" lengthAdjust="spacing" textLength="79" x="479" y="147.751">symbol = "val"</text><polygon fill="#FFFFFF" filter="url(#f1cj9gagl82p8l)" points="487.5,226,487.5,226.2102,497.5556,225.5857,507.6111,226.1933,517.6667,226.3997,527.7222,225.2866,537.7778,225.9223,547.8333,225.5735,557.8889,225.6165,567.9444,225.9318,578,225.3086,588.0556,226.5536,598.1111,225.3697,608.1667,225.8022,618.2222,226.4319,628.2778,225.9142,638.3333,226.0682,648.3889,225.9681,658.4444,226.1785,668.5,226,668.7391,226,669.0857,236.1484,669.1711,246.2969,669.1793,256.4453,668.7546,266.5938,668.9636,276.7422,668.5,286.8906,668.5,287.5929,658.4444,286.1694,648.3889,287.5691,638.3333,286.5941,628.2778,287.4244,618.2222,286.3956,608.1667,286.8221,598.1111,287.6322,588.0556,286.8419,578,286.9959,567.9444,287.2293,557.8889,287.3069,547.8333,286.8867,537.7778,287.1778,527.7222,286.3182,517.6667,287.175,507.6111,287.4388,497.5556,287.3352,487.5,286.8906,488.113,286.8906,487.0169,276.7422,486.8478,266.5938,486.8786,256.4453,487.4411,246.2969,487.3035,236.1484,487.5,226" style="stroke:#000000;stroke-width:1.5;"/><text fill="#000000" font-family="sans-serif" font-size="12" lengthAdjust="spacing" textLength="91" x="532.5" y="239.1387">: TerminalNode</text><path d="M488.5,243.9688 L488.5,244.249 L498.4444,243.4163 L508.3889,244.2265 L518.3333,244.5017 L528.2778,243.0176 L538.2222,243.8651 L548.1667,243.4001 L558.1111,243.4574 L568.0556,243.8779 L578,243.0469 L587.9444,244.7069 L597.8889,243.1284 L607.8333,243.7051 L617.7778,244.5447 L627.7222,243.8544 L637.6667,244.0597 L647.6111,243.9262 L657.5556,244.2068 L667.5,243.9688 " fill="#FFFFFF" style="stroke:#000000;stroke-width:1.5;"/><text fill="#000000" font-family="sans-serif" font-size="10" lengthAdjust="spacing" textLength="103" x="493.5" y="257.251">symbol = "STRING"</text><text fill="#000000" font-family="sans-serif" font-size="10" lengthAdjust="spacing" textLength="108" x="493.5" y="268.8916">token.class = Literal</text><text fill="#000000" font-family="sans-serif" font-size="10" lengthAdjust="spacing" textLength="169" x="493.5" y="280.5322">token.value = "TOML Example"</text><!--MD5=[0564ad17c42bfae9eae19d8c2924d605]
link root to o1--><path d="M305.738,45.114 L305.8554,45.3685 L296.4063,48.811 L287.6455,53.7453 L278.6605,58.1938 L268.9386,61.0449 L260.1934,66.0131 L250.8984,69.7895 L241.8221,74.0402 L232.898,78.6207 L223.4497,82.0648 L215.0449,87.7708 L205.2833,90.536 L196.4247,95.2583 L187.6762,100.2194 L178.2868,103.7912 L169.2726,108.1763 L160.1164,112.2537 L151.034,116.491 " fill="none" style="stroke:#000000;stroke-width:1.0;"/><!--MD5=[69f0af873deb32ba9263d41c23688273]
link root to o3--><path d="M345,45.236 L345.2802,45.236 L344.4476,55.1612 L345.2577,65.0863 L345.5329,75.0115 L344.0488,84.9367 L344.8964,94.8618 L345,104.787 " fill="none" style="stroke:#000000;stroke-width:1.0;"/><!--MD5=[48652c67fce1045700e2c8b7201dbb70]
link root to o4--><path d="M384.262,45.114 L384.3794,45.3685 L393.1308,48.811 L402.5704,53.7453 L411.786,58.1938 L420.2645,61.0449 L429.7198,66.0131 L438.6252,69.7895 L447.7494,74.0402 L457.0258,78.6207 L465.7779,82.0648 L475.5736,87.7708 L484.0125,90.536 L493.3544,95.2583 L502.8063,100.2194 L511.6174,103.7912 L520.8036,108.1763 L529.8479,112.2537 L538.966,116.491 " fill="none" style="stroke:#000000;stroke-width:1.0;"/><!--MD5=[9ad6417c8edb5c87f8a26fa2c4cf4771]
link o1 to o2--><path d="M112,154.574 L112.2802,154.574 L111.4476,164.7299 L112.2577,174.8859 L112.5329,185.0418 L111.0488,195.1978 L111.8964,205.3537 L111.4313,215.5097 L112,225.6656 " fill="none" style="stroke:#000000;stroke-width:1.0;"/><!--MD5=[67109612027504382d21e385ace559c2]
link o4 to o5--><path d="M578,154.574 L578.2802,154.574 L577.4476,164.7299 L578.2577,174.8859 L578.5329,185.0418 L577.0488,195.1978 L577.8964,205.3537 L577.4313,215.5097 L578,225.6656 " fill="none" style="stroke:#000000;stroke-width:1.0;"/><!--MD5=[15fbcaa83a6d5acd51b32623f0cd0423]
@startuml
skinparam handwritten true
  skinparam object {
    BackgroundColor PaleGray
    BorderColor Black
    ArrowColor Black
  }
  object "root : NonTerminalNode" as root
  root : symbol = "keyval"
  
  object "subnodes[0] : NonTerminalNode" as o1
  o1 : symbol = "key"

  object ": TerminalNode" as o2
  o2 : symbol = "UNQUOTED-KEY"
  o2 : token.class = Literal
  o2 : token.value = "title"

  object "subnodes[1] : TerminalNode" as o3
  o3 : symbol = "EQUAL"
  o3 : token.class = "Token"
  o3 : token.lexeme = "="

  object "subnodes[2] : NonTerminalNode" as o4
  o4 : symbol = "val"

  object ": TerminalNode" as o5
  o5 : symbol = "STRING"
  o5 : token.class = Literal
  o5 : token.value = "TOML Example"

  root -down- o1
  root -down- o3
  root -down- o4
  o1 -down- o2
  o4 -down- o5
@enduml

PlantUML version 1.2021.15beta8(Unknown compile time)
(GPL source distribution)
Java Runtime: Java(TM) SE Runtime Environment
JVM: Java HotSpot(TM) 64-Bit Server VM
Default Encoding: UTF-8
Language: en
Country: US
--></g></svg>