<?xml version="1.0" encoding="UTF-8" standalone="no"?><svg xmlns="http://www.w3.org/2000/svg" xmlns:xlink="http://www.w3.org/1999/xlink" contentScriptType="application/ecmascript" contentStyleType="text/css" height="300px" preserveAspectRatio="none" style="width:619px;height:300px;background:#FFFFFF;" version="1.1" viewBox="0 0 619 300" width="619px" zoomAndPan="magnify"><defs><filter height="300%" id="f5onci2gwow7u" width="300%" x="-1" y="-1"><feGaussianBlur result="blurOut" stdDeviation="2.0"/><feColorMatrix in="blurOut" result="blurOut2" type="matrix" values="0 0 0 0 0 0 0 0 0 0 0 0 0 0 0 0 0 0 .4 0"/><feOffset dx="4.0" dy="4.0" in="blurOut2" result="blurOut3"/><feBlend in="SourceGraphic" in2="blurOut3" mode="normal"/></filter></defs><g><polygon fill="#FFFFFF" filter="url(#f5onci2gwow7u)" points="227.5,7,227.5,7.2102,237.3125,6.5857,247.125,7.1933,256.9375,7.3997,266.75,6.2866,276.5625,6.9223,286.375,6.5735,296.1875,6.6165,306,6.9318,315.8125,6.3086,325.625,7.5536,335.4375,6.3697,345.25,6.8022,355.0625,7.4319,364.875,6.9142,374.6875,7.0682,384.5,7,384.4894,7,384.5595,14.5219,384.5797,22.0438,384.6952,29.5656,384.7237,37.0875,384.5,44.6094,384.5,45.2886,374.6875,44.864,364.875,45.073,355.0625,45.3116,345.25,43.8882,335.4375,45.2879,325.625,44.3129,315.8125,45.1432,306,44.1144,296.1875,44.5409,286.375,45.351,276.5625,44.5606,266.75,44.7147,256.9375,44.948,247.125,45.0256,237.3125,44.6055,227.5,44.6094,227.5957,44.6094,227.3092,37.0875,227.5948,29.5656,227.6827,22.0438,227.6482,14.5219,227.5,7" style="stroke:#000000;stroke-width:1.5;"/><text fill="#000000" font-family="sans-serif" font-size="12" lengthAdjust="spacing" textLength="143" x="234.5" y="20.1387">root : NonTerminalNode</text><path d="M228.5,24.9688 L228.5,25.249 L238.1875,24.4163 L247.875,25.2265 L257.5625,25.5017 L267.25,24.0176 L276.9375,24.8651 L286.625,24.4001 L296.3125,24.4574 L306,24.8779 L315.6875,24.0469 L325.375,25.7069 L335.0625,24.1284 L344.75,24.7051 L354.4375,25.5447 L364.125,24.8544 L373.8125,25.0597 L383.5,24.9688 " fill="#FFFFFF" style="stroke:#000000;stroke-width:1.5;"/><text fill="#000000" font-family="sans-serif" font-size="10" lengthAdjust="spacing" textLength="98" x="233.5" y="38.251">symbol = "keyval"</text><polygon fill="#FFFFFF" filter="url(#f5onci2gwow7u)" points="7,116.5,7,116.7102,17.2222,116.0857,27.4444,116.6933,37.6667,116.8997,47.8889,115.7866,58.1111,116.4223,68.3333,116.0735,78.5556,116.1165,88.7778,116.4318,99,115.8086,109.2222,117.0536,119.4444,115.8697,129.6667,116.3022,139.8889,116.9319,150.1111,116.4142,160.3333,116.5682,170.5556,116.4681,180.7778,116.6785,191,116.5,191.0797,116.5,191.1952,124.0219,191.2237,131.5438,191.2264,139.0656,191.0849,146.5875,191,154.1094,191,154.573,180.7778,154.8116,170.5556,153.3882,160.3333,154.7879,150.1111,153.8129,139.8889,154.6432,129.6667,153.6144,119.4444,154.0409,109.2222,154.851,99,154.0606,88.7778,154.2147,78.5556,154.448,68.3333,154.5256,58.1111,154.1055,47.8889,154.3966,37.6667,153.537,27.4444,154.3938,17.2222,154.6576,7,154.1094,7.1482,154.1094,7.2043,146.5875,6.839,139.0656,6.7826,131.5438,6.7929,124.0219,7,116.5" style="stroke:#000000;stroke-width:1.5;"/><text fill="#000000" font-family="sans-serif" font-size="12" lengthAdjust="spacing" textLength="170" x="14" y="129.6387">result[0] : NonTerminalNode</text><path d="M8,134.4688 L8,134.749 L18.1111,133.9163 L28.2222,134.7265 L38.3333,135.0017 L48.4444,133.5176 L58.5556,134.3651 L68.6667,133.9001 L78.7778,133.9574 L88.8889,134.3779 L99,133.5469 L109.1111,135.2069 L119.2222,133.6284 L129.3333,134.2051 L139.4444,135.0447 L149.5556,134.3544 L159.6667,134.5597 L169.7778,134.4262 L179.8889,134.7068 L190,134.4688 " fill="#FFFFFF" style="stroke:#000000;stroke-width:1.5;"/><text fill="#000000" font-family="sans-serif" font-size="10" lengthAdjust="spacing" textLength="82" x="13" y="147.751">symbol = "key"</text><polygon fill="#FFFFFF" filter="url(#f5onci2gwow7u)" points="18,226,18,226.2102,28.125,225.5857,38.25,226.1933,48.375,226.3997,58.5,225.2866,68.625,225.9223,78.75,225.5735,88.875,225.6165,99,225.9318,109.125,225.3086,119.25,226.5536,129.375,225.3697,139.5,225.8022,149.625,226.4319,159.75,225.9142,169.875,226.0682,180,226,179.9681,226,180.1785,236.1484,180.2391,246.2969,180.5857,256.4453,180.6711,266.5938,180.6793,276.7422,180,286.8906,180,287.1453,169.875,287.3542,159.75,287.5929,149.625,286.1694,139.5,287.5691,129.375,286.5941,119.25,287.4244,109.125,286.3956,99,286.8221,88.875,287.6322,78.75,286.8419,68.625,286.9959,58.5,287.2293,48.375,287.3069,38.25,286.8867,28.125,287.1778,18,286.8906,17.4276,286.8906,18.2844,276.7422,18.5482,266.5938,18.4445,256.4453,18.613,246.2969,17.5169,236.1484,18,226" style="stroke:#000000;stroke-width:1.5;"/><text fill="#000000" font-family="sans-serif" font-size="12" lengthAdjust="spacing" textLength="91" x="53.5" y="239.1387">: TerminalNode</text><path d="M19,243.9688 L19,244.249 L29,243.4163 L39,244.2265 L49,244.5017 L59,243.0176 L69,243.8651 L79,243.4001 L89,243.4574 L99,243.8779 L109,243.0469 L119,244.7069 L129,243.1284 L139,243.7051 L149,244.5447 L159,243.8544 L169,244.0597 L179,243.9688 " fill="#FFFFFF" style="stroke:#000000;stroke-width:1.5;"/><text fill="#000000" font-family="sans-serif" font-size="10" lengthAdjust="spacing" textLength="150" x="24" y="257.251">symbol = "UNQUOTED-KEY"</text><text fill="#000000" font-family="sans-serif" font-size="10" lengthAdjust="spacing" textLength="108" x="24" y="268.8916">token.class = Literal</text><text fill="#000000" font-family="sans-serif" font-size="10" lengthAdjust="spacing" textLength="109" x="24" y="280.5322">token.value = "title"</text><polygon fill="#FFFFFF" filter="url(#f5onci2gwow7u)" points="226,105,226,105.2102,236,104.5857,246,105.1933,256,105.3997,266,104.2866,276,104.9223,286,104.5735,296,104.6165,306,104.9318,316,104.3086,326,105.5536,336,104.3697,346,104.8022,356,105.4319,366,104.9142,376,105.0682,386,105,385.9681,105,386.1785,115.1484,386.2391,125.2969,386.5857,135.4453,386.6711,145.5938,386.6793,155.7422,386,165.8906,386,166.1453,376,166.3542,366,166.5929,356,165.1694,346,166.5691,336,165.5941,326,166.4244,316,165.3956,306,165.8221,296,166.6322,286,165.8419,276,165.9959,266,166.2293,256,166.3069,246,165.8867,236,166.1778,226,165.8906,225.4276,165.8906,226.2844,155.7422,226.5482,145.5938,226.4445,135.4453,226.613,125.2969,225.5169,115.1484,226,105" style="stroke:#000000;stroke-width:1.5;"/><text fill="#000000" font-family="sans-serif" font-size="12" lengthAdjust="spacing" textLength="146" x="233" y="118.1387">result[1] : TerminalNode</text><path d="M227,122.9688 L227,123.249 L236.875,122.4163 L246.75,123.2265 L256.625,123.5017 L266.5,122.0176 L276.375,122.8651 L286.25,122.4001 L296.125,122.4574 L306,122.8779 L315.875,122.0469 L325.75,123.7069 L335.625,122.1284 L345.5,122.7051 L355.375,123.5447 L365.25,122.8544 L375.125,123.0597 L385,122.9688 " fill="#FFFFFF" style="stroke:#000000;stroke-width:1.5;"/><text fill="#000000" font-family="sans-serif" font-size="10" lengthAdjust="spacing" textLength="99" x="232" y="136.251">symbol = "EQUAL"</text><text fill="#000000" font-family="sans-serif" font-size="10" lengthAdjust="spacing" textLength="118" x="232" y="147.8916">token.class = "Token"</text><text fill="#000000" font-family="sans-serif" font-size="10" lengthAdjust="spacing" textLength="107" x="232" y="159.5322">token.lexeme = "="</text><polygon fill="#FFFFFF" filter="url(#f5onci2gwow7u)" points="421,116.5,421,116.7102,431.2222,116.0857,441.4444,116.6933,451.6667,116.8997,461.8889,115.7866,472.1111,116.4223,482.3333,116.0735,492.5556,116.1165,502.7778,116.4318,513,115.8086,523.2222,117.0536,533.4444,115.8697,543.6667,116.3022,553.8889,116.9319,564.1111,116.4142,574.3333,116.5682,584.5556,116.4681,594.7778,116.6785,605,116.5,605.0797,116.5,605.1952,124.0219,605.2237,131.5438,605.2264,139.0656,605.0849,146.5875,605,154.1094,605,154.573,594.7778,154.8116,584.5556,153.3882,574.3333,154.7879,564.1111,153.8129,553.8889,154.6432,543.6667,153.6144,533.4444,154.0409,523.2222,154.851,513,154.0606,502.7778,154.2147,492.5556,154.448,482.3333,154.5256,472.1111,154.1055,461.8889,154.3966,451.6667,153.537,441.4444,154.3938,431.2222,154.6576,421,154.1094,421.1482,154.1094,421.2043,146.5875,420.839,139.0656,420.7826,131.5438,420.7929,124.0219,421,116.5" style="stroke:#000000;stroke-width:1.5;"/><text fill="#000000" font-family="sans-serif" font-size="12" lengthAdjust="spacing" textLength="170" x="428" y="129.6387">result[2] : NonTerminalNode</text><path d="M422,134.4688 L422,134.749 L432.1111,133.9163 L442.2222,134.7265 L452.3333,135.0017 L462.4444,133.5176 L472.5556,134.3651 L482.6667,133.9001 L492.7778,133.9574 L502.8889,134.3779 L513,133.5469 L523.1111,135.2069 L533.2222,133.6284 L543.3333,134.2051 L553.4444,135.0447 L563.5556,134.3544 L573.6667,134.5597 L583.7778,134.4262 L593.8889,134.7068 L604,134.4688 " fill="#FFFFFF" style="stroke:#000000;stroke-width:1.5;"/><text fill="#000000" font-family="sans-serif" font-size="10" lengthAdjust="spacing" textLength="79" x="427" y="147.751">symbol = "val"</text><polygon fill="#FFFFFF" filter="url(#f5onci2gwow7u)" points="422.5,226,422.5,226.2102,432.5556,225.5857,442.6111,226.1933,452.6667,226.3997,462.7222,225.2866,472.7778,225.9223,482.8333,225.5735,492.8889,225.6165,502.9444,225.9318,513,225.3086,523.0556,226.5536,533.1111,225.3697,543.1667,225.8022,553.2222,226.4319,563.2778,225.9142,573.3333,226.0682,583.3889,225.9681,593.4444,226.1785,603.5,226,603.7391,226,604.0857,236.1484,604.1711,246.2969,604.1793,256.4453,603.7546,266.5938,603.9636,276.7422,603.5,286.8906,603.5,287.5929,593.4444,286.1694,583.3889,287.5691,573.3333,286.5941,563.2778,287.4244,553.2222,286.3956,543.1667,286.8221,533.1111,287.6322,523.0556,286.8419,513,286.9959,502.9444,287.2293,492.8889,287.3069,482.8333,286.8867,472.7778,287.1778,462.7222,286.3182,452.6667,287.175,442.6111,287.4388,432.5556,287.3352,422.5,286.8906,423.113,286.8906,422.0169,276.7422,421.8478,266.5938,421.8786,256.4453,422.4411,246.2969,422.3035,236.1484,422.5,226" style="stroke:#000000;stroke-width:1.5;"/><text fill="#000000" font-family="sans-serif" font-size="12" lengthAdjust="spacing" textLength="91" x="467.5" y="239.1387">: TerminalNode</text><path d="M423.5,243.9688 L423.5,244.249 L433.4444,243.4163 L443.3889,244.2265 L453.3333,244.5017 L463.2778,243.0176 L473.2222,243.8651 L483.1667,243.4001 L493.1111,243.4574 L503.0556,243.8779 L513,243.0469 L522.9444,244.7069 L532.8889,243.1284 L542.8333,243.7051 L552.7778,244.5447 L562.7222,243.8544 L572.6667,244.0597 L582.6111,243.9262 L592.5556,244.2068 L602.5,243.9688 " fill="#FFFFFF" style="stroke:#000000;stroke-width:1.5;"/><text fill="#000000" font-family="sans-serif" font-size="10" lengthAdjust="spacing" textLength="139" x="428.5" y="257.251">symbol = "BASIC-STRING"</text><text fill="#000000" font-family="sans-serif" font-size="10" lengthAdjust="spacing" textLength="108" x="428.5" y="268.8916">token.class = Literal</text><text fill="#000000" font-family="sans-serif" font-size="10" lengthAdjust="spacing" textLength="169" x="428.5" y="280.5322">token.value = "TOML Example"</text><!--MD5=[0564ad17c42bfae9eae19d8c2924d605]
link root to o1--><path d="M270.885,45.236 L271.0142,45.4847 L261.5008,49.4869 L252.7446,54.9471 L243.7418,59.9325 L233.9282,63.3567 L225.1892,68.85 L215.8453,73.1785 L206.7421,77.9706 L197.8063,83.085 L188.2938,87.0887 L179.9292,93.3031 L170.0721,96.6434 L161.2083,101.8964 L152.4656,107.3827 L143.0179,111.5113 L133.941,116.354 " fill="none" style="stroke:#000000;stroke-width:1.0;"/><!--MD5=[69f0af873deb32ba9263d41c23688273]
link root to o3--><path d="M306,45.236 L306.2802,45.236 L305.4476,55.1612 L306.2577,65.0863 L306.5329,75.0115 L305.0488,84.9367 L305.8964,94.8618 L306,104.787 " fill="none" style="stroke:#000000;stroke-width:1.0;"/><!--MD5=[48652c67fce1045700e2c8b7201dbb70]
link root to o4--><path d="M341.115,45.236 L341.2442,45.4847 L349.99,49.4869 L359.493,54.9471 L368.7494,59.9325 L377.195,63.3567 L386.7152,68.85 L395.6305,73.1785 L404.7865,77.9706 L414.1099,83.085 L422.8566,87.0887 L432.7512,93.3031 L441.1533,96.6434 L450.5487,101.8964 L460.0652,107.3827 L468.8767,111.5113 L478.059,116.354 " fill="none" style="stroke:#000000;stroke-width:1.0;"/><!--MD5=[9ad6417c8edb5c87f8a26fa2c4cf4771]
link o1 to o2--><path d="M99,154.574 L99.2802,154.574 L98.4476,164.7299 L99.2577,174.8859 L99.5329,185.0418 L98.0488,195.1978 L98.8964,205.3537 L98.4313,215.5097 L99,225.6656 " fill="none" style="stroke:#000000;stroke-width:1.0;"/><!--MD5=[67109612027504382d21e385ace559c2]
link o4 to o5--><path d="M513,154.574 L513.2802,154.574 L512.4476,164.7299 L513.2577,174.8859 L513.5329,185.0418 L512.0488,195.1978 L512.8964,205.3537 L512.4313,215.5097 L513,225.6656 " fill="none" style="stroke:#000000;stroke-width:1.0;"/><!--MD5=[9f1c27f0a2ea625d8314380b0fc186cd]
@startuml
skinparam handwritten true
  skinparam object {
    BackgroundColor PaleGray
    BorderColor Black
    ArrowColor Black
  }
  object "root : NonTerminalNode" as root
  root : symbol = "keyval"
  
  object "result[0] : NonTerminalNode" as o1
  o1 : symbol = "key"

  object ": TerminalNode" as o2
  o2 : symbol = "UNQUOTED-KEY"
  o2 : token.class = Literal
  o2 : token.value = "title"

  object "result[1] : TerminalNode" as o3
  o3 : symbol = "EQUAL"
  o3 : token.class = "Token"
  o3 : token.lexeme = "="

  object "result[2] : NonTerminalNode" as o4
  o4 : symbol = "val"

  object ": TerminalNode" as o5
  o5 : symbol = "BASIC-STRING"
  o5 : token.class = Literal
  o5 : token.value = "TOML Example"

  root -down- o1
  root -down- o3
  root -down- o4
  o1 -down- o2
  o4 -down- o5
@enduml

PlantUML version 1.2021.15beta8(Unknown compile time)
(GPL source distribution)
Java Runtime: Java(TM) SE Runtime Environment
JVM: Java HotSpot(TM) 64-Bit Server VM
Default Encoding: UTF-8
Language: en
Country: US
--></g></svg>