<?xml version="1.0" encoding="UTF-8" standalone="no"?><svg xmlns="http://www.w3.org/2000/svg" xmlns:xlink="http://www.w3.org/1999/xlink" contentScriptType="application/ecmascript" contentStyleType="text/css" height="202px" preserveAspectRatio="none" style="width:619px;height:202px;background:#FFFFFF;" version="1.1" viewBox="0 0 619 202" width="619px" zoomAndPan="magnify"><defs><filter height="300%" id="fmmfx6ueprxnc" width="300%" x="-1" y="-1"><feGaussianBlur result="blurOut" stdDeviation="2.0"/><feColorMatrix in="blurOut" result="blurOut2" type="matrix" values="0 0 0 0 0 0 0 0 0 0 0 0 0 0 0 0 0 0 .4 0"/><feOffset dx="4.0" dy="4.0" in="blurOut2" result="blurOut3"/><feBlend in="SourceGraphic" in2="blurOut3" mode="normal"/></filter></defs><g><polygon fill="#FFFFFF" filter="url(#fmmfx6ueprxnc)" points="7,18.5,7,18.7102,17.2222,18.0857,27.4444,18.6933,37.6667,18.8997,47.8889,17.7866,58.1111,18.4223,68.3333,18.0735,78.5556,18.1165,88.7778,18.4318,99,17.8086,109.2222,19.0536,119.4444,17.8697,129.6667,18.3022,139.8889,18.9319,150.1111,18.4142,160.3333,18.5682,170.5556,18.4681,180.7778,18.6785,191,18.5,191.0797,18.5,191.1952,26.0219,191.2237,33.5438,191.2264,41.0656,191.0849,48.5875,191,56.1094,191,56.573,180.7778,56.8116,170.5556,55.3882,160.3333,56.7879,150.1111,55.8129,139.8889,56.6432,129.6667,55.6144,119.4444,56.0409,109.2222,56.851,99,56.0606,88.7778,56.2147,78.5556,56.448,68.3333,56.5256,58.1111,56.1055,47.8889,56.3966,37.6667,55.537,27.4444,56.3938,17.2222,56.6576,7,56.1094,7.1482,56.1094,7.2043,48.5875,6.839,41.0656,6.7826,33.5438,6.7929,26.0219,7,18.5" style="stroke:#000000;stroke-width:1.5;"/><text fill="#000000" font-family="sans-serif" font-size="12" lengthAdjust="spacing" textLength="170" x="14" y="31.6387">result[0] : NonTerminalNode</text><path d="M8,36.4688 L8,36.749 L18.1111,35.9163 L28.2222,36.7265 L38.3333,37.0017 L48.4444,35.5176 L58.5556,36.3651 L68.6667,35.9001 L78.7778,35.9574 L88.8889,36.3779 L99,35.5469 L109.1111,37.2069 L119.2222,35.6284 L129.3333,36.2051 L139.4444,37.0447 L149.5556,36.3544 L159.6667,36.5597 L169.7778,36.4262 L179.8889,36.7068 L190,36.4688 " fill="#FFFFFF" style="stroke:#000000;stroke-width:1.5;"/><text fill="#000000" font-family="sans-serif" font-size="10" lengthAdjust="spacing" textLength="82" x="13" y="49.751">symbol = "key"</text><polygon fill="#FFFFFF" filter="url(#fmmfx6ueprxnc)" points="18,128,18,128.2102,28.125,127.5857,38.25,128.1933,48.375,128.3997,58.5,127.2866,68.625,127.9223,78.75,127.5735,88.875,127.6165,99,127.9318,109.125,127.3086,119.25,128.5536,129.375,127.3697,139.5,127.8022,149.625,128.4319,159.75,127.9142,169.875,128.0682,180,128,179.9681,128,180.1785,138.1484,180.2391,148.2969,180.5857,158.4453,180.6711,168.5938,180.6793,178.7422,180,188.8906,180,189.1453,169.875,189.3542,159.75,189.5929,149.625,188.1694,139.5,189.5691,129.375,188.5941,119.25,189.4244,109.125,188.3956,99,188.8221,88.875,189.6322,78.75,188.8419,68.625,188.9959,58.5,189.2293,48.375,189.3069,38.25,188.8867,28.125,189.1778,18,188.8906,17.4276,188.8906,18.2844,178.7422,18.5482,168.5938,18.4445,158.4453,18.613,148.2969,17.5169,138.1484,18,128" style="stroke:#000000;stroke-width:1.5;"/><text fill="#000000" font-family="sans-serif" font-size="12" lengthAdjust="spacing" textLength="91" x="53.5" y="141.1387">: TerminalNode</text><path d="M19,145.9688 L19,146.249 L29,145.4163 L39,146.2265 L49,146.5017 L59,145.0176 L69,145.8651 L79,145.4001 L89,145.4574 L99,145.8779 L109,145.0469 L119,146.7069 L129,145.1284 L139,145.7051 L149,146.5447 L159,145.8544 L169,146.0597 L179,145.9688 " fill="#FFFFFF" style="stroke:#000000;stroke-width:1.5;"/><text fill="#000000" font-family="sans-serif" font-size="10" lengthAdjust="spacing" textLength="150" x="24" y="159.251">symbol = "UNQUOTED-KEY"</text><text fill="#000000" font-family="sans-serif" font-size="10" lengthAdjust="spacing" textLength="108" x="24" y="170.8916">token.class = Literal</text><text fill="#000000" font-family="sans-serif" font-size="10" lengthAdjust="spacing" textLength="109" x="24" y="182.5322">token.value = "title"</text><polygon fill="#FFFFFF" filter="url(#fmmfx6ueprxnc)" points="226,7,226,7.2102,236,6.5857,246,7.1933,256,7.3997,266,6.2866,276,6.9223,286,6.5735,296,6.6165,306,6.9318,316,6.3086,326,7.5536,336,6.3697,346,6.8022,356,7.4319,366,6.9142,376,7.0682,386,7,385.9681,7,386.1785,17.1484,386.2391,27.2969,386.5857,37.4453,386.6711,47.5938,386.6793,57.7422,386,67.8906,386,68.1453,376,68.3542,366,68.5929,356,67.1694,346,68.5691,336,67.5941,326,68.4244,316,67.3956,306,67.8221,296,68.6322,286,67.8419,276,67.9959,266,68.2293,256,68.3069,246,67.8867,236,68.1778,226,67.8906,225.4276,67.8906,226.2844,57.7422,226.5482,47.5938,226.4445,37.4453,226.613,27.2969,225.5169,17.1484,226,7" style="stroke:#000000;stroke-width:1.5;"/><text fill="#000000" font-family="sans-serif" font-size="12" lengthAdjust="spacing" textLength="146" x="233" y="20.1387">result[1] : TerminalNode</text><path d="M227,24.9688 L227,25.249 L236.875,24.4163 L246.75,25.2265 L256.625,25.5017 L266.5,24.0176 L276.375,24.8651 L286.25,24.4001 L296.125,24.4574 L306,24.8779 L315.875,24.0469 L325.75,25.7069 L335.625,24.1284 L345.5,24.7051 L355.375,25.5447 L365.25,24.8544 L375.125,25.0597 L385,24.9688 " fill="#FFFFFF" style="stroke:#000000;stroke-width:1.5;"/><text fill="#000000" font-family="sans-serif" font-size="10" lengthAdjust="spacing" textLength="99" x="232" y="38.251">symbol = "EQUAL"</text><text fill="#000000" font-family="sans-serif" font-size="10" lengthAdjust="spacing" textLength="118" x="232" y="49.8916">token.class = "Token"</text><text fill="#000000" font-family="sans-serif" font-size="10" lengthAdjust="spacing" textLength="107" x="232" y="61.5322">token.lexeme = "="</text><polygon fill="#FFFFFF" filter="url(#fmmfx6ueprxnc)" points="421,18.5,421,18.7102,431.2222,18.0857,441.4444,18.6933,451.6667,18.8997,461.8889,17.7866,472.1111,18.4223,482.3333,18.0735,492.5556,18.1165,502.7778,18.4318,513,17.8086,523.2222,19.0536,533.4444,17.8697,543.6667,18.3022,553.8889,18.9319,564.1111,18.4142,574.3333,18.5682,584.5556,18.4681,594.7778,18.6785,605,18.5,605.0797,18.5,605.1952,26.0219,605.2237,33.5438,605.2264,41.0656,605.0849,48.5875,605,56.1094,605,56.573,594.7778,56.8116,584.5556,55.3882,574.3333,56.7879,564.1111,55.8129,553.8889,56.6432,543.6667,55.6144,533.4444,56.0409,523.2222,56.851,513,56.0606,502.7778,56.2147,492.5556,56.448,482.3333,56.5256,472.1111,56.1055,461.8889,56.3966,451.6667,55.537,441.4444,56.3938,431.2222,56.6576,421,56.1094,421.1482,56.1094,421.2043,48.5875,420.839,41.0656,420.7826,33.5438,420.7929,26.0219,421,18.5" style="stroke:#000000;stroke-width:1.5;"/><text fill="#000000" font-family="sans-serif" font-size="12" lengthAdjust="spacing" textLength="170" x="428" y="31.6387">result[2] : NonTerminalNode</text><path d="M422,36.4688 L422,36.749 L432.1111,35.9163 L442.2222,36.7265 L452.3333,37.0017 L462.4444,35.5176 L472.5556,36.3651 L482.6667,35.9001 L492.7778,35.9574 L502.8889,36.3779 L513,35.5469 L523.1111,37.2069 L533.2222,35.6284 L543.3333,36.2051 L553.4444,37.0447 L563.5556,36.3544 L573.6667,36.5597 L583.7778,36.4262 L593.8889,36.7068 L604,36.4688 " fill="#FFFFFF" style="stroke:#000000;stroke-width:1.5;"/><text fill="#000000" font-family="sans-serif" font-size="10" lengthAdjust="spacing" textLength="79" x="427" y="49.751">symbol = "val"</text><polygon fill="#FFFFFF" filter="url(#fmmfx6ueprxnc)" points="422.5,128,422.5,128.2102,432.5556,127.5857,442.6111,128.1933,452.6667,128.3997,462.7222,127.2866,472.7778,127.9223,482.8333,127.5735,492.8889,127.6165,502.9444,127.9318,513,127.3086,523.0556,128.5536,533.1111,127.3697,543.1667,127.8022,553.2222,128.4319,563.2778,127.9142,573.3333,128.0682,583.3889,127.9681,593.4444,128.1785,603.5,128,603.7391,128,604.0857,138.1484,604.1711,148.2969,604.1793,158.4453,603.7546,168.5938,603.9636,178.7422,603.5,188.8906,603.5,189.5929,593.4444,188.1694,583.3889,189.5691,573.3333,188.5941,563.2778,189.4244,553.2222,188.3956,543.1667,188.8221,533.1111,189.6322,523.0556,188.8419,513,188.9959,502.9444,189.2293,492.8889,189.3069,482.8333,188.8867,472.7778,189.1778,462.7222,188.3182,452.6667,189.175,442.6111,189.4388,432.5556,189.3352,422.5,188.8906,423.113,188.8906,422.0169,178.7422,421.8478,168.5938,421.8786,158.4453,422.4411,148.2969,422.3035,138.1484,422.5,128" style="stroke:#000000;stroke-width:1.5;"/><text fill="#000000" font-family="sans-serif" font-size="12" lengthAdjust="spacing" textLength="91" x="467.5" y="141.1387">: TerminalNode</text><path d="M423.5,145.9688 L423.5,146.249 L433.4444,145.4163 L443.3889,146.2265 L453.3333,146.5017 L463.2778,145.0176 L473.2222,145.8651 L483.1667,145.4001 L493.1111,145.4574 L503.0556,145.8779 L513,145.0469 L522.9444,146.7069 L532.8889,145.1284 L542.8333,145.7051 L552.7778,146.5447 L562.7222,145.8544 L572.6667,146.0597 L582.6111,145.9262 L592.5556,146.2068 L602.5,145.9688 " fill="#FFFFFF" style="stroke:#000000;stroke-width:1.5;"/><text fill="#000000" font-family="sans-serif" font-size="10" lengthAdjust="spacing" textLength="139" x="428.5" y="159.251">symbol = "BASIC-STRING"</text><text fill="#000000" font-family="sans-serif" font-size="10" lengthAdjust="spacing" textLength="108" x="428.5" y="170.8916">token.class = Literal</text><text fill="#000000" font-family="sans-serif" font-size="10" lengthAdjust="spacing" textLength="169" x="428.5" y="182.5322">token.value = "TOML Example"</text><!--MD5=[9ad6417c8edb5c87f8a26fa2c4cf4771]
link o1 to o2--><path d="M99,56.574 L99.2802,56.574 L98.4476,66.7299 L99.2577,76.8859 L99.5329,87.0418 L98.0488,97.1978 L98.8964,107.3537 L98.4313,117.5097 L99,127.6656 " fill="none" style="stroke:#000000;stroke-width:1.0;"/><text fill="#000000" font-family="sans-serif" font-size="13" lengthAdjust="spacing" textLength="62" x="30.6063" y="116.851">subnodes</text><!--MD5=[67109612027504382d21e385ace559c2]
link o4 to o5--><path d="M513,56.574 L513.2802,56.574 L512.4476,66.7299 L513.2577,76.8859 L513.5329,87.0418 L512.0488,97.1978 L512.8964,107.3537 L512.4313,117.5097 L513,127.6656 " fill="none" style="stroke:#000000;stroke-width:1.0;"/><text fill="#000000" font-family="sans-serif" font-size="13" lengthAdjust="spacing" textLength="62" x="444.6063" y="116.851">subnodes</text><!--MD5=[2fb1c7d12abbdf7d64df5bf8a93f23fa]
@startuml
skinparam handwritten true
skinparam object {
BackgroundColor PaleGray
BorderColor Black
ArrowColor Black
}
  object "result[0] : NonTerminalNode" as o1
  o1 : symbol = "key"

  object ": TerminalNode" as o2
  o2 : symbol = "UNQUOTED-KEY"
  o2 : token.class = Literal
  o2 : token.value = "title"

  object "result[1] : TerminalNode" as o3
  o3 : symbol = "EQUAL"
  o3 : token.class = "Token"
  o3 : token.lexeme = "="

  object "result[2] : NonTerminalNode" as o4
  o4 : symbol = "val"

  object ": TerminalNode" as o5
  o5 : symbol = "BASIC-STRING"
  o5 : token.class = Literal
  o5 : token.value = "TOML Example"

  o1 -down- "subnodes" o2
  o4 -down- "subnodes" o5
@enduml

PlantUML version 1.2021.15beta8(Unknown compile time)
(GPL source distribution)
Java Runtime: Java(TM) SE Runtime Environment
JVM: Java HotSpot(TM) 64-Bit Server VM
Default Encoding: UTF-8
Language: en
Country: US
--></g></svg>