<?xml version="1.0" encoding="UTF-8" standalone="no"?><svg xmlns="http://www.w3.org/2000/svg" xmlns:xlink="http://www.w3.org/1999/xlink" contentStyleType="text/css" height="158px" preserveAspectRatio="none" style="width:116px;height:158px;background:#FFFFFF;" version="1.1" viewBox="0 0 116 158" width="116px" zoomAndPan="magnify"><defs/><g><!--MD5=[a29d7a249bf69f054848895606947230]
class TOMLKey--><g id="elem_TOMLKey"><polygon fill="#F1F1F1" points="24.5,7,24.5,7.2102,34.0714,6.5857,43.6429,7.1933,53.2143,7.3997,62.7857,6.2866,72.3571,6.9223,81.9286,6.5735,91.5,7,91.4511,6.8819,91.8449,7.1255,92.1189,7.08,92.6313,7.6098,92.8338,7.3917,93.2678,7.7322,93.2069,7.707,93.5472,8.1409,93.5342,8.4284,93.7281,8.8016,93.8437,9.1424,94,9.5,94.0595,9.5,94.0797,16.9594,94.1952,24.4188,94.2237,31.8781,94.2264,39.3375,94,46.7969,94.0784,46.8294,93.9963,47.2096,93.9234,47.5936,93.3386,47.7655,93.6232,48.2976,93.2678,48.5646,93.2299,48.4733,92.9823,48.8755,92.4975,48.7051,92.1984,48.9829,91.9482,49.3788,91.5,49.2969,91.5,49.2481,81.9286,49.4022,72.3571,49.6355,62.7857,49.7131,53.2143,49.293,43.6429,49.5841,34.0714,48.7245,24.5,49.2969,24.5363,49.3845,24.2164,49.3193,23.8496,49.1409,23.5175,49.0463,23.0242,48.5623,22.7322,48.5646,22.5314,48.4814,22.3944,48.1318,22.4212,47.85,22.2324,47.4789,22.3563,47.2374,22,46.7969,21.9418,46.7969,21.8856,39.3375,22.0761,31.8781,21.7777,24.4188,21.827,16.9594,22,9.5,22.1999,9.5828,22.2806,9.202,22.5191,8.8866,22.3402,8.3983,22.6841,8.1265,22.7322,7.7322,22.8075,7.9141,23.0255,7.4403,23.4271,7.4098,23.809,7.3317,24.2296,7.3472,24.5,7" style="stroke:#000000;stroke-width:0.5;"/><text fill="#000000" font-family="sans-serif" font-size="14" font-style="italic" lengthAdjust="spacing" textLength="66" x="25" y="24.9951">TOMLKey</text><path d="M23,33.2969 L23,33.5771 L33,32.7444 L43,33.5546 L53,33.8298 L63,32.3457 L73,33.1933 L83,32.7282 L93,33.2969 " fill="#F1F1F1" style="stroke:#000000;stroke-width:0.5;"/><path d="M23,41.2969 L23,41.5771 L33,40.7444 L43,41.5546 L53,41.8298 L63,40.3457 L73,41.1933 L83,40.7282 L93,41.2969 " fill="#F1F1F1" style="stroke:#000000;stroke-width:0.5;"/></g><!--MD5=[135b6494a6ea9443300b3531e19f2819]
class UnquotedKey--><g id="elem_UnquotedKey"><polygon fill="#F1F1F1" points="9.5,109,9.5,109.2102,19.2,108.5857,28.9,109.1933,38.6,109.3997,48.3,108.2866,58,108.9223,67.7,108.5735,77.4,108.6165,87.1,108.9318,96.8,108.3086,106.5,109,106.5706,109.1705,106.7732,108.9523,107.1819,109.232,107.6158,109.5724,107.9033,109.5594,108.2678,109.7322,108.2888,109.7409,108.4044,110.0817,108.6156,110.4621,108.7808,110.8234,109.0339,111.2212,109,111.5,109.2237,111.5,109.2264,118.9594,109.0849,126.4188,109.1545,133.8781,109.2341,141.3375,109,148.7969,108.7779,148.7049,109.0625,149.237,108.6158,149.4662,108.7251,149.9256,108.2618,150.1479,108.2678,150.5646,108.259,150.5435,108.0088,150.9395,107.5544,150.8425,107.2205,151.0364,106.8967,151.2547,106.5,151.2969,106.5,151.7131,96.8,151.293,87.1,151.5841,77.4,150.7245,67.7,151.5813,58,151.8451,48.3,151.7414,38.6,151.9099,28.9,150.8138,19.2,150.6447,9.5,151.2969,9.4207,151.1055,9.1389,151.1323,8.7678,150.9435,8.5263,151.0674,8.0635,150.6573,7.7322,150.5646,7.6266,150.5209,7.6561,150.2402,7.234,149.7725,7.133,149.4378,7.3463,149.2332,7,148.7969,7.1452,148.7969,7.2448,141.3375,6.8927,133.8781,7.1064,126.4188,7.1968,118.9594,7,111.5,6.8545,111.4397,7.1169,111.1342,7.3317,110.809,7.6401,110.5225,7.5845,110.0853,7.7322,109.7322,7.7912,109.8747,8.0151,109.4152,8.3529,109.2308,8.8571,109.448,9.055,108.9257,9.5,109" style="stroke:#000000;stroke-width:0.5;"/><text fill="#000000" font-family="sans-serif" font-size="14" lengthAdjust="spacing" textLength="96" x="10" y="126.9951">UnquotedKey</text><path d="M8,135.2969 L8,135.5771 L18,134.7444 L28,135.5546 L38,135.8298 L48,134.3457 L58,135.1933 L68,134.7282 L78,134.7855 L88,135.206 L98,134.375 L108,135.2969 " fill="#F1F1F1" style="stroke:#000000;stroke-width:0.5;"/><path d="M8,143.2969 L8,143.5771 L18,142.7444 L28,143.5546 L38,143.8298 L48,142.3457 L58,143.1933 L68,142.7282 L78,142.7855 L88,143.206 L98,142.375 L108,143.2969 " fill="#F1F1F1" style="stroke:#000000;stroke-width:0.5;"/></g><!--MD5=[a3366885f21145824647c1d8e103aba6]
reverse link TOMLKey to UnquotedKey--><g id="link_TOMLKey_UnquotedKey"><path d="M58,69.6685 L58.0934,69.6685 L57.8159,77.4935 L58.0859,85.3185 L58.1776,93.1436 L57.6829,100.9686 L58,108.7936 " fill="none" style="stroke:#000000;stroke-width:1.0;"/><polygon fill="none" points="51.0001,69.2365,51.0662,69.2596,52.2697,65.1908,53.8609,61.2576,55.3258,57.2802,56.3756,53.1575,58,49.236,57.9755,49.2274,59.2658,53.1891,60.6794,57.194,62.1786,61.2288,63.3826,65.1603,65.0001,69.2365,65.0001,69.421,62.2001,69.0264,59.4001,69.1706,56.6001,69.3805,53.8001,69.2079,51.0001,69.2365" style="stroke:#000000;stroke-width:1.0;"/></g><!--MD5=[3877307861d2dcfef5eeb4f46cfe4ed0]
@startuml
skinparam handwritten true
  skinparam class {
    BorderColor Black
    ArrowColor Black
  }
  hide circle

  ' == CLASSES =========================
  abstract class TOMLKey
  class UnquotedKey

  ' == RELATIONSHIPS ===================
  TOMLKey <|- - UnquotedKey
@enduml

@startuml
skinparam handwritten true
  skinparam class {
    BorderColor Black
    ArrowColor Black
  }
  hide circle

  abstract class TOMLKey
  class UnquotedKey

  TOMLKey <|- - UnquotedKey
@enduml

PlantUML version 1.2022.2beta6(Unknown compile time)
(GPL source distribution)
Java Runtime: Java(TM) SE Runtime Environment
JVM: Java HotSpot(TM) 64-Bit Server VM
Default Encoding: UTF-8
Language: en
Country: US
--></g></svg>