<?xml version="1.0" encoding="UTF-8" standalone="no"?><svg xmlns="http://www.w3.org/2000/svg" xmlns:xlink="http://www.w3.org/1999/xlink" contentStyleType="text/css" height="174px" preserveAspectRatio="none" style="width:286px;height:174px;" version="1.1" viewBox="0 0 286 174" width="286px" zoomAndPan="magnify"><defs><style type="text/css"><![CDATA[*.f_f1f1f1_070707 {fill:#f1f1f1;}*.f_000000_ffffff {fill:#000000;}@media (prefers-color-scheme:dark) {*.f_f1f1f1_070707 {fill:#070707;}*.f_000000_ffffff {fill:#ffffff;}}]]></style></defs><g><!--MD5=[a29d7a249bf69f054848895606947230]
class TOMLKey--><g id="elem_TOMLKey"><polygon class="f_f1f1f1_070707" points="101.5,7,101.5,7.2102,111.0714,6.5857,120.6429,7.1933,130.2143,7.3997,139.7857,6.2866,149.3571,6.9223,158.9286,6.5735,168.5,7,168.4511,6.8819,168.8449,7.1255,169.1189,7.08,169.6313,7.6098,169.8338,7.3917,170.2678,7.7322,170.2069,7.707,170.5472,8.1409,170.5342,8.4284,170.7281,8.8016,170.8437,9.1424,171,9.5,171.0595,9.5,171.0797,16.9594,171.1952,24.4188,171.2237,31.8781,171.2264,39.3375,171,46.7969,171.0784,46.8294,170.9963,47.2096,170.9234,47.5936,170.3386,47.7655,170.6232,48.2976,170.2678,48.5646,170.2299,48.4733,169.9823,48.8755,169.4975,48.7051,169.1984,48.9829,168.9482,49.3788,168.5,49.2969,168.5,49.2481,158.9286,49.4022,149.3571,49.6355,139.7857,49.7131,130.2143,49.293,120.6429,49.5841,111.0714,48.7245,101.5,49.2969,101.5363,49.3845,101.2164,49.3193,100.8496,49.1409,100.5175,49.0463,100.0242,48.5623,99.7322,48.5646,99.5314,48.4814,99.3944,48.1318,99.4212,47.85,99.2324,47.4789,99.3563,47.2374,99,46.7969,98.9418,46.7969,98.8856,39.3375,99.0761,31.8781,98.7777,24.4188,98.827,16.9594,99,9.5,99.1999,9.5828,99.2806,9.202,99.5191,8.8866,99.3402,8.3983,99.6841,8.1265,99.7322,7.7322,99.8075,7.9141,100.0255,7.4403,100.4271,7.4098,100.809,7.3317,101.2296,7.3472,101.5,7" style="stroke:#000000;stroke-width:0.5;"/><text class="f_000000_ffffff" font-family="sans-serif" font-size="14" font-style="italic" lengthAdjust="spacing" textLength="66" x="102" y="24.9951">TOMLKey</text><path class="f_f1f1f1_070707" d="M100,33.2969 L100,33.5771 L110,32.7444 L120,33.5546 L130,33.8298 L140,32.3457 L150,33.1933 L160,32.7282 L170,33.2969 " style="stroke:#000000;stroke-width:0.5;"/><path class="f_f1f1f1_070707" d="M100,41.2969 L100,41.5771 L110,40.7444 L120,41.5546 L130,41.8298 L140,40.3457 L150,41.1933 L160,40.7282 L170,41.2969 " style="stroke:#000000;stroke-width:0.5;"/></g><!--MD5=[135b6494a6ea9443300b3531e19f2819]
class UnquotedKey--><g id="elem_UnquotedKey"><polygon class="f_f1f1f1_070707" points="9.5,109,9.5,109.2102,19.2,108.5857,28.9,109.1933,38.6,109.3997,48.3,108.2866,58,108.9223,67.7,108.5735,77.4,108.6165,87.1,108.9318,96.8,108.3086,106.5,109,106.5706,109.1705,106.7732,108.9523,107.1819,109.232,107.6158,109.5724,107.9033,109.5594,108.2678,109.7322,108.2888,109.7409,108.4044,110.0817,108.6156,110.4621,108.7808,110.8234,109.0339,111.2212,109,111.5,109.6711,111.5,109.6793,122.2188,109.2546,132.9375,109.4636,143.6563,109.7022,154.375,109,165.0938,108.7779,165.0018,109.0625,165.5339,108.6158,165.763,108.7251,166.2225,108.2618,166.4448,108.2678,166.8615,108.259,166.8404,108.0088,167.2363,107.5544,167.1394,107.2205,167.3333,106.8967,167.5516,106.5,167.5938,106.5,168.01,96.8,167.5898,87.1,167.881,77.4,167.0213,67.7,167.8781,58,168.1419,48.3,168.0383,38.6,168.2068,28.9,167.1107,19.2,166.9416,9.5,167.5938,9.4207,167.4024,9.1389,167.4292,8.7678,167.2403,8.5263,167.3643,8.0635,166.9542,7.7322,166.8615,7.6266,166.8178,7.6561,166.5371,7.234,166.0693,7.133,165.7346,7.3463,165.5301,7,165.0938,7.4357,165.0938,7.7345,154.375,6.6782,143.6563,7.3192,132.9375,7.5904,122.2188,7,111.5,6.8545,111.4397,7.1169,111.1342,7.3317,110.809,7.6401,110.5225,7.5845,110.0853,7.7322,109.7322,7.7912,109.8747,8.0151,109.4152,8.3529,109.2308,8.8571,109.448,9.055,108.9257,9.5,109" style="stroke:#000000;stroke-width:0.5;"/><text class="f_000000_ffffff" font-family="sans-serif" font-size="14" lengthAdjust="spacing" textLength="96" x="10" y="126.9951">UnquotedKey</text><path class="f_f1f1f1_070707" d="M8,135.2969 L8,135.5771 L18,134.7444 L28,135.5546 L38,135.8298 L48,134.3457 L58,135.1933 L68,134.7282 L78,134.7855 L88,135.206 L98,134.375 L108,135.2969 " style="stroke:#000000;stroke-width:0.5;"/><text class="f_000000_ffffff" font-family="sans-serif" font-size="14" lengthAdjust="spacing" textLength="83" x="13" y="152.292">key : String</text><path class="f_f1f1f1_070707" d="M8,159.5938 L8,159.874 L18,159.0413 L28,159.8515 L38,160.1267 L48,158.6426 L58,159.4901 L68,159.0251 L78,159.0824 L88,159.5029 L98,158.6719 L108,159.5938 " style="stroke:#000000;stroke-width:0.5;"/></g><!--MD5=[6d2ee16734a7bef47d360514b7f061a4]
class QuotedKey--><g id="elem_QuotedKey"><polygon class="f_f1f1f1_070707" points="147,109,147,109.2102,157,108.5857,167,109.1933,177,109.3997,187,108.2866,197,108.9223,207,108.5735,217,108.6165,227,108.9318,237,108.3086,247,109.5536,257,108.3697,267,108.8022,277,109,277.0551,109.133,277.3426,109.12,277.7158,109.3139,278.0566,109.4295,278.437,109.6408,278.7678,109.7322,278.8414,109.7627,279.0946,110.1605,279.2673,110.5249,279.4163,110.8795,279.432,111.1789,279.5,111.5,279.9636,111.5,280.2022,122.2188,278.7788,132.9375,280.1785,143.6563,279.2035,154.375,279.5,165.0938,279.6644,165.1618,279.2011,165.3842,279.186,165.7921,279.289,166.249,278.8992,166.5017,278.7678,166.8615,278.7812,166.8939,278.4574,167.1122,278.1138,167.2826,277.7066,167.2997,277.3902,167.5358,277,167.5938,277,167.0213,267,167.8781,257,168.1419,247,168.0383,237,168.2068,227,167.1107,217,166.9416,207,166.9723,197,167.5349,187,167.3972,177,168.2752,167,167.4191,157,167.2507,147,167.5938,147.0291,167.664,146.5614,167.2419,146.2267,167.141,146.0221,167.3543,145.6414,167.1421,145.2322,166.8615,145.4584,166.9552,144.9867,166.4669,145.0376,166.1951,144.9747,165.8762,144.501,165.387,144.5,165.0938,144.4041,165.0938,144.626,154.375,145.1518,143.6563,144.4958,132.9375,144.9626,122.2188,144.5,111.5,144.3295,111.4294,144.4379,111.0601,144.948,110.8571,144.7186,110.3479,145.2425,110.1507,145.2322,109.7322,145.2586,109.7959,145.5516,109.5033,145.8942,109.3304,146.3514,109.4342,146.6083,109.0543,147,109" style="stroke:#000000;stroke-width:0.5;"/><text class="f_000000_ffffff" font-family="sans-serif" font-size="14" lengthAdjust="spacing" textLength="80" x="172" y="126.9951">QuotedKey</text><path class="f_f1f1f1_070707" d="M145.5,135.2969 L145.5,135.5771 L155.7308,134.7444 L165.9615,135.5546 L176.1923,135.8298 L186.4231,134.3457 L196.6538,135.1933 L206.8846,134.7282 L217.1154,134.7855 L227.3462,135.206 L237.5769,134.375 L247.8077,136.0351 L258.0385,134.4565 L268.2692,135.0332 L278.5,135.2969 " style="stroke:#000000;stroke-width:0.5;"/><text class="f_000000_ffffff" font-family="sans-serif" font-size="14" lengthAdjust="spacing" textLength="123" x="150.5" y="152.292">key : TOMLString</text><path class="f_f1f1f1_070707" d="M145.5,159.5938 L145.5,159.874 L155.7308,159.0413 L165.9615,159.8515 L176.1923,160.1267 L186.4231,158.6426 L196.6538,159.4901 L206.8846,159.0251 L217.1154,159.0824 L227.3462,159.5029 L237.5769,158.6719 L247.8077,160.3319 L258.0385,158.7534 L268.2692,159.3301 L278.5,159.5938 " style="stroke:#000000;stroke-width:0.5;"/></g><!--MD5=[a3366885f21145824647c1d8e103aba6]
reverse link TOMLKey to UnquotedKey--><g id="link_TOMLKey_UnquotedKey"><path d="M108.944,65.716 L109.1725,65.8782 L102.3693,74.0257 L96.9057,83.124 L91.0059,91.9127 L83.6714,99.6833 L78.3229,108.8632 " fill="none" style="stroke:#000000;stroke-width:1.0;"/><polygon fill="none" points="103.4138,61.413,103.4543,61.4701,106.7905,58.8486,110.3644,56.562,113.8608,54.1663,117.1028,51.4118,120.697,49.154,120.6721,49.1468,119.3872,53.1869,118.2278,57.2631,117.1556,61.3644,115.7828,65.3791,114.831,69.5151,114.9378,69.6656,112.426,67.7233,110.226,66.2205,108.064,64.7713,105.6807,63.0101,103.4138,61.413" style="stroke:#000000;stroke-width:1.0;"/></g><!--MD5=[87aac8fe4eb68c20c11fccae26275042]
reverse link TOMLKey to QuotedKey--><g id="link_TOMLKey_QuotedKey"><path d="M161.056,65.716 L161.2845,65.8782 L166.7297,74.0257 L173.5146,83.124 L179.8632,91.9127 L184.7771,99.6833 L191.677,108.8632 " fill="none" style="stroke:#000000;stroke-width:1.0;"/><polygon fill="none" points="155.169,69.5151,155.2363,69.5345,153.8631,65.4046,152.8845,61.3885,151.7774,57.3353,150.2477,53.1604,149.303,49.154,149.288,49.1329,152.6774,51.4898,156.1422,53.9533,159.6597,56.4909,162.9961,58.7732,166.586,61.413,166.6928,61.5635,164.181,62.8621,161.981,64.6001,159.8191,66.3917,157.4359,67.8714,155.169,69.5151" style="stroke:#000000;stroke-width:1.0;"/></g><!--MD5=[ead57d9947d92953022f7616d8014a78]
@startuml
skinparam handwritten true
  skinparam class {
    BorderColor Black
    ArrowColor Black
  }
  hide circle

  ' == CLASSES =========================
  abstract class TOMLKey
  class UnquotedKey {
    key : String
  }
  class QuotedKey {
    key : TOMLString
  }  

  ' == RELATIONSHIPS ===================
  TOMLKey <|- - UnquotedKey
  TOMLKey <|- - QuotedKey
@enduml

@startuml
skinparam handwritten true
  skinparam class {
    BorderColor Black
    ArrowColor Black
  }
  hide circle

  abstract class TOMLKey
  class UnquotedKey {
    key : String
  }
  class QuotedKey {
    key : TOMLString
  }  

  TOMLKey <|- - UnquotedKey
  TOMLKey <|- - QuotedKey
@enduml

PlantUML version 1.2022.2beta5(Unknown compile time)
(GPL source distribution)
Java Runtime: Java(TM) SE Runtime Environment
JVM: Java HotSpot(TM) 64-Bit Server VM
Default Encoding: UTF-8
Language: en
Country: US
--></g></svg>