<?xml version="1.0" encoding="UTF-8" standalone="no"?><svg xmlns="http://www.w3.org/2000/svg" xmlns:xlink="http://www.w3.org/1999/xlink" contentScriptType="application/ecmascript" contentStyleType="text/css" height="376px" preserveAspectRatio="none" style="width:390px;height:376px;background:#FFFFFF;" version="1.1" viewBox="0 0 390 376" width="390px" zoomAndPan="magnify"><defs><filter height="300%" id="fmnkkp2g30lt9" width="300%" x="-1" y="-1"><feGaussianBlur result="blurOut" stdDeviation="2.0"/><feColorMatrix in="blurOut" result="blurOut2" type="matrix" values="0 0 0 0 0 0 0 0 0 0 0 0 0 0 0 0 0 0 .4 0"/><feOffset dx="4.0" dy="4.0" in="blurOut2" result="blurOut3"/><feBlend in="SourceGraphic" in2="blurOut3" mode="normal"/></filter></defs><g><polygon fill="#000000" filter="url(#fmnkkp2g30lt9)" points="127.1968,18.4324,125.731,20.4353,123.9972,23.3688,121.5176,25.3458,118.9119,26.4269,116.8343,26.5207,114.164,25.1687,111.6445,24.2854,109.7321,22.492,108.7289,20.4389,108.134,18.8041,107.5512,16.6688,106.6052,14.8313,107.3322,13.0373,107.9691,11.072,110.3591,9.5177,112.0407,7.501,114.122,6.8313,116.5963,6.2546,119.7692,6.5972,121.5071,7.4168,123.5277,7.7884,125.9845,10.3054,126.8409,12.9627,127.213,14.7758,126.7916,17.7635" style="stroke:none;stroke-width:1.0;"/><g id="default"><polygon fill="#FEFECE" filter="url(#fmnkkp2g30lt9)" points="94.1416,87,94.1416,87.2102,103.3416,86.5857,112.5416,87.1933,121.7416,87.3997,130.9416,86.2866,140.1416,87,140.1317,86.9761,141.855,87.6009,143.6282,88.3464,145.4362,89.1757,147.1245,89.716,148.9804,90.6612,149.1509,90.7318,149.5186,92.3485,150.384,94.1715,151.3102,96.0196,151.883,97.7213,152.6416,99.5,152.6643,99.5,152.631,104.5,152.7011,109.5,152.7213,114.5,152.8368,119.5,152.6416,124.5,152.8483,124.5856,152.1186,126.3544,151.2555,128.068,150.5877,129.8624,149.9289,131.6606,148.9804,133.3388,148.8884,133.1167,147.2992,134.28,145.4071,134.712,143.7452,135.6999,141.8462,136.1153,140.1416,137,140.1416,136.9315,130.9416,137.7416,121.7416,136.9513,112.5416,137.1053,103.3416,137.3386,94.1416,137,94.1947,137.1282,92.3733,136.2666,90.6427,135.624,88.7653,134.627,87.1068,134.1586,85.3028,133.3388,85.4716,133.4088,84.7074,131.6278,84.0271,129.8815,82.9573,127.9739,82.173,126.1846,81.6416,124.5,81.4345,124.5,81.622,119.5,81.5761,114.5,81.8687,109.5,81.5834,104.5,81.6416,99.5,81.536,99.4562,82.4441,97.7614,82.9007,95.8794,83.6784,94.1305,84.7704,92.5117,85.3028,90.6612,85.3583,90.7953,87.1642,90.1551,88.7973,89.0976,90.6468,88.5628,92.4491,87.9141,94.1416,87" style="stroke:#A80036;stroke-width:1.5;"/><path d="M81.6416,113.2969 L81.6416,113.5771 L91.7845,112.7444 L101.9273,113.5546 L112.0702,113.8298 L122.213,112.3457 L132.3559,113.1933 L142.4987,112.7282 L152.6416,113.2969 " fill="#FEFECE" style="stroke:#A80036;stroke-width:1.5;"/><text fill="#000000" font-family="sans-serif" font-size="14" lengthAdjust="spacing" textLength="51" x="91.6416" y="104.9951">default</text></g><polygon fill="#FEFECE" filter="url(#fmnkkp2g30lt9)" points="117.1416,341,117.1911,341.0495,119.4439,343.3023,121.9872,345.8456,124.4358,348.2942,126.5735,350.4319,129.1416,353,129.1233,352.9817,126.6411,355.2995,124.2512,357.7096,121.9255,360.1839,119.3786,362.437,117.1416,365,117.2721,365.1305,114.593,362.4514,112.295,360.1534,110.0434,357.9018,107.5214,355.3798,105.1416,353,105.1577,353.0161,107.5341,350.5925,109.9837,348.2421,112.398,345.8564,114.8796,343.538,117.1416,341" style="stroke:#A80036;stroke-width:1.5;"/><g id="multiline"><polygon fill="#FEFECE" filter="url(#fmnkkp2g30lt9)" points="88.1416,214,88.1416,214.2102,97.8083,213.5857,107.4749,214.1933,117.1416,214.3997,126.8083,213.2866,136.4749,213.9223,146.1416,214,146.0872,213.8687,147.8604,214.6141,149.6684,215.4435,151.3567,215.9838,153.2833,217.0994,154.9804,217.6612,154.7863,217.5808,155.6518,219.4037,156.5779,221.2518,157.1507,222.9535,157.9304,224.7409,158.6416,226.5,158.631,226.5,158.7011,231.5,158.7213,236.5,158.8368,241.5,158.8653,246.5,158.6416,251.5,158.8508,251.5866,157.9878,253.3002,157.3199,255.0947,156.6612,256.8929,155.4906,258.4791,154.9804,260.3388,155.067,260.5478,153.1748,260.9798,151.513,261.9677,149.614,262.3831,147.9006,263.2467,146.1416,264,146.1416,264.7416,136.4749,263.9513,126.8083,264.1053,117.1416,264.3386,107.4749,264.4162,97.8083,263.9961,88.1416,264,88.1782,264.0885,86.3008,263.0915,84.6423,262.6231,82.9082,261.9721,81.1272,261.208,79.3028,260.3388,79.4916,260.417,78.4218,258.5094,77.6375,256.7201,76.9147,254.9563,76.3557,253.2603,75.6416,251.5,75.5761,251.5,75.8687,246.5,75.5834,241.5,75.5272,236.5,75.7177,231.5,75.6416,226.5,75.4362,226.4149,76.214,224.666,77.3059,223.0472,77.9725,221.2523,78.7967,219.5226,79.3028,217.6612,79.2617,217.5621,81.1112,217.0272,82.9136,216.3785,84.5458,215.319,86.3616,214.7027,88.1416,214" style="stroke:#A80036;stroke-width:1.5;"/><path d="M75.6416,240.2969 L75.6416,240.5771 L86.0166,239.7444 L96.3916,240.5546 L106.7666,240.8298 L117.1416,239.3457 L127.5166,240.1933 L137.8916,239.7282 L148.2666,239.7855 L158.6416,240.2969 " fill="#FEFECE" style="stroke:#A80036;stroke-width:1.5;"/><text fill="#000000" font-family="sans-serif" font-size="14" lengthAdjust="spacing" textLength="63" x="85.6416" y="231.9951">multiline</text></g><!--MD5=[6ed97b3ed5f5f4a151ea0493a322bc8b]
link *start to default--><path d="M117.1416,26.013 L117.4218,26.013 L116.5892,35.2725 L117.3993,44.532 L117.6745,53.7915 L116.1904,63.051 L117.038,72.3105 L117.1416,81.57 " fill="none" style="stroke:#000000;stroke-width:1.0;"/><polygon fill="#000000" points="117.1416,86.84,117.2056,86.8685,117.8154,84.9839,118.8005,83.2662,119.6633,81.4941,120.1243,79.5434,121.1416,77.84,121.1233,77.8217,120.2411,78.5395,119.4512,79.3496,118.7255,80.2239,117.7786,80.877,117.1416,81.84,117.2721,81.9705,116.193,80.8914,115.495,80.1934,114.8434,79.5418,113.9214,78.6198,113.1416,77.84,113.1624,77.8492,113.9319,79.6357,114.796,81.4642,115.6144,83.2724,116.52,85.1193,117.1416,86.84" style="stroke:#000000;stroke-width:1.0;"/><!--MD5=[cef363573881c163280caf86316576a2]
link default to default--><path d="M152.6902,102.231 L152.6919,102.3244 L155.3301,101.9999 L157.9781,102.2229 L160.623,102.2677 L163.2574,101.726 L165.9062,101.9961 L165.9014,101.9619 L168.1107,102.1183 L170.3438,102.4472 L172.5937,102.896 L174.7861,102.9316 L177.059,103.5459 L177.2125,103.7381 L179.0006,105.0178 L181.237,106.8589 L183.5281,108.7683 L185.501,110.2794 L187.6412,112 L187.6615,112.0225 L185.8651,113.5824 L184.1611,115.2448 L182.4125,116.8578 L180.749,118.5651 L178.8081,119.9648 L178.8631,120.2579 L176.9644,120.6182 L175.0302,120.7894 L173.148,121.2374 L171.2681,121.6984 L169.3112,121.7484 L169.3023,121.428 L167.0173,122.1134 L164.7031,121.7437 L162.4111,122.1761 L160.0963,121.7826 L157.8002,122.066 " fill="none" style="stroke:#000000;stroke-width:1.0;"/><polygon fill="#000000" points="152.6902,121.769,152.7223,121.8313,154.3772,122.5498,156.2204,123.6333,158.0023,124.598,159.5824,125.1718,161.4418,126.2866,161.4225,126.2694,160.5836,125.3469,159.8423,124.5111,159.1688,123.7358,158.2616,122.7524,157.6817,122.0603,157.8044,122.1982,158.3873,121.1514,159.3284,120.507,160.3132,119.9118,161.0437,119.0309,161.908,118.3002,161.916,118.3215,160.0607,118.984,158.2418,119.7434,156.4054,120.4561,154.6025,121.258,152.6902,121.769" style="stroke:#000000;stroke-width:1.0;"/><text fill="#000000" font-family="sans-serif" font-size="13" lengthAdjust="spacing" textLength="78" x="193.6412" y="116.5669">newline/skip</text><!--MD5=[830d2639a97523d908a36ed50bd2c0f3]
link default to multiline--><path d="M81.4112,135.298 L81.4729,135.3681 L79.7461,136.5184 L78.3811,138.0797 L76.8983,139.5072 L75.0281,140.4945 L73.6942,142.0911 L73.6691,142.0673 L72.1149,143.4754 L70.6868,145.0036 L69.3464,146.6153 L67.7039,147.9394 L66.4845,149.6663 L66.6805,149.815 L64.9987,151.1602 L63.8891,152.9397 L62.8492,154.7723 L61.4032,156.2964 L60.1708,157.9828 L60.1973,157.9976 L59.1526,159.7793 L58.2284,161.6283 L57.2461,163.4449 L56.3748,165.3234 L55.1416,167 L55.4337,167.0604 L54.9437,169.449 L54.2653,171.7988 L53.8627,174.2055 L53.473,176.6149 L52.6738,178.9397 L52.3627,178.8628 L53.5293,181.2891 L53.6713,183.4622 L54.5922,185.8277 L54.711,187.9951 L55.4872,190.3249 L55.4616,190.3084 L57.1302,192.6294 L58.2004,194.566 L59.6237,196.7294 L61.0766,198.9118 L62.3156,200.9569 L62.4471,201.087 L64.2299,202.8917 L66.2373,204.9187 L67.8811,206.586 L70.0673,208.7899 L71.8929,210.637 " fill="none" style="stroke:#000000;stroke-width:1.0;"/><polygon fill="#000000" points="75.9463,213.99,76.009,214.0212,74.9456,212.1648,74.2499,210.4912,73.4345,208.7581,72.2252,206.8291,71.5611,205.1713,71.5353,205.1688,71.5261,206.2842,71.6468,207.4119,71.858,208.5482,71.7577,209.655,72.0936,210.803,72.111,210.9867,70.9475,210.7004,69.8347,210.9504,68.7281,211.2659,67.5856,211.2006,66.4619,211.3356,66.468,211.3575,68.3559,211.8562,70.2717,212.4546,72.174,213.005,74.102,213.6471,75.9463,213.99" style="stroke:#000000;stroke-width:1.0;"/><text fill="#000000" font-family="sans-serif" font-size="13" lengthAdjust="spacing" textLength="77" x="56.1416" y="180.0669">start_ml_str</text><!--MD5=[368c4e896a5afbf7153856155cdc240f]
link multiline to default--><path d="M130.1982,213.983 L130.2855,214.0163 L130.8553,211.7479 L131.9367,209.675 L132.8515,207.5384 L133.2185,205.1924 L134.3438,203.1363 L134.3104,203.1273 L134.7915,200.731 L135.4409,198.3797 L136.2072,196.0597 L136.5705,193.6319 L137.4982,191.3551 L137.7425,191.3849 L137.5182,188.8786 L138.007,186.4593 L138.5829,184.0506 L138.6525,181.5801 L138.9884,179.1422 L139.0186,179.1443 L138.8048,176.7127 L138.7287,174.2908 L138.5861,171.8643 L138.5703,169.4466 L138.1412,167 L138.4305,167.0723 L137.8013,164.5415 L136.9853,161.964 L136.4426,159.4549 L135.9127,156.9489 L134.9771,154.3415 L134.6743,154.2362 L134.4027,151.9713 L133.1343,149.3596 L132.6236,147.0116 L131.3326,144.392 L130.6812,141.995 " fill="none" style="stroke:#000000;stroke-width:1.0;"/><polygon fill="#000000" points="128.7432,137.166,128.8132,137.1686,128.5334,139.1294,128.664,141.1053,128.661,143.0762,128.2185,145.0312,128.3843,147.0083,128.3605,146.9981,128.6979,145.912,129.1555,144.8772,129.6965,143.878,129.9498,142.756,130.6061,141.806,130.6785,141.9757,131.564,142.0571,132.6611,142.6341,133.784,143.2715,134.7567,143.5571,135.8084,144.0277,135.8242,144.0441,134.3879,142.6478,133.0238,141.3257,131.6248,139.9679,130.2923,138.6784,128.7432,137.166" style="stroke:#000000;stroke-width:1.0;"/><text fill="#000000" font-family="sans-serif" font-size="13" lengthAdjust="spacing" textLength="71" x="139.1412" y="180.0669">end_ml_str</text><!--MD5=[8e192d0c2cd30b6c5b2674ce704c7764]
link multiline to bs--><path d="M75.4114,252.519 L75.446,252.6058 L72.8879,253.328 L70.5327,254.5589 L68.1114,255.6241 L65.4727,256.1447 L63.135,257.4193 L63.1203,257.388 L60.653,258.3761 L58.2598,259.5217 L55.918,260.7769 L53.3989,261.6546 L51.1282,263.0611 L51.2509,263.2744 L48.7782,264.0896 L46.6637,265.5277 L44.5929,267.0416 L42.2679,268.1136 L40.0766,269.418 L40.0947,269.4423 L38.1859,270.8157 L36.3598,272.2997 L34.4937,273.7303 L32.7039,275.2627 L30.6657,276.4634 L30.9106,276.6336 L28.6822,279.8458 L26.2958,282.9482 L24.1406,286.2112 L21.9963,289.4818 L19.5086,292.5138 L19.1941,292.452 L20.5311,296.2692 L20.8325,299.8829 L21.9212,303.6513 L22.1992,307.2603 L23.1416,311 L23.118,310.9808 L24.9008,313.0575 L26.1316,314.6855 L27.6881,316.5783 L29.272,318.4932 L30.6586,320.2479 L30.7786,320.3887 L32.4765,321.7964 L34.3794,323.4447 L35.9506,324.7038 L38.0166,326.5435 L39.7536,327.9971 L39.8827,328.2037 L41.9011,329.4411 L43.9836,330.781 L45.7683,331.6442 L47.7713,332.8569 L49.9677,334.3791 L49.8496,334.1295 L52.1314,335.3847 L54.2801,336.3587 L56.6218,337.7406 L58.6339,338.4259 L60.842,339.5254 L60.7897,339.3821 L63.0919,340.429 L65.1707,340.8637 L67.4083,341.7338 L69.8014,343.0298 L71.9176,343.5673 L71.9705,343.7535 L74.1703,344.4951 L76.2058,344.6573 L78.4472,345.5451 L80.6437,346.2749 L82.7356,346.6363 L82.6951,346.4303 L86.533,347.3435 L90.3575,348.1893 L94.2082,349.1676 L97.9574,349.6305 L101.7633,350.3814 " fill="none" style="stroke:#000000;stroke-width:1.0;"/><polygon fill="#000000" points="106.9134,351.0731,106.9501,351.1328,105.1635,349.923,103.5922,349.063,101.9508,348.0891,100.0788,346.7406,98.526,345.9107,98.5054,345.8949,99.0993,346.7238,99.7971,347.6318,100.5671,348.595,101.0883,349.3683,101.9579,350.4075,102.0699,350.5542,100.9311,350.9269,100.1192,351.7279,99.3471,352.5811,98.3431,353.1303,97.461,353.8395,97.4674,353.8613,99.3485,353.276,101.2587,352.79,103.1548,352.2561,105.0778,351.8137,106.9134,351.0731" style="stroke:#000000;stroke-width:1.0;"/><text fill="#000000" font-family="sans-serif" font-size="13" lengthAdjust="spacing" textLength="49" x="24.1416" y="307.0669">newline</text><!--MD5=[ce1537a1ba91d0a0a4f0b3426f9afa03]
link bs to multiline--><path d="M116.1963,341.9017 L116.2894,341.9091 L115.7817,338.9668 L115.8199,336.0677 L115.6803,333.1546 L114.9561,330.1952 L115.0411,327.2999 L115.0066,327.2979 L114.6719,324.0294 L114.5111,320.7705 L114.4712,317.5183 L114.0147,314.243 L114.1416,311 L114.3876,311.0047 L113.8216,308.9127 L113.9738,306.8345 L114.2137,304.758 L113.9437,302.6717 L113.9419,300.5905 L113.9722,300.5908 L113.9474,298.4698 L114.0606,296.3501 L114.1072,294.2298 L114.2809,292.1106 L114.0404,289.9877 L114.3385,289.997 L114.4073,287.9087 L114.2838,285.8144 L114.4418,283.7289 L114.613,281.6438 L114.3662,279.5456 L114.0461,279.5301 L114.7639,277.5749 L114.4276,275.5685 L114.8927,273.6011 L114.5325,271.5935 L114.8487,269.6188 " fill="none" style="stroke:#000000;stroke-width:1.0;"/><polygon fill="#000000" points="115.1674,264.314,115.2296,264.3462,114.1383,265.9992,113.4116,267.8412,112.5662,269.6217,111.3302,271.1997,110.6349,273.0579,110.6177,273.0385,111.3871,272.201,112.2431,271.4611,113.1594,270.7892,113.8681,269.8831,114.8675,269.305,115.0056,269.4274,115.4609,270.0122,116.3194,270.9543,117.227,271.9401,117.8485,272.6722,118.6205,273.5377,118.6418,273.5457,117.9199,271.6892,117.295,269.8691,116.6233,268.0314,116.0408,266.2272,115.1674,264.314" style="stroke:#000000;stroke-width:1.0;"/><text fill="#000000" font-family="sans-serif" font-size="13" lengthAdjust="spacing" textLength="128" x="115.1416" y="307.0669">[prev_ch == '\']/skip</text><!--MD5=[ce1537a1ba91d0a0a4f0b3426f9afa03]
link bs to multiline--><path d="M128.7562,352.4807 L128.7569,352.5741 L131.0663,352.2785 L133.3799,352.5306 L135.6922,352.6043 L137.9998,352.0916 L140.3138,352.3906 L140.3119,352.3561 L143.1556,352.0407 L146.009,351.8992 L148.8693,351.8786 L151.7061,351.4414 L154.5758,351.5876 L154.6045,351.832 L157.7622,350.932 L161.0035,350.7454 L164.2551,350.6459 L167.4473,350.04 L170.6707,349.7004 L170.6765,349.7301 L174.0793,349.0179 L177.5086,348.4411 L180.925,347.7989 L184.366,347.2815 L187.7272,346.3574 L187.8133,346.643 L191.2437,345.6125 L194.6185,344.3978 L198.0747,343.4527 L201.5346,342.5202 L204.8739,341.1874 L204.7423,340.8951 L208.2708,339.9886 L211.366,338.1197 L214.7906,336.9825 L217.8759,335.0918 L221.2394,333.8187 L221.2223,333.7935 L224.3664,332.1041 L227.1124,329.8253 L230.0933,327.8943 L233.0939,325.9925 L235.9523,323.8801 L236.0866,324.0072 L238.3888,321.3029 L240.9206,318.8158 L243.0808,315.9772 L245.7952,313.6629 L248.1412,311 L248.3628,311.1012 L249.4429,308.6264 L250.6329,306.2018 L251.3118,303.5437 L252.3654,301.0568 L253.751,298.7215 L253.4771,298.6857 L253.4392,296.5324 L253.0927,294.3388 L253.1938,292.2036 L252.5307,289.9686 L252.3218,287.7929 L252.2,287.7012 L250.9516,285.9266 L249.1826,283.76 L247.7838,281.8722 L246.7473,280.2572 L245.0656,278.1564 L245.1775,278.3144 L242.88,276.7424 L240.2345,274.6787 L238.0249,273.2308 L235.7203,271.6487 L233.1945,269.7541 L233.1047,269.5643 L230.1214,268.2705 L227.1087,266.9144 L224.1538,265.6805 L220.9743,263.9719 L217.9202,262.5284 L217.9881,262.7225 L214.346,261.0747 L210.8348,259.8015 L207.515,259.0756 L203.8429,257.3421 L200.455,256.4215 L200.5147,256.6397 L196.7903,255.5009 L193.0458,254.2883 L189.3469,253.2423 L185.7533,252.5815 L182.0106,251.3756 L181.9818,251.2458 L178.4254,250.8239 L174.6728,249.5187 L171.1432,249.2179 L167.4881,248.3517 L163.7992,247.333 " fill="none" style="stroke:#000000;stroke-width:1.0;"/><polygon fill="#000000" points="158.7092,246.335,158.7494,246.3923,160.2421,247.3536,161.9708,248.651,163.6226,249.8389,165.0217,250.6668,166.7706,251.993,166.7491,251.9786,166.0216,250.9747,165.4025,250.0436,164.8588,249.1632,164.0554,248.1083,163.6156,247.2977,163.7186,247.4509,164.4375,246.4923,165.457,245.981,166.5131,245.5242,167.356,244.75,168.311,244.1427,168.316,244.1649,166.3882,244.5708,164.4835,245.0777,162.5677,245.5358,160.673,246.0869,158.7092,246.335" style="stroke:#000000;stroke-width:1.0;"/><text fill="#000000" font-family="sans-serif" font-size="13" lengthAdjust="spacing" textLength="128" x="254.1412" y="307.0669">[prev_ch != '\']/scan</text><!--MD5=[4c3bbac353bf64b3c358816f2927ab9e]
@startuml
skinparam handwritten true
  skinparam class {
    BorderColor Black
    ArrowColor Black
  }
  

  [*] - -> default
  default - -> default : newline/skip
  state bs <<choice>>  
  default - -> multiline : start_ml_str
  multiline - -> bs : newline
  bs - -> multiline : [prev_ch == '\\']/skip
  bs - -> multiline : [prev_ch != '\\']/scan  
  multiline - -> default : end_ml_str
@enduml

PlantUML version 1.2022.2beta1(Unknown compile time)
(GPL source distribution)
Java Runtime: Java(TM) SE Runtime Environment
JVM: Java HotSpot(TM) 64-Bit Server VM
Default Encoding: UTF-8
Language: en
Country: US
--></g></svg>