<?xml version="1.0" encoding="UTF-8" standalone="no"?><svg xmlns="http://www.w3.org/2000/svg" xmlns:xlink="http://www.w3.org/1999/xlink" contentScriptType="application/ecmascript" contentStyleType="text/css" height="278px" preserveAspectRatio="none" style="width:253px;height:278px;background:#FFFFFF;" version="1.1" viewBox="0 0 253 278" width="253px" zoomAndPan="magnify"><defs><filter height="300%" id="f1xsbyaitwdzma" width="300%" x="-1" y="-1"><feGaussianBlur result="blurOut" stdDeviation="2.0"/><feColorMatrix in="blurOut" result="blurOut2" type="matrix" values="0 0 0 0 0 0 0 0 0 0 0 0 0 0 0 0 0 0 .4 0"/><feOffset dx="4.0" dy="4.0" in="blurOut2" result="blurOut3"/><feBlend in="SourceGraphic" in2="blurOut3" mode="normal"/></filter></defs><g><polygon fill="#000000" filter="url(#f1xsbyaitwdzma)" points="85.4291,18.4324,83.9633,20.4353,82.2295,23.3688,79.7499,25.3458,77.1442,26.4269,75.0666,26.5207,72.3963,25.1687,69.8768,24.2854,67.9644,22.492,66.9612,20.4389,66.3663,18.8041,65.7835,16.6688,64.8375,14.8313,65.5645,13.0373,66.2014,11.072,68.5914,9.5177,70.273,7.501,72.3543,6.8313,74.8286,6.2546,78.0015,6.5972,79.7394,7.4168,81.76,7.7884,84.2168,10.3054,85.0732,12.9627,85.4453,14.7758,85.0239,17.7635" style="stroke:none;stroke-width:1.0;"/><g id="default"><polygon fill="#FEFECE" filter="url(#f1xsbyaitwdzma)" points="52.3739,87,52.3739,87.2102,61.5739,86.5857,70.7739,87.1933,79.9739,87.3997,89.1739,86.2866,98.3739,87,98.364,86.9761,100.0873,87.6009,101.8605,88.3464,103.6685,89.1757,105.3568,89.716,107.2127,90.6612,107.3832,90.7318,107.7509,92.3485,108.6163,94.1715,109.5425,96.0196,110.1153,97.7213,110.8739,99.5,110.8966,99.5,110.8633,104.5,110.9334,109.5,110.9536,114.5,111.0691,119.5,110.8739,124.5,111.0806,124.5856,110.3509,126.3544,109.4878,128.068,108.82,129.8624,108.1612,131.6606,107.2127,133.3388,107.1207,133.1167,105.5315,134.28,103.6394,134.712,101.9775,135.6999,100.0785,136.1153,98.3739,137,98.3739,136.9315,89.1739,137.7416,79.9739,136.9513,70.7739,137.1053,61.5739,137.3386,52.3739,137,52.427,137.1282,50.6056,136.2666,48.875,135.624,46.9976,134.627,45.3391,134.1586,43.5351,133.3388,43.7039,133.4088,42.9397,131.6278,42.2594,129.8815,41.1896,127.9739,40.4053,126.1846,39.8739,124.5,39.6668,124.5,39.8543,119.5,39.8084,114.5,40.101,109.5,39.8157,104.5,39.8739,99.5,39.7683,99.4562,40.6764,97.7614,41.133,95.8794,41.9107,94.1305,43.0027,92.5117,43.5351,90.6612,43.5906,90.7953,45.3965,90.1551,47.0296,89.0976,48.8791,88.5628,50.6814,87.9141,52.3739,87" style="stroke:#A80036;stroke-width:1.5;"/><path d="M39.8739,113.2969 L39.8739,113.5771 L50.0168,112.7444 L60.1596,113.5546 L70.3025,113.8298 L80.4453,112.3457 L90.5882,113.1933 L100.731,112.7282 L110.8739,113.2969 " fill="#FEFECE" style="stroke:#A80036;stroke-width:1.5;"/><text fill="#000000" font-family="sans-serif" font-size="14" lengthAdjust="spacing" textLength="51" x="49.8739" y="104.9951">default</text></g><g id="multiline"><polygon fill="#FEFECE" filter="url(#f1xsbyaitwdzma)" points="46.3739,214,46.3739,214.2102,56.0406,213.5857,65.7072,214.1933,75.3739,214.3997,85.0406,213.2866,94.7072,213.9223,104.3739,214,104.3195,213.8687,106.0927,214.6141,107.9007,215.4435,109.589,215.9838,111.5156,217.0994,113.2127,217.6612,113.0186,217.5808,113.8841,219.4037,114.8102,221.2518,115.383,222.9535,116.1627,224.7409,116.8739,226.5,116.8633,226.5,116.9334,231.5,116.9536,236.5,117.0691,241.5,117.0976,246.5,116.8739,251.5,117.0831,251.5866,116.2201,253.3002,115.5522,255.0947,114.8935,256.8929,113.7229,258.4791,113.2127,260.3388,113.2993,260.5478,111.4071,260.9798,109.7453,261.9677,107.8463,262.3831,106.1329,263.2467,104.3739,264,104.3739,264.7416,94.7072,263.9513,85.0406,264.1053,75.3739,264.3386,65.7072,264.4162,56.0406,263.9961,46.3739,264,46.4105,264.0885,44.5331,263.0915,42.8746,262.6231,41.1405,261.9721,39.3595,261.208,37.5351,260.3388,37.7239,260.417,36.6541,258.5094,35.8698,256.7201,35.147,254.9563,34.588,253.2603,33.8739,251.5,33.8084,251.5,34.101,246.5,33.8157,241.5,33.7595,236.5,33.95,231.5,33.8739,226.5,33.6685,226.4149,34.4463,224.666,35.5382,223.0472,36.2048,221.2523,37.029,219.5226,37.5351,217.6612,37.494,217.5621,39.3435,217.0272,41.1459,216.3785,42.7781,215.319,44.5939,214.7027,46.3739,214" style="stroke:#A80036;stroke-width:1.5;"/><path d="M33.8739,240.2969 L33.8739,240.5771 L44.2489,239.7444 L54.6239,240.5546 L64.9989,240.8298 L75.3739,239.3457 L85.7489,240.1933 L96.1239,239.7282 L106.4989,239.7855 L116.8739,240.2969 " fill="#FEFECE" style="stroke:#A80036;stroke-width:1.5;"/><text fill="#000000" font-family="sans-serif" font-size="14" lengthAdjust="spacing" textLength="63" x="43.8739" y="231.9951">multiline</text></g><!--MD5=[6ed97b3ed5f5f4a151ea0493a322bc8b]
link *start to default--><path d="M75.3739,26.013 L75.6541,26.013 L74.8215,35.2725 L75.6316,44.532 L75.9068,53.7915 L74.4227,63.051 L75.2703,72.3105 L75.3739,81.57 " fill="none" style="stroke:#000000;stroke-width:1.0;"/><polygon fill="#000000" points="75.3739,86.84,75.4379,86.8685,76.0477,84.9839,77.0328,83.2662,77.8956,81.4941,78.3566,79.5434,79.3739,77.84,79.3556,77.8217,78.4734,78.5395,77.6835,79.3496,76.9578,80.2239,76.0109,80.877,75.3739,81.84,75.5044,81.9705,74.4253,80.8914,73.7273,80.1934,73.0757,79.5418,72.1537,78.6198,71.3739,77.84,71.3947,77.8492,72.1642,79.6357,73.0283,81.4642,73.8467,83.2724,74.7523,85.1193,75.3739,86.84" style="stroke:#000000;stroke-width:1.0;"/><!--MD5=[cef363573881c163280caf86316576a2]
link default to default--><path d="M110.9232,102.231 L110.9249,102.3244 L113.563,101.9999 L116.211,102.2229 L118.8557,102.2677 L121.49,101.726 L124.1388,101.9961 L124.134,101.9619 L126.3432,102.1183 L128.5764,102.4472 L130.8263,102.896 L133.0187,102.9316 L135.2916,103.5459 L135.4452,103.7381 L137.2333,105.0178 L139.4698,106.8589 L141.761,108.7683 L143.7339,110.2794 L145.8742,112 L145.8945,112.0225 L144.0981,113.5824 L142.3941,115.2448 L140.6455,116.8578 L138.982,118.5651 L137.0411,119.9648 L137.0961,120.2579 L135.1974,120.6182 L133.2632,120.7894 L131.381,121.2374 L129.5011,121.6984 L127.5442,121.7484 L127.5353,121.428 L125.2503,122.1134 L122.9361,121.7437 L120.6441,122.1761 L118.3293,121.7826 L116.0332,122.066 " fill="none" style="stroke:#000000;stroke-width:1.0;"/><polygon fill="#000000" points="110.9232,121.769,110.9553,121.8313,112.6105,122.5493,114.4539,123.6323,116.236,124.5965,117.8165,125.1698,119.6761,126.2841,119.6568,126.2669,118.8177,125.3446,118.0761,124.5091,117.4023,123.7339,116.4949,122.7507,115.9148,122.0589,116.0375,122.1968,116.6201,121.1497,117.561,120.5052,118.5456,119.9097,119.2759,119.0285,120.14,118.2976,120.148,118.3189,118.2929,118.9819,116.4743,119.7418,114.638,120.455,112.8354,121.2574,110.9232,121.769" style="stroke:#000000;stroke-width:1.0;"/><text fill="#000000" font-family="sans-serif" font-size="13" lengthAdjust="spacing" textLength="78" x="151.8742" y="116.5669">newline/skip</text><!--MD5=[830d2639a97523d908a36ed50bd2c0f3]
link default to multiline--><path d="M39.6435,135.298 L39.7052,135.3681 L37.9784,136.5184 L36.6134,138.0797 L35.1306,139.5072 L33.2604,140.4945 L31.9265,142.0911 L31.9014,142.0673 L30.3472,143.4754 L28.9192,145.0036 L27.5788,146.6153 L25.9362,147.9394 L24.7168,149.6663 L24.9128,149.815 L23.231,151.1602 L22.1214,152.9397 L21.0815,154.7723 L19.6355,156.2964 L18.4032,157.9828 L18.4297,157.9976 L17.3849,159.7793 L16.4608,161.6283 L15.4785,163.4449 L14.6071,165.3234 L13.374,167 L13.666,167.0604 L13.176,169.4491 L12.4976,171.7988 L12.095,174.2056 L11.7053,176.615 L10.9061,178.9398 L10.595,178.8629 L11.7616,181.2891 L11.9036,183.4622 L12.8245,185.8277 L12.9433,187.9951 L13.7195,190.3249 L13.6939,190.3084 L15.3625,192.6294 L16.4327,194.5659 L17.8559,196.7293 L19.3089,198.9117 L20.5479,200.9568 L20.6794,201.0869 L22.4621,202.8916 L24.4696,204.9186 L26.1134,206.5859 L28.2996,208.7898 L30.1252,210.6369 " fill="none" style="stroke:#000000;stroke-width:1.0;"/><polygon fill="#000000" points="34.1786,213.9904,34.2413,214.0216,33.178,212.1651,32.4823,210.4915,31.667,208.7584,30.4578,206.8294,29.7937,205.1715,29.7679,205.1691,29.7586,206.2845,29.8794,207.4122,30.0905,208.5484,29.9901,209.6552,30.326,210.8033,30.3434,210.987,29.1799,210.7006,28.0671,210.9506,26.9605,211.266,25.818,211.2007,24.6943,211.3356,24.7004,211.3575,26.5883,211.8563,28.5041,212.4548,30.4064,213.0052,32.3344,213.6474,34.1786,213.9904" style="stroke:#000000;stroke-width:1.0;"/><text fill="#000000" font-family="sans-serif" font-size="13" lengthAdjust="spacing" textLength="77" x="14.374" y="180.0669">start_ml_str</text><!--MD5=[368c4e896a5afbf7153856155cdc240f]
link multiline to default--><path d="M88.4303,213.983 L88.5176,214.0164 L89.0874,211.7479 L90.1688,209.675 L91.0837,207.5384 L91.4507,205.1924 L92.576,203.1362 L92.5427,203.1273 L93.0238,200.731 L93.6732,198.3797 L94.4395,196.0597 L94.8028,193.6318 L95.7305,191.355 L95.9748,191.3848 L95.7505,188.8785 L96.2394,186.4592 L96.8153,184.0505 L96.8849,181.58 L97.2208,179.142 L97.2511,179.1442 L97.0373,176.7126 L96.9612,174.2907 L96.8187,171.8642 L96.803,169.4465 L96.3739,167 L96.6632,167.0723 L96.0339,164.5415 L95.2178,161.964 L94.675,159.4549 L94.145,156.9489 L93.2093,154.3415 L92.9065,154.2362 L92.635,151.9713 L91.3666,149.3596 L90.856,147.0116 L89.565,144.392 L88.9137,141.995 " fill="none" style="stroke:#000000;stroke-width:1.0;"/><polygon fill="#000000" points="86.9754,137.166,87.0454,137.1686,86.7656,139.1294,86.8962,141.1053,86.8932,143.0762,86.4506,145.0312,86.6164,147.0083,86.5926,146.9981,86.9301,145.912,87.3876,144.8772,87.9286,143.878,88.1819,142.756,88.8382,141.806,88.9107,141.9758,89.7962,142.0572,90.8932,142.6341,92.0161,143.2715,92.9888,143.5572,94.0405,144.0278,94.0563,144.0441,92.6201,142.6478,91.2559,141.3258,89.857,139.9679,88.5244,138.6784,86.9754,137.166" style="stroke:#000000;stroke-width:1.0;"/><text fill="#000000" font-family="sans-serif" font-size="13" lengthAdjust="spacing" textLength="71" x="97.3739" y="180.0669">end_ml_str</text><!--MD5=[efac0ca2b13ac013a34bbf4d92f878d3]
link multiline to multiline--><path d="M117.0792,227.5566 L117.0799,227.65 L119.7394,227.3929 L122.4031,227.6834 L125.0654,227.7955 L127.7232,227.3213 L130.3873,227.6588 L130.3813,227.6248 L132.5718,227.8603 L134.7923,228.2674 L137.0338,228.7937 L139.2032,228.9091 L141.4735,229.6001 L141.6384,229.7826 L143.3658,231.2722 L145.5748,233.2948 L147.8426,235.3825 L149.7685,237.0917 L151.8742,239 L151.8958,239.0213 L150.1295,240.7563 L148.4616,242.5881 L146.7462,244.3732 L145.1215,246.2473 L143.2012,247.8312 L143.2676,248.122 L141.3852,248.5555 L139.4599,248.8015 L137.5974,249.322 L135.7377,249.8554 L133.785,249.9811 L133.7673,249.6611 L131.4946,250.4101 L129.1634,250.1053 L126.8767,250.6017 L124.5442,250.273 L122.2492,250.6206 " fill="none" style="stroke:#000000;stroke-width:1.0;"/><polygon fill="#000000" points="117.0792,250.4434,117.1098,250.5064,118.7903,251.1804,120.6504,252.2238,122.452,253.147,124.0613,253.6745,125.9368,254.7496,125.9178,254.7319,125.0608,253.8256,124.2991,253.0085,123.6039,252.2532,122.6799,251.2845,122.0763,250.6148,122.2022,250.7497,122.7598,249.6892,123.6852,249.0224,124.6554,248.4038,125.3646,247.5055,126.2111,246.7543,126.2196,246.7754,124.3807,247.4823,122.5806,248.2851,120.7618,249.0417,118.9787,249.8866,117.0792,250.4434" style="stroke:#000000;stroke-width:1.0;"/><text fill="#000000" font-family="sans-serif" font-size="13" lengthAdjust="spacing" textLength="83" x="157.8742" y="243.5669">newline/scan</text><!--MD5=[9451f7133e8da419293a8ca6e61bbe87]
@startuml
skinparam handwritten true
  skinparam class {
    BorderColor Black
    ArrowColor Black
  }

  [*] - -> default
  default - -> default : newline/skip
  default - -> multiline : start_ml_str
  multiline - -> multiline: newline/scan
  multiline - -> default : end_ml_str
@enduml

PlantUML version 1.2022.2beta1(Unknown compile time)
(GPL source distribution)
Java Runtime: Java(TM) SE Runtime Environment
JVM: Java HotSpot(TM) 64-Bit Server VM
Default Encoding: UTF-8
Language: en
Country: US
--></g></svg>