<?xml version="1.0" encoding="UTF-8" standalone="no"?><svg xmlns="http://www.w3.org/2000/svg" xmlns:xlink="http://www.w3.org/1999/xlink" contentScriptType="application/ecmascript" contentStyleType="text/css" height="174px" preserveAspectRatio="none" style="width:413px;height:174px;background:#FFFFFF;" version="1.1" viewBox="0 0 413 174" width="413px" zoomAndPan="magnify"><defs><filter height="300%" id="f2v5tihoz6rpy" width="300%" x="-1" y="-1"><feGaussianBlur result="blurOut" stdDeviation="2.0"/><feColorMatrix in="blurOut" result="blurOut2" type="matrix" values="0 0 0 0 0 0 0 0 0 0 0 0 0 0 0 0 0 0 .4 0"/><feOffset dx="4.0" dy="4.0" in="blurOut2" result="blurOut3"/><feBlend in="SourceGraphic" in2="blurOut3" mode="normal"/></filter></defs><g><text fill="#000000" font-family="sans-serif" font-size="18" lengthAdjust="spacing" textLength="227" x="86.5" y="16.708">Input/output of a parser</text><!--MD5=[7763e024349b4cac7a01779176319d84]
class Tokenizer--><polygon fill="#D3D3D3" filter="url(#f2v5tihoz6rpy)" points="7,35.519,7,35.7292,16.4286,35.1047,25.8571,35.7123,35.2857,35.9187,44.7143,34.8056,54.1429,35.4413,63.5714,35.0925,73,35.519,72.8722,35.519,72.9773,40.3128,72.7695,45.1065,73.1845,49.9003,72.7899,54.694,73,59.4878,73,59.29,63.5714,59.9197,54.1429,59.402,44.7143,59.556,35.2857,59.4558,25.8571,59.6663,16.4286,59.7269,7,59.4878,7.1952,59.4878,7.2237,54.694,7.2264,49.9003,7.0849,45.1065,7.1545,40.3128,7,35.519" style="stroke:#A9A9A9;stroke-width:2.0;"/><text fill="#000000" font-family="sans-serif" font-size="12" lengthAdjust="spacing" textLength="60" x="10" y="51.6577">Tokenizer</text><!--MD5=[09c4d209b07612e18b512840160e8db5]
class Grammar--><polygon fill="#D3D3D3" filter="url(#f2v5tihoz6rpy)" points="159.5,136.519,159.5,136.7292,169.6667,136.1047,179.8333,136.7123,190,136.9187,200.1667,135.8056,210.3333,136.4413,220.5,136.519,220.3578,136.519,220.3722,141.3128,220.4773,146.1065,220.2695,150.9003,220.6845,155.694,220.5,160.4878,220.5,159.8575,210.3333,160.29,200.1667,160.9197,190,160.402,179.8333,160.556,169.6667,160.4558,159.5,160.4878,159.5595,160.4878,159.5797,155.694,159.6952,150.9003,159.7237,146.1065,159.7264,141.3128,159.5,136.519" style="stroke:#A9A9A9;stroke-width:2.0;"/><text fill="#000000" font-family="sans-serif" font-size="12" lengthAdjust="spacing" textLength="55" x="162.5" y="152.6577">Grammar</text><!--MD5=[5fb322cb81d66d67b90634fed9579b86]
class parser--><polygon fill="#FFA500" filter="url(#f2v5tihoz6rpy)" points="156,35.519,156,35.7292,165.7143,35.1047,175.4286,35.7123,185.1429,35.9187,194.8571,34.8056,204.5714,35.4413,214.2857,35.0925,224,35.519,223.8722,35.519,223.9773,40.3128,223.7695,45.1065,224.1845,49.9003,223.7899,54.694,224,59.4878,224,59.29,214.2857,59.9197,204.5714,59.402,194.8571,59.556,185.1429,59.4558,175.4286,59.6663,165.7143,59.7269,156,59.4878,156.1952,59.4878,156.2237,54.694,156.2264,49.9003,156.0849,45.1065,156.1545,40.3128,156,35.519" style="stroke:#FFA500;stroke-width:2.0;"/><text fill="#000000" font-family="sans-serif" font-size="12" lengthAdjust="spacing" textLength="38" x="171" y="51.6577">Parser</text><!--MD5=[c9308e7620777282c5103b006607d64c]
class next_stage--><polygon fill="#D3D3D3" filter="url(#f2v5tihoz6rpy)" points="327,35.519,327,35.7292,337.2857,35.1047,347.5714,35.7123,357.8571,35.9187,368.1429,34.8056,378.4286,35.4413,388.7143,35.0925,399,35.519,398.8722,35.519,398.9773,40.3128,398.7695,45.1065,399.1845,49.9003,398.7899,54.694,399,59.4878,399,59.29,388.7143,59.9197,378.4286,59.402,368.1429,59.556,357.8571,59.4558,347.5714,59.6663,337.2857,59.7269,327,59.4878,327.1952,59.4878,327.2237,54.694,327.2264,49.9003,327.0849,45.1065,327.1545,40.3128,327,35.519" style="stroke:#A9A9A9;stroke-width:2.0;"/><text fill="#000000" font-family="sans-serif" font-size="12" lengthAdjust="spacing" textLength="66" x="330" y="51.6577">Next Stage</text><!--MD5=[8fed50b5e99dac3d2d29e526d1717eae]
link Tokenizer to parser--><path d="M73.2899,47.519 L73.2899,47.7993 L82.9698,46.9666 L92.6497,47.7768 L102.3296,48.0519 L112.0095,46.5678 L121.6893,47.4154 L131.3692,46.9504 L141.0491,47.0077 L150.729,47.519 " fill="none" style="stroke:#A80036;stroke-width:1.0;"/><polygon fill="#A80036" points="155.763,47.519,155.7915,47.5831,153.9069,46.5928,152.1892,45.9779,150.4171,45.2408,148.4664,44.1017,146.763,43.519,146.7447,43.5007,147.4625,44.2185,148.2726,45.0287,149.1469,45.903,149.8,46.5561,150.763,47.519,150.8935,47.6495,149.8144,48.1705,149.1164,49.0724,148.4648,50.0209,147.5428,50.6988,146.763,51.519,146.7722,51.5398,148.5587,50.7093,150.3872,49.9734,152.1954,49.1919,154.0423,48.4974,155.763,47.519" style="stroke:#A80036;stroke-width:1.0;"/><text fill="#000000" font-family="sans-serif" font-size="13" lengthAdjust="spacing" textLength="46" x="91.5" y="40.5859">Tokens</text><!--MD5=[a4f0d52ef81218c45ccc695ff8340152]
reverse link parser to Grammar--><path d="M190,64.9419 L190.2802,64.9419 L189.4476,75.1352 L190.2577,85.3285 L190.5329,95.5218 L189.0488,105.7151 L189.8964,115.9084 L189.4313,126.1017 L190,136.2949 " fill="none" style="stroke:#A80036;stroke-width:1.0;"/><polygon fill="#A80036" points="190,59.876,190.064,59.9045,189.0738,61.62,188.4589,63.5022,187.7217,65.3302,186.5827,66.9795,186,68.876,185.9817,68.8577,186.6995,67.9755,187.5096,67.1857,188.3839,66.46,189.037,65.5131,190,64.876,190.1305,65.0065,190.6514,65.5275,191.5534,66.4294,192.5018,67.3779,193.1798,68.0558,194,68.876,194.0208,68.8853,193.1903,67.0717,192.4544,65.3002,191.6728,63.5084,190.9784,61.7553,190,59.876" style="stroke:#A80036;stroke-width:1.0;"/><text fill="#000000" font-family="sans-serif" font-size="13" lengthAdjust="spacing" textLength="80" x="191" y="102.5859">Syntax rules</text><!--MD5=[659c46483abe0c9fc31db09986f6ce27]
link parser to next_stage--><path d="M224.179,47.519 L224.179,47.7993 L233.9349,46.9666 L243.6908,47.7768 L253.4467,48.0519 L263.2026,46.5678 L272.9585,47.4154 L282.7144,46.9504 L292.4703,47.0077 L302.2262,47.4282 L311.9821,46.5972 L321.738,47.519 " fill="none" style="stroke:#000000;stroke-width:1.0;"/><polygon fill="#000000" points="326.804,47.519,326.8325,47.5831,324.9479,46.5928,323.2302,45.9779,321.4581,45.2408,319.5074,44.1017,317.804,43.519,317.7857,43.5007,318.5035,44.2185,319.3136,45.0287,320.1879,45.903,320.841,46.5561,321.804,47.519,321.9345,47.6495,320.8554,48.1705,320.1574,49.0724,319.5058,50.0209,318.5838,50.6988,317.804,51.519,317.8132,51.5398,319.5997,50.7093,321.4282,49.9734,323.2364,49.1919,325.0833,48.4974,326.804,47.519" style="stroke:#000000;stroke-width:1.0;"/><text fill="#FFA500" font-family="sans-serif" font-size="13" lengthAdjust="spacing" textLength="66" x="242.5" y="40.5859">Parse tree</text><!--MD5=[21d0c7375005e2c2e3a0fb3fd3314a9c]
@startuml
skinparam handwritten true
  title Input/output of a parser

  class Tokenizer #lightgrey ##[bold]darkgrey
  class Grammar #lightgrey ##[bold]darkgrey
  class "   Parser   " as parser  #orange ##[bold]orange
  class "Next Stage" as next_stage  #lightgrey ##[bold]darkgrey

  hide members
  hide circle

  Tokenizer -> parser : Tokens
  Grammar -up-> parser : Syntax rules
  parser -> next_stage #line:black;text:orange : Parse tree
@enduml

PlantUML version 1.2021.15beta8(Unknown compile time)
(GPL source distribution)
Java Runtime: Java(TM) SE Runtime Environment
JVM: Java HotSpot(TM) 64-Bit Server VM
Default Encoding: UTF-8
Language: en
Country: US
--></g></svg>