<?xml version="1.0" encoding="UTF-8" standalone="no"?><svg xmlns="http://www.w3.org/2000/svg" xmlns:xlink="http://www.w3.org/1999/xlink" contentScriptType="application/ecmascript" contentStyleType="text/css" height="145px" preserveAspectRatio="none" style="width:196px;height:145px;background:#FFFFFF;" version="1.1" viewBox="0 0 196 145" width="196px" zoomAndPan="magnify"><defs><filter height="300%" id="f3606ldqfhgby" width="300%" x="-1" y="-1"><feGaussianBlur result="blurOut" stdDeviation="2.0"/><feColorMatrix in="blurOut" result="blurOut2" type="matrix" values="0 0 0 0 0 0 0 0 0 0 0 0 0 0 0 0 0 0 .4 0"/><feOffset dx="4.0" dy="4.0" in="blurOut2" result="blurOut3"/><feBlend in="SourceGraphic" in2="blurOut3" mode="normal"/></filter></defs><g><!--MD5=[86a0d4fc92ebb0c60aa28a7b5547f049]
class TOMLDatatype--><polygon fill="#FEFECE" filter="url(#f3606ldqfhgby)" points="7,7,7,7.2102,16.7222,6.5857,26.4444,7.1933,36.1667,7.3997,45.8889,6.2866,55.6111,6.9223,65.3333,6.5735,75.0556,6.6165,84.7778,6.9318,94.5,6.3086,104.2222,7.5536,113.9444,6.3697,123.6667,6.8022,133.3889,7.4319,143.1111,6.9142,152.8333,7.0682,162.5556,6.9681,172.2778,7.1785,182,7,182.2391,7,182.5857,17.4023,182.6711,27.8047,182.6793,38.207,182.2546,48.6094,182.4636,59.0117,182.7022,69.4141,181.2788,79.8164,182.6785,90.2188,181.7035,100.6211,182.5338,111.0234,181.505,121.4258,182,131.8281,182,131.7596,172.2778,132.5697,162.5556,131.7794,152.8333,131.9334,143.1111,132.1668,133.3889,132.2444,123.6667,131.8242,113.9444,132.1153,104.2222,131.2557,94.5,132.1125,84.7778,132.3763,75.0556,132.2727,65.3333,132.4411,55.6111,131.345,45.8889,131.1759,36.1667,131.2067,26.4444,131.7692,16.7222,131.6316,7,131.8281,7.6814,131.8281,6.8253,121.4258,6.6569,111.0234,7.2283,100.6211,6.3332,90.2188,6.4809,79.8164,7.649,69.4141,7.4357,59.0117,7.7345,48.6094,6.6782,38.207,7.3192,27.8047,7.5904,17.4023,7,7" style="stroke:#000000;stroke-width:1.5;"/><polygon fill="#A9DCDF" points="57.8108,25.6756,56.1984,27.8788,54.2912,31.1057,51.5636,33.2804,48.6974,34.4696,46.412,34.5728,43.4747,33.0855,40.7032,32.1139,38.5995,30.1412,37.4961,27.8828,36.8417,26.0845,36.2006,23.7357,35.16,21.7145,35.9596,19.741,36.6602,17.5792,39.2893,15.8695,41.139,13.6511,43.4284,12.9144,46.1501,12.2801,49.6404,12.657,51.5521,13.5585,53.7747,13.9672,56.4772,16.736,57.4193,19.659,57.8286,21.6534,57.365,24.9399" style="stroke:#000000;stroke-width:1.0;"/><path d="M48.8281,24.8125 L49.2188,25.7969 L48.8281,25.7969 C48.375,25.7969 48.2656,25.8125 48.1094,25.9219 C47.8594,26.0781 47.7031,26.3594 47.7031,26.6563 C47.7031,26.9219 47.8438,27.1719 48.0625,27.3281 C48.2031,27.4531 48.4063,27.5 48.8281,27.5 L51.1875,27.5 C51.5469,27.5 51.7656,27.4688 51.9063,27.375 C52.1563,27.2344 52.3125,26.9375 52.3125,26.6563 C52.3125,26.375 52.1719,26.125 51.9531,25.9688 C51.7813,25.8281 51.625,25.7969 51.1563,25.7969 L47.7656,17.5938 L44.0938,17.5938 C43.6406,17.5938 43.5156,17.6094 43.3594,17.7031 C43.1094,17.875 42.9531,18.1563 42.9531,18.4375 C42.9531,18.7188 43.0938,18.9688 43.3125,19.1406 C43.4844,19.25 43.6563,19.2813 44.0938,19.2813 L45.1719,19.2813 L42.5313,25.7969 C42.1094,25.7969 41.9531,25.8125 41.7969,25.9219 C41.5469,26.0781 41.3906,26.3594 41.3906,26.6563 C41.3906,27.2188 41.7656,27.5 42.5156,27.5 L44.7813,27.5 C45.1406,27.5 45.3594,27.4688 45.4844,27.375 C45.75,27.2344 45.8906,26.9375 45.8906,26.6563 C45.8906,26.375 45.7656,26.125 45.5469,25.9531 C45.375,25.8281 45.2344,25.7969 44.7813,25.7969 L44.3906,25.7969 L44.7813,24.8125 L48.8281,24.8125 Z M48.125,23.1094 L45.4531,23.1094 L46.7969,19.8438 L48.125,23.1094 Z " fill="#000000"/><text fill="#000000" font-family="sans-serif" font-size="12" font-style="italic" lengthAdjust="spacing" textLength="88" x="66.25" y="27.1543">TOMLDatatype</text><path d="M8,39 L8,39.2802 L18.1765,38.4476 L28.3529,39.2577 L38.5294,39.5329 L48.7059,38.0488 L58.8824,38.8964 L69.0588,38.4313 L79.2353,38.4887 L89.4118,38.9091 L99.5882,38.0782 L109.7647,39.7382 L119.9412,38.1596 L130.1176,38.7363 L140.2941,39.5759 L150.4706,38.8856 L160.6471,39.091 L170.8235,38.9574 L181,39 " fill="#FEFECE" style="stroke:#000000;stroke-width:1.5;"/><text fill="#000000" font-family="sans-serif" font-size="11" lengthAdjust="spacing" textLength="80" x="13" y="53.2104">value : Object</text><path d="M8,59.8047 L8,60.0849 L18.1765,59.2523 L28.3529,60.0624 L38.5294,60.3376 L48.7059,58.8535 L58.8824,59.7011 L69.0588,59.236 L79.2353,59.2934 L89.4118,59.7138 L99.5882,58.8829 L109.7647,60.5429 L119.9412,58.9643 L130.1176,59.541 L140.2941,60.3806 L150.4706,59.6903 L160.6471,59.8957 L170.8235,59.7621 L181,59.8047 " fill="#FEFECE" style="stroke:#000000;stroke-width:1.5;"/><text fill="#000000" font-family="sans-serif" font-size="11" lengthAdjust="spacing" textLength="149" x="27" y="74.0151">initialize(aValue, aFormat)</text><polygon fill="#84BE84" points="21.0166,84.3391,20.5768,84.94,20.0567,85.82,19.3128,86.4131,18.5311,86.7375,17.9078,86.7656,17.1067,86.36,16.3509,86.095,15.7771,85.557,15.4762,84.941,15.2977,84.4506,15.1229,83.81,14.8391,83.2588,15.0572,82.7206,15.2482,82.131,15.9653,81.6647,16.4697,81.0597,17.0941,80.8588,17.8364,80.6858,18.7883,80.7885,19.3097,81.0344,19.9158,81.1459,20.6529,81.901,20.9098,82.6982,21.0214,83.2421,20.895,84.1384" style="stroke:#038048;stroke-width:1.0;"/><text fill="#000000" font-family="sans-serif" font-size="11" lengthAdjust="spacing" textLength="60" x="27" y="86.8198">\==(other)</text><polygon fill="#84BE84" points="21.0166,97.1438,20.5768,97.7446,20.0567,98.6247,19.3128,99.2178,18.5311,99.5421,17.9078,99.5703,17.1067,99.1647,16.3509,98.8997,15.7771,98.3617,15.4762,97.7457,15.2977,97.2553,15.1229,96.6147,14.8391,96.0635,15.0572,95.5252,15.2482,94.9357,15.9653,94.4694,16.4697,93.8644,17.0941,93.6635,17.8364,93.4904,18.7883,93.5932,19.3097,93.8391,19.9158,93.9506,20.6529,94.7057,20.9098,95.5029,21.0214,96.0468,20.895,96.9431" style="stroke:#038048;stroke-width:1.0;"/><text fill="#000000" font-family="sans-serif" font-size="11" lengthAdjust="spacing" textLength="39" x="27" y="99.6245">to_str()</text><polygon fill="#84BE84" points="21.0166,109.9485,20.5768,110.5493,20.0567,111.4294,19.3128,112.0225,18.5311,112.3468,17.9078,112.375,17.1067,111.9694,16.3509,111.7044,15.7771,111.1663,15.4762,110.5504,15.2977,110.06,15.1229,109.4194,14.8391,108.8682,15.0572,108.3299,15.2482,107.7404,15.9653,107.2741,16.4697,106.669,17.0941,106.4681,17.8364,106.2951,18.7883,106.3979,19.3097,106.6438,19.9158,106.7553,20.6529,107.5104,20.9098,108.3076,21.0214,108.8515,20.895,109.7478" style="stroke:#038048;stroke-width:1.0;"/><text fill="#000000" font-family="sans-serif" font-size="11" lengthAdjust="spacing" textLength="80" x="27" y="112.4292">accept(visitor)</text><polygon fill="#FFFF44" points="18,117.0234,18.0495,117.073,18.7023,117.7258,19.6456,118.669,20.4942,119.5176,21.0319,120.0553,22,121.0234,21.9817,121.0051,21.0995,121.7229,20.3096,122.533,19.5839,123.4074,18.637,124.0605,18,125.0234,18.1305,125.1539,17.0514,124.0749,16.3534,123.3768,15.7018,122.7252,14.7798,121.8032,14,121.0234,14.0161,121.0395,14.7925,120.2159,15.6421,119.4655,16.4564,118.6798,17.338,117.9615,18,117.0234" style="stroke:#B38D22;stroke-width:1.0;"/><text fill="#000000" font-family="sans-serif" font-size="11" lengthAdjust="spacing" textLength="139" x="27" y="125.2339">validated_value(aValue)</text><!--MD5=[6d79f542e39120d06c98125c1e92a894]
@startuml
skinparam handwritten true
  skinparam class {
    BorderColor Black
    ArrowColor Black
  }
  ' == CLASSES =========================
abstract class TOMLDatatype {
  value : Object
  initialize(aValue, aFormat)
  +\==(other)
  +to_str()
  +accept(visitor)
  #validated_value(aValue)
}
@enduml

@startuml
skinparam handwritten true
  skinparam class {
    BorderColor Black
    ArrowColor Black
  }
abstract class TOMLDatatype {
  value : Object
  initialize(aValue, aFormat)
  +\==(other)
  +to_str()
  +accept(visitor)
  #validated_value(aValue)
}
@enduml

PlantUML version 1.2022.1beta9(Unknown compile time)
(GPL source distribution)
Java Runtime: Java(TM) SE Runtime Environment
JVM: Java HotSpot(TM) 64-Bit Server VM
Default Encoding: UTF-8
Language: en
Country: US
--></g></svg>