<?xml version="1.0" encoding="UTF-8" standalone="no"?><svg xmlns="http://www.w3.org/2000/svg" xmlns:xlink="http://www.w3.org/1999/xlink" contentScriptType="application/ecmascript" contentStyleType="text/css" height="166px" preserveAspectRatio="none" style="width:282px;height:166px;background:#FFFFFF;" version="1.1" viewBox="0 0 282 166" width="282px" zoomAndPan="magnify"><defs/><g><!--MD5=[86a0d4fc92ebb0c60aa28a7b5547f049]
class TOMLDatatype--><polygon fill="#F1F1F1" points="9.5,7,9.5,7.2102,19.3462,6.5857,29.1923,7.1933,39.0385,7.3997,48.8846,6.2866,58.7308,6.9223,68.5769,6.5735,78.4231,6.6165,88.2692,6.9318,98.1154,6.3086,107.9615,7.5536,117.8077,6.3697,127.6538,6.8022,137.5,7.4319,147.3462,6.9142,157.1923,7.0682,167.0385,6.9681,176.8846,7.1785,186.7308,7.2391,196.5769,7.5857,206.4231,7.6711,216.2692,7.6793,226.1154,7.2546,235.9615,7.4636,245.8077,7.7022,255.6538,6.2788,265.5,7,265.5866,7.209,265.8157,7.0551,266.2752,7.4573,266.4975,7.2869,266.9055,7.5647,267.2678,7.7322,267.4962,7.8268,267.3992,8.0796,267.5931,8.4528,267.8114,8.8361,267.9817,9.1995,268,9.5,267.9961,9.5,268.2872,19.5558,267.4276,29.6116,268.2844,39.6674,268.5482,49.7232,268.4445,59.779,268.613,69.8348,267.5169,79.8906,267.3478,89.9464,267.3786,100.0022,267.9411,110.058,267.8035,120.1138,268.6814,130.1696,267.8253,140.2254,268,150.2813,267.8944,150.2375,267.9239,150.6639,267.5017,150.9033,267.4008,151.2757,267.6141,151.7782,267.2678,152.049,267.3233,152.1832,267.0079,152.4217,266.5196,152.2428,266.2478,152.5867,265.9289,152.8166,265.5,152.7813,265.5,152.3088,255.6538,152.6854,245.8077,152.9072,235.9615,153.433,226.1154,152.7771,216.2692,153.2438,206.4231,152.2275,196.5769,152.104,186.7308,153.2849,176.8846,152.0643,167.0385,153.2902,157.1923,152.9879,147.3462,152.5133,137.5,152.4275,127.6538,153.24,117.8077,152.4819,107.9615,153.3731,98.1154,152.2285,88.2692,153.3987,78.4231,153.2656,68.5769,153.0262,58.7308,152.8285,48.8846,153.5079,39.0385,153.3948,29.1923,152.9505,19.3462,153.0494,9.5,152.7813,9.4834,152.7411,9.2378,152.8554,8.8126,152.536,8.4614,152.3951,8.0082,152.0081,7.7322,152.049,7.6074,151.9973,7.7492,151.7632,7.5717,151.3967,7.2797,150.9829,7.0472,150.5937,7,150.2813,6.7811,150.2813,6.3138,140.2254,7.4147,130.1696,7.7396,120.1138,7.5264,110.058,7.6949,100.0022,6.8633,89.9464,7.0872,79.8906,6.6124,69.8348,7.284,59.779,7.2468,49.7232,7.5524,39.6674,6.7703,29.6116,6.8656,19.5558,7,9.5,7.1366,9.5566,7.3212,9.2188,7.1351,8.7275,7.3796,8.4146,7.6318,8.1048,7.7322,7.7322,7.6543,7.5441,8.1309,7.6946,8.4722,7.5188,8.78,7.2619,9.1646,7.1903,9.5,7" style="stroke:#000000;stroke-width:0.5;"/><polygon fill="#A9DCDF" points="91.8108,25.6756,90.1984,27.8788,88.2912,31.1057,85.5636,33.2804,82.6974,34.4696,80.412,34.5728,77.4747,33.0855,74.7032,32.1139,72.5995,30.1412,71.4961,27.8828,70.8417,26.0845,70.2006,23.7357,69.16,21.7145,69.9596,19.741,70.6602,17.5792,73.2893,15.8695,75.139,13.6511,77.4284,12.9144,80.1501,12.2801,83.6404,12.657,85.5521,13.5585,87.7747,13.9672,90.4772,16.736,91.4193,19.659,91.8286,21.6534,91.365,24.9399" style="stroke:#181818;stroke-width:1.0;"/><path d="M82.8281,24.8125 L83.2188,25.7969 L82.8281,25.7969 C82.375,25.7969 82.2656,25.8125 82.1094,25.9219 C81.8594,26.0781 81.7031,26.3594 81.7031,26.6563 C81.7031,26.9219 81.8438,27.1719 82.0625,27.3281 C82.2031,27.4531 82.4063,27.5 82.8281,27.5 L85.1875,27.5 C85.5469,27.5 85.7656,27.4688 85.9063,27.375 C86.1563,27.2344 86.3125,26.9375 86.3125,26.6563 C86.3125,26.375 86.1719,26.125 85.9531,25.9688 C85.7813,25.8281 85.625,25.7969 85.1563,25.7969 L81.7656,17.5938 L78.0938,17.5938 C77.6406,17.5938 77.5156,17.6094 77.3594,17.7031 C77.1094,17.875 76.9531,18.1563 76.9531,18.4375 C76.9531,18.7188 77.0938,18.9688 77.3125,19.1406 C77.4844,19.25 77.6563,19.2813 78.0938,19.2813 L79.1719,19.2813 L76.5313,25.7969 C76.1094,25.7969 75.9531,25.8125 75.7969,25.9219 C75.5469,26.0781 75.3906,26.3594 75.3906,26.6563 C75.3906,27.2188 75.7656,27.5 76.5156,27.5 L78.7813,27.5 C79.1406,27.5 79.3594,27.4688 79.4844,27.375 C79.75,27.2344 79.8906,26.9375 79.8906,26.6563 C79.8906,26.375 79.7656,26.125 79.5469,25.9531 C79.375,25.8281 79.2344,25.7969 78.7813,25.7969 L78.3906,25.7969 L78.7813,24.8125 L82.8281,24.8125 Z M82.125,23.1094 L79.4531,23.1094 L80.7969,19.8438 L82.125,23.1094 Z " fill="#000000"/><text fill="#000000" font-family="sans-serif" font-size="14" font-style="italic" lengthAdjust="spacing" textLength="105" x="101.25" y="27.8467">TOMLDatatype</text><path d="M8,39 L8,39.2802 L17.9615,38.4476 L27.9231,39.2577 L37.8846,39.5329 L47.8462,38.0488 L57.8077,38.8964 L67.7692,38.4313 L77.7308,38.4887 L87.6923,38.9091 L97.6538,38.0782 L107.6154,39.7382 L117.5769,38.1596 L127.5385,38.7363 L137.5,39.5759 L147.4615,38.8856 L157.4231,39.091 L167.3846,38.9574 L177.3462,39.238 L187.3077,39.3188 L197.2692,39.7809 L207.2308,39.8947 L217.1923,39.9057 L227.1538,39.3395 L237.1154,39.6181 L247.0769,39.9363 L257.0385,38.0384 L267,39 " fill="#F1F1F1" style="stroke:#000000;stroke-width:0.5;"/><text fill="#000000" font-family="sans-serif" font-size="14" lengthAdjust="spacing" textLength="99" x="13" y="55.9951">value : Object</text><path d="M8,63.2969 L8,63.5771 L17.9615,62.7444 L27.9231,63.5546 L37.8846,63.8298 L47.8462,62.3457 L57.8077,63.1933 L67.7692,62.7282 L77.7308,62.7855 L87.6923,63.206 L97.6538,62.375 L107.6154,64.0351 L117.5769,62.4565 L127.5385,63.0332 L137.5,63.8728 L147.4615,63.1825 L157.4231,63.3879 L167.3846,63.2543 L177.3462,63.5349 L187.3077,63.6157 L197.2692,64.0778 L207.2308,64.1916 L217.1923,64.2026 L227.1538,63.6364 L237.1154,63.915 L247.0769,64.2332 L257.0385,62.3353 L267,63.2969 " fill="#F1F1F1" style="stroke:#000000;stroke-width:0.5;"/><text fill="#000000" font-family="sans-serif" font-size="14" lengthAdjust="spacing" textLength="186" x="27" y="80.292">initialize(aValue, aFormat)</text><polygon fill="#84BE84" points="21.0166,91.3235,20.5768,91.9243,20.0567,92.8044,19.3128,93.3975,18.5311,93.7218,17.9078,93.75,17.1067,93.3444,16.3509,93.0794,15.7771,92.5413,15.4762,91.9254,15.2977,91.435,15.1229,90.7944,14.8391,90.2432,15.0572,89.7049,15.2482,89.1154,15.9653,88.6491,16.4697,88.044,17.0941,87.8431,17.8364,87.6701,18.7883,87.7729,19.3097,88.0188,19.9158,88.1303,20.6529,88.8854,20.9098,89.6826,21.0214,90.2265,20.895,91.1228" style="stroke:#038048;stroke-width:1.0;"/><text fill="#000000" font-family="sans-serif" font-size="14" lengthAdjust="spacing" textLength="77" x="27" y="96.5889">\==(other)</text><polygon fill="#84BE84" points="21.0166,107.6203,20.5768,108.2212,20.0567,109.1013,19.3128,109.6944,18.5311,110.0187,17.9078,110.0468,17.1067,109.6412,16.3509,109.3762,15.7771,108.8382,15.4762,108.2223,15.2977,107.7319,15.1229,107.0913,14.8391,106.54,15.0572,106.0018,15.2482,105.4122,15.9653,104.9459,16.4697,104.3409,17.0941,104.14,17.8364,103.967,18.7883,104.0698,19.3097,104.3157,19.9158,104.4271,20.6529,105.1823,20.9098,105.9794,21.0214,106.5234,20.895,107.4197" style="stroke:#038048;stroke-width:1.0;"/><text fill="#000000" font-family="sans-serif" font-size="14" lengthAdjust="spacing" textLength="53" x="27" y="112.8857">to_str()</text><polygon fill="#84BE84" points="21.0166,123.9172,20.5768,124.5181,20.0567,125.3981,19.3128,125.9912,18.5311,126.3156,17.9078,126.3437,17.1067,125.9381,16.3509,125.6731,15.7771,125.1351,15.4762,124.5192,15.2977,124.0287,15.1229,123.3881,14.8391,122.8369,15.0572,122.2987,15.2482,121.7091,15.9653,121.2428,16.4697,120.6378,17.0941,120.4369,17.8364,120.2639,18.7883,120.3667,19.3097,120.6126,19.9158,120.724,20.6529,121.4791,20.9098,122.2763,21.0214,122.8202,20.895,123.7166" style="stroke:#038048;stroke-width:1.0;"/><text fill="#000000" font-family="sans-serif" font-size="14" lengthAdjust="spacing" textLength="105" x="27" y="129.1826">accept(visitor)</text><polygon fill="#FFFF44" points="18,134.4844,18.0495,134.5339,18.7023,135.1867,19.6456,136.1299,20.4942,136.9786,21.0319,137.5162,22,138.4844,21.9817,138.4661,21.0995,139.1838,20.3096,139.994,19.5839,140.8683,18.637,141.5214,18,142.4844,18.1305,142.6149,17.0514,141.5358,16.3534,140.8378,15.7018,140.1862,14.7798,139.2642,14,138.4844,14.0161,138.5005,14.7925,137.6768,15.6421,136.9265,16.4564,136.1407,17.338,135.4224,18,134.4844" style="stroke:#B38D22;stroke-width:1.0;"/><text fill="#000000" font-family="sans-serif" font-size="14" lengthAdjust="spacing" textLength="235" x="27" y="145.4795">validated_value(aValue, aFormat)</text><!--MD5=[8ec3a890461190b48526bd23e567461f]
@startuml
skinparam handwritten true
  skinparam class {
    BorderColor Black
    ArrowColor Black
  }
  ' == CLASSES =========================
  abstract class TOMLDatatype {
    value : Object
    initialize(aValue, aFormat)
    +\==(other)
    +to_str()
    +accept(visitor)
    #validated_value(aValue, aFormat)
  }
@enduml

@startuml
skinparam handwritten true
  skinparam class {
    BorderColor Black
    ArrowColor Black
  }
  abstract class TOMLDatatype {
    value : Object
    initialize(aValue, aFormat)
    +\==(other)
    +to_str()
    +accept(visitor)
    #validated_value(aValue, aFormat)
  }
@enduml

PlantUML version 1.2022.2beta5(Unknown compile time)
(GPL source distribution)
Java Runtime: Java(TM) SE Runtime Environment
JVM: Java HotSpot(TM) 64-Bit Server VM
Default Encoding: UTF-8
Language: en
Country: US
--></g></svg>