<?xml version="1.0" encoding="UTF-8" standalone="no"?><svg xmlns="http://www.w3.org/2000/svg" xmlns:xlink="http://www.w3.org/1999/xlink" contentScriptType="application/ecmascript" contentStyleType="text/css" height="145px" preserveAspectRatio="none" style="width:239px;height:145px;background:#FFFFFF;" version="1.1" viewBox="0 0 239 145" width="239px" zoomAndPan="magnify"><defs><filter height="300%" id="fmaohcqt4ovpu" width="300%" x="-1" y="-1"><feGaussianBlur result="blurOut" stdDeviation="2.0"/><feColorMatrix in="blurOut" result="blurOut2" type="matrix" values="0 0 0 0 0 0 0 0 0 0 0 0 0 0 0 0 0 0 .4 0"/><feOffset dx="4.0" dy="4.0" in="blurOut2" result="blurOut3"/><feBlend in="SourceGraphic" in2="blurOut3" mode="normal"/></filter></defs><g><!--MD5=[86a0d4fc92ebb0c60aa28a7b5547f049]
class TOMLDatatype--><polygon fill="#FEFECE" filter="url(#fmaohcqt4ovpu)" points="7,7,7,7.2102,16.9091,6.5857,26.8182,7.1933,36.7273,7.3997,46.6364,6.2866,56.5455,6.9223,66.4545,6.5735,76.3636,6.6165,86.2727,6.9318,96.1818,6.3086,106.0909,7.5536,116,6.3697,125.9091,6.8022,135.8182,7.4319,145.7273,6.9142,155.6364,7.0682,165.5455,6.9681,175.4545,7.1785,185.3636,7.2391,195.2727,7.5857,205.1818,7.6711,215.0909,7.6793,225,7,225.2546,7,225.4636,17.4023,225.7022,27.8047,224.2788,38.207,225.6785,48.6094,224.7035,59.0117,225.5338,69.4141,224.505,79.8164,224.9315,90.2188,225.7416,100.6211,224.9513,111.0234,225.1053,121.4258,225,131.8281,225,132.1668,215.0909,132.2444,205.1818,131.8242,195.2727,132.1153,185.3636,131.2557,175.4545,132.1125,165.5455,132.3763,155.6364,132.2727,145.7273,132.4411,135.8182,131.345,125.9091,131.1759,116,131.2067,106.0909,131.7692,96.1818,131.6316,86.2727,132.5095,76.3636,131.6534,66.4545,131.4851,56.5455,132.0564,46.6364,131.1613,36.7273,131.309,26.8182,132.4771,16.9091,132.2638,7,131.8281,7.7345,131.8281,6.6782,121.4258,7.3192,111.0234,7.5904,100.6211,6.5276,90.2188,6.9041,79.8164,7.126,69.4141,7.6518,59.0117,6.9958,48.6094,7.4626,38.207,6.4462,27.8047,6.3227,17.4023,7,7" style="stroke:#000000;stroke-width:1.5;"/><polygon fill="#A9DCDF" points="78.8108,25.6756,77.1984,27.8788,75.2912,31.1057,72.5636,33.2804,69.6974,34.4696,67.412,34.5728,64.4747,33.0855,61.7032,32.1139,59.5995,30.1412,58.4961,27.8828,57.8417,26.0845,57.2006,23.7357,56.16,21.7145,56.9596,19.741,57.6602,17.5792,60.2893,15.8695,62.139,13.6511,64.4284,12.9144,67.1501,12.2801,70.6404,12.657,72.5521,13.5585,74.7747,13.9672,77.4772,16.736,78.4193,19.659,78.8286,21.6534,78.365,24.9399" style="stroke:#000000;stroke-width:1.0;"/><path d="M69.8281,24.8125 L70.2188,25.7969 L69.8281,25.7969 C69.375,25.7969 69.2656,25.8125 69.1094,25.9219 C68.8594,26.0781 68.7031,26.3594 68.7031,26.6563 C68.7031,26.9219 68.8438,27.1719 69.0625,27.3281 C69.2031,27.4531 69.4063,27.5 69.8281,27.5 L72.1875,27.5 C72.5469,27.5 72.7656,27.4688 72.9063,27.375 C73.1563,27.2344 73.3125,26.9375 73.3125,26.6563 C73.3125,26.375 73.1719,26.125 72.9531,25.9688 C72.7813,25.8281 72.625,25.7969 72.1563,25.7969 L68.7656,17.5938 L65.0938,17.5938 C64.6406,17.5938 64.5156,17.6094 64.3594,17.7031 C64.1094,17.875 63.9531,18.1563 63.9531,18.4375 C63.9531,18.7188 64.0938,18.9688 64.3125,19.1406 C64.4844,19.25 64.6563,19.2813 65.0938,19.2813 L66.1719,19.2813 L63.5313,25.7969 C63.1094,25.7969 62.9531,25.8125 62.7969,25.9219 C62.5469,26.0781 62.3906,26.3594 62.3906,26.6563 C62.3906,27.2188 62.7656,27.5 63.5156,27.5 L65.7813,27.5 C66.1406,27.5 66.3594,27.4688 66.4844,27.375 C66.75,27.2344 66.8906,26.9375 66.8906,26.6563 C66.8906,26.375 66.7656,26.125 66.5469,25.9531 C66.375,25.8281 66.2344,25.7969 65.7813,25.7969 L65.3906,25.7969 L65.7813,24.8125 L69.8281,24.8125 Z M69.125,23.1094 L66.4531,23.1094 L67.7969,19.8438 L69.125,23.1094 Z " fill="#000000"/><text fill="#000000" font-family="sans-serif" font-size="12" font-style="italic" lengthAdjust="spacing" textLength="88" x="88.25" y="27.1543">TOMLDatatype</text><path d="M8,39 L8,39.2802 L17.8182,38.4476 L27.6364,39.2577 L37.4545,39.5329 L47.2727,38.0488 L57.0909,38.8964 L66.9091,38.4313 L76.7273,38.4887 L86.5455,38.9091 L96.3636,38.0782 L106.1818,39.7382 L116,38.1596 L125.8182,38.7363 L135.6364,39.5759 L145.4545,38.8856 L155.2727,39.091 L165.0909,38.9574 L174.9091,39.238 L184.7273,39.3188 L194.5455,39.7809 L204.3636,39.8947 L214.1818,39.9057 L224,39 " fill="#FEFECE" style="stroke:#000000;stroke-width:1.5;"/><text fill="#000000" font-family="sans-serif" font-size="11" lengthAdjust="spacing" textLength="80" x="13" y="53.2104">value : Object</text><path d="M8,59.8047 L8,60.0849 L17.8182,59.2523 L27.6364,60.0624 L37.4545,60.3376 L47.2727,58.8535 L57.0909,59.7011 L66.9091,59.236 L76.7273,59.2934 L86.5455,59.7138 L96.3636,58.8829 L106.1818,60.5429 L116,58.9643 L125.8182,59.541 L135.6364,60.3806 L145.4545,59.6903 L155.2727,59.8957 L165.0909,59.7621 L174.9091,60.0427 L184.7273,60.1235 L194.5455,60.5856 L204.3636,60.6994 L214.1818,60.7104 L224,59.8047 " fill="#FEFECE" style="stroke:#000000;stroke-width:1.5;"/><text fill="#000000" font-family="sans-serif" font-size="11" lengthAdjust="spacing" textLength="149" x="27" y="74.0151">initialize(aValue, aFormat)</text><polygon fill="#84BE84" points="21.0166,84.3391,20.5768,84.94,20.0567,85.82,19.3128,86.4131,18.5311,86.7375,17.9078,86.7656,17.1067,86.36,16.3509,86.095,15.7771,85.557,15.4762,84.941,15.2977,84.4506,15.1229,83.81,14.8391,83.2588,15.0572,82.7206,15.2482,82.131,15.9653,81.6647,16.4697,81.0597,17.0941,80.8588,17.8364,80.6858,18.7883,80.7885,19.3097,81.0344,19.9158,81.1459,20.6529,81.901,20.9098,82.6982,21.0214,83.2421,20.895,84.1384" style="stroke:#038048;stroke-width:1.0;"/><text fill="#000000" font-family="sans-serif" font-size="11" lengthAdjust="spacing" textLength="60" x="27" y="86.8198">\==(other)</text><polygon fill="#84BE84" points="21.0166,97.1438,20.5768,97.7446,20.0567,98.6247,19.3128,99.2178,18.5311,99.5421,17.9078,99.5703,17.1067,99.1647,16.3509,98.8997,15.7771,98.3617,15.4762,97.7457,15.2977,97.2553,15.1229,96.6147,14.8391,96.0635,15.0572,95.5252,15.2482,94.9357,15.9653,94.4694,16.4697,93.8644,17.0941,93.6635,17.8364,93.4904,18.7883,93.5932,19.3097,93.8391,19.9158,93.9506,20.6529,94.7057,20.9098,95.5029,21.0214,96.0468,20.895,96.9431" style="stroke:#038048;stroke-width:1.0;"/><text fill="#000000" font-family="sans-serif" font-size="11" lengthAdjust="spacing" textLength="39" x="27" y="99.6245">to_str()</text><polygon fill="#84BE84" points="21.0166,109.9485,20.5768,110.5493,20.0567,111.4294,19.3128,112.0225,18.5311,112.3468,17.9078,112.375,17.1067,111.9694,16.3509,111.7044,15.7771,111.1663,15.4762,110.5504,15.2977,110.06,15.1229,109.4194,14.8391,108.8682,15.0572,108.3299,15.2482,107.7404,15.9653,107.2741,16.4697,106.669,17.0941,106.4681,17.8364,106.2951,18.7883,106.3979,19.3097,106.6438,19.9158,106.7553,20.6529,107.5104,20.9098,108.3076,21.0214,108.8515,20.895,109.7478" style="stroke:#038048;stroke-width:1.0;"/><text fill="#000000" font-family="sans-serif" font-size="11" lengthAdjust="spacing" textLength="80" x="27" y="112.4292">accept(visitor)</text><polygon fill="#FFFF44" points="18,117.0234,18.0495,117.073,18.7023,117.7258,19.6456,118.669,20.4942,119.5176,21.0319,120.0553,22,121.0234,21.9817,121.0051,21.0995,121.7229,20.3096,122.533,19.5839,123.4074,18.637,124.0605,18,125.0234,18.1305,125.1539,17.0514,124.0749,16.3534,123.3768,15.7018,122.7252,14.7798,121.8032,14,121.0234,14.0161,121.0395,14.7925,120.2159,15.6421,119.4655,16.4564,118.6798,17.338,117.9615,18,117.0234" style="stroke:#B38D22;stroke-width:1.0;"/><text fill="#000000" font-family="sans-serif" font-size="11" lengthAdjust="spacing" textLength="192" x="27" y="125.2339">validated_value(aValue, aFormat)</text><!--MD5=[ef1f905d85c575fa8993ef0fca5b6b4b]
@startuml
skinparam handwritten true
  skinparam class {
    BorderColor Black
    ArrowColor Black
  }
  ' == CLASSES =========================
abstract class TOMLDatatype {
  value : Object
  initialize(aValue, aFormat)
  +\==(other)
  +to_str()
  +accept(visitor)
  #validated_value(aValue, aFormat)
}
@enduml

@startuml
skinparam handwritten true
  skinparam class {
    BorderColor Black
    ArrowColor Black
  }
abstract class TOMLDatatype {
  value : Object
  initialize(aValue, aFormat)
  +\==(other)
  +to_str()
  +accept(visitor)
  #validated_value(aValue, aFormat)
}
@enduml

PlantUML version 1.2022.1beta9(Unknown compile time)
(GPL source distribution)
Java Runtime: Java(TM) SE Runtime Environment
JVM: Java HotSpot(TM) 64-Bit Server VM
Default Encoding: UTF-8
Language: en
Country: US
--></g></svg>