<?xml version="1.0" encoding="UTF-8" standalone="no"?><svg xmlns="http://www.w3.org/2000/svg" xmlns:xlink="http://www.w3.org/1999/xlink" contentStyleType="text/css" height="161px" preserveAspectRatio="none" style="width:282px;height:161px;background:#FFFFFF;" version="1.1" viewBox="0 0 282 161" width="282px" zoomAndPan="magnify"><defs/><g><!--MD5=[86a0d4fc92ebb0c60aa28a7b5547f049]
class TOMLDatatype--><g id="elem_TOMLDatatype"><polygon fill="#F1F1F1" points="9.5,7,9.5,7.2102,19.3462,6.5857,29.1923,7.1933,39.0385,7.3997,48.8846,6.2866,58.7308,6.9223,68.5769,6.5735,78.4231,6.6165,88.2692,6.9318,98.1154,6.3086,107.9615,7.5536,117.8077,6.3697,127.6538,6.8022,137.5,7.4319,147.3462,6.9142,157.1923,7.0682,167.0385,6.9681,176.8846,7.1785,186.7308,7.2391,196.5769,7.5857,206.4231,7.6711,216.2692,7.6793,226.1154,7.2546,235.9615,7.4636,245.8077,7.7022,255.6538,6.2788,265.5,7,265.5866,7.209,265.8157,7.0551,266.2752,7.4573,266.4975,7.2869,266.9055,7.5647,267.2678,7.7322,267.4962,7.8268,267.3992,8.0796,267.5931,8.4528,267.8114,8.8361,267.9817,9.1995,268,9.5,267.9961,9.5,268.2872,19.1484,267.4276,28.7969,268.2844,38.4453,268.5482,48.0938,268.4445,57.7422,268.613,67.3906,267.5169,77.0391,267.3478,86.6875,267.3786,96.3359,267.9411,105.9844,267.8035,115.6328,268.6814,125.2813,267.8253,134.9297,268,144.5781,267.8944,144.5344,267.9239,144.9608,267.5017,145.2002,267.4008,145.5726,267.6141,146.0751,267.2678,146.3459,267.3233,146.4801,267.0079,146.7185,266.5196,146.5397,266.2478,146.8835,265.9289,147.1135,265.5,147.0781,265.5,146.6057,255.6538,146.9823,245.8077,147.2041,235.9615,147.7299,226.1154,147.0739,216.2692,147.5407,206.4231,146.5243,196.5769,146.4009,186.7308,147.5817,176.8846,146.3612,167.0385,147.5871,157.1923,147.2848,147.3462,146.8102,137.5,146.7244,127.6538,147.5369,117.8077,146.7788,107.9615,147.67,98.1154,146.5254,88.2692,147.6956,78.4231,147.5624,68.5769,147.3231,58.7308,147.1253,48.8846,147.8047,39.0385,147.6917,29.1923,147.2474,19.3462,147.3463,9.5,147.0781,9.4834,147.038,9.2378,147.1523,8.8126,146.8329,8.4614,146.6919,8.0082,146.305,7.7322,146.3459,7.6074,146.2942,7.7492,146.06,7.5717,145.6936,7.2797,145.2798,7.0472,144.8906,7,144.5781,6.7811,144.5781,6.3138,134.9297,7.4147,125.2813,7.7396,115.6328,7.5264,105.9844,7.6949,96.3359,6.8633,86.6875,7.0872,77.0391,6.6124,67.3906,7.284,57.7422,7.2468,48.0938,7.5524,38.4453,6.7703,28.7969,6.8656,19.1484,7,9.5,7.1366,9.5566,7.3212,9.2188,7.1351,8.7275,7.3796,8.4146,7.6318,8.1048,7.7322,7.7322,7.6543,7.5441,8.1309,7.6946,8.4722,7.5188,8.78,7.2619,9.1646,7.1903,9.5,7" style="stroke:#000000;stroke-width:0.5;"/><text fill="#000000" font-family="sans-serif" font-size="14" font-style="italic" lengthAdjust="spacing" textLength="105" x="85" y="24.9951">TOMLDatatype</text><path d="M8,33.2969 L8,33.5771 L17.9615,32.7444 L27.9231,33.5546 L37.8846,33.8298 L47.8462,32.3457 L57.8077,33.1933 L67.7692,32.7282 L77.7308,32.7855 L87.6923,33.206 L97.6538,32.375 L107.6154,34.0351 L117.5769,32.4565 L127.5385,33.0332 L137.5,33.8728 L147.4615,33.1825 L157.4231,33.3879 L167.3846,33.2543 L177.3462,33.5349 L187.3077,33.6157 L197.2692,34.0778 L207.2308,34.1916 L217.1923,34.2026 L227.1538,33.6364 L237.1154,33.915 L247.0769,34.2332 L257.0385,32.3353 L267,33.2969 " fill="#F1F1F1" style="stroke:#000000;stroke-width:0.5;"/><text fill="#000000" font-family="sans-serif" font-size="14" lengthAdjust="spacing" textLength="99" x="13" y="50.292">value : Object</text><path d="M8,57.5938 L8,57.874 L17.9615,57.0413 L27.9231,57.8515 L37.8846,58.1267 L47.8462,56.6426 L57.8077,57.4901 L67.7692,57.0251 L77.7308,57.0824 L87.6923,57.5029 L97.6538,56.6719 L107.6154,58.3319 L117.5769,56.7534 L127.5385,57.3301 L137.5,58.1697 L147.4615,57.4794 L157.4231,57.6847 L167.3846,57.5512 L177.3462,57.8318 L187.3077,57.9126 L197.2692,58.3747 L207.2308,58.4885 L217.1923,58.4994 L227.1538,57.9333 L237.1154,58.2119 L247.0769,58.5301 L257.0385,56.6322 L267,57.5938 " fill="#F1F1F1" style="stroke:#000000;stroke-width:0.5;"/><text fill="#000000" font-family="sans-serif" font-size="14" lengthAdjust="spacing" textLength="186" x="27" y="74.5889">initialize(aValue, aFormat)</text><polygon fill="#84BE84" points="21.0166,85.6203,20.5768,86.2212,20.0567,87.1013,19.3128,87.6944,18.5311,88.0187,17.9078,88.0468,17.1067,87.6412,16.3509,87.3762,15.7771,86.8382,15.4762,86.2223,15.2977,85.7319,15.1229,85.0913,14.8391,84.54,15.0572,84.0018,15.2482,83.4122,15.9653,82.9459,16.4697,82.3409,17.0941,82.14,17.8364,81.967,18.7883,82.0698,19.3097,82.3157,19.9158,82.4271,20.6529,83.1823,20.9098,83.9794,21.0214,84.5234,20.895,85.4197" style="stroke:#038048;stroke-width:1.0;"/><text fill="#000000" font-family="sans-serif" font-size="14" lengthAdjust="spacing" textLength="77" x="27" y="90.8857">\==(other)</text><polygon fill="#84BE84" points="21.0166,101.9172,20.5768,102.5181,20.0567,103.3981,19.3128,103.9912,18.5311,104.3156,17.9078,104.3437,17.1067,103.9381,16.3509,103.6731,15.7771,103.1351,15.4762,102.5192,15.2977,102.0287,15.1229,101.3881,14.8391,100.8369,15.0572,100.2987,15.2482,99.7091,15.9653,99.2428,16.4697,98.6378,17.0941,98.4369,17.8364,98.2639,18.7883,98.3667,19.3097,98.6126,19.9158,98.724,20.6529,99.4791,20.9098,100.2763,21.0214,100.8202,20.895,101.7166" style="stroke:#038048;stroke-width:1.0;"/><text fill="#000000" font-family="sans-serif" font-size="14" lengthAdjust="spacing" textLength="53" x="27" y="107.1826">to_str()</text><polygon fill="#84BE84" points="21.0166,118.2141,20.5768,118.815,20.0567,119.695,19.3128,120.2881,18.5311,120.6125,17.9078,120.6406,17.1067,120.235,16.3509,119.97,15.7771,119.432,15.4762,118.816,15.2977,118.3256,15.1229,117.685,14.8391,117.1338,15.0572,116.5956,15.2482,116.006,15.9653,115.5397,16.4697,114.9347,17.0941,114.7338,17.8364,114.5608,18.7883,114.6635,19.3097,114.9094,19.9158,115.0209,20.6529,115.776,20.9098,116.5732,21.0214,117.1171,20.895,118.0134" style="stroke:#038048;stroke-width:1.0;"/><text fill="#000000" font-family="sans-serif" font-size="14" lengthAdjust="spacing" textLength="105" x="27" y="123.4795">accept(visitor)</text><polygon fill="#FFFF44" points="18,128.7813,18.0495,128.8308,18.7023,129.4836,19.6456,130.4268,20.4942,131.2755,21.0319,131.8131,22,132.7813,21.9817,132.7629,21.0995,133.4807,20.3096,134.2909,19.5839,135.1652,18.637,135.8183,18,136.7813,18.1305,136.9117,17.0514,135.8327,16.3534,135.1346,15.7018,134.4831,14.7798,133.561,14,132.7813,14.0161,132.7973,14.7925,131.9737,15.6421,131.2233,16.4564,130.4376,17.338,129.7193,18,128.7813" style="stroke:#B38D22;stroke-width:1.0;"/><text fill="#000000" font-family="sans-serif" font-size="14" lengthAdjust="spacing" textLength="235" x="27" y="139.7764">validated_value(aValue, aFormat)</text></g><!--MD5=[7094baa3311e9b5c66aa6c0025b6abb8]
@startuml
skinparam handwritten true
  skinparam class {
    BorderColor Black
    ArrowColor Black
  }
  hide circle

  ' == CLASSES =========================
  abstract class TOMLDatatype {
    value : Object
    initialize(aValue, aFormat)
    +\==(other)
    +to_str()
    +accept(visitor)
    #validated_value(aValue, aFormat)
  }
@enduml

@startuml
skinparam handwritten true
  skinparam class {
    BorderColor Black
    ArrowColor Black
  }
  hide circle

  abstract class TOMLDatatype {
    value : Object
    initialize(aValue, aFormat)
    +\==(other)
    +to_str()
    +accept(visitor)
    #validated_value(aValue, aFormat)
  }
@enduml

PlantUML version 1.2022.2beta6(Unknown compile time)
(GPL source distribution)
Java Runtime: Java(TM) SE Runtime Environment
JVM: Java HotSpot(TM) 64-Bit Server VM
Default Encoding: UTF-8
Language: en
Country: US
--></g></svg>