<?xml version="1.0" encoding="UTF-8" standalone="no"?><svg xmlns="http://www.w3.org/2000/svg" xmlns:xlink="http://www.w3.org/1999/xlink" contentScriptType="application/ecmascript" contentStyleType="text/css" height="479px" preserveAspectRatio="none" style="width:264px;height:479px;background:#FFFFFF;" version="1.1" viewBox="0 0 264 479" width="264px" zoomAndPan="magnify"><defs/><g><ellipse cx="118.5" cy="20" fill="#222222" rx="10" ry="10" style="stroke:#222222;stroke-width:1.0;"/><rect fill="none" height="298.1406" style="stroke:#000000;stroke-width:1.5;" width="215" x="11" y="84"/><path d="M93,84 L93,93.2969 L83,103.2969 L11,103.2969 " fill="none" style="stroke:#000000;stroke-width:1.5;"/><text fill="#000000" font-family="sans-serif" font-size="14" font-weight="bold" lengthAdjust="spacing" textLength="72" x="14" y="97.9951">iteration</text><rect fill="#F1F1F1" height="33.9688" rx="12.5" ry="12.5" style="stroke:#181818;stroke-width:0.5;" width="159" x="39" y="120.2969"/><text fill="#000000" font-family="sans-serif" font-size="12" lengthAdjust="spacing" textLength="139" x="49" y="141.4355">Update TOML grammar</text><rect fill="#F1F1F1" height="33.9688" rx="12.5" ry="12.5" style="stroke:#181818;stroke-width:0.5;" width="195" x="21" y="174.2656"/><text fill="#000000" font-family="sans-serif" font-size="12" lengthAdjust="spacing" textLength="175" x="31" y="195.4043">Implement TOML literal types</text><rect fill="#F1F1F1" height="33.9688" rx="12.5" ry="12.5" style="stroke:#181818;stroke-width:0.5;" width="125" x="56" y="228.2344"/><text fill="#000000" font-family="sans-serif" font-size="12" lengthAdjust="spacing" textLength="105" x="66" y="249.373">Update tokenizer</text><rect fill="#F1F1F1" height="33.9688" rx="12.5" ry="12.5" style="stroke:#181818;stroke-width:0.5;" width="108" x="64.5" y="282.2031"/><text fill="#000000" font-family="sans-serif" font-size="12" lengthAdjust="spacing" textLength="88" x="74.5" y="303.3418">Update parser</text><rect fill="#F1F1F1" height="33.9688" rx="12.5" ry="12.5" style="stroke:#181818;stroke-width:0.5;" width="86" x="75.5" y="336.1719"/><text fill="#000000" font-family="sans-serif" font-size="12" lengthAdjust="spacing" textLength="66" x="85.5" y="357.3105">Demo time</text><polygon fill="#F1F1F1" points="118.5,50,130.5,62,118.5,74,106.5,62,118.5,50" style="stroke:#181818;stroke-width:0.5;"/><polygon fill="#F1F1F1" points="61,402.1406,176,402.1406,188,414.1406,176,426.1406,61,426.1406,49,414.1406,61,402.1406" style="stroke:#181818;stroke-width:0.5;"/><text fill="#000000" font-family="sans-serif" font-size="11" lengthAdjust="spacing" textLength="115" x="61" y="417.9487">final goal achieved?</text><ellipse cx="118.5" cy="457.1406" rx="11" ry="11" style="stroke:#222222;stroke-width:1.0;fill:none;"/><ellipse cx="118.5" cy="457.1406" fill="#222222" rx="6" ry="6" style="stroke:#111111;stroke-width:1.0;"/><line style="stroke:#181818;stroke-width:1.0;" x1="118.5" x2="118.5" y1="154.2656" y2="174.2656"/><polygon fill="#181818" points="114.5,164.2656,118.5,174.2656,122.5,164.2656,118.5,168.2656" style="stroke:#181818;stroke-width:1.0;"/><line style="stroke:#181818;stroke-width:1.0;" x1="118.5" x2="118.5" y1="208.2344" y2="228.2344"/><polygon fill="#181818" points="114.5,218.2344,118.5,228.2344,122.5,218.2344,118.5,222.2344" style="stroke:#181818;stroke-width:1.0;"/><line style="stroke:#181818;stroke-width:1.0;" x1="118.5" x2="118.5" y1="262.2031" y2="282.2031"/><polygon fill="#181818" points="114.5,272.2031,118.5,282.2031,122.5,272.2031,118.5,276.2031" style="stroke:#181818;stroke-width:1.0;"/><line style="stroke:#181818;stroke-width:1.0;" x1="118.5" x2="118.5" y1="316.1719" y2="336.1719"/><polygon fill="#181818" points="114.5,326.1719,118.5,336.1719,122.5,326.1719,118.5,330.1719" style="stroke:#181818;stroke-width:1.0;"/><line style="stroke:#181818;stroke-width:1.0;" x1="118.5" x2="118.5" y1="74" y2="120.2969"/><polygon fill="#181818" points="114.5,110.2969,118.5,120.2969,122.5,110.2969,118.5,114.2969" style="stroke:#181818;stroke-width:1.0;"/><line style="stroke:#181818;stroke-width:1.0;" x1="188" x2="238" y1="414.1406" y2="414.1406"/><polygon fill="#181818" points="234,247.0703,238,237.0703,242,247.0703,238,243.0703" style="stroke:#181818;stroke-width:1.0;"/><line style="stroke:#181818;stroke-width:1.0;" x1="238" x2="238" y1="62" y2="414.1406"/><line style="stroke:#181818;stroke-width:1.0;" x1="238" x2="130.5" y1="62" y2="62"/><polygon fill="#181818" points="140.5,58,130.5,62,140.5,66,136.5,62" style="stroke:#181818;stroke-width:1.0;"/><line style="stroke:#181818;stroke-width:1.0;" x1="118.5" x2="118.5" y1="370.1406" y2="402.1406"/><polygon fill="#181818" points="114.5,392.1406,118.5,402.1406,122.5,392.1406,118.5,396.1406" style="stroke:#181818;stroke-width:1.0;"/><line style="stroke:#181818;stroke-width:1.0;" x1="118.5" x2="118.5" y1="30" y2="50"/><polygon fill="#181818" points="114.5,40,118.5,50,122.5,40,118.5,44" style="stroke:#181818;stroke-width:1.0;"/><line style="stroke:#181818;stroke-width:1.0;" x1="118.5" x2="118.5" y1="426.1406" y2="446.1406"/><polygon fill="#181818" points="114.5,436.1406,118.5,446.1406,122.5,436.1406,118.5,440.1406" style="stroke:#181818;stroke-width:1.0;"/><!--MD5=[6d449e2124d133bb4b635f2900ccf1aa]
@startuml
start
  repeat
    partition "**iteration**" {
        :Update TOML grammar;
        :Implement TOML literal types;
        :Update tokenizer;   
        :Update parser;
        :Demo time;
    }
  repeat while (final goal achieved?)

  stop
@enduml

PlantUML version 1.2022.2beta5(Unknown compile time)
(GPL source distribution)
Java Runtime: Java(TM) SE Runtime Environment
JVM: Java HotSpot(TM) 64-Bit Server VM
Default Encoding: UTF-8
Language: en
Country: US
--></g></svg>